<svg width="496" height="496" viewBox="0 0 496 496" fill="none" xmlns="http://www.w3.org/2000/svg">
<path d="M496 248C496 384.967 384.967 496 248 496C111.033 496 0 384.967 0 248C0 111.033 111.033 0 248 0C384.967 0 496 111.033 496 248ZM90.1813 248C90.1813 335.161 160.839 405.819 248 405.819C335.161 405.819 405.819 335.161 405.819 248C405.819 160.839 335.161 90.1813 248 90.1813C160.839 90.1813 90.1813 160.839 90.1813 248Z" fill="#EDF900" fill-opacity="0.2"/>
<path d="M380.388 248C380.388 321.116 321.116 380.388 248 380.388C174.884 380.388 115.613 321.116 115.613 248C115.613 174.884 174.884 115.612 248 115.612C321.116 115.612 380.388 174.884 380.388 248ZM182.917 248C182.917 283.944 212.056 313.083 248 313.083C283.944 313.083 313.083 283.944 313.083 248C313.083 212.056 283.944 182.917 248 182.917C212.056 182.917 182.917 212.056 182.917 248Z" fill="#474747" fill-opacity="0.2"/>
</svg>
