<svg width="140" height="56" viewBox="0 0 140 56" fill="none" xmlns="http://www.w3.org/2000/svg">
<rect width="117" height="56" rx="12" fill="white"/>
<path fill-rule="evenodd" clip-rule="evenodd" d="M26.2474 15.9817H15.7523C10.7956 15.9817 9 17.8053 9 22.7444V33.2556C9 38.22 10.8208 40.0183 15.7523 40.0183H26.2474C31.2042 40.0183 32.9997 38.1946 32.9997 33.2556V22.7444C33.025 17.8053 31.2042 15.9817 26.2474 15.9817Z" fill="#C8102E"/>
<path d="M13.7554 28.0132H14.3876V31.1539H13.7554V29.8875H12.3139V31.1539H11.6816V28.0132H12.3139V29.2796H13.7554V28.0132ZM17.3465 29.8115C17.3465 30.3181 17.0936 30.5967 16.6384 30.5967C16.1832 30.5967 15.9303 30.3181 15.9303 29.7862V28.0132H15.298V29.8115C15.298 30.698 15.7785 31.2045 16.6384 31.2045C17.4982 31.2045 18.004 30.698 18.004 29.7862V28.0132H17.3718V29.8115H17.3465ZM24.7057 30.1661L23.9976 28.0132H23.4665L22.7584 30.1661L22.0756 28.0132H21.3928L22.4802 31.1539H23.0113L23.7194 29.077L24.4275 31.1539H24.9586L26.0461 28.0132H25.3885L24.7057 30.1661ZM27.2094 29.8115H28.3727V29.2289H27.2094V28.5957H28.9038V28.0132H26.6024V31.1539H28.9797V30.5713H27.2347V29.8115H27.2094ZM29.7131 31.1539H30.3453V28.0132H29.7131V31.1539ZM19.2432 30.4954L18.965 31.1539H18.3075L19.6731 28.0132H20.2295L21.5951 31.1539H20.9376L20.6594 30.4954H19.2432ZM19.4708 29.9381H20.4318L19.9513 28.8237L19.4708 29.9381Z" fill="white"/>
<path d="M21.0123 24.011C18.8122 24.011 17.0166 22.2127 17.0166 20.0092H17.573C17.573 21.9088 19.1156 23.4538 21.0123 23.4538C22.909 23.4538 24.4517 21.9088 24.4517 20.0092H25.0081C25.0081 22.2127 23.2125 24.011 21.0123 24.011Z" fill="white"/>
<path d="M46.75 24.5H44.0568V15.7727H46.8693C47.7159 15.7727 48.4403 15.9474 49.0426 16.2969C49.6449 16.6435 50.1065 17.142 50.4276 17.7926C50.7486 18.4403 50.9091 19.2159 50.9091 20.1193C50.9091 21.0284 50.7472 21.8111 50.4233 22.4673C50.0994 23.1207 49.6278 23.6236 49.0085 23.9759C48.3892 24.3253 47.6364 24.5 46.75 24.5ZM45.1136 23.5625H46.6818C47.4034 23.5625 48.0014 23.4233 48.4759 23.1449C48.9503 22.8665 49.304 22.4702 49.5369 21.956C49.7699 21.4418 49.8864 20.8295 49.8864 20.1193C49.8864 19.4148 49.7713 18.8082 49.5412 18.2997C49.3111 17.7884 48.9673 17.3963 48.5099 17.1236C48.0526 16.848 47.483 16.7102 46.8011 16.7102H45.1136V23.5625ZM55.2045 24.6364C54.6136 24.6364 54.0952 24.4957 53.6491 24.2145C53.206 23.9332 52.8594 23.5398 52.6094 23.0341C52.3622 22.5284 52.2386 21.9375 52.2386 21.2614C52.2386 20.5795 52.3622 19.9844 52.6094 19.4759C52.8594 18.9673 53.206 18.5724 53.6491 18.2912C54.0952 18.0099 54.6136 17.8693 55.2045 17.8693C55.7955 17.8693 56.3125 18.0099 56.7557 18.2912C57.2017 18.5724 57.5483 18.9673 57.7955 19.4759C58.0455 19.9844 58.1705 20.5795 58.1705 21.2614C58.1705 21.9375 58.0455 22.5284 57.7955 23.0341C57.5483 23.5398 57.2017 23.9332 56.7557 24.2145C56.3125 24.4957 55.7955 24.6364 55.2045 24.6364ZM55.2045 23.733C55.6534 23.733 56.0227 23.6179 56.3125 23.3878C56.6023 23.1577 56.8168 22.8551 56.956 22.4801C57.0952 22.1051 57.1648 21.6989 57.1648 21.2614C57.1648 20.8239 57.0952 20.4162 56.956 20.0384C56.8168 19.6605 56.6023 19.3551 56.3125 19.1222C56.0227 18.8892 55.6534 18.7727 55.2045 18.7727C54.7557 18.7727 54.3864 18.8892 54.0966 19.1222C53.8068 19.3551 53.5923 19.6605 53.4531 20.0384C53.3139 20.4162 53.2443 20.8239 53.2443 21.2614C53.2443 21.6989 53.3139 22.1051 53.4531 22.4801C53.5923 22.8551 53.8068 23.1577 54.0966 23.3878C54.3864 23.6179 54.7557 23.733 55.2045 23.733ZM60.9659 24.5L58.9716 17.9545H60.0284L61.4432 22.9659H61.5114L62.9091 17.9545H63.983L65.3636 22.9489H65.4318L66.8466 17.9545H67.9034L65.9091 24.5H64.9205L63.4886 19.4716H63.3864L61.9545 24.5H60.9659ZM70.2386 20.5625V24.5H69.233V17.9545H70.2045V18.9773H70.2898C70.4432 18.6449 70.6761 18.3778 70.9886 18.1761C71.3011 17.9716 71.7045 17.8693 72.1989 17.8693C72.642 17.8693 73.0298 17.9602 73.3622 18.142C73.6946 18.321 73.9531 18.5938 74.1378 18.9602C74.3224 19.3239 74.4148 19.7841 74.4148 20.3409V24.5H73.4091V20.4091C73.4091 19.8949 73.2756 19.4943 73.0085 19.2074C72.7415 18.9176 72.375 18.7727 71.9091 18.7727C71.5881 18.7727 71.3011 18.8423 71.0483 18.9815C70.7983 19.1207 70.6009 19.3239 70.456 19.5909C70.3111 19.858 70.2386 20.1818 70.2386 20.5625ZM77.2582 15.7727V24.5H76.2525V15.7727H77.2582ZM81.7592 24.6364C81.1683 24.6364 80.6499 24.4957 80.2038 24.2145C79.7607 23.9332 79.4141 23.5398 79.1641 23.0341C78.9169 22.5284 78.7933 21.9375 78.7933 21.2614C78.7933 20.5795 78.9169 19.9844 79.1641 19.4759C79.4141 18.9673 79.7607 18.5724 80.2038 18.2912C80.6499 18.0099 81.1683 17.8693 81.7592 17.8693C82.3501 17.8693 82.8672 18.0099 83.3104 18.2912C83.7564 18.5724 84.103 18.9673 84.3501 19.4759C84.6001 19.9844 84.7251 20.5795 84.7251 21.2614C84.7251 21.9375 84.6001 22.5284 84.3501 23.0341C84.103 23.5398 83.7564 23.9332 83.3104 24.2145C82.8672 24.4957 82.3501 24.6364 81.7592 24.6364ZM81.7592 23.733C82.2081 23.733 82.5774 23.6179 82.8672 23.3878C83.157 23.1577 83.3714 22.8551 83.5107 22.4801C83.6499 22.1051 83.7195 21.6989 83.7195 21.2614C83.7195 20.8239 83.6499 20.4162 83.5107 20.0384C83.3714 19.6605 83.157 19.3551 82.8672 19.1222C82.5774 18.8892 82.2081 18.7727 81.7592 18.7727C81.3104 18.7727 80.9411 18.8892 80.6513 19.1222C80.3615 19.3551 80.147 19.6605 80.0078 20.0384C79.8686 20.4162 79.799 20.8239 79.799 21.2614C79.799 21.6989 79.8686 22.1051 80.0078 22.4801C80.147 22.8551 80.3615 23.1577 80.6513 23.3878C80.9411 23.6179 81.3104 23.733 81.7592 23.733ZM88.1864 24.6534C87.7717 24.6534 87.3952 24.5753 87.0572 24.419C86.7191 24.2599 86.4506 24.0312 86.2518 23.733C86.0529 23.4318 85.9535 23.0682 85.9535 22.642C85.9535 22.267 86.0273 21.9631 86.1751 21.7301C86.3228 21.4943 86.5202 21.3097 86.7674 21.1761C87.0146 21.0426 87.2873 20.9432 87.5856 20.8778C87.8867 20.8097 88.1893 20.7557 88.4933 20.7159C88.891 20.6648 89.2134 20.6264 89.4606 20.6009C89.7106 20.5724 89.8924 20.5256 90.006 20.4602C90.1225 20.3949 90.1808 20.2812 90.1808 20.1193V20.0852C90.1808 19.6648 90.0657 19.3381 89.8356 19.1051C89.6083 18.8722 89.2631 18.7557 88.8001 18.7557C88.32 18.7557 87.9435 18.8608 87.6708 19.071C87.3981 19.2812 87.2063 19.5057 87.0955 19.7443L86.141 19.4034C86.3114 19.0057 86.5387 18.696 86.8228 18.4744C87.1097 18.25 87.4222 18.0937 87.7603 18.0057C88.1012 17.9148 88.4364 17.8693 88.766 17.8693C88.9762 17.8693 89.2177 17.8949 89.4904 17.946C89.766 17.9943 90.0316 18.0952 90.2873 18.2486C90.5458 18.402 90.7603 18.6335 90.9308 18.9432C91.1012 19.2528 91.1864 19.6676 91.1864 20.1875V24.5H90.1808V23.6136H90.1296C90.0614 23.7557 89.9478 23.9077 89.7887 24.0696C89.6296 24.2315 89.418 24.3693 89.1538 24.483C88.8896 24.5966 88.5671 24.6534 88.1864 24.6534ZM88.3398 23.75C88.7376 23.75 89.0728 23.6719 89.3455 23.5156C89.6211 23.3594 89.8285 23.1577 89.9677 22.9105C90.1097 22.6634 90.1808 22.4034 90.1808 22.1307V21.2102C90.1381 21.2614 90.0444 21.3082 89.8995 21.3509C89.7575 21.3906 89.5927 21.4261 89.4052 21.4574C89.2205 21.4858 89.0401 21.5114 88.864 21.5341C88.6907 21.554 88.5501 21.571 88.4421 21.5852C88.1808 21.6193 87.9364 21.6747 87.7092 21.7514C87.4847 21.8253 87.3029 21.9375 87.1637 22.0881C87.0273 22.2358 86.9592 22.4375 86.9592 22.6932C86.9592 23.0426 87.0884 23.3068 87.3469 23.4858C87.6083 23.6619 87.9393 23.75 88.3398 23.75ZM95.4936 24.6364C94.9482 24.6364 94.4666 24.4986 94.049 24.223C93.6314 23.9446 93.3047 23.5526 93.0689 23.0469C92.8331 22.5384 92.7152 21.9375 92.7152 21.2443C92.7152 20.5568 92.8331 19.9602 93.0689 19.4545C93.3047 18.9489 93.6328 18.5582 94.0533 18.2827C94.4737 18.0071 94.9595 17.8693 95.5107 17.8693C95.9368 17.8693 96.2734 17.9403 96.5206 18.0824C96.7706 18.2216 96.9609 18.3807 97.0916 18.5597C97.2251 18.7358 97.3288 18.8807 97.4027 18.9943H97.4879V15.7727H98.4936V24.5H97.522V23.4943H97.4027C97.3288 23.6136 97.2237 23.7642 97.0874 23.946C96.951 24.125 96.7564 24.2855 96.5036 24.4276C96.2507 24.5668 95.9141 24.6364 95.4936 24.6364ZM95.63 23.733C96.0334 23.733 96.3743 23.6278 96.6527 23.4176C96.9311 23.2045 97.1428 22.9105 97.2876 22.5355C97.4325 22.1577 97.505 21.7216 97.505 21.2273C97.505 20.7386 97.4339 20.3111 97.2919 19.9446C97.1499 19.5753 96.9396 19.2884 96.6612 19.0838C96.3828 18.8764 96.0391 18.7727 95.63 18.7727C95.2038 18.7727 94.8487 18.8821 94.5646 19.1009C94.2834 19.3168 94.0717 19.6108 93.9297 19.983C93.7905 20.3523 93.7209 20.767 93.7209 21.2273C93.7209 21.6932 93.7919 22.1165 93.9339 22.4972C94.0788 22.875 94.2919 23.1761 94.5732 23.4006C94.8572 23.6222 95.2095 23.733 95.63 23.733Z" fill="black"/>
<path d="M47.8398 31.4287L44.5449 40.5H43.1982L46.9922 30.5469H47.8604L47.8398 31.4287ZM50.6016 40.5L47.2998 31.4287L47.2793 30.5469H48.1475L51.9551 40.5H50.6016ZM50.4307 36.8154V37.8955H44.8389V36.8154H50.4307ZM54.3613 34.5254V43.3438H53.0898V33.1035H54.252L54.3613 34.5254ZM59.3447 36.7402V36.8838C59.3447 37.4215 59.2809 37.9206 59.1533 38.3809C59.0257 38.8366 58.8389 39.2331 58.5928 39.5703C58.3512 39.9076 58.0527 40.1696 57.6973 40.3564C57.3418 40.5433 56.9339 40.6367 56.4736 40.6367C56.0042 40.6367 55.5895 40.5592 55.2295 40.4043C54.8695 40.2493 54.5641 40.0238 54.3135 39.7275C54.0628 39.4313 53.8623 39.0758 53.7119 38.6611C53.5661 38.2464 53.4658 37.7793 53.4111 37.2598V36.4941C53.4658 35.9473 53.5684 35.4574 53.7188 35.0244C53.8691 34.5915 54.0674 34.2223 54.3135 33.917C54.5641 33.6071 54.8672 33.3724 55.2227 33.2129C55.5781 33.0488 55.9883 32.9668 56.4531 32.9668C56.918 32.9668 57.3304 33.0579 57.6904 33.2402C58.0505 33.418 58.3535 33.6732 58.5996 34.0059C58.8457 34.3385 59.0303 34.7373 59.1533 35.2021C59.2809 35.6624 59.3447 36.1751 59.3447 36.7402ZM58.0732 36.8838V36.7402C58.0732 36.3711 58.0345 36.0247 57.957 35.7012C57.8796 35.373 57.7588 35.0859 57.5947 34.8398C57.4352 34.5892 57.2301 34.3932 56.9795 34.252C56.7288 34.1061 56.4303 34.0332 56.084 34.0332C55.765 34.0332 55.487 34.0879 55.25 34.1973C55.0176 34.3066 54.8193 34.4548 54.6553 34.6416C54.4912 34.8239 54.3568 35.0335 54.252 35.2705C54.1517 35.5029 54.0765 35.7445 54.0264 35.9951V37.7656C54.1175 38.0846 54.2451 38.3854 54.4092 38.668C54.5732 38.946 54.792 39.1715 55.0654 39.3447C55.3389 39.5133 55.6829 39.5977 56.0977 39.5977C56.4395 39.5977 56.7334 39.527 56.9795 39.3857C57.2301 39.2399 57.4352 39.0417 57.5947 38.791C57.7588 38.5404 57.8796 38.2533 57.957 37.9297C58.0345 37.6016 58.0732 37.2529 58.0732 36.8838ZM62.2227 34.5254V43.3438H60.9512V33.1035H62.1133L62.2227 34.5254ZM67.2061 36.7402V36.8838C67.2061 37.4215 67.1423 37.9206 67.0146 38.3809C66.887 38.8366 66.7002 39.2331 66.4541 39.5703C66.2126 39.9076 65.9141 40.1696 65.5586 40.3564C65.2031 40.5433 64.7952 40.6367 64.335 40.6367C63.8656 40.6367 63.4508 40.5592 63.0908 40.4043C62.7308 40.2493 62.4255 40.0238 62.1748 39.7275C61.9242 39.4313 61.7236 39.0758 61.5732 38.6611C61.4274 38.2464 61.3271 37.7793 61.2725 37.2598V36.4941C61.3271 35.9473 61.4297 35.4574 61.5801 35.0244C61.7305 34.5915 61.9287 34.2223 62.1748 33.917C62.4255 33.6071 62.7285 33.3724 63.084 33.2129C63.4395 33.0488 63.8496 32.9668 64.3145 32.9668C64.7793 32.9668 65.1917 33.0579 65.5518 33.2402C65.9118 33.418 66.2148 33.6732 66.4609 34.0059C66.707 34.3385 66.8916 34.7373 67.0146 35.2021C67.1423 35.6624 67.2061 36.1751 67.2061 36.7402ZM65.9346 36.8838V36.7402C65.9346 36.3711 65.8958 36.0247 65.8184 35.7012C65.7409 35.373 65.6201 35.0859 65.4561 34.8398C65.2965 34.5892 65.0915 34.3932 64.8408 34.252C64.5902 34.1061 64.2917 34.0332 63.9453 34.0332C63.6263 34.0332 63.3483 34.0879 63.1113 34.1973C62.8789 34.3066 62.6807 34.4548 62.5166 34.6416C62.3525 34.8239 62.2181 35.0335 62.1133 35.2705C62.013 35.5029 61.9378 35.7445 61.8877 35.9951V37.7656C61.9788 38.0846 62.1064 38.3854 62.2705 38.668C62.4346 38.946 62.6533 39.1715 62.9268 39.3447C63.2002 39.5133 63.5443 39.5977 63.959 39.5977C64.3008 39.5977 64.5947 39.527 64.8408 39.3857C65.0915 39.2399 65.2965 39.0417 65.4561 38.791C65.6201 38.5404 65.7409 38.2533 65.8184 37.9297C65.8958 37.6016 65.9346 37.2529 65.9346 36.8838ZM76.3662 35.5439V39.1875C76.2432 39.3698 76.0472 39.5749 75.7783 39.8027C75.5094 40.026 75.138 40.222 74.6641 40.3906C74.1947 40.5547 73.5885 40.6367 72.8457 40.6367C72.2396 40.6367 71.6813 40.5319 71.1709 40.3223C70.665 40.1081 70.2253 39.7982 69.8516 39.3926C69.4824 38.9824 69.1953 38.4857 68.9902 37.9023C68.7897 37.3145 68.6895 36.6491 68.6895 35.9062V35.1338C68.6895 34.391 68.776 33.7279 68.9492 33.1445C69.127 32.5612 69.3867 32.0667 69.7285 31.6611C70.0703 31.251 70.4896 30.9411 70.9863 30.7314C71.4831 30.5173 72.0527 30.4102 72.6953 30.4102C73.4564 30.4102 74.0921 30.5423 74.6025 30.8066C75.1175 31.0664 75.5186 31.4264 75.8057 31.8867C76.0973 32.347 76.2842 32.8711 76.3662 33.459H75.0469C74.9876 33.099 74.8691 32.7708 74.6914 32.4746C74.5182 32.1784 74.2699 31.9414 73.9463 31.7637C73.6227 31.5814 73.2057 31.4902 72.6953 31.4902C72.235 31.4902 71.8363 31.5745 71.499 31.7432C71.1618 31.9118 70.8838 32.1533 70.665 32.4678C70.4463 32.7822 70.2822 33.1628 70.1729 33.6094C70.068 34.056 70.0156 34.5596 70.0156 35.1201V35.9062C70.0156 36.4805 70.0817 36.9932 70.2139 37.4443C70.3506 37.8955 70.5443 38.2806 70.7949 38.5996C71.0456 38.9141 71.3441 39.1533 71.6904 39.3174C72.0413 39.4814 72.4287 39.5635 72.8525 39.5635C73.3219 39.5635 73.7025 39.5247 73.9941 39.4473C74.2858 39.3652 74.5137 39.2695 74.6777 39.1602C74.8418 39.0462 74.9671 38.9391 75.0537 38.8389V36.6104H72.75V35.5439H76.3662ZM82.7236 39.2354V35.4277C82.7236 35.1361 82.6644 34.8831 82.5459 34.6689C82.432 34.4502 82.2588 34.2816 82.0264 34.1631C81.7939 34.0446 81.5068 33.9854 81.165 33.9854C80.846 33.9854 80.5658 34.04 80.3242 34.1494C80.0872 34.2588 79.9004 34.4023 79.7637 34.5801C79.6315 34.7578 79.5654 34.9492 79.5654 35.1543H78.3008C78.3008 34.89 78.3691 34.6279 78.5059 34.3682C78.6426 34.1084 78.8385 33.8737 79.0938 33.6641C79.3535 33.4499 79.6634 33.2812 80.0234 33.1582C80.388 33.0306 80.7936 32.9668 81.2402 32.9668C81.778 32.9668 82.252 33.0579 82.6621 33.2402C83.0768 33.4225 83.4004 33.6982 83.6328 34.0674C83.8698 34.432 83.9883 34.89 83.9883 35.4414V38.8867C83.9883 39.1328 84.0088 39.3949 84.0498 39.6729C84.0954 39.9508 84.1615 40.1901 84.248 40.3906V40.5H82.9287C82.8649 40.3542 82.8148 40.1605 82.7783 39.9189C82.7419 39.6729 82.7236 39.445 82.7236 39.2354ZM82.9424 36.0156L82.9561 36.9043H81.6777C81.3177 36.9043 80.9964 36.9339 80.7139 36.9932C80.4313 37.0479 80.1943 37.1322 80.0029 37.2461C79.8115 37.36 79.6657 37.5036 79.5654 37.6768C79.4652 37.8454 79.415 38.0436 79.415 38.2715C79.415 38.5039 79.4674 38.7158 79.5723 38.9072C79.6771 39.0986 79.8343 39.2513 80.0439 39.3652C80.2581 39.4746 80.5202 39.5293 80.8301 39.5293C81.2174 39.5293 81.5592 39.4473 81.8555 39.2832C82.1517 39.1191 82.3864 38.9186 82.5596 38.6816C82.7373 38.4447 82.833 38.2145 82.8467 37.9912L83.3867 38.5996C83.3548 38.791 83.2682 39.0029 83.127 39.2354C82.9857 39.4678 82.7965 39.6911 82.5596 39.9053C82.3271 40.1149 82.0492 40.2904 81.7256 40.4316C81.4066 40.5684 81.0465 40.6367 80.6455 40.6367C80.1442 40.6367 79.7044 40.5387 79.3262 40.3428C78.9525 40.1468 78.6608 39.8848 78.4512 39.5566C78.2461 39.224 78.1436 38.8525 78.1436 38.4424C78.1436 38.0459 78.221 37.6973 78.376 37.3965C78.5309 37.0911 78.7542 36.8382 79.0459 36.6377C79.3376 36.4326 79.6885 36.2777 80.0986 36.1729C80.5088 36.068 80.9668 36.0156 81.4727 36.0156H82.9424ZM87.3516 30V40.5H86.0801V30H87.3516ZM90.7559 30V40.5H89.4844V30H90.7559ZM95.8555 40.6367C95.3405 40.6367 94.8734 40.5501 94.4541 40.377C94.0394 40.1992 93.6816 39.9508 93.3809 39.6318C93.0846 39.3128 92.8568 38.9346 92.6973 38.4971C92.5378 38.0596 92.458 37.5811 92.458 37.0615V36.7744C92.458 36.1729 92.5469 35.6374 92.7246 35.168C92.9023 34.694 93.1439 34.293 93.4492 33.9648C93.7546 33.6367 94.1009 33.3883 94.4883 33.2197C94.8757 33.0511 95.2767 32.9668 95.6914 32.9668C96.2201 32.9668 96.6758 33.0579 97.0586 33.2402C97.446 33.4225 97.7627 33.6777 98.0088 34.0059C98.2549 34.3294 98.4372 34.7122 98.5557 35.1543C98.6742 35.5918 98.7334 36.0703 98.7334 36.5898V37.1572H93.21V36.125H97.4688V36.0293C97.4505 35.7012 97.3822 35.3822 97.2637 35.0723C97.1497 34.7624 96.9674 34.5072 96.7168 34.3066C96.4661 34.1061 96.1243 34.0059 95.6914 34.0059C95.4043 34.0059 95.14 34.0674 94.8984 34.1904C94.6569 34.3089 94.4495 34.4867 94.2764 34.7236C94.1032 34.9606 93.9688 35.25 93.873 35.5918C93.7773 35.9336 93.7295 36.3278 93.7295 36.7744V37.0615C93.7295 37.4124 93.7773 37.7428 93.873 38.0527C93.9733 38.3581 94.1169 38.627 94.3037 38.8594C94.4951 39.0918 94.7253 39.2741 94.9941 39.4062C95.2676 39.5384 95.5775 39.6045 95.9238 39.6045C96.3704 39.6045 96.7487 39.5133 97.0586 39.3311C97.3685 39.1488 97.6396 38.9049 97.8721 38.5996L98.6377 39.208C98.4782 39.4495 98.2754 39.6797 98.0293 39.8984C97.7832 40.1172 97.4801 40.2949 97.1201 40.4316C96.7646 40.5684 96.3431 40.6367 95.8555 40.6367ZM101.475 34.2656V40.5H100.21V33.1035H101.44L101.475 34.2656ZM103.785 33.0625L103.778 34.2383C103.674 34.2155 103.573 34.2018 103.478 34.1973C103.386 34.1882 103.282 34.1836 103.163 34.1836C102.871 34.1836 102.614 34.2292 102.391 34.3203C102.167 34.4115 101.978 34.5391 101.823 34.7031C101.668 34.8672 101.545 35.0632 101.454 35.291C101.368 35.5143 101.311 35.7604 101.283 36.0293L100.928 36.2344C100.928 35.7878 100.971 35.3685 101.058 34.9766C101.149 34.5846 101.288 34.2383 101.475 33.9375C101.661 33.6322 101.898 33.3952 102.186 33.2266C102.477 33.0534 102.824 32.9668 103.225 32.9668C103.316 32.9668 103.421 32.9782 103.539 33.001C103.658 33.0192 103.74 33.0397 103.785 33.0625ZM107.155 39.7344L109.213 33.1035H110.566L107.6 41.6416C107.531 41.8239 107.44 42.0199 107.326 42.2295C107.217 42.4437 107.076 42.6465 106.902 42.8379C106.729 43.0293 106.52 43.1842 106.273 43.3027C106.032 43.4258 105.743 43.4873 105.405 43.4873C105.305 43.4873 105.177 43.4736 105.022 43.4463C104.868 43.4189 104.758 43.3962 104.694 43.3779L104.688 42.3525C104.724 42.3571 104.781 42.3617 104.858 42.3662C104.94 42.3753 104.997 42.3799 105.029 42.3799C105.316 42.3799 105.56 42.3411 105.761 42.2637C105.961 42.1908 106.13 42.0654 106.267 41.8877C106.408 41.7145 106.529 41.4753 106.629 41.1699L107.155 39.7344ZM105.645 33.1035L107.565 38.8457L107.894 40.1787L106.984 40.6436L104.264 33.1035H105.645Z" fill="black"/>
</svg>
