<svg width="140" height="56" viewBox="0 0 140 56" fill="none" xmlns="http://www.w3.org/2000/svg">
<path d="M0 12C0 5.37258 5.37258 0 12 0H105C111.627 0 117 5.37258 117 12V44C117 50.6274 111.627 56 105 56H12C5.37258 56 0 50.6274 0 44V12Z" fill="white"/>
<path d="M29.0454 29.0712C29.06 27.9549 29.3603 26.8605 29.9185 25.8896C30.4766 24.9187 31.2745 24.103 32.2378 23.5184C31.6258 22.6555 30.8185 21.9455 29.8799 21.4446C28.9414 20.9437 27.8975 20.6657 26.8311 20.6327C24.5563 20.397 22.3509 21.9766 21.1917 21.9766C20.0101 21.9766 18.2253 20.6562 16.3034 20.6952C15.0603 20.7348 13.8487 21.0917 12.7869 21.7311C11.725 22.3704 10.8489 23.2704 10.2441 24.3433C7.62419 28.8214 9.57842 35.4026 12.0881 39.0224C13.3437 40.7948 14.8112 42.7747 16.7314 42.7045C18.6104 42.6276 19.3122 41.5217 21.5803 41.5217C23.8273 41.5217 24.4857 42.7045 26.4449 42.6599C28.4611 42.6276 29.7315 40.8795 30.9431 39.0903C31.8452 37.8273 32.5394 36.4315 33 34.9545C31.8286 34.4654 30.829 33.6466 30.1257 32.6004C29.4225 31.5542 29.0468 30.3268 29.0454 29.0712Z" fill="#262626"/>
<path d="M25.3453 17.9618C26.4446 16.6589 26.9862 14.9843 26.8551 13.2936C25.1755 13.4677 23.6241 14.2602 22.5099 15.5131C21.9651 16.1251 21.5479 16.8372 21.282 17.6086C21.0162 18.3799 20.9069 19.1954 20.9605 20.0085C21.8006 20.017 22.6317 19.8373 23.3912 19.4827C24.1507 19.1282 24.8188 18.6082 25.3453 17.9618Z" fill="#262626"/>
<path d="M46.75 24.5H44.0568V15.7727H46.8693C47.7159 15.7727 48.4403 15.9474 49.0426 16.2969C49.6449 16.6435 50.1065 17.142 50.4276 17.7926C50.7486 18.4403 50.9091 19.2159 50.9091 20.1193C50.9091 21.0284 50.7472 21.8111 50.4233 22.4673C50.0994 23.1207 49.6278 23.6236 49.0085 23.9759C48.3892 24.3253 47.6364 24.5 46.75 24.5ZM45.1136 23.5625H46.6818C47.4034 23.5625 48.0014 23.4233 48.4759 23.1449C48.9503 22.8665 49.304 22.4702 49.5369 21.956C49.7699 21.4418 49.8864 20.8295 49.8864 20.1193C49.8864 19.4148 49.7713 18.8082 49.5412 18.2997C49.3111 17.7884 48.9673 17.3963 48.5099 17.1236C48.0526 16.848 47.483 16.7102 46.8011 16.7102H45.1136V23.5625ZM55.2045 24.6364C54.6136 24.6364 54.0952 24.4957 53.6491 24.2145C53.206 23.9332 52.8594 23.5398 52.6094 23.0341C52.3622 22.5284 52.2386 21.9375 52.2386 21.2614C52.2386 20.5795 52.3622 19.9844 52.6094 19.4759C52.8594 18.9673 53.206 18.5724 53.6491 18.2912C54.0952 18.0099 54.6136 17.8693 55.2045 17.8693C55.7955 17.8693 56.3125 18.0099 56.7557 18.2912C57.2017 18.5724 57.5483 18.9673 57.7955 19.4759C58.0455 19.9844 58.1705 20.5795 58.1705 21.2614C58.1705 21.9375 58.0455 22.5284 57.7955 23.0341C57.5483 23.5398 57.2017 23.9332 56.7557 24.2145C56.3125 24.4957 55.7955 24.6364 55.2045 24.6364ZM55.2045 23.733C55.6534 23.733 56.0227 23.6179 56.3125 23.3878C56.6023 23.1577 56.8168 22.8551 56.956 22.4801C57.0952 22.1051 57.1648 21.6989 57.1648 21.2614C57.1648 20.8239 57.0952 20.4162 56.956 20.0384C56.8168 19.6605 56.6023 19.3551 56.3125 19.1222C56.0227 18.8892 55.6534 18.7727 55.2045 18.7727C54.7557 18.7727 54.3864 18.8892 54.0966 19.1222C53.8068 19.3551 53.5923 19.6605 53.4531 20.0384C53.3139 20.4162 53.2443 20.8239 53.2443 21.2614C53.2443 21.6989 53.3139 22.1051 53.4531 22.4801C53.5923 22.8551 53.8068 23.1577 54.0966 23.3878C54.3864 23.6179 54.7557 23.733 55.2045 23.733ZM60.9659 24.5L58.9716 17.9545H60.0284L61.4432 22.9659H61.5114L62.9091 17.9545H63.983L65.3636 22.9489H65.4318L66.8466 17.9545H67.9034L65.9091 24.5H64.9205L63.4886 19.4716H63.3864L61.9545 24.5H60.9659ZM70.2386 20.5625V24.5H69.233V17.9545H70.2045V18.9773H70.2898C70.4432 18.6449 70.6761 18.3778 70.9886 18.1761C71.3011 17.9716 71.7045 17.8693 72.1989 17.8693C72.642 17.8693 73.0298 17.9602 73.3622 18.142C73.6946 18.321 73.9531 18.5938 74.1378 18.9602C74.3224 19.3239 74.4148 19.7841 74.4148 20.3409V24.5H73.4091V20.4091C73.4091 19.8949 73.2756 19.4943 73.0085 19.2074C72.7415 18.9176 72.375 18.7727 71.9091 18.7727C71.5881 18.7727 71.3011 18.8423 71.0483 18.9815C70.7983 19.1207 70.6009 19.3239 70.456 19.5909C70.3111 19.858 70.2386 20.1818 70.2386 20.5625ZM77.2582 15.7727V24.5H76.2525V15.7727H77.2582ZM81.7592 24.6364C81.1683 24.6364 80.6499 24.4957 80.2038 24.2145C79.7607 23.9332 79.4141 23.5398 79.1641 23.0341C78.9169 22.5284 78.7933 21.9375 78.7933 21.2614C78.7933 20.5795 78.9169 19.9844 79.1641 19.4759C79.4141 18.9673 79.7607 18.5724 80.2038 18.2912C80.6499 18.0099 81.1683 17.8693 81.7592 17.8693C82.3501 17.8693 82.8672 18.0099 83.3104 18.2912C83.7564 18.5724 84.103 18.9673 84.3501 19.4759C84.6001 19.9844 84.7251 20.5795 84.7251 21.2614C84.7251 21.9375 84.6001 22.5284 84.3501 23.0341C84.103 23.5398 83.7564 23.9332 83.3104 24.2145C82.8672 24.4957 82.3501 24.6364 81.7592 24.6364ZM81.7592 23.733C82.2081 23.733 82.5774 23.6179 82.8672 23.3878C83.157 23.1577 83.3714 22.8551 83.5107 22.4801C83.6499 22.1051 83.7195 21.6989 83.7195 21.2614C83.7195 20.8239 83.6499 20.4162 83.5107 20.0384C83.3714 19.6605 83.157 19.3551 82.8672 19.1222C82.5774 18.8892 82.2081 18.7727 81.7592 18.7727C81.3104 18.7727 80.9411 18.8892 80.6513 19.1222C80.3615 19.3551 80.147 19.6605 80.0078 20.0384C79.8686 20.4162 79.799 20.8239 79.799 21.2614C79.799 21.6989 79.8686 22.1051 80.0078 22.4801C80.147 22.8551 80.3615 23.1577 80.6513 23.3878C80.9411 23.6179 81.3104 23.733 81.7592 23.733ZM88.1864 24.6534C87.7717 24.6534 87.3952 24.5753 87.0572 24.419C86.7191 24.2599 86.4506 24.0312 86.2518 23.733C86.0529 23.4318 85.9535 23.0682 85.9535 22.642C85.9535 22.267 86.0273 21.9631 86.1751 21.7301C86.3228 21.4943 86.5202 21.3097 86.7674 21.1761C87.0146 21.0426 87.2873 20.9432 87.5856 20.8778C87.8867 20.8097 88.1893 20.7557 88.4933 20.7159C88.891 20.6648 89.2134 20.6264 89.4606 20.6009C89.7106 20.5724 89.8924 20.5256 90.006 20.4602C90.1225 20.3949 90.1808 20.2812 90.1808 20.1193V20.0852C90.1808 19.6648 90.0657 19.3381 89.8356 19.1051C89.6083 18.8722 89.2631 18.7557 88.8001 18.7557C88.32 18.7557 87.9435 18.8608 87.6708 19.071C87.3981 19.2812 87.2063 19.5057 87.0955 19.7443L86.141 19.4034C86.3114 19.0057 86.5387 18.696 86.8228 18.4744C87.1097 18.25 87.4222 18.0937 87.7603 18.0057C88.1012 17.9148 88.4364 17.8693 88.766 17.8693C88.9762 17.8693 89.2177 17.8949 89.4904 17.946C89.766 17.9943 90.0316 18.0952 90.2873 18.2486C90.5458 18.402 90.7603 18.6335 90.9308 18.9432C91.1012 19.2528 91.1864 19.6676 91.1864 20.1875V24.5H90.1808V23.6136H90.1296C90.0614 23.7557 89.9478 23.9077 89.7887 24.0696C89.6296 24.2315 89.418 24.3693 89.1538 24.483C88.8896 24.5966 88.5671 24.6534 88.1864 24.6534ZM88.3398 23.75C88.7376 23.75 89.0728 23.6719 89.3455 23.5156C89.6211 23.3594 89.8285 23.1577 89.9677 22.9105C90.1097 22.6634 90.1808 22.4034 90.1808 22.1307V21.2102C90.1381 21.2614 90.0444 21.3082 89.8995 21.3509C89.7575 21.3906 89.5927 21.4261 89.4052 21.4574C89.2205 21.4858 89.0401 21.5114 88.864 21.5341C88.6907 21.554 88.5501 21.571 88.4421 21.5852C88.1808 21.6193 87.9364 21.6747 87.7092 21.7514C87.4847 21.8253 87.3029 21.9375 87.1637 22.0881C87.0273 22.2358 86.9592 22.4375 86.9592 22.6932C86.9592 23.0426 87.0884 23.3068 87.3469 23.4858C87.6083 23.6619 87.9393 23.75 88.3398 23.75ZM95.4936 24.6364C94.9482 24.6364 94.4666 24.4986 94.049 24.223C93.6314 23.9446 93.3047 23.5526 93.0689 23.0469C92.8331 22.5384 92.7152 21.9375 92.7152 21.2443C92.7152 20.5568 92.8331 19.9602 93.0689 19.4545C93.3047 18.9489 93.6328 18.5582 94.0533 18.2827C94.4737 18.0071 94.9595 17.8693 95.5107 17.8693C95.9368 17.8693 96.2734 17.9403 96.5206 18.0824C96.7706 18.2216 96.9609 18.3807 97.0916 18.5597C97.2251 18.7358 97.3288 18.8807 97.4027 18.9943H97.4879V15.7727H98.4936V24.5H97.522V23.4943H97.4027C97.3288 23.6136 97.2237 23.7642 97.0874 23.946C96.951 24.125 96.7564 24.2855 96.5036 24.4276C96.2507 24.5668 95.9141 24.6364 95.4936 24.6364ZM95.63 23.733C96.0334 23.733 96.3743 23.6278 96.6527 23.4176C96.9311 23.2045 97.1428 22.9105 97.2876 22.5355C97.4325 22.1577 97.505 21.7216 97.505 21.2273C97.505 20.7386 97.4339 20.3111 97.2919 19.9446C97.1499 19.5753 96.9396 19.2884 96.6612 19.0838C96.3828 18.8764 96.0391 18.7727 95.63 18.7727C95.2038 18.7727 94.8487 18.8821 94.5646 19.1009C94.2834 19.3168 94.0717 19.6108 93.9297 19.983C93.7905 20.3523 93.7209 20.767 93.7209 21.2273C93.7209 21.6932 93.7919 22.1165 93.9339 22.4972C94.0788 22.875 94.2919 23.1761 94.5732 23.4006C94.8572 23.6222 95.2095 23.733 95.63 23.733Z" fill="black"/>
<path d="M47.8398 31.4287L44.5449 40.5H43.1982L46.9922 30.5469H47.8604L47.8398 31.4287ZM50.6016 40.5L47.2998 31.4287L47.2793 30.5469H48.1475L51.9551 40.5H50.6016ZM50.4307 36.8154V37.8955H44.8389V36.8154H50.4307ZM54.3613 34.5254V43.3438H53.0898V33.1035H54.252L54.3613 34.5254ZM59.3447 36.7402V36.8838C59.3447 37.4215 59.2809 37.9206 59.1533 38.3809C59.0257 38.8366 58.8389 39.2331 58.5928 39.5703C58.3512 39.9076 58.0527 40.1696 57.6973 40.3564C57.3418 40.5433 56.9339 40.6367 56.4736 40.6367C56.0042 40.6367 55.5895 40.5592 55.2295 40.4043C54.8695 40.2493 54.5641 40.0238 54.3135 39.7275C54.0628 39.4313 53.8623 39.0758 53.7119 38.6611C53.5661 38.2464 53.4658 37.7793 53.4111 37.2598V36.4941C53.4658 35.9473 53.5684 35.4574 53.7188 35.0244C53.8691 34.5915 54.0674 34.2223 54.3135 33.917C54.5641 33.6071 54.8672 33.3724 55.2227 33.2129C55.5781 33.0488 55.9883 32.9668 56.4531 32.9668C56.918 32.9668 57.3304 33.0579 57.6904 33.2402C58.0505 33.418 58.3535 33.6732 58.5996 34.0059C58.8457 34.3385 59.0303 34.7373 59.1533 35.2021C59.2809 35.6624 59.3447 36.1751 59.3447 36.7402ZM58.0732 36.8838V36.7402C58.0732 36.3711 58.0345 36.0247 57.957 35.7012C57.8796 35.373 57.7588 35.0859 57.5947 34.8398C57.4352 34.5892 57.2301 34.3932 56.9795 34.252C56.7288 34.1061 56.4303 34.0332 56.084 34.0332C55.765 34.0332 55.487 34.0879 55.25 34.1973C55.0176 34.3066 54.8193 34.4548 54.6553 34.6416C54.4912 34.8239 54.3568 35.0335 54.252 35.2705C54.1517 35.5029 54.0765 35.7445 54.0264 35.9951V37.7656C54.1175 38.0846 54.2451 38.3854 54.4092 38.668C54.5732 38.946 54.792 39.1715 55.0654 39.3447C55.3389 39.5133 55.6829 39.5977 56.0977 39.5977C56.4395 39.5977 56.7334 39.527 56.9795 39.3857C57.2301 39.2399 57.4352 39.0417 57.5947 38.791C57.7588 38.5404 57.8796 38.2533 57.957 37.9297C58.0345 37.6016 58.0732 37.2529 58.0732 36.8838ZM62.2227 34.5254V43.3438H60.9512V33.1035H62.1133L62.2227 34.5254ZM67.2061 36.7402V36.8838C67.2061 37.4215 67.1423 37.9206 67.0146 38.3809C66.887 38.8366 66.7002 39.2331 66.4541 39.5703C66.2126 39.9076 65.9141 40.1696 65.5586 40.3564C65.2031 40.5433 64.7952 40.6367 64.335 40.6367C63.8656 40.6367 63.4508 40.5592 63.0908 40.4043C62.7308 40.2493 62.4255 40.0238 62.1748 39.7275C61.9242 39.4313 61.7236 39.0758 61.5732 38.6611C61.4274 38.2464 61.3271 37.7793 61.2725 37.2598V36.4941C61.3271 35.9473 61.4297 35.4574 61.5801 35.0244C61.7305 34.5915 61.9287 34.2223 62.1748 33.917C62.4255 33.6071 62.7285 33.3724 63.084 33.2129C63.4395 33.0488 63.8496 32.9668 64.3145 32.9668C64.7793 32.9668 65.1917 33.0579 65.5518 33.2402C65.9118 33.418 66.2148 33.6732 66.4609 34.0059C66.707 34.3385 66.8916 34.7373 67.0146 35.2021C67.1423 35.6624 67.2061 36.1751 67.2061 36.7402ZM65.9346 36.8838V36.7402C65.9346 36.3711 65.8958 36.0247 65.8184 35.7012C65.7409 35.373 65.6201 35.0859 65.4561 34.8398C65.2965 34.5892 65.0915 34.3932 64.8408 34.252C64.5902 34.1061 64.2917 34.0332 63.9453 34.0332C63.6263 34.0332 63.3483 34.0879 63.1113 34.1973C62.8789 34.3066 62.6807 34.4548 62.5166 34.6416C62.3525 34.8239 62.2181 35.0335 62.1133 35.2705C62.013 35.5029 61.9378 35.7445 61.8877 35.9951V37.7656C61.9788 38.0846 62.1064 38.3854 62.2705 38.668C62.4346 38.946 62.6533 39.1715 62.9268 39.3447C63.2002 39.5133 63.5443 39.5977 63.959 39.5977C64.3008 39.5977 64.5947 39.527 64.8408 39.3857C65.0915 39.2399 65.2965 39.0417 65.4561 38.791C65.6201 38.5404 65.7409 38.2533 65.8184 37.9297C65.8958 37.6016 65.9346 37.2529 65.9346 36.8838ZM77.7881 37.9844C77.7881 37.752 77.7516 37.5469 77.6787 37.3691C77.6104 37.1868 77.4873 37.0228 77.3096 36.877C77.1364 36.7311 76.8949 36.5921 76.585 36.46C76.2796 36.3278 75.8923 36.1934 75.4229 36.0566C74.9307 35.9108 74.4863 35.749 74.0898 35.5713C73.6934 35.389 73.3538 35.1816 73.0713 34.9492C72.7887 34.7168 72.5723 34.4502 72.4219 34.1494C72.2715 33.8486 72.1963 33.5046 72.1963 33.1172C72.1963 32.7298 72.276 32.3721 72.4355 32.0439C72.5951 31.7158 72.8229 31.431 73.1191 31.1895C73.4199 30.9434 73.7777 30.752 74.1924 30.6152C74.6071 30.4785 75.0697 30.4102 75.5801 30.4102C76.3275 30.4102 76.9609 30.5537 77.4805 30.8408C78.0046 31.1234 78.4033 31.4948 78.6768 31.9551C78.9502 32.4108 79.0869 32.8984 79.0869 33.418H77.7744C77.7744 33.0443 77.6947 32.7139 77.5352 32.4268C77.3757 32.1351 77.1341 31.9072 76.8105 31.7432C76.487 31.5745 76.0768 31.4902 75.5801 31.4902C75.1107 31.4902 74.7233 31.5609 74.418 31.7021C74.1126 31.8434 73.8848 32.0348 73.7344 32.2764C73.5885 32.5179 73.5156 32.7936 73.5156 33.1035C73.5156 33.3132 73.5589 33.5046 73.6455 33.6777C73.7367 33.8464 73.8757 34.0036 74.0625 34.1494C74.2539 34.2952 74.4954 34.4297 74.7871 34.5527C75.0833 34.6758 75.4365 34.7943 75.8467 34.9082C76.4118 35.0677 76.8994 35.2454 77.3096 35.4414C77.7197 35.6374 78.057 35.8584 78.3213 36.1045C78.5902 36.346 78.7884 36.6217 78.916 36.9316C79.0482 37.237 79.1143 37.5833 79.1143 37.9707C79.1143 38.3763 79.0322 38.7432 78.8682 39.0713C78.7041 39.3994 78.4694 39.6797 78.1641 39.9121C77.8587 40.1445 77.4919 40.3245 77.0635 40.4521C76.6396 40.5752 76.1657 40.6367 75.6416 40.6367C75.1813 40.6367 74.7279 40.5729 74.2812 40.4453C73.8392 40.3177 73.4359 40.1263 73.0713 39.8711C72.7113 39.6159 72.4219 39.3014 72.2031 38.9277C71.9889 38.5495 71.8818 38.112 71.8818 37.6152H73.1943C73.1943 37.957 73.2604 38.251 73.3926 38.4971C73.5247 38.7386 73.7048 38.9391 73.9326 39.0986C74.165 39.2581 74.4271 39.3766 74.7188 39.4541C75.015 39.527 75.3226 39.5635 75.6416 39.5635C76.1019 39.5635 76.4915 39.4997 76.8105 39.3721C77.1296 39.2445 77.3711 39.0622 77.5352 38.8252C77.7038 38.5882 77.7881 38.3079 77.7881 37.9844ZM83.7012 33.1035V34.0742H79.7021V33.1035H83.7012ZM81.0557 31.3057H82.3203V38.668C82.3203 38.9186 82.359 39.1077 82.4365 39.2354C82.514 39.363 82.6143 39.4473 82.7373 39.4883C82.8604 39.5293 82.9925 39.5498 83.1338 39.5498C83.2386 39.5498 83.348 39.5407 83.4619 39.5225C83.5804 39.4997 83.6693 39.4814 83.7285 39.4678L83.7354 40.5C83.6351 40.5319 83.5029 40.5615 83.3389 40.5889C83.1794 40.6208 82.9857 40.6367 82.7578 40.6367C82.4479 40.6367 82.1631 40.5752 81.9033 40.4521C81.6436 40.3291 81.4362 40.124 81.2812 39.8369C81.1309 39.5452 81.0557 39.1533 81.0557 38.6611V31.3057ZM84.7129 36.8838V36.7266C84.7129 36.1934 84.7904 35.6989 84.9453 35.2432C85.1003 34.7829 85.3236 34.3841 85.6152 34.0469C85.9069 33.7051 86.2601 33.4408 86.6748 33.2539C87.0895 33.0625 87.5544 32.9668 88.0693 32.9668C88.5889 32.9668 89.056 33.0625 89.4707 33.2539C89.89 33.4408 90.2454 33.7051 90.5371 34.0469C90.8333 34.3841 91.0589 34.7829 91.2139 35.2432C91.3688 35.6989 91.4463 36.1934 91.4463 36.7266V36.8838C91.4463 37.417 91.3688 37.9115 91.2139 38.3672C91.0589 38.8229 90.8333 39.2217 90.5371 39.5635C90.2454 39.9007 89.8923 40.165 89.4775 40.3564C89.0674 40.5433 88.6025 40.6367 88.083 40.6367C87.5635 40.6367 87.0964 40.5433 86.6816 40.3564C86.2669 40.165 85.9115 39.9007 85.6152 39.5635C85.3236 39.2217 85.1003 38.8229 84.9453 38.3672C84.7904 37.9115 84.7129 37.417 84.7129 36.8838ZM85.9775 36.7266V36.8838C85.9775 37.2529 86.0208 37.6016 86.1074 37.9297C86.194 38.2533 86.3239 38.5404 86.4971 38.791C86.6748 39.0417 86.8958 39.2399 87.1602 39.3857C87.4245 39.527 87.7321 39.5977 88.083 39.5977C88.4294 39.5977 88.7324 39.527 88.9922 39.3857C89.2565 39.2399 89.4753 39.0417 89.6484 38.791C89.8216 38.5404 89.9515 38.2533 90.0381 37.9297C90.1292 37.6016 90.1748 37.2529 90.1748 36.8838V36.7266C90.1748 36.362 90.1292 36.0179 90.0381 35.6943C89.9515 35.3662 89.8193 35.0768 89.6416 34.8262C89.4684 34.571 89.2497 34.3704 88.9854 34.2246C88.7256 34.0788 88.4202 34.0059 88.0693 34.0059C87.723 34.0059 87.4176 34.0788 87.1533 34.2246C86.8936 34.3704 86.6748 34.571 86.4971 34.8262C86.3239 35.0768 86.194 35.3662 86.1074 35.6943C86.0208 36.0179 85.9775 36.362 85.9775 36.7266ZM94.2969 34.2656V40.5H93.0322V33.1035H94.2627L94.2969 34.2656ZM96.6074 33.0625L96.6006 34.2383C96.4958 34.2155 96.3955 34.2018 96.2998 34.1973C96.2087 34.1882 96.1038 34.1836 95.9854 34.1836C95.6937 34.1836 95.4362 34.2292 95.2129 34.3203C94.9896 34.4115 94.8005 34.5391 94.6455 34.7031C94.4906 34.8672 94.3675 35.0632 94.2764 35.291C94.1898 35.5143 94.1328 35.7604 94.1055 36.0293L93.75 36.2344C93.75 35.7878 93.7933 35.3685 93.8799 34.9766C93.971 34.5846 94.11 34.2383 94.2969 33.9375C94.4837 33.6322 94.7207 33.3952 95.0078 33.2266C95.2995 33.0534 95.6458 32.9668 96.0469 32.9668C96.138 32.9668 96.2428 32.9782 96.3613 33.001C96.4798 33.0192 96.5618 33.0397 96.6074 33.0625ZM100.709 40.6367C100.194 40.6367 99.7269 40.5501 99.3076 40.377C98.8929 40.1992 98.5352 39.9508 98.2344 39.6318C97.9382 39.3128 97.7103 38.9346 97.5508 38.4971C97.3913 38.0596 97.3115 37.5811 97.3115 37.0615V36.7744C97.3115 36.1729 97.4004 35.6374 97.5781 35.168C97.7559 34.694 97.9974 34.293 98.3027 33.9648C98.6081 33.6367 98.9544 33.3883 99.3418 33.2197C99.7292 33.0511 100.13 32.9668 100.545 32.9668C101.074 32.9668 101.529 33.0579 101.912 33.2402C102.299 33.4225 102.616 33.6777 102.862 34.0059C103.108 34.3294 103.291 34.7122 103.409 35.1543C103.528 35.5918 103.587 36.0703 103.587 36.5898V37.1572H98.0635V36.125H102.322V36.0293C102.304 35.7012 102.236 35.3822 102.117 35.0723C102.003 34.7624 101.821 34.5072 101.57 34.3066C101.32 34.1061 100.978 34.0059 100.545 34.0059C100.258 34.0059 99.9935 34.0674 99.752 34.1904C99.5104 34.3089 99.3031 34.4867 99.1299 34.7236C98.9567 34.9606 98.8223 35.25 98.7266 35.5918C98.6309 35.9336 98.583 36.3278 98.583 36.7744V37.0615C98.583 37.4124 98.6309 37.7428 98.7266 38.0527C98.8268 38.3581 98.9704 38.627 99.1572 38.8594C99.3486 39.0918 99.5788 39.2741 99.8477 39.4062C100.121 39.5384 100.431 39.6045 100.777 39.6045C101.224 39.6045 101.602 39.5133 101.912 39.3311C102.222 39.1488 102.493 38.9049 102.726 38.5996L103.491 39.208C103.332 39.4495 103.129 39.6797 102.883 39.8984C102.637 40.1172 102.334 40.2949 101.974 40.4316C101.618 40.5684 101.197 40.6367 100.709 40.6367Z" fill="black"/>
</svg>
