<svg width="117" height="56" viewBox="0 0 117 56" fill="none" xmlns="http://www.w3.org/2000/svg">
<rect width="117" height="56" rx="12" fill="white"/>
<path d="M17.2058 27.4019L6.09863 39.2329C6.22615 39.6803 6.45186 40.0926 6.75877 40.4385C7.06568 40.7845 7.44579 41.0551 7.87048 41.2301C8.29517 41.4051 8.75337 41.4798 9.21058 41.4487C9.6678 41.4176 10.1121 41.2814 10.5101 41.0504L23.0077 33.8138L17.2058 27.4019Z" fill="#EA4335"/>
<path d="M28.4381 25.3907L23.0335 22.2437L16.9502 27.6711L23.0583 33.797L28.4216 30.6836C28.7641 30.5026 29.0681 30.2545 29.3161 29.9537C29.564 29.6529 29.751 29.3052 29.8664 28.9306C29.9818 28.5561 30.0232 28.162 29.9883 27.7711C29.9534 27.3803 29.8429 27.0002 29.663 26.6529C29.3825 26.1156 28.9501 25.676 28.4216 25.3907H28.4381Z" fill="#FBBC04"/>
<path d="M6.09932 16.7825C6.03323 17.035 5.99984 17.2953 6 17.5566V38.4586C5.99984 38.72 6.03323 38.9802 6.09932 39.2328L17.5872 27.7047L6.09932 16.7825Z" fill="#4285F4"/>
<path d="M17.2886 28.0078L23.0326 22.2437L10.5514 14.9735C10.0817 14.6943 9.54781 14.5462 9.00372 14.5443C8.34654 14.543 7.70696 14.7602 7.18248 15.1628C6.65799 15.5653 6.27737 16.1312 6.09863 16.7742L17.2886 28.0078Z" fill="#34A853"/>
<path d="M42.0227 18.5C41.929 18.2131 41.8054 17.956 41.652 17.7287C41.5014 17.4986 41.321 17.3026 41.1108 17.1406C40.9034 16.9787 40.6676 16.8551 40.4034 16.7699C40.1392 16.6847 39.8494 16.642 39.5341 16.642C39.017 16.642 38.5469 16.7756 38.1236 17.0426C37.7003 17.3097 37.3636 17.7031 37.1136 18.223C36.8636 18.7429 36.7386 19.3807 36.7386 20.1364C36.7386 20.892 36.8651 21.5298 37.1179 22.0497C37.3707 22.5696 37.7131 22.9631 38.1449 23.2301C38.5767 23.4972 39.0625 23.6307 39.6023 23.6307C40.1023 23.6307 40.5426 23.5241 40.9233 23.3111C41.3068 23.0952 41.6051 22.7912 41.8182 22.3991C42.0341 22.0043 42.142 21.5398 42.142 21.0057L42.4659 21.0739H39.8409V20.1364H43.1648V21.0739C43.1648 21.7926 43.0114 22.4176 42.7045 22.9489C42.4006 23.4801 41.9801 23.892 41.4432 24.1847C40.9091 24.4744 40.2955 24.6193 39.6023 24.6193C38.8295 24.6193 38.1506 24.4375 37.5653 24.0739C36.983 23.7102 36.5284 23.1932 36.2017 22.5227C35.8778 21.8523 35.7159 21.0568 35.7159 20.1364C35.7159 19.446 35.8082 18.8253 35.9929 18.2741C36.1804 17.7202 36.4446 17.2486 36.7855 16.8594C37.1264 16.4702 37.5298 16.1719 37.9957 15.9645C38.4616 15.7571 38.9744 15.6534 39.5341 15.6534C39.9943 15.6534 40.4233 15.723 40.821 15.8622C41.2216 15.9986 41.5781 16.1932 41.8906 16.446C42.206 16.696 42.4688 16.9957 42.679 17.3452C42.8892 17.6918 43.0341 18.0767 43.1136 18.5H42.0227ZM44.9748 24.5V15.7727H50.2418V16.7102H46.0316V19.6591H49.9691V20.5966H46.0316V23.5625H50.31V24.5H44.9748ZM51.6694 16.7102V15.7727H58.2148V16.7102H55.4705V24.5H54.4137V16.7102H51.6694ZM64.2777 15.7727V24.5H63.2209V15.7727H64.2777ZM65.9194 16.7102V15.7727H72.4648V16.7102H69.7205V24.5H68.6637V16.7102H65.9194ZM84.8345 20.1364C84.8345 21.0568 84.6683 21.8523 84.3359 22.5227C84.0036 23.1932 83.5476 23.7102 82.968 24.0739C82.3885 24.4375 81.7266 24.6193 80.9822 24.6193C80.2379 24.6193 79.576 24.4375 78.9964 24.0739C78.4169 23.7102 77.9609 23.1932 77.6286 22.5227C77.2962 21.8523 77.13 21.0568 77.13 20.1364C77.13 19.2159 77.2962 18.4205 77.6286 17.75C77.9609 17.0795 78.4169 16.5625 78.9964 16.1989C79.576 15.8352 80.2379 15.6534 80.9822 15.6534C81.7266 15.6534 82.3885 15.8352 82.968 16.1989C83.5476 16.5625 84.0036 17.0795 84.3359 17.75C84.6683 18.4205 84.8345 19.2159 84.8345 20.1364ZM83.8118 20.1364C83.8118 19.3807 83.6854 18.7429 83.4325 18.223C83.1825 17.7031 82.843 17.3097 82.4141 17.0426C81.9879 16.7756 81.5107 16.642 80.9822 16.642C80.4538 16.642 79.9751 16.7756 79.5462 17.0426C79.12 17.3097 78.7805 17.7031 78.5277 18.223C78.2777 18.7429 78.1527 19.3807 78.1527 20.1364C78.1527 20.892 78.2777 21.5298 78.5277 22.0497C78.7805 22.5696 79.12 22.9631 79.5462 23.2301C79.9751 23.4972 80.4538 23.6307 80.9822 23.6307C81.5107 23.6307 81.9879 23.4972 82.4141 23.2301C82.843 22.9631 83.1825 22.5696 83.4325 22.0497C83.6854 21.5298 83.8118 20.892 83.8118 20.1364ZM93.532 15.7727V24.5H92.5092L87.7536 17.6477H87.6683V24.5H86.6115V15.7727H87.6342L92.407 22.642H92.4922V15.7727H93.532Z" fill="black"/>
<path d="M43.5107 35.5439V39.1875C43.3877 39.3698 43.1917 39.5749 42.9229 39.8027C42.654 40.026 42.2826 40.222 41.8086 40.3906C41.3392 40.5547 40.7331 40.6367 39.9902 40.6367C39.3841 40.6367 38.8258 40.5319 38.3154 40.3223C37.8096 40.1081 37.3698 39.7982 36.9961 39.3926C36.627 38.9824 36.3398 38.4857 36.1348 37.9023C35.9342 37.3145 35.834 36.6491 35.834 35.9062V35.1338C35.834 34.391 35.9206 33.7279 36.0938 33.1445C36.2715 32.5612 36.5312 32.0667 36.873 31.6611C37.2148 31.251 37.6341 30.9411 38.1309 30.7314C38.6276 30.5173 39.1973 30.4102 39.8398 30.4102C40.6009 30.4102 41.2367 30.5423 41.7471 30.8066C42.262 31.0664 42.6631 31.4264 42.9502 31.8867C43.2419 32.347 43.4287 32.8711 43.5107 33.459H42.1914C42.1322 33.099 42.0137 32.7708 41.8359 32.4746C41.6628 32.1784 41.4144 31.9414 41.0908 31.7637C40.7673 31.5814 40.3503 31.4902 39.8398 31.4902C39.3796 31.4902 38.9808 31.5745 38.6436 31.7432C38.3063 31.9118 38.0283 32.1533 37.8096 32.4678C37.5908 32.7822 37.4268 33.1628 37.3174 33.6094C37.2126 34.056 37.1602 34.5596 37.1602 35.1201V35.9062C37.1602 36.4805 37.2262 36.9932 37.3584 37.4443C37.4951 37.8955 37.6888 38.2806 37.9395 38.5996C38.1901 38.9141 38.4886 39.1533 38.835 39.3174C39.1859 39.4814 39.5732 39.5635 39.9971 39.5635C40.4665 39.5635 40.847 39.5247 41.1387 39.4473C41.4303 39.3652 41.6582 39.2695 41.8223 39.1602C41.9863 39.0462 42.1117 38.9391 42.1982 38.8389V36.6104H39.8945V35.5439H43.5107ZM45.1719 36.8838V36.7266C45.1719 36.1934 45.2493 35.6989 45.4043 35.2432C45.5592 34.7829 45.7826 34.3841 46.0742 34.0469C46.3659 33.7051 46.7191 33.4408 47.1338 33.2539C47.5485 33.0625 48.0133 32.9668 48.5283 32.9668C49.0479 32.9668 49.515 33.0625 49.9297 33.2539C50.349 33.4408 50.7044 33.7051 50.9961 34.0469C51.2923 34.3841 51.5179 34.7829 51.6729 35.2432C51.8278 35.6989 51.9053 36.1934 51.9053 36.7266V36.8838C51.9053 37.417 51.8278 37.9115 51.6729 38.3672C51.5179 38.8229 51.2923 39.2217 50.9961 39.5635C50.7044 39.9007 50.3512 40.165 49.9365 40.3564C49.5264 40.5433 49.0615 40.6367 48.542 40.6367C48.0225 40.6367 47.5553 40.5433 47.1406 40.3564C46.7259 40.165 46.3704 39.9007 46.0742 39.5635C45.7826 39.2217 45.5592 38.8229 45.4043 38.3672C45.2493 37.9115 45.1719 37.417 45.1719 36.8838ZM46.4365 36.7266V36.8838C46.4365 37.2529 46.4798 37.6016 46.5664 37.9297C46.653 38.2533 46.7829 38.5404 46.9561 38.791C47.1338 39.0417 47.3548 39.2399 47.6191 39.3857C47.8835 39.527 48.1911 39.5977 48.542 39.5977C48.8883 39.5977 49.1914 39.527 49.4512 39.3857C49.7155 39.2399 49.9342 39.0417 50.1074 38.791C50.2806 38.5404 50.4105 38.2533 50.4971 37.9297C50.5882 37.6016 50.6338 37.2529 50.6338 36.8838V36.7266C50.6338 36.362 50.5882 36.0179 50.4971 35.6943C50.4105 35.3662 50.2783 35.0768 50.1006 34.8262C49.9274 34.571 49.7087 34.3704 49.4443 34.2246C49.1846 34.0788 48.8792 34.0059 48.5283 34.0059C48.182 34.0059 47.8766 34.0788 47.6123 34.2246C47.3525 34.3704 47.1338 34.571 46.9561 34.8262C46.7829 35.0768 46.653 35.3662 46.5664 35.6943C46.4798 36.0179 46.4365 36.362 46.4365 36.7266ZM53.1562 36.8838V36.7266C53.1562 36.1934 53.2337 35.6989 53.3887 35.2432C53.5436 34.7829 53.7669 34.3841 54.0586 34.0469C54.3503 33.7051 54.7035 33.4408 55.1182 33.2539C55.5329 33.0625 55.9977 32.9668 56.5127 32.9668C57.0322 32.9668 57.4993 33.0625 57.9141 33.2539C58.3333 33.4408 58.6888 33.7051 58.9805 34.0469C59.2767 34.3841 59.5023 34.7829 59.6572 35.2432C59.8122 35.6989 59.8896 36.1934 59.8896 36.7266V36.8838C59.8896 37.417 59.8122 37.9115 59.6572 38.3672C59.5023 38.8229 59.2767 39.2217 58.9805 39.5635C58.6888 39.9007 58.3356 40.165 57.9209 40.3564C57.5107 40.5433 57.0459 40.6367 56.5264 40.6367C56.0068 40.6367 55.5397 40.5433 55.125 40.3564C54.7103 40.165 54.3548 39.9007 54.0586 39.5635C53.7669 39.2217 53.5436 38.8229 53.3887 38.3672C53.2337 37.9115 53.1562 37.417 53.1562 36.8838ZM54.4209 36.7266V36.8838C54.4209 37.2529 54.4642 37.6016 54.5508 37.9297C54.6374 38.2533 54.7673 38.5404 54.9404 38.791C55.1182 39.0417 55.3392 39.2399 55.6035 39.3857C55.8678 39.527 56.1755 39.5977 56.5264 39.5977C56.8727 39.5977 57.1758 39.527 57.4355 39.3857C57.6999 39.2399 57.9186 39.0417 58.0918 38.791C58.265 38.5404 58.3949 38.2533 58.4814 37.9297C58.5726 37.6016 58.6182 37.2529 58.6182 36.8838V36.7266C58.6182 36.362 58.5726 36.0179 58.4814 35.6943C58.3949 35.3662 58.2627 35.0768 58.085 34.8262C57.9118 34.571 57.693 34.3704 57.4287 34.2246C57.1689 34.0788 56.8636 34.0059 56.5127 34.0059C56.1663 34.0059 55.861 34.0788 55.5967 34.2246C55.3369 34.3704 55.1182 34.571 54.9404 34.8262C54.7673 35.0768 54.6374 35.3662 54.5508 35.6943C54.4642 36.0179 54.4209 36.362 54.4209 36.7266ZM66.2676 33.1035H67.416V40.3428C67.416 40.9945 67.2839 41.5505 67.0195 42.0107C66.7552 42.471 66.3861 42.8197 65.9121 43.0566C65.4427 43.2982 64.9004 43.4189 64.2852 43.4189C64.0299 43.4189 63.7292 43.3779 63.3828 43.2959C63.041 43.2184 62.7038 43.084 62.3711 42.8926C62.043 42.7057 61.7673 42.4528 61.5439 42.1338L62.207 41.3818C62.5169 41.7555 62.8405 42.0153 63.1777 42.1611C63.5195 42.307 63.8568 42.3799 64.1895 42.3799C64.5905 42.3799 64.9368 42.3047 65.2285 42.1543C65.5202 42.0039 65.7458 41.7806 65.9053 41.4844C66.0693 41.1927 66.1514 40.8327 66.1514 40.4043V34.7305L66.2676 33.1035ZM61.1748 36.8838V36.7402C61.1748 36.1751 61.2409 35.6624 61.373 35.2021C61.5098 34.7373 61.7035 34.3385 61.9541 34.0059C62.2093 33.6732 62.5169 33.418 62.877 33.2402C63.237 33.0579 63.6426 32.9668 64.0938 32.9668C64.5586 32.9668 64.9642 33.0488 65.3105 33.2129C65.6615 33.3724 65.9577 33.6071 66.1992 33.917C66.4453 34.2223 66.639 34.5915 66.7803 35.0244C66.9215 35.4574 67.0195 35.9473 67.0742 36.4941V37.123C67.0241 37.6654 66.9261 38.153 66.7803 38.5859C66.639 39.0189 66.4453 39.388 66.1992 39.6934C65.9577 39.9987 65.6615 40.2334 65.3105 40.3975C64.9596 40.557 64.5495 40.6367 64.0801 40.6367C63.638 40.6367 63.237 40.5433 62.877 40.3564C62.5215 40.1696 62.2161 39.9076 61.9609 39.5703C61.7057 39.2331 61.5098 38.8366 61.373 38.3809C61.2409 37.9206 61.1748 37.4215 61.1748 36.8838ZM62.4395 36.7402V36.8838C62.4395 37.2529 62.4759 37.5993 62.5488 37.9229C62.6263 38.2464 62.7425 38.5312 62.8975 38.7773C63.057 39.0234 63.2598 39.2171 63.5059 39.3584C63.752 39.4951 64.0459 39.5635 64.3877 39.5635C64.807 39.5635 65.1533 39.4746 65.4268 39.2969C65.7002 39.1191 65.9167 38.8844 66.0762 38.5928C66.2402 38.3011 66.3678 37.9844 66.459 37.6426V35.9951C66.4089 35.7445 66.3314 35.5029 66.2266 35.2705C66.1263 35.0335 65.9941 34.8239 65.8301 34.6416C65.6706 34.4548 65.4723 34.3066 65.2354 34.1973C64.9984 34.0879 64.7204 34.0332 64.4014 34.0332C64.055 34.0332 63.7565 34.1061 63.5059 34.252C63.2598 34.3932 63.057 34.5892 62.8975 34.8398C62.7425 35.0859 62.6263 35.373 62.5488 35.7012C62.4759 36.0247 62.4395 36.3711 62.4395 36.7402ZM70.7109 30V40.5H69.4395V30H70.7109ZM75.8105 40.6367C75.2956 40.6367 74.8285 40.5501 74.4092 40.377C73.9945 40.1992 73.6367 39.9508 73.3359 39.6318C73.0397 39.3128 72.8118 38.9346 72.6523 38.4971C72.4928 38.0596 72.4131 37.5811 72.4131 37.0615V36.7744C72.4131 36.1729 72.502 35.6374 72.6797 35.168C72.8574 34.694 73.099 34.293 73.4043 33.9648C73.7096 33.6367 74.056 33.3883 74.4434 33.2197C74.8307 33.0511 75.2318 32.9668 75.6465 32.9668C76.1751 32.9668 76.6309 33.0579 77.0137 33.2402C77.401 33.4225 77.7178 33.6777 77.9639 34.0059C78.21 34.3294 78.3923 34.7122 78.5107 35.1543C78.6292 35.5918 78.6885 36.0703 78.6885 36.5898V37.1572H73.165V36.125H77.4238V36.0293C77.4056 35.7012 77.3372 35.3822 77.2188 35.0723C77.1048 34.7624 76.9225 34.5072 76.6719 34.3066C76.4212 34.1061 76.0794 34.0059 75.6465 34.0059C75.3594 34.0059 75.0951 34.0674 74.8535 34.1904C74.612 34.3089 74.4046 34.4867 74.2314 34.7236C74.0583 34.9606 73.9238 35.25 73.8281 35.5918C73.7324 35.9336 73.6846 36.3278 73.6846 36.7744V37.0615C73.6846 37.4124 73.7324 37.7428 73.8281 38.0527C73.9284 38.3581 74.0719 38.627 74.2588 38.8594C74.4502 39.0918 74.6803 39.2741 74.9492 39.4062C75.2227 39.5384 75.5326 39.6045 75.8789 39.6045C76.3255 39.6045 76.7038 39.5133 77.0137 39.3311C77.3236 39.1488 77.5947 38.9049 77.8271 38.5996L78.5928 39.208C78.4333 39.4495 78.2305 39.6797 77.9844 39.8984C77.7383 40.1172 77.4352 40.2949 77.0752 40.4316C76.7197 40.5684 76.2982 40.6367 75.8105 40.6367ZM84.9023 34.5254V43.3438H83.6309V33.1035H84.793L84.9023 34.5254ZM89.8857 36.7402V36.8838C89.8857 37.4215 89.8219 37.9206 89.6943 38.3809C89.5667 38.8366 89.3799 39.2331 89.1338 39.5703C88.8923 39.9076 88.5938 40.1696 88.2383 40.3564C87.8828 40.5433 87.4749 40.6367 87.0146 40.6367C86.5452 40.6367 86.1305 40.5592 85.7705 40.4043C85.4105 40.2493 85.1051 40.0238 84.8545 39.7275C84.6038 39.4313 84.4033 39.0758 84.2529 38.6611C84.1071 38.2464 84.0068 37.7793 83.9521 37.2598V36.4941C84.0068 35.9473 84.1094 35.4574 84.2598 35.0244C84.4102 34.5915 84.6084 34.2223 84.8545 33.917C85.1051 33.6071 85.4082 33.3724 85.7637 33.2129C86.1191 33.0488 86.5293 32.9668 86.9941 32.9668C87.459 32.9668 87.8714 33.0579 88.2314 33.2402C88.5915 33.418 88.8945 33.6732 89.1406 34.0059C89.3867 34.3385 89.5713 34.7373 89.6943 35.2021C89.8219 35.6624 89.8857 36.1751 89.8857 36.7402ZM88.6143 36.8838V36.7402C88.6143 36.3711 88.5755 36.0247 88.498 35.7012C88.4206 35.373 88.2998 35.0859 88.1357 34.8398C87.9762 34.5892 87.7712 34.3932 87.5205 34.252C87.2699 34.1061 86.9714 34.0332 86.625 34.0332C86.306 34.0332 86.028 34.0879 85.791 34.1973C85.5586 34.3066 85.3604 34.4548 85.1963 34.6416C85.0322 34.8239 84.8978 35.0335 84.793 35.2705C84.6927 35.5029 84.6175 35.7445 84.5674 35.9951V37.7656C84.6585 38.0846 84.7861 38.3854 84.9502 38.668C85.1143 38.946 85.333 39.1715 85.6064 39.3447C85.8799 39.5133 86.224 39.5977 86.6387 39.5977C86.9805 39.5977 87.2744 39.527 87.5205 39.3857C87.7712 39.2399 87.9762 39.0417 88.1357 38.791C88.2998 38.5404 88.4206 38.2533 88.498 37.9297C88.5755 37.6016 88.6143 37.2529 88.6143 36.8838ZM92.873 30V40.5H91.6016V30H92.873ZM99.2646 39.2354V35.4277C99.2646 35.1361 99.2054 34.8831 99.0869 34.6689C98.973 34.4502 98.7998 34.2816 98.5674 34.1631C98.335 34.0446 98.0479 33.9854 97.7061 33.9854C97.387 33.9854 97.1068 34.04 96.8652 34.1494C96.6283 34.2588 96.4414 34.4023 96.3047 34.5801C96.1725 34.7578 96.1064 34.9492 96.1064 35.1543H94.8418C94.8418 34.89 94.9102 34.6279 95.0469 34.3682C95.1836 34.1084 95.3796 33.8737 95.6348 33.6641C95.8945 33.4499 96.2044 33.2812 96.5645 33.1582C96.929 33.0306 97.3346 32.9668 97.7812 32.9668C98.319 32.9668 98.793 33.0579 99.2031 33.2402C99.6178 33.4225 99.9414 33.6982 100.174 34.0674C100.411 34.432 100.529 34.89 100.529 35.4414V38.8867C100.529 39.1328 100.55 39.3949 100.591 39.6729C100.636 39.9508 100.702 40.1901 100.789 40.3906V40.5H99.4697C99.4059 40.3542 99.3558 40.1605 99.3193 39.9189C99.2829 39.6729 99.2646 39.445 99.2646 39.2354ZM99.4834 36.0156L99.4971 36.9043H98.2188C97.8587 36.9043 97.5374 36.9339 97.2549 36.9932C96.9723 37.0479 96.7354 37.1322 96.5439 37.2461C96.3525 37.36 96.2067 37.5036 96.1064 37.6768C96.0062 37.8454 95.9561 38.0436 95.9561 38.2715C95.9561 38.5039 96.0085 38.7158 96.1133 38.9072C96.2181 39.0986 96.3753 39.2513 96.585 39.3652C96.7992 39.4746 97.0612 39.5293 97.3711 39.5293C97.7585 39.5293 98.1003 39.4473 98.3965 39.2832C98.6927 39.1191 98.9274 38.9186 99.1006 38.6816C99.2783 38.4447 99.374 38.2145 99.3877 37.9912L99.9277 38.5996C99.8958 38.791 99.8092 39.0029 99.668 39.2354C99.5267 39.4678 99.3376 39.6911 99.1006 39.9053C98.8682 40.1149 98.5902 40.2904 98.2666 40.4316C97.9476 40.5684 97.5876 40.6367 97.1865 40.6367C96.6852 40.6367 96.2454 40.5387 95.8672 40.3428C95.4935 40.1468 95.2018 39.8848 94.9922 39.5566C94.7871 39.224 94.6846 38.8525 94.6846 38.4424C94.6846 38.0459 94.762 37.6973 94.917 37.3965C95.0719 37.0911 95.2952 36.8382 95.5869 36.6377C95.8786 36.4326 96.2295 36.2777 96.6396 36.1729C97.0498 36.068 97.5078 36.0156 98.0137 36.0156H99.4834ZM104.487 39.7344L106.545 33.1035H107.898L104.932 41.6416C104.863 41.8239 104.772 42.0199 104.658 42.2295C104.549 42.4437 104.408 42.6465 104.234 42.8379C104.061 43.0293 103.852 43.1842 103.605 43.3027C103.364 43.4258 103.075 43.4873 102.737 43.4873C102.637 43.4873 102.509 43.4736 102.354 43.4463C102.2 43.4189 102.09 43.3962 102.026 43.3779L102.02 42.3525C102.056 42.3571 102.113 42.3617 102.19 42.3662C102.272 42.3753 102.329 42.3799 102.361 42.3799C102.648 42.3799 102.892 42.3411 103.093 42.2637C103.293 42.1908 103.462 42.0654 103.599 41.8877C103.74 41.7145 103.861 41.4753 103.961 41.1699L104.487 39.7344ZM102.977 33.1035L104.897 38.8457L105.226 40.1787L104.316 40.6436L101.596 33.1035H102.977Z" fill="black"/>
</svg>
