<svg width="196" height="30" viewBox="0 0 196 30" fill="none" xmlns="http://www.w3.org/2000/svg">
<path d="M58.8959 10.0269C56.3736 10.0269 54.328 12.0724 54.328 14.5948C54.328 17.1188 56.3736 19.1627 58.8959 19.1627C61.4183 19.1627 63.4638 17.1188 63.4638 14.5948C63.4638 12.0724 61.4183 10.0269 58.8959 10.0269Z" fill="#FBFBFB"/>
<path d="M7.4782 8.40955C7.4782 7.11591 8.36684 6.26658 9.53915 6.26658C10.8738 6.26658 11.8035 7.35857 11.8035 8.9752H17.9487C17.9487 3.55795 14.5121 0 9.33921 0C4.08431 0 0.405012 3.47764 0.405012 8.44887C0.405012 16.9781 11.2788 16.2911 11.2788 20.7377C11.2788 22.0313 10.3492 22.9199 8.97521 22.9199C7.19624 22.9199 6.14526 21.505 6.14526 19.1603H0C0 24.9809 3.96126 29.1865 9.54086 29.1865C14.8368 29.1865 18.3537 25.8302 18.3537 20.7377C18.3537 11.8462 7.4782 12.5742 7.4782 8.40955Z" fill="#EDF900"/>
<path d="M31.6508 0.446777H21.3837V10.3602L28.2552 13.5456V6.51H31.0852C33.1051 6.51 34.3595 7.96428 34.3595 9.94662C34.3595 12.3733 33.1461 13.5456 30.7195 13.5456H28.2535H21.3837V28.743H28.2552V19.6071H31.7329C36.6631 19.6071 41.031 15.0802 41.031 9.94662C41.031 4.53107 36.9877 0.446777 31.6508 0.446777Z" fill="#EDF900"/>
<path d="M58.937 0.00268555C50.9735 0.00268555 44.2609 6.55295 44.2609 14.3952C44.2609 22.3177 51.0931 29.1909 58.9746 29.1909C66.8168 29.1909 73.5294 22.3997 73.5294 14.3952C73.5311 6.51023 66.8988 0.00268555 58.937 0.00268555ZM58.937 22.9243C54.6511 22.9243 51.3358 19.204 51.3358 14.3952C51.3358 9.66488 54.528 6.26928 58.896 6.26928C63.2195 6.26928 66.4545 9.7452 66.4545 14.4755C66.4545 19.245 63.1819 22.9243 58.937 22.9243Z" fill="#EDF900"/>
<path d="M96.8117 9.94833C96.8117 4.53278 92.7701 0.446777 87.4349 0.446777H77.1677V11.2112L84.0393 14.3949V6.51171H86.8692C88.8891 6.51171 90.1435 7.966 90.1435 10.232C90.1435 12.698 88.6858 14.3966 86.5035 14.3966H84.0375H77.166V28.7464H84.0375V19.6105L90.7074 28.7464H97.7823L90.2221 19.1679C93.9424 17.8709 96.8117 14.1112 96.8117 9.94833Z" fill="#EDF900"/>
<path d="M107.079 28.7442H113.95V6.55225L107.079 10.2726V28.7442Z" fill="#EDF900"/>
<path d="M98.9939 6.55297H113.95H122.035V0.488037H98.9939V6.55297Z" fill="#EDF900"/>
<path d="M124.662 28.7449H139.579V22.6816H131.533V17.3857H139.174V11.3225H131.533H124.662V28.7449Z" fill="#EDF900"/>
<path d="M124.662 8.1386L131.533 11.3223V6.51171H139.579V0.446777H124.662V8.1386Z" fill="#EDF900"/>
<path d="M156.837 6.26928C160.071 6.26928 163.104 8.6139 163.709 11.6045H170.784C169.934 4.81328 164.235 0.00268555 157.08 0.00268555C148.954 0.00268555 142.204 6.55124 142.204 14.3934C142.204 22.357 149.157 29.1892 157.323 29.1892C164.155 29.1892 169.733 24.5 170.543 18.0317H163.468C162.781 20.8207 159.951 22.9226 156.878 22.9226C152.633 22.9226 149.279 19.122 149.279 14.3114C149.279 9.66489 152.473 6.26928 156.837 6.26928Z" fill="#EDF900"/>
<path d="M189.014 0.446777V11.242H180.687V0.446777H173.813V17.3052H180.687H189.014V28.7447H195.886V0.446777H189.014Z" fill="#EDF900"/>
<path d="M173.813 28.7444H180.687V17.3049L173.813 20.7433V28.7444Z" fill="#EDF900"/>
</svg>
