<svg width="509" height="509" viewBox="0 0 509 509" fill="none" xmlns="http://www.w3.org/2000/svg">
<path d="M470.636 120.36C470.661 120.319 470.677 120.277 470.694 120.243C470.995 119.441 470.585 118.537 469.774 118.228C469.615 118.161 469.456 118.253 469.281 118.245C424.075 47.2376 344.728 0 254.5 0C196.64 0 143.246 19.4537 100.44 52.1052C99.9466 52.1972 99.5953 52.5067 99.3779 52.9416C39.0001 99.5268 0 172.524 0 254.513C0 394.837 114.165 509 254.5 509C394.827 509 509 394.837 509 254.513C509 205.293 494.915 159.343 470.636 120.36ZM465.082 379.749C450.588 388.489 433.041 396.1 413.152 402.456C418.672 378.009 422.017 354.867 423.548 332.963C444.633 325.971 462.966 317.591 477.703 308.098C478.255 325.419 477.82 342.088 476.749 357.703C473.228 365.263 469.339 372.623 465.082 379.749ZM151.375 475.019C145.629 469.181 140.277 463.209 135.292 457.112C151.091 461.42 169.675 465.576 190.25 468.746C196.121 478.289 202.954 487.313 210.883 495.643C190.066 491.896 170.16 485.523 151.509 476.859C151.852 476.257 151.869 475.529 151.375 475.019ZM146.608 474.517C131.193 466.931 116.708 457.74 103.317 447.21C110.794 449.836 119.852 452.755 130.198 455.682C135.258 462.105 140.72 468.378 146.608 474.517ZM132.03 452.956C120.279 437.943 110.803 422.211 103.585 405.76C123.49 412.007 145.713 416.984 169.407 420.572C173.865 436.337 180.004 451.333 188.125 465.242C166.907 461.871 147.946 457.43 132.03 452.956ZM27.1738 299.852C27.1821 320.384 29.7916 342.029 35.6713 364.728C23.109 339.863 14.6449 312.606 11.199 283.819C15.4645 289.405 20.8257 294.75 27.1738 299.852ZM41.2081 373.092C33.8815 348.21 30.5694 324.625 30.352 302.319C44.194 312.723 62.2345 321.973 83.5119 329.751C84.2228 354.541 89.0654 378.193 97.9978 400.625C75.3823 393.014 56.0119 383.747 41.2081 373.092ZM43.8343 220.941C57.8937 230.133 75.5579 238.321 95.8902 245.221C88.7726 268.463 84.2311 292.333 83.4951 316.386C83.3948 319.623 83.3948 322.843 83.4282 326.038C61.9502 318.084 43.8761 308.684 30.3018 298.171C30.4942 270.336 35.5542 244.552 43.8343 220.941ZM32.2422 151.331C37.5113 142.9 43.2572 134.955 49.346 127.419C54.7657 136.561 63.7484 145.075 75.6416 152.778C62.4938 171.713 50.8348 192.89 42.2368 216.199C31.4142 208.655 23.0254 200.459 17.5638 191.76C21.2773 177.743 26.2203 164.236 32.2422 151.331ZM44.127 128.883C45.1725 127.143 46.2682 125.437 47.3471 123.723C47.4642 123.982 47.5813 124.233 47.6984 124.484C46.5107 125.939 45.2896 127.386 44.127 128.883ZM126.744 45.4143C127.162 45.3307 127.697 45.2972 128.617 45.2554C130.767 45.1467 128.919 46.1252 128.617 46.9114C128.333 47.6892 126.276 50.2318 124.996 51.411C123.733 52.5819 122.846 53.3681 121.968 56.195C121.098 59.0303 121.968 58.3444 122.846 56.6801C123.733 55.0241 125.581 53.6608 128.818 51.2103C132.038 48.7681 130.968 50.0394 132.632 49.2532C134.288 48.4754 135.559 47.6976 137.717 46.5183C139.867 45.339 138.788 45.7405 140.352 43.9674C141.916 42.2194 142.894 42.4118 144.751 40.9398C146.608 39.4762 147.578 39.2838 148.364 38.4976C149.15 37.7282 149.544 37.4187 150.43 36.1475C151.3 34.8762 152.488 34.6922 153.558 33.1282C154.629 31.5558 155.214 31.5558 156.101 30.3849C156.218 30.2344 156.235 30.1257 156.301 29.9918C161.044 27.9093 165.853 25.9271 170.746 24.1373C172 26.5042 173.798 28.7791 176.082 30.9453C167.174 34.9096 157.857 39.4009 148.348 44.4692C148.063 44.5278 147.762 44.5947 147.394 44.6532C146.541 44.8038 146.934 44.7536 146.265 45.5649C142.735 47.4718 139.164 49.4707 135.601 51.5448C134.84 51.7623 134.071 52.4983 132.925 52.883C131.745 53.2677 131.553 53.6608 130.374 54.4386C130.29 54.4888 130.332 54.6226 130.273 54.6895C122.704 59.231 115.11 64.0986 107.583 69.3927C105.826 66.8419 104.522 64.2073 103.627 61.5393C111.012 55.7434 118.706 50.3405 126.744 45.4143ZM130.549 58.1353C130.675 58.7375 130.759 59.323 130.575 59.7161C129.981 61.0877 130.575 59.7161 129.203 59.9084C128.049 60.0757 127.656 60.3852 126.184 60.8368C127.647 59.9168 129.103 59.0135 130.549 58.1353ZM366.616 41.4165C368.113 42.922 369.51 44.2518 370.538 44.6532C372.487 45.4478 374.051 46.6103 375.816 47.9819C377.572 49.3619 387.743 61.6731 387.743 61.6731C387.743 61.6731 388.336 69.8862 394.785 71.6426C399.218 72.8636 402.095 74.0596 403.952 75.1385C400.915 78.2665 397.252 81.2691 393.02 84.121C388.947 79.9727 384.882 76.0334 380.868 72.3869C364.567 57.5666 347.973 45.9245 332.575 36.7245C335.327 35.0602 337.786 33.2955 339.852 31.4471C348.952 34.5333 358.026 37.8704 366.616 41.4165ZM410.433 76.5353C413.955 75.5567 413.754 76.7276 417.86 79.2785C421.967 81.821 421.39 80.6501 423.138 85.1498C424.903 89.641 425.287 86.5214 425.287 92.3759C425.287 98.2472 429.386 101.961 428.808 105.866C428.231 109.781 430.481 112.331 428.875 115.652C427.245 118.972 424.702 120.151 426.274 122.108C427.838 124.066 427.052 123.672 430.774 124.459C434.479 125.236 441.722 126.993 443.688 128.557C445.636 130.121 446.23 132.864 445.243 134.227C444.265 135.591 443.478 135.398 438.594 138.727C437.549 139.43 436.67 139.906 435.834 140.341C431.125 132.312 426.224 124.768 421.181 117.726C422.276 117.082 423.238 116.246 423.598 115.142C423.991 113.962 422.82 114.74 423.598 112.658C424.384 110.567 423.732 112.265 424.384 110.567C425.036 108.877 425.162 108.099 425.162 108.099C425.162 108.099 426.199 107.171 426.458 106.661C426.734 106.134 426.843 105.883 426.458 104.185C426.074 102.487 426.458 102.998 425.287 101.701C424.108 100.397 423.456 99.8781 422.419 99.4933C421.382 99.1002 420.846 98.8326 420.194 98.7155C419.55 98.5817 419.55 99.1002 418.379 98.3224C417.2 97.5362 416.882 97.1432 415.477 96.7501C414.08 96.3653 414.214 96.4908 412.508 95.713C410.801 94.9268 410.166 94.5337 409.513 94.2661C408.853 94.0152 410.676 95.5792 408.853 94.0152C407.038 92.4428 407.573 93.0952 407.038 92.4428C406.502 91.7988 406.896 92.8359 405.733 90.8872C404.554 88.9301 404.554 88.9301 404.554 88.9301L402.856 88.0101C402.856 88.0101 403.383 87.249 402.086 87.4916C401.543 87.5919 400.907 88.0101 400.121 87.4916C399.343 86.973 398.95 85.6599 398.549 86.1868C398.222 86.6468 396.834 87.0567 397.194 88.4952C396.483 87.7592 395.789 87.0065 395.094 86.2705C399.452 83.3265 403.224 80.2152 406.377 76.9785C407.264 77.7982 407.372 77.3883 410.433 76.5353ZM453.072 131.099C452.285 129.343 452.285 125.236 455.807 125.036C458.291 124.902 461.594 126.583 463.367 127.595C461.051 131.116 458.182 134.554 454.786 137.874C454.527 133.433 453.799 132.755 453.072 131.099ZM456.434 191.585C456.66 193.81 456.191 196.369 456.191 197.983C456.191 199.748 454.243 201.897 453.465 205.619C452.679 209.324 451.106 207.375 451.106 214.811C451.106 218.507 450.88 224.144 451.282 229.656C441.655 234.34 431.008 238.68 419.433 242.586C415.042 216.609 408.125 193.199 399.795 172.324C414.749 167.08 427.872 161.016 438.736 154.258C439.907 155.822 440.844 157.353 441.321 159.268C441.923 161.61 442.692 162.981 444.081 163.768C444.382 163.943 444.658 164.002 444.951 164.035C449.258 173.126 453.097 182.326 456.434 191.585ZM336.782 319.506C336.381 319.364 336.038 319.255 335.545 319.046C332.216 317.674 331.43 320.016 331.43 318.268C331.43 316.495 331.43 317.097 330.451 315.726C329.464 314.354 327.708 313.961 325.165 312.974C322.623 311.996 323.601 312.782 322.623 312.782C321.644 312.782 320.473 313.367 318.324 311.611C318.324 311.611 318.324 311.611 318.123 311.034C317.931 310.44 319.101 309.252 319.101 309.252C319.101 309.252 319.101 309.252 317.931 309.252C316.751 309.252 316.367 308.483 315.58 307.697C314.811 306.91 313.439 305.74 311.683 305.74C309.918 305.74 310.696 306.133 309.132 306.726C307.568 307.304 301.897 307.304 301.897 307.304C301.897 307.304 299.948 307.304 298.376 307.304C296.812 307.304 297.197 307.304 295.834 307.304C294.462 307.304 291.919 306.726 291.919 306.726C291.919 306.726 290.748 305.94 288.599 305.171C286.449 304.393 287.62 303.992 285.655 303.799C283.706 303.598 283.898 305.171 282.92 306.526C281.95 307.897 282.92 306.526 281.548 307.304C280.177 308.09 280.578 309.461 280.779 310.047C280.963 310.641 280.779 312.389 280.779 312.389C280.779 312.389 278.813 313.175 277.642 312.589C276.463 311.996 278.228 307.513 278.228 305.932C278.228 304.385 278.228 305.932 278.412 304.569C278.621 303.197 280.177 302.62 279.984 302.026C279.8 301.432 276.856 303.59 276.078 303.791C275.292 303.983 272.942 305.556 270.015 307.688C267.079 309.854 268.25 308.667 266.686 309.06C265.122 309.453 265.122 309.453 263.767 311.41C262.379 313.359 262.972 312.782 262.379 313.175C261.802 313.56 259.652 318.26 259.652 318.26L257.101 317.482C257.101 317.482 257.101 317.482 255.537 315.91C253.973 314.346 255.537 311.602 254.5 310.432C254.266 310.189 253.747 310.189 253.095 310.314C253.02 300.303 252.978 290.242 252.995 280.147C253.329 280.272 253.756 280.398 254.5 280.607C257.101 281.301 255.537 281.092 257.101 281.301C258.673 281.502 257.887 282.857 260.028 281.301C262.186 279.737 262.186 280.707 262.186 279.737C262.186 278.759 259.644 276.994 257.988 277.78C255.939 278.742 253.58 277.203 253.003 277.78C253.003 274.903 253.02 272.026 253.028 269.157C253.463 269.166 253.906 269.166 254.341 269.166C254.124 269.458 253.915 269.709 254.5 270.152C255.537 270.939 251.288 270.353 254.584 272.101C257.887 273.866 257.678 273.866 260.028 273.674C262.379 273.473 262.379 274.627 264.536 273.766C266.678 272.896 268.635 271.708 268.635 271.708C268.635 271.708 271.177 271.332 267.656 270.353C265.114 269.634 263.399 269.634 261.91 269.182C288.398 269.023 314.066 267.225 338.229 263.98C338.564 281.427 338.129 299.952 336.782 319.506ZM225.419 287.172C223.864 286.779 215.057 286.779 213.108 286.779C211.151 286.779 213.501 282.071 213.693 281.1C213.886 280.13 214.471 278.366 214.873 277.195C215.274 276.024 215.843 275.045 216.428 273.674C217.022 272.319 216.813 272.503 217.415 271.139C218.001 269.768 218.394 269.375 218.586 268.396C218.628 268.212 218.661 268.07 218.695 267.928C228.932 268.589 239.353 268.998 249.917 269.14C249.858 283.258 249.883 297.376 249.992 311.368C248.018 312.188 245.944 313.183 244.99 313.367C243.042 313.76 241.854 313.568 240.491 313.367C239.119 313.183 236.384 311.619 235.598 310.833C234.828 310.047 233.649 309.068 233.649 309.068C233.649 309.068 232.47 307.304 231.893 306.526C231.299 305.74 231.5 305.355 231.107 304.769C230.714 304.176 231.299 300.077 231.299 298.714C231.299 297.334 232.671 296.163 232.478 295.377C232.278 294.591 226.992 287.557 225.419 287.172ZM204.301 274.844C203.322 275.631 202.16 275.823 199.609 275.823C197.066 275.823 195.502 275.823 193.938 275.631C192.383 275.438 191.789 275.238 190.802 274.844C189.832 274.468 186.494 274.075 184.353 272.31C182.204 270.546 184.353 272.31 183.576 270.353C182.789 268.396 182.204 267.61 180.632 266.046C179.937 265.352 179.352 264.658 178.883 263.989C189.121 265.377 199.634 266.481 210.365 267.326C209.077 267.936 209.796 268.187 208.608 268.772C207.036 269.55 207.429 270.345 205.279 274.058C203.122 277.78 205.279 274.067 204.301 274.844ZM420.98 117.09C420.98 117.09 420.905 117.182 420.863 117.258C418.68 114.247 416.489 111.311 414.281 108.484C414.097 107.656 413.996 107.33 413.06 106.929C410.166 103.265 407.238 99.7275 404.311 96.3653C406.009 96.8337 406.126 96.5912 406.904 97.1432C407.832 97.7872 408.092 99.2257 409.003 99.7526C409.923 100.271 411.479 100.263 412.784 100.53C414.097 100.79 414.097 101.174 414.615 101.701C415.134 102.228 415.452 103.399 415.493 103.792C415.519 104.185 415.786 105.415 416.171 105.841C416.564 106.268 416.179 106.661 417.216 107.573C418.253 108.484 417.994 108.576 419.441 108.919C420.88 109.27 420.88 109.27 420.88 109.27C420.88 109.27 421.139 109.655 420.88 111.227C420.604 112.8 420.98 117.09 420.98 117.09ZM405.741 102.839C405.03 103.943 404.244 105.038 404.83 105.841C405.616 106.92 404.955 107.706 406.394 108.743C407.832 109.789 407.581 109.789 408.209 110.575C408.869 111.353 407.698 112.666 409.003 113.971C410.308 115.267 410.174 116.714 411.989 115.928C413.812 115.15 412.792 116.706 413.888 114.355C414.03 114.038 414.197 113.803 414.339 113.619C421.273 122.769 427.529 132.153 433.124 141.704C431.836 142.357 431.251 142.9 431.535 144.205C432.003 146.212 434.738 149.391 436.654 151.624C426.023 158.147 413.143 164.035 398.515 169.137C389.449 147.091 378.86 127.921 368.079 111.604C365.98 108.417 363.839 105.339 361.706 102.303C373.6 98.2053 383.929 93.3963 392.426 88.0436C397.102 92.8861 401.543 97.8122 405.741 102.839ZM217.741 264.741C217.733 264.741 217.708 264.741 217.7 264.741C204.067 263.838 190.76 262.483 177.905 260.743C177.905 260.668 177.905 260.61 177.905 260.367C177.905 259.782 177.905 257.624 177.905 255.683C177.905 253.726 178.29 252.547 177.905 250.59C177.512 248.641 178.683 248.842 179.076 247.855C179.461 246.877 180.054 247.278 182.204 245.706C184.353 244.142 182.204 242.77 181.811 242.185C181.426 241.599 181.618 241.014 181.618 240.044C181.618 239.048 182.605 239.257 182.605 238.672C182.605 238.078 189.246 234.557 192.776 233.386C196.288 232.215 194.139 232.608 196.288 232.408C198.438 232.215 198.831 233.194 203.18 235.343C207.504 237.493 205.279 235.536 206.843 235.343C208.416 235.142 209.587 235.343 210.958 235.343C212.322 235.343 212.907 234.557 213.1 233.972C213.3 233.386 211.929 232.6 211.929 232.014C211.929 231.437 214.471 231.83 215.642 231.83C216.805 231.83 218.385 231.83 220.526 231.83C222.676 231.83 223.663 232.014 224.641 232.993C225.612 233.98 226.398 234.557 228.74 235.745C231.09 236.916 230.304 235.929 231.675 235.929C233.047 235.929 233.047 235.929 234.419 235.929C235.782 235.929 235.196 237.501 235.397 239.257C235.59 241.022 236.175 242.193 236.175 242.193C236.175 242.193 236.175 242.193 236.175 244.535C236.175 246.885 236.752 246.3 237.354 246.684C237.94 247.069 240.867 252.756 243.217 252.363C245.568 251.97 244.388 251.577 245.174 250.398C245.952 249.227 246.153 245.898 246.153 245.898C246.153 245.898 244.781 244.142 244.388 243.355C244.003 242.586 243.217 240.035 243.025 238.856C242.833 237.677 242.632 235.92 242.239 235.343C241.846 234.749 242.239 232.014 242.055 229.865C241.846 227.716 242.833 227.515 243.033 226.737C243.226 225.959 244.79 224.78 245.183 224.186C245.568 223.601 247.332 222.43 248.11 221.251C248.62 220.506 249.482 220.038 250.419 219.569C250.193 234.156 250.017 248.959 249.942 263.83C248.177 263.043 245.576 261.697 245.576 261.697C245.576 261.697 243.61 259.982 242.063 259.598C240.491 259.205 238.341 259.598 236.384 259.598C234.435 259.598 230.128 260.292 229.543 261.697C228.966 263.11 228.171 264.875 228.171 264.875C228.171 264.875 228.957 264.875 230.128 264.875C231.299 264.875 231.299 264.281 232.47 263.897C233.649 263.503 233.457 261.563 235.021 262.14C236.577 262.717 238.734 261.371 240.098 262.14C241.461 262.91 243.61 264.875 243.61 264.875C243.61 264.875 244.003 263.897 244.606 264.875C244.806 265.226 245.4 265.594 246.103 265.946C236.501 265.77 227.059 265.352 217.741 264.741ZM198.948 72.4287C202.16 72.044 201.758 70.8647 204.886 69.8862C208.023 68.9077 208.215 67.536 209.587 68.3222C210.958 69.1 209.185 70.664 211.142 71.0655C213.1 71.4502 213.493 73.1564 215.642 72.596C217.8 72.044 216.035 73.4073 217.8 72.044C219.556 70.6724 220.142 72.6211 219.556 70.6724C218.971 68.7153 216.805 67.536 216.428 65.788C216.035 64.0233 215.257 65.7295 215.642 63.3124C216.035 60.8953 215.843 60.5023 216.228 59.323C216.621 58.1521 216.621 57.7674 216.621 56.5881C216.621 55.4088 217.198 55.8103 214.078 55.4088C213.869 55.3921 213.668 55.4005 213.468 55.4005C214.848 53.8197 216.202 52.3227 217.549 50.8256C220.443 50.0143 217.917 50.6917 220.727 49.939C221.455 49.7467 221.856 49.6881 222.107 49.6798C222.216 49.7048 222.333 49.7383 222.459 49.7467C222.509 49.7885 222.551 49.7968 222.617 49.7801C224.382 50.0896 226.222 50.3321 228.037 50.5998C227.937 51.0096 228.464 50.859 229.066 51.4528C229.727 52.0885 228.163 51.8961 229.727 52.0885C231.282 52.2892 229.534 52.0885 231.282 52.2892C233.047 52.4816 232.654 53.2677 233.833 52.2892C233.967 52.1721 234.051 52.1136 234.159 52.0216C231.818 57.2488 229.325 62.9611 226.774 68.9244C225.888 69.9196 226.047 69.7691 226.323 69.9949C224.817 73.4909 223.312 77.1207 221.764 80.8509C221.079 80.8927 221.505 80.0563 221.505 80.0563C221.505 80.0563 221.505 78.0992 220.334 77.5054C219.172 76.9283 220.334 77.5054 218.578 77.8985C216.813 78.2916 217.415 78.0992 216.428 77.7062C215.45 77.3131 213.886 76.9283 212.121 75.9498C210.365 74.9629 210.958 75.5567 209.787 74.9629C208.617 74.3774 208.416 73.9844 207.437 72.6127C206.459 71.2578 205.095 73.9844 204.502 74.3775C203.924 74.7705 199.617 75.9498 199.617 75.9498C199.617 75.9498 199.617 75.9498 199.617 75.1636C199.617 74.3858 198.246 74.3858 198.246 74.3858C198.246 74.3858 197.827 74.4862 197.2 74.5698C197.777 73.8589 198.371 73.1396 198.948 72.4287ZM243.82 40.162C243.61 41.9267 244.79 42.5121 245.375 42.6125C245.961 42.7129 245.961 44.6616 245.961 44.6616C245.961 44.6616 241.846 47.0034 241.453 46.4263C241.31 46.2005 240.909 45.9245 240.457 45.6569C241.519 43.3318 242.548 41.0903 243.544 38.9493C243.711 39.3758 243.853 39.7689 243.82 40.162ZM261.601 35.2776C262.195 34.8762 263.558 31.3635 263.767 30.3849C263.951 29.4064 263.767 27.8508 263.767 26.6715C263.767 25.5006 261.986 25.1075 260.614 24.7144C260.38 24.6475 260.171 24.6726 259.962 24.681C260.246 18.9268 260.472 14.4774 260.614 11.6003C262.814 14.2181 266.36 18.6675 270.726 24.9319C270.215 25.2497 269.663 25.6595 269.354 25.9522C268.961 26.3453 266.627 26.9977 266.477 27.5162C266.36 28.0348 265.958 29.214 265.958 29.214C265.958 29.214 266.995 30.2511 265.958 30.9118C264.921 31.5558 264.536 34.4246 265.047 34.9515C265.565 35.47 265.967 35.7293 265.699 36.3816C265.44 37.0424 263.884 38.4642 263.491 38.7318C263.09 38.9911 261.659 40.162 261.526 41.2158C261.4 42.2529 262.061 43.8169 262.454 44.7285C262.83 45.6318 263.734 44.4692 263.616 46.6856C263.55 47.7645 263.7 48.7848 264.127 49.4623C262.345 49.5041 260.572 49.5627 258.791 49.5627C258.991 44.9794 259.184 40.7558 259.368 36.8416C259.928 36.2813 261.124 35.5871 261.601 35.2776ZM257.988 130.322C258.314 131.777 257.051 132.504 255.596 133.14C255.713 129.326 255.838 125.554 255.964 121.858C257.201 122.527 256.976 122.886 257.988 125.63C259.058 128.557 257.486 128.164 257.988 130.322ZM239.119 48.5841C239.219 48.6427 239.295 48.6594 239.378 48.7012C239.278 48.7012 239.194 48.6845 239.086 48.6678C239.094 48.6427 239.102 48.6092 239.119 48.5841ZM255.504 52.6405C255.428 54.4219 255.37 56.2285 255.269 58.0852C255.01 57.9179 254.776 57.7423 254.5 57.5666C253.271 56.7804 250.251 56.5797 247.918 56.5797C245.568 56.5797 242.439 58.9299 240.875 59.9084C239.311 60.8953 240.875 59.9084 238.726 64.7928C236.577 69.6855 239.311 66.3651 239.705 68.3138C240.098 70.2709 239.705 68.3138 240.098 69.2924C240.491 70.2793 242.055 70.8647 243.033 72.8135C244.003 74.7705 243.226 74.1851 243.033 75.9498C242.841 77.7062 242.247 78.0993 241.076 79.8556C239.897 81.6203 240.298 81.2272 238.734 81.8127C237.162 82.3898 237.747 81.6203 237.747 81.6203C237.747 81.6203 238.141 77.3047 237.948 76.7276C237.747 76.1422 237.948 74.7705 237.162 75.1553C236.384 75.5484 235.406 76.3345 234.828 75.356C234.235 74.3775 234.435 73.9844 234.435 73.9844C234.435 73.9844 232.478 72.8051 232.085 72.228C231.692 71.6342 232.478 70.4716 232.478 70.4716C232.478 70.4716 233.658 68.7069 233.658 68.1215C233.658 67.536 233.658 66.1644 233.658 66.1644L233.264 63.6219V61.7986C233.407 61.4641 233.557 61.1128 233.699 60.7866L235.021 59.9084L237.957 58.7375L238.55 56.1866L239.713 54.4303C239.713 54.4303 244.606 54.6226 245.384 54.6226C246.161 54.6226 250.661 54.8234 251.456 54.8234C252.183 54.8234 252.56 52.8579 252.601 52.5736C253.563 52.607 254.533 52.6237 255.504 52.6405ZM257.988 72.2364C258.857 72.6211 259.259 73.9927 260.037 76.1505C260.823 78.3 260.43 77.9069 261.015 77.9069C261.601 77.9069 262.78 79.2785 262.78 79.2785C262.78 79.2785 265.707 81.821 265.707 83.385C265.707 84.9407 265.13 84.949 264.152 85.7268C263.165 86.5047 262.78 87.6839 262.579 88.8548C262.387 90.0341 263.374 91.9828 262.203 92.1835C261.015 92.3759 261.015 92.3759 257.996 92.3759C257.603 92.3759 257.277 92.3926 257.026 92.4344C257.277 85.3254 257.561 78.5509 257.82 72.1444C257.854 72.1611 257.946 72.2196 257.988 72.2364ZM215.684 112.331C215.667 112.147 215.642 112.014 215.642 111.738C215.642 109.789 216.629 108.61 217.206 106.469C217.8 104.319 218.385 105.097 222.5 101.961C226.599 98.8326 224.834 100.982 226.406 100.597C227.97 100.204 227.577 100.397 228.556 98.2555C229.534 96.0977 231.098 97.0679 233.44 95.9053C235.782 94.7345 233.44 95.9053 235.782 94.7344C238.132 93.5552 235.782 94.7344 235.59 92.5766C235.397 90.4356 234.026 91.0126 236.568 91.0126C239.119 91.0126 238.534 90.0341 238.534 90.0341C238.534 90.0341 238.534 90.0341 239.311 88.6625C240.089 87.2908 240.683 89.0556 241.26 89.0556C241.846 89.0556 243.025 89.0556 244.781 88.077C246.538 87.0901 247.725 86.513 248.687 85.7352C249.674 84.949 249.875 84.7483 250.251 82.7996C250.644 80.8425 249.482 81.0349 249.281 79.6716C249.08 78.3 249.866 78.0993 249.666 76.9283C249.473 75.7491 249.473 75.1636 249.473 75.1636C249.473 75.1636 249.473 74.1851 250.059 72.8218C250.644 71.4502 251.037 72.6211 252.208 72.044C253.371 71.4586 253.973 71.8433 254.5 71.0655C254.542 70.9902 254.659 71.0237 254.726 70.9902C254.182 84.0625 253.622 98.7322 253.07 114.615C240.148 114.439 227.636 113.661 215.684 112.331ZM240.666 52.0132C240.641 53.4099 240.248 53.2677 239.119 53.2677C238.182 53.2677 237.538 53.5855 236.669 54.0706C237.003 53.2761 237.363 52.515 237.706 51.7288C238.701 51.8208 239.663 51.9379 240.666 52.0132ZM227.887 74.2938C228.196 74.5698 228.48 74.8458 228.556 75.3644C228.756 76.736 228.556 75.3644 227.97 76.3429C227.385 77.3131 227.184 77.7062 226.063 78.6596C226.665 77.1876 227.276 75.724 227.887 74.2938ZM252.978 117.734C252.794 123.263 252.601 128.908 252.417 134.687C251.522 135.323 251.339 135.984 251.046 137.748C250.653 140.09 252.024 139.112 251.832 142.633C251.623 146.154 251.623 144.397 250.059 146.346C248.503 148.303 247.725 147.325 246.538 147.124C245.367 146.932 244.204 143.21 243.811 140.676C243.418 138.133 244.196 138.133 243.995 135.591C243.811 133.048 243.025 133.249 241.059 131.869C239.111 130.497 238.525 131.099 236.568 130.497C234.611 129.92 234.419 130.112 231.876 128.942C229.325 127.771 231.483 127.378 230.111 125.814C228.74 124.25 227.368 123.856 225.603 122.878C223.855 121.899 222.484 121.122 221.304 120.729C220.133 120.335 219.941 119.165 219.74 117.207C219.673 116.589 219.473 116.17 219.213 115.819C230.086 116.931 241.369 117.584 252.978 117.734ZM220.92 161.217C221.706 161.217 224.048 159.46 227.192 157.42C227.192 157.42 227.192 157.42 228.363 158.089C229.534 158.749 228.363 158.089 228.163 158.674C227.97 159.26 229.141 159.26 230.12 160.824C231.107 162.388 236.183 165.708 235.79 166.695C235.397 167.673 235.79 166.695 229.133 167.673C222.5 168.652 229.133 167.673 227.192 167.481C225.227 167.289 225.227 165.917 224.048 165.524C222.877 165.131 223.069 164.152 220.727 163.96C218.385 163.768 220.727 163.96 218.578 164.152C216.428 164.353 217.599 164.545 215.843 164.152C214.086 163.768 214.086 163.174 214.086 163.174C214.086 163.174 220.15 161.217 220.92 161.217ZM287.637 113.544C286.993 112.465 286.408 111.52 285.655 110.759C284.484 109.588 285.655 110.759 284.292 112.725C282.92 114.673 284.292 112.725 284.593 113.502C284.626 113.561 284.593 113.661 284.559 113.737C281.808 113.937 279.014 114.071 276.212 114.205C275.409 113.762 274.565 113.159 273.728 112.323C272.164 110.759 273.536 110.366 273.143 108.409C272.758 106.46 272.942 107.43 271.57 106.845C270.215 106.268 269.822 106.268 269.237 105.289C268.651 104.311 267.079 103.918 265.916 103.525C264.729 103.131 263.374 103.131 260.438 102.747C257.494 102.354 258.866 103.332 257.996 104.503C257.503 105.155 256.934 106.159 256.457 107.706C256.574 104.603 256.675 101.551 256.792 98.5566C257.185 98.5315 257.586 98.4311 257.988 98.2471C259.259 97.6533 260.823 95.897 260.823 95.897C260.823 95.897 262.772 96.8839 264.921 98.8326C267.071 100.79 268.451 101.961 269.814 103.725C271.177 105.482 272.357 106.268 276.262 104.503C280.177 102.747 277.45 104.311 280.177 103.725C282.92 103.14 280.954 101.961 280.177 100.982C279.399 100.004 278.027 99.8111 276.078 99.025C274.113 98.2555 274.314 97.6533 276.078 97.8541C277.835 98.0464 279.976 98.0464 282.527 97.2602C285.069 96.4908 283.505 95.1275 283.505 95.1275C283.505 95.1275 280.377 93.9399 277.249 91.4057C274.113 88.8632 275.292 89.2479 274.908 88.0854C274.514 86.9061 277.45 87.4999 278.228 87.4999C279.006 87.4999 279.984 88.8716 281.95 90.6279C283.898 92.3843 283.112 90.2432 283.112 89.641C283.112 89.0639 282.334 85.7352 281.548 83.5774C280.779 81.428 278.035 82.5989 277.057 82.0218C276.078 81.428 272.164 77.9153 271.771 77.3131C271.386 76.736 271.177 69.4931 269.822 68.5229C268.459 67.536 266.686 67.1513 265.515 66.1811C264.336 65.2026 262.772 64.2157 261.601 63.2455C260.547 62.359 259.326 61.0459 258.314 60.2179C258.423 57.6335 258.531 55.1161 258.64 52.699C265.498 52.6906 272.156 52.3394 278.587 51.7372C280.034 53.1506 281.49 54.6645 282.527 55.5594C284.216 56.9895 286.19 57.2405 286.441 61.0292C286.7 64.8095 287.871 64.4164 289.686 64.4164C291.518 64.4164 292.948 65.2026 293.341 65.4619C293.726 65.7295 292.438 66.9004 292.045 67.8037C291.652 68.7153 290.221 69.7691 291.518 71.8433C292.823 73.9342 290.489 75.2389 293.416 74.8458C295.516 74.5614 296.77 73.0142 297.556 72.2113C297.883 72.9305 298.217 73.6833 298.552 74.4109C298.476 75.1385 298.393 75.9164 298.292 76.6691C298.033 78.8854 295.892 82.5403 298.652 84.8905C301.429 87.2323 301.947 88.2777 304.155 89.3232C304.574 89.5072 304.883 89.7163 305.209 89.9087C307.852 96.4406 310.437 103.391 312.929 110.734C304.791 111.947 296.335 112.883 287.637 113.544ZM267.547 49.3452C269.513 48.2412 271.604 46.7441 273.143 47.0787C274.698 47.4049 274.272 47.7979 275.409 48.8601C272.808 49.0692 270.19 49.2365 267.547 49.3452ZM311.206 96.633C312.67 97.9042 312.87 98.4479 314.995 99.2257C317.471 100.137 316.559 100.923 317.989 102.094C319.419 103.274 320.473 103.131 322.681 103.131C324.906 103.131 325.818 105.231 326.988 105.473C328.159 105.741 328.561 106.134 329.464 105.473C330.376 104.829 330.376 106.393 330.376 103.918C330.376 101.434 330.911 102.881 330.376 100.004C329.857 97.1348 327.908 89.8334 326.077 86.5799C324.245 83.3265 325.165 83.4603 326.729 82.0218C328.293 80.5832 329.983 80.9763 329.983 78.5007C329.983 76.0167 328.544 75.5065 329.983 72.2364C330.56 70.9316 331.162 70.4549 331.647 70.0368C340.027 79.2283 348.525 89.4068 356.763 100.765C344.544 104.67 330.878 107.89 316.099 110.232C314.501 105.532 312.87 100.999 311.206 96.633ZM255.654 49.5041C251.263 49.4623 246.939 49.2867 242.715 48.9772C241.988 47.8649 246.019 48.3416 246.931 47.7896C247.918 47.1958 251.23 48.3667 251.23 48.3667C251.23 48.3667 253.003 48.7598 254.5 48.5674C255.186 48.467 255.387 48.5507 255.445 48.6594C255.52 48.4754 255.621 48.1576 255.738 47.823C255.713 48.3918 255.679 48.9354 255.654 49.5041ZM240.282 38.5813C238.96 37.8536 238.216 37.2598 237.313 37.2431C236.183 37.2264 237.547 37.6194 236.183 37.2264C234.812 36.8416 233.248 37.2431 233.248 37.2431C232.462 38.2133 232.855 37.0424 232.462 38.2133C232.068 39.3925 232.068 41.4918 232.855 41.4249C233.641 41.3412 232.462 40.7558 233.641 41.3413C234.812 41.9267 233.825 41.9267 234.812 41.9267C235.79 41.9267 235.665 41.2994 236.418 41.4165C237.154 41.5336 235.598 40.5551 237.154 41.5336C237.839 41.9602 238.233 42.1525 238.559 42.2947C237.706 44.1514 236.794 46.1754 235.899 48.1492C235.874 48.1409 235.824 48.099 235.824 48.099C235.824 48.099 235.74 48.1994 235.648 48.3249C235.238 48.2747 234.828 48.2412 234.427 48.1994C234.427 48.1576 234.419 48.1409 234.427 48.099C234.619 45.8325 234.619 45.8325 234.619 45.8325L233.833 44.8289C233.833 44.8289 233.281 44.6281 232.194 44.8289C231.107 45.0547 229.543 46.4263 229.643 47.0034C229.718 47.4969 230.329 46.995 229.952 47.6139C228.673 47.4299 227.36 47.2543 226.088 47.0619C226.139 46.8612 226.18 46.694 226.214 46.3929C226.406 44.6616 226.214 42.7463 226.214 42.7463C226.214 42.7463 226.498 41.6591 227.234 40.1954C237.48 29.1722 245.952 20.7166 251.355 15.4977C248.696 20.817 244.84 28.7289 240.282 38.5813ZM269.429 189.962C270.609 188.398 272.173 190.749 276.271 187.821C280.377 184.877 277.835 186.634 278.228 185.672C278.621 184.685 278.228 184.493 278.228 183.522C278.228 182.535 279.006 180.971 279.006 180.386C279.006 179.792 280.177 179.014 281.348 178.044C282.518 177.066 282.92 177.266 284.685 176.472C286.441 175.694 287.219 174.908 287.796 174.531C288.398 174.138 288.984 172.767 292.697 170.417C296.411 168.075 292.889 171.78 292.496 172.767C292.112 173.745 288.791 176.472 289.368 179.223C289.954 181.95 290.347 180.001 292.496 179.608C294.638 179.223 297.975 175.895 298.56 174.908C299.154 173.929 304.038 170.224 303.846 169.446C303.645 168.66 303.645 167.682 303.645 167.682C303.645 167.682 301.897 167.096 299.547 165.917C297.197 164.746 299.547 165.917 296.026 164.938C292.496 163.96 296.026 164.938 294.462 163.182C292.89 161.426 294.462 163.182 292.312 162.396C290.163 161.618 292.312 162.396 292.312 161.033C292.312 159.661 294.278 160.046 295.834 157.428C297.398 154.802 296.812 155.546 295.834 154.375C294.855 153.204 294.646 154.183 292.496 154.183C290.347 154.183 290.163 154.375 286.843 155.354C283.505 156.341 286.843 155.354 285.471 157.436C284.099 159.51 284.492 158.883 283.505 159.669C282.527 160.447 281.557 161.041 277.843 161.434C274.121 161.819 277.843 161.434 278.42 160.246C279.014 159.076 278.42 160.246 280.386 157.436C282.334 154.609 282.151 155.755 283.112 154.384C284.108 153.012 286.056 152.627 287.428 151.649C288.8 150.662 289.77 151.063 291.727 150.662C293.692 150.277 297.807 150.662 301.705 150.469C305.611 150.277 305.034 149.884 306.012 148.713C306.982 147.534 308.153 145.192 308.555 143.82C308.956 142.449 309.926 142.641 310.32 142.064C310.704 141.479 312.854 139.521 312.661 138.342C312.461 137.171 312.268 136 311.29 135.407C310.311 134.83 309.341 134.83 307.384 134.043C305.427 133.266 305.82 133.65 305.82 131.3C305.82 128.958 305.82 131.3 305.234 131.108C304.649 130.907 301.713 129.544 299.363 128.557C297.021 127.587 298.201 128.373 295.658 127.787C293.115 127.202 293.299 123.087 292.321 122.108C291.484 121.281 290.497 118.629 289.385 116.522C297.816 115.836 306.062 114.899 313.983 113.695C315.438 118.052 316.868 122.535 318.24 127.177C320.657 135.281 322.965 144.046 325.14 153.397C324.412 152.652 324.295 152.686 323.609 151.941C322.74 150.963 325.182 151.063 322.347 150.478C319.511 149.892 318.533 149.692 317.755 149.892C316.969 150.085 316.484 149.993 316.484 149.993C316.484 149.993 316.191 149.892 315.798 149.499C315.405 149.115 314.911 148.128 314.911 147.35C314.911 146.572 314.911 145.593 314.911 145.008C314.911 144.423 315.304 143.737 314.819 143.829C314.326 143.937 313.841 143.829 313.841 143.829C312.268 146.087 310.52 147.057 310.604 147.743C310.704 148.429 310.403 149.499 310.604 149.993C310.813 150.478 310.662 151.063 310.529 151.849C310.411 152.636 310.018 152.535 309.742 154.007C309.441 155.471 308.848 156.55 308.848 156.934C308.848 157.328 308.454 157.528 308.848 158.59C309.241 159.669 306.213 159.184 309.241 159.669C312.268 160.163 311.298 159.477 314.426 159.669C317.554 159.862 316.676 159.377 319.411 158.984C322.154 158.59 322.932 157.905 323.518 158.005C324.103 158.105 322.832 159.042 322.347 159.845C321.853 160.648 323.609 160.648 324.889 160.648C325.809 160.648 326.261 161.041 326.821 160.966C328.469 168.618 329.983 176.656 331.338 185.078C311.741 187.947 290.899 189.711 269.32 190.171C269.354 190.079 269.371 190.038 269.429 189.962ZM329.456 158.356C329.514 158.122 329.464 157.871 329.28 157.553C326.796 146.288 324.07 135.85 321.243 126.282C319.904 121.766 318.508 117.433 317.103 113.176C332.157 110.742 346.091 107.397 358.536 103.315C360.903 106.627 363.254 109.956 365.562 113.444C376.159 129.527 386.613 148.429 395.563 170.166C377.464 176.246 356.797 181.155 334.415 184.61C332.918 175.393 331.262 166.645 329.456 158.356ZM359.883 99.7693C350.992 87.4414 341.801 76.3596 332.734 66.5324C332.726 66.2982 332.734 66.1142 332.726 65.8466C332.45 60.7615 333.638 62.5931 334.415 61.1546C335.202 59.7161 333.127 57.6252 331.028 56.3288C328.937 55.0241 324.371 51.8961 322.949 49.939C322.129 48.8267 319.821 46.0249 317.621 43.6245C321.945 42.0772 325.901 40.346 329.431 38.4642C345.096 47.7059 362.083 59.5404 378.76 74.6953C382.775 78.3502 386.588 82.0887 390.31 85.8607C381.947 91.0879 371.718 95.7883 359.883 99.7693ZM315.17 41.1405C314.468 40.4798 313.841 39.9613 313.431 39.7689C311.482 38.8656 312.787 41.2074 309.517 37.4187C306.271 33.6551 304.699 34.0315 303.252 33.5129C301.83 32.9944 300.659 32.342 298.953 30.9118C297.264 29.4733 298.443 30.2678 296.611 29.2224C294.78 28.177 294.412 27.533 291.142 25.3082C289.209 23.9952 287.537 24.0202 286.441 24.2461C278.989 18.5672 272.683 14.2348 268.108 11.2741C268.961 11.4749 269.998 11.7174 270.951 11.9516C281.582 15.2803 302.073 22.7406 326.244 36.6158C322.907 38.2384 319.227 39.7689 315.17 41.1405ZM282.301 25.049C282.017 24.9904 281.364 24.6642 279.926 23.7359C276.271 21.3941 274.063 20.4741 273.143 20.8755C272.775 21.0261 272.398 21.2352 272.055 21.4108C270.023 18.5588 268.158 16.033 266.577 14.009C270.609 16.6268 275.945 20.2817 282.301 25.049ZM256.775 25.7431C255.203 26.0191 252.777 27.8591 251.623 28.4279C250.694 28.8962 249.34 29.9082 246.872 31.8486C252.233 20.5661 256.097 12.9887 257.561 10.1534C257.411 13.0639 257.143 18.3665 256.775 25.7431ZM218.068 45.5816C217.005 45.3641 215.985 45.1132 214.956 44.8791C215.065 44.7787 215.115 44.7703 215.266 44.6532C217.415 42.9052 216.629 44.1431 218.385 42.7463C220.15 41.3413 217.415 42.5121 220.15 41.3329C222.885 40.162 222.885 40.162 222.885 40.162V38.0125L219.782 38.2049C219.565 38.5896 220.928 35.8631 217.608 38.2049C214.279 40.5551 212.907 40.162 212.514 40.7474C212.121 41.3412 210.766 42.7463 210.766 42.7463C210.766 42.7463 208.617 41.4082 208.809 42.7463C208.842 43.0056 208.851 43.1729 208.867 43.3485C206.116 42.5958 203.515 41.7762 201.014 40.9063C221.572 27.7755 238.759 18.6843 248.578 13.8167C241.921 20.2817 231.09 31.1711 218.068 45.5816ZM214.998 48.2914C214.705 48.5841 214.563 48.8769 214.086 49.5459C213.1 50.9176 210.557 50.5245 213.1 50.9176C213.166 50.9343 213.208 50.9427 213.267 50.951C211.828 52.5736 210.415 54.1543 208.943 55.8521C208.734 55.6764 208.608 55.3837 208.608 54.8317C208.608 52.2892 207.429 54.447 208.608 52.2892C209.787 50.1397 210.758 48.375 209.98 48.1827C209.194 47.9819 206.843 48.1827 206.843 48.1827C205.087 48.5758 201.574 48.5758 199.425 50.3321C197.267 52.0968 196.874 51.8961 195.502 53.6608C194.139 55.4172 193.353 55.4172 192.96 56.0026C192.567 56.5881 190.233 57.7088 191.396 58.127C192.567 58.5452 192.96 57.5164 194.331 58.127C195.703 58.7375 196.882 60.1092 196.882 60.1092C196.882 60.1092 196.882 60.8953 197.075 61.6731C197.267 62.451 194.724 64.4164 194.925 65.0019C195.117 65.5789 194.34 67.1429 194.925 68.3222C195.486 69.4513 194.666 69.1837 196.347 70.7142C195.226 72.0775 194.114 73.424 192.968 74.8207C192.508 74.8291 192.332 74.8124 191.989 74.5865C191.404 74.1935 191.404 72.8218 191.404 72.8218C191.404 72.8218 193.169 71.6426 193.169 71.0655C193.169 70.48 192.968 69.6938 192.968 69.6938L191.596 67.9291C191.596 67.9291 189.447 65.788 189.146 65.1942C188.836 64.6004 187.297 64.2073 187.297 64.2073C187.297 64.2073 186.904 61.8655 186.904 59.9084C186.904 57.9514 184.947 58.3444 184.947 58.3444C184.947 58.3444 183.392 58.3444 182.02 58.3444C180.64 58.3444 179.862 58.9299 178.883 59.1223C177.963 59.3063 176.818 59.1473 174.275 59.1306C182.279 53.3096 190.091 47.9652 197.484 43.1561C202.787 45.1467 208.617 46.8947 214.998 48.2914ZM171.791 60.9622C171.841 60.9204 171.883 60.887 171.933 60.8535C171.875 60.887 171.866 60.9204 171.791 60.9622ZM254.5 335.673C253.94 335.882 253.722 336.25 253.413 336.601C253.329 331.357 253.254 326.088 253.195 320.802C253.304 321.145 253.379 321.396 253.379 321.396L255.345 322.358C255.345 322.358 255.545 335.271 254.5 335.673ZM258.247 266.079C257.887 266.079 257.544 266.079 257.185 266.071C257.093 265.996 257.017 265.929 256.909 265.854C255.738 264.875 256.541 263.905 253.789 264.089C253.455 264.122 253.304 264.139 253.053 264.173C253.145 248.549 253.312 232.96 253.563 217.637C254.291 217.102 254.985 216.575 255.93 215.981C257.486 215.003 255.93 215.981 257.988 213.64C260.037 211.29 257.887 211.674 257.988 210.119C258.071 208.555 259.058 201.705 260.229 202.29C261.408 202.876 260.229 202.29 262.78 202.483C265.323 202.675 262.78 202.483 263.767 200.333C264.737 198.175 265.916 197.991 266.301 197.013C266.686 196.043 267.079 195.064 267.664 193.324C290.121 192.94 311.658 191.2 331.839 188.298C335.21 209.985 337.535 234.181 338.154 260.869C312.937 264.264 286.048 266.079 258.247 266.079ZM334.926 187.846C357.65 184.417 378.526 179.483 396.817 173.336C405.148 194.186 412.056 217.587 416.422 243.59C394.191 250.849 368.79 256.578 341.274 260.442C340.638 233.754 338.313 209.558 334.926 187.846ZM329.556 34.8929C317.864 28.0933 307.041 22.8159 297.607 18.701C309.408 21.8959 322.823 25.8017 336.398 30.3013C334.407 31.8988 332.141 33.4544 329.556 34.8929ZM250.293 9.49268C240.892 14.0425 221.196 24.1541 197.275 39.5849C191.295 37.2598 186.177 34.6002 182.112 31.7231C211.31 19.1443 235.472 12.353 246.471 9.59304C247.742 9.55959 249.013 9.51777 250.293 9.49268ZM193.913 41.8012C186.185 46.8612 178.106 52.4147 169.775 58.5452C169.759 58.219 169.809 57.9095 169.692 57.5666C169.29 56.3874 168.914 55.0157 168.32 54.0455C167.735 53.0586 167.542 51.7037 167.141 50.3321C166.748 48.9605 166.948 48.9605 166.154 47.5889C165.384 46.2172 164.013 44.8456 163.611 43.6831C163.227 42.5038 162.833 42.5038 161.663 42.7045C160.492 42.8969 160.492 42.5038 159.505 42.8969C159.003 43.0976 158.744 42.9387 158.25 42.8132C165.234 39.2838 172.084 36.1056 178.699 33.1951C182.731 36.3816 187.858 39.2754 193.913 41.8012ZM140.745 52.2892C140.159 53.067 139.758 53.067 138.98 53.4685C138.788 53.5605 138.646 53.527 138.528 53.4099C139.298 52.975 140.051 52.5736 140.829 52.1386C140.795 52.1888 140.787 52.2306 140.745 52.2892ZM122.169 77.7062C122.746 77.7062 121.391 78.6847 120.404 79.1363C119.744 79.4458 119.534 80.4829 119.401 81.3694C118.69 80.8258 117.996 80.2989 117.335 79.7552C118.665 79.1196 121.709 77.7062 122.169 77.7062ZM123.139 82.4065C123.733 82.4065 125.489 81.428 125.489 81.428C125.489 81.428 127.831 80.4494 128.032 79.2785C128.233 78.1076 128.818 84.7483 128.818 84.7483C128.818 84.7483 129.153 86.4712 129.328 87.9265C126.376 86.237 123.624 84.4807 121.115 82.6741C121.977 82.5654 122.872 82.4065 123.139 82.4065ZM131.57 94.0068C131.955 95.1777 132.523 96.8923 132.339 97.6617C132.13 98.4395 131.946 99.4181 131.344 100.204C130.767 100.99 130.767 105.682 129.981 106.469C129.203 107.246 129.981 108.426 129.395 110.776C128.818 113.118 129.981 113.711 129.981 113.711L129.395 116.639C129.395 116.639 128.425 119.967 127.831 121.147C127.254 122.318 126.853 123.689 126.853 123.689C126.853 123.689 127.438 127.595 126.075 128.774C124.703 129.945 126.075 128.774 125.489 129.36C124.904 129.945 124.712 131.702 124.319 133.073C123.925 134.445 126.075 137.372 126.276 138.351C126.468 139.329 126.468 140.308 126.276 141.094C126.075 141.872 127.053 144.029 126.468 145.401C125.883 146.773 124.118 153.614 123.139 155.563C122.161 157.528 120.011 160.456 118.64 162.413C117.352 164.253 117.05 165.306 115.219 168.518C101.745 163.684 89.885 158.156 79.9656 152.059C93.3476 133.157 108.168 116.522 122.78 102.295C125.699 99.4515 128.634 96.6999 131.57 94.0068ZM116.532 200.107C117.276 200.626 117.477 200.977 118.84 202.483C120.597 204.44 120.597 215.195 120.99 217.152C121.383 219.101 123.925 220.28 123.925 220.28C123.925 220.28 124.118 221.652 123.925 222.631C123.733 223.601 123.925 225.365 123.164 226.143C122.403 226.929 123.332 227.331 123.332 227.331C123.332 227.331 122.938 228.301 123.332 229.087C123.725 229.865 123.332 230.835 123.332 230.835C123.332 230.835 125.28 232.215 126.468 232.801C127.647 233.378 128.609 233.972 128.425 234.557C128.224 235.134 128.81 239.642 129.002 241.206C129.195 242.77 129.788 242.77 129.788 243.548C129.788 244.334 131.938 247.454 131.938 248.056C131.938 248.641 133.686 249.612 133.686 249.612H134.664C134.664 249.612 135.058 247.061 135.058 246.484C135.058 245.898 135.058 244.727 135.058 244.727C135.058 244.727 134.664 243.74 133.686 242.971C132.716 242.185 132.331 239.826 132.331 239.826C132.331 239.826 132.331 237.1 131.938 236.514C131.545 235.929 130.566 231.621 130.566 231.621L129.972 228.293C129.972 228.293 128.994 224.972 128.801 224.387C128.609 223.801 128.609 223.015 128.216 222.237C127.823 221.451 128.024 219.302 128.024 219.302L126.46 214.016C126.46 214.016 129.195 213.247 130.784 214.016C132.373 214.802 132.515 218.725 130.959 221.067C129.387 223.408 138.963 233.578 138.963 233.578C138.963 233.578 139.172 235.736 138.972 237.108C138.779 238.471 140.929 238.864 140.929 240.228C140.929 241.599 147.57 252.363 148.557 255.29C148.624 255.499 148.615 255.717 148.665 255.918C131.135 252.489 114.717 248.265 99.7542 243.355C104.413 228.61 110.1 214.158 116.532 200.107ZM148.883 259.079C148.774 260.927 148.448 262.951 148.565 265.452C148.749 269.768 153.065 272.302 153.065 272.302L157.757 275.631L161.671 276.994C161.671 276.994 162.725 277.579 164.364 278.432C161.203 300.621 159.396 323.278 159.58 345.617C132.724 341.126 108.034 334.862 86.573 327.159C86.5061 323.629 86.5144 320.066 86.6315 316.487C87.3592 292.759 91.8589 269.191 98.876 246.233C114.19 251.284 130.993 255.591 148.883 259.079ZM167.291 279.955C172.167 282.405 178.95 285.6 182.597 286.186C188.661 287.172 191.195 284.822 193.938 286.186C196.682 287.557 201.173 292.441 203.715 295.185C206.266 297.92 206.066 296.163 207.63 297.133C209.185 298.104 209.779 297.334 213.3 298.321C216.805 299.283 220.334 306.133 220.334 307.697C220.334 309.252 221.505 310.641 222.877 312.974C224.248 315.324 225.219 312.974 227.376 312.974C229.534 312.974 230.906 318.268 231.884 318.059C232.855 317.875 235.991 317.875 235.991 317.875C235.991 317.875 239.311 319.824 240.875 321.396L243.426 319.046L246.153 316.888L248.503 315.91C248.503 315.91 249.231 316.211 250.034 316.562C250.109 323.847 250.209 331.081 250.335 338.257C249.047 339.202 247.625 340.507 246.747 341.143C245.375 342.13 244.397 347.206 242.841 350.535C242.414 351.422 242.13 352.392 241.921 353.345C214.296 352.626 187.598 350.167 162.716 346.144C162.491 324.156 164.23 301.842 167.291 279.955ZM241.511 356.473C241.453 357.594 241.453 358.514 241.453 358.731C241.453 359.325 243.025 360.897 243.025 362.47C243.025 364.009 243.025 362.47 242.239 362.662C241.453 362.846 240.29 365.782 239.512 366.76C238.726 367.739 239.512 371.252 239.512 372.423C239.512 373.593 241.068 375.166 242.833 375.76C244.112 376.186 248.662 378.603 251.464 380.493C252.016 395.606 252.727 410.159 253.647 423.942C225.252 423.725 197.677 421.609 171.866 417.795C165.953 396.117 163.176 373.041 162.725 349.523C187.406 353.387 213.911 355.771 241.511 356.473ZM254.692 383.881C255.83 385.679 257.16 388.004 257.879 388.865C258.832 390.036 258.673 392.378 257.988 393.566C257.293 394.728 259.853 395.121 260.43 396.685C261.007 398.249 261.986 398.049 262.379 399.035C262.772 400.014 264.336 401.377 265.323 402.95C266.301 404.505 271.177 406.454 273.728 406.663C276.271 406.847 283.698 408.612 284.484 410.97C284.768 411.832 284.467 417.051 283.865 423.432C275.409 423.783 266.878 423.992 258.247 423.992C257.762 423.992 257.268 423.984 256.775 423.984C255.93 411.23 255.244 397.798 254.692 383.881ZM258.247 427.129C266.778 427.129 275.2 426.903 283.556 426.577C282.46 436.897 280.737 448.782 279.407 450.455C277.182 453.24 276.538 452.546 272.315 470.737C268.576 470.845 264.829 470.962 261.107 470.979C259.451 457.706 258.08 442.953 256.992 427.104C257.411 427.112 257.837 427.129 258.247 427.129ZM307.961 467.09C308.346 466.496 311.482 466.304 312.26 466.12C312.26 466.12 312.293 466.103 312.31 466.095C312.168 466.605 312.034 467.124 311.9 467.634C310.462 467.818 309.057 467.935 307.618 468.102C307.752 467.6 307.877 467.207 307.961 467.09ZM375.289 342.473C372.922 341.753 372.847 341.92 371.517 341.736C370.145 341.536 367.996 341.343 364.675 339.972C361.338 338.6 358.219 340.365 358.219 340.365L361.74 337.229C361.74 337.229 361.932 334.678 359.983 331.173C357.432 319.23 342.169 320.209 340.998 320.209C340.646 320.209 340.27 320.217 339.877 320.2C341.249 300.253 341.7 281.335 341.349 263.562C368.974 259.681 394.517 253.919 416.94 246.609C420.988 272.168 422.527 300.22 420.553 330.713C406.594 335.255 391.423 339.202 375.289 342.473ZM419.96 245.622C431.426 241.758 442.023 237.484 451.625 232.851C452.193 237.2 453.281 241.223 455.422 243.749C460.699 250.013 460.699 249.611 460.499 254.513C460.306 259.389 460.306 262.324 461.486 263.11C462.657 263.897 465.199 268.589 466.362 270.144C467.541 271.708 467.357 273.473 469.105 275.815C470.794 278.073 469.515 279.076 475.963 280.883C476.733 288.854 477.268 296.749 477.594 304.527C463.117 314.12 444.884 322.575 423.774 329.668C425.647 299.199 424.05 271.181 419.96 245.622ZM475.562 150.854C475.562 150.854 471.054 148.111 470.268 149.098C469.498 150.076 465.199 155.354 465.199 155.354C465.199 155.354 463.434 161.217 463.041 161.81C462.657 162.396 454.435 169.045 454.042 169.63C453.699 170.174 453.038 171.855 452.762 173.913C451.29 170.467 449.768 167.08 448.212 163.784C448.455 163.776 448.672 163.742 448.965 163.768C451.516 163.96 455.037 163.6 455.623 164.077C456.208 164.562 457.973 163.768 459.721 161.618C461.486 159.469 460.716 158.097 459.721 154.777C458.734 151.456 456.794 149.692 456.4 147.141C456.108 145.259 455.505 144.439 455.129 141.997C459.278 138.158 462.757 134.152 465.542 130.029C469.54 136.787 473.237 143.753 476.565 150.913L475.562 150.854ZM361.02 35.8129C354.907 33.4209 348.634 31.146 342.311 28.9882C343.064 28.1686 343.682 27.3322 344.285 26.4959C349.311 28.478 354.279 30.594 359.147 32.9107C359.599 33.8475 360.276 34.8762 361.02 35.8129ZM339.032 27.8842C316.484 20.3235 294.044 14.3603 278.788 10.5967C300.576 12.7628 321.527 17.8061 341.274 25.3166C340.621 26.1864 339.877 27.0479 339.032 27.8842ZM231.358 10.513C218.26 14.3937 200.019 20.5326 179.344 29.5235C176.951 27.4828 175.061 25.3417 173.773 23.117C192.09 16.7021 211.368 12.3948 231.358 10.513ZM110.426 71.216C110.301 71.7178 110.184 72.1862 110.1 72.6629C109.874 72.4036 109.64 72.1527 109.439 71.8935C109.757 71.6509 110.1 71.4502 110.426 71.216ZM109.18 76.0334C108.979 77.0454 109.381 77.5138 109.063 79.0778C108.67 81.0349 109.063 79.0778 107.892 79.6716C107.599 79.8054 107.466 79.8723 107.39 79.9141C107.39 79.9141 107.357 79.9309 107.348 79.9392C107.323 79.956 107.273 79.9727 107.098 80.0563C106.32 80.4494 105.935 81.2272 105.157 81.2272C104.371 81.2272 102.406 82.4065 102.406 82.4065C102.406 82.4065 100.649 83.385 99.4699 83.385C98.3073 83.385 98.4913 84.3636 97.1364 84.5643C95.7647 84.7567 95.3716 84.7567 94.2007 84.7567C93.0214 84.7567 94.2007 86.7137 94.2007 86.7137C94.2007 86.7137 98.3073 87.0985 99.8629 86.9061C101.427 86.7138 102.021 86.5214 103.192 86.1283C104.363 85.7352 106.704 85.7352 107.7 85.1498C108.662 84.5643 111.012 83.1927 111.012 83.1927C111.012 83.1927 113.947 82.6072 114.725 82.4065C115.026 82.3312 115.261 82.1138 115.436 81.8629C119.534 85.225 124.352 88.4116 129.772 91.3974C126.719 94.1992 123.683 97.0428 120.664 99.9784C105.876 114.389 90.8636 131.216 77.3227 150.361C65.3626 142.633 56.5221 134.043 51.437 124.843C68.1142 104.729 87.2923 87.7759 107.089 73.5996C107.75 74.4109 108.444 75.2305 109.18 76.0334ZM78.3012 154.442C88.3545 160.614 100.273 166.226 113.789 171.136C112.944 172.825 113.145 172.951 113.145 172.951C113.145 172.951 113.755 180.787 113.37 183.915C112.977 187.043 113.17 194.27 113.37 196.628C113.454 197.64 113.63 198.092 113.914 198.418C107.348 212.703 101.527 227.381 96.7851 242.36C76.4027 235.444 58.8138 227.247 44.93 218.022C53.4777 194.638 65.12 173.419 78.3012 154.442ZM86.6984 330.922C108.168 338.517 132.774 344.639 159.605 349.021C160.032 372.481 162.733 395.548 168.529 417.285C144.433 413.555 121.952 408.394 101.92 401.938C92.6116 379.498 87.5515 355.771 86.6984 330.922ZM172.837 421.099C198.463 424.812 225.779 426.87 253.864 427.054C254.952 442.919 256.307 457.698 257.954 471.021C234.536 470.937 212.397 468.922 192.157 465.886C183.768 451.977 177.428 436.939 172.837 421.099ZM271.595 473.881C271.587 473.898 271.587 473.923 271.57 473.94C266.686 495.443 271.57 498.771 271.57 498.771C271.57 498.771 274.707 498.378 275.292 497.793C275.878 497.207 279.6 497.207 280.578 496.605C281.548 496.036 281.548 495.827 282.142 494.866C282.711 493.887 283.505 493.109 283.505 493.109C283.505 493.109 285.856 490.751 286.642 489.58C287.42 488.409 288.591 487.623 288.984 486.452C289.368 485.273 288.984 485.08 288.984 485.08C288.984 485.08 289.761 482.931 289.962 482.153C290.163 481.367 291.334 481.76 292.304 481.367C293.283 480.974 294.454 480.388 294.855 479.602C295.248 478.824 295.834 476.875 295.834 475.705C295.834 474.517 297.398 473.94 298.569 473.354C299.739 472.761 301.111 474.333 303.846 474.124C305.042 474.04 305.895 472.802 306.506 471.364C308.02 471.197 309.517 471.063 311.03 470.887C308.973 478.64 306.765 486.51 304.431 494.481C291.827 497.099 278.855 498.73 265.615 499.332C264.085 491.763 262.73 483.307 261.517 474.099C264.854 474.099 268.217 473.982 271.595 473.881ZM314.368 470.519C341.801 466.965 369.861 460.692 398.264 451.96C398.272 451.96 398.289 451.969 398.306 451.969C398.641 451.969 398.958 451.86 399.226 451.668C399.644 451.534 400.062 451.392 400.489 451.275C373.374 471.439 341.96 486.092 307.919 493.678C310.186 485.858 312.352 478.13 314.368 470.519ZM315.246 467.224C315.388 466.63 315.53 466.061 315.672 465.476C316.517 465.334 317.345 465.208 317.931 465.141C319.495 464.941 320.072 463.954 322.23 463.176C324.379 462.406 323.793 462.406 326.537 460.048C329.28 457.706 319.896 453.407 322.23 451.442C324.588 449.493 322.623 452.42 324.973 453.993C327.315 455.548 326.537 454.377 328.502 454.377C330.451 454.377 330.643 454.177 332.994 453.591C335.335 453.022 335.335 453.591 337.301 452.412C339.25 451.249 337.301 452.412 340.044 450.271C342.779 448.121 341.224 449.301 343.557 446.942C345.907 444.6 345.322 445.177 347.664 441.857C350.005 438.537 349.42 439.122 357.248 434.439C365.069 429.738 358.428 431.311 358.026 428.174C357.642 425.046 358.612 426.025 359.983 423.29C360.862 421.517 368.907 418.247 375.95 415.437C387.475 412.986 398.482 410.184 408.911 407.039C405.691 420.655 401.769 434.648 397.093 449.05C369.376 457.539 342.018 463.661 315.246 467.224ZM387.467 409.615C387.316 409.231 387.358 408.545 388.336 407.065C391.272 402.557 393.037 401.578 393.614 400.215C394.208 398.826 396.357 396.292 396.934 394.143C397.528 391.985 397.721 392.771 397.528 391.408C397.327 390.028 396.156 381.422 398.306 377.324C400.447 373.225 403.391 371.854 405.934 367.931C408.476 364.009 408.476 364.795 410.433 362.662C412.382 360.513 413.361 357.953 413.754 355.612C414.139 353.262 413.754 351.12 412.198 349.556C410.634 347.976 409.656 349.556 407.506 347.599C405.357 345.642 404.361 345.458 399.285 344.455C394.208 343.484 395.956 345.642 390.486 345.241C385.016 344.839 387.943 346.027 384.221 345.642C380.826 345.291 383.603 345.559 383.059 343.97C396.198 341.092 408.669 337.764 420.319 334.034C418.73 355.93 415.335 379.08 409.706 403.535C402.563 405.718 395.153 407.75 387.467 409.615ZM480.814 306.041C486.677 302.068 491.913 297.886 496.471 293.537C493.326 313.091 487.882 331.901 480.388 349.632C481.216 334.443 481.308 319.941 480.814 306.041ZM480.647 302.402C480.354 295.452 479.919 288.653 479.317 282.037C483.215 283.911 481.249 285.893 485.924 283.058C491.394 279.737 494.522 275.631 497.274 272.101C497.968 271.198 498.57 270.32 499.114 269.5C498.729 275.856 498.085 282.138 497.215 288.368C492.549 293.261 487.003 297.936 480.647 302.402ZM101.051 63.555C102.054 66.1393 103.468 68.6568 105.207 71.1157C85.5777 85.1749 66.5335 101.944 49.898 121.791C49.7057 121.381 49.5384 120.979 49.3711 120.57C63.5225 98.9664 80.9944 79.7134 101.051 63.555ZM16.5435 195.792C22.3144 204.08 30.6363 211.892 41.1663 219.118C32.8444 242.536 27.6672 268.087 27.1821 295.661C20.1984 289.832 14.5696 283.702 10.4881 277.303C9.78557 269.793 9.38411 262.19 9.38411 254.513C9.38411 234.273 11.9016 214.618 16.5435 195.792ZM42.9227 378.026C58.0359 388.23 77.2725 397.137 99.5786 404.43C106.487 420.798 115.604 436.513 126.92 451.5C115.988 448.314 106.696 445.161 99.3277 442.476C98.7673 442.292 98.2488 442.501 97.8389 442.844C75.9761 424.636 57.3752 402.682 42.9227 378.026ZM216.269 496.605C207.814 488.216 200.495 479.109 194.273 469.357C214.07 472.225 235.623 474.099 258.372 474.141C259.568 483.366 260.923 491.813 262.437 499.415C259.794 499.491 257.16 499.608 254.5 499.608C241.503 499.608 228.731 498.579 216.269 496.605ZM407.464 445.821C405.206 446.557 402.965 447.21 400.715 447.921C405.298 433.544 409.196 419.543 412.374 405.952C430.833 400.173 447.435 393.348 461.494 385.528C446.899 408.495 428.625 428.877 407.464 445.821Z" fill="#EDF900"/>
</svg>
