<svg width="64" height="127" viewBox="0 0 64 127" fill="none" xmlns="http://www.w3.org/2000/svg">
<path d="M42.6355 5.12505C43.6816 6.16164 45.3701 6.15386 46.4067 5.10768C47.4432 4.06149 47.4355 2.37307 46.3893 1.33648C45.3431 0.299889 43.6547 0.307669 42.6181 1.35386C41.5815 2.40004 41.5893 4.08846 42.6355 5.12505ZM48.191 55.0883L47.9319 55.5159L48.191 55.0883ZM44.5124 3.23077L44.2287 2.81899C37.575 7.40194 32.9343 17.1978 32.7179 27.4915C32.5008 37.8161 36.731 48.729 47.9319 55.5159L48.191 55.0883L48.4501 54.6607C37.6046 48.0892 33.5068 37.5425 33.7177 27.5126C33.9292 17.4518 38.4724 7.99808 44.796 3.64254L44.5124 3.23077ZM18.282 44.5335L17.8405 44.2988C13.8275 51.8512 15.7127 61.4967 20.7174 75.1013L21.1867 74.9286L21.6559 74.756C16.6372 61.1136 14.9441 51.881 18.7236 44.7681L18.282 44.5335ZM24.4875 75.2847L24.3582 74.8017C14.2518 77.5081 4.80912 82.484 1.59688 90.8251C-1.63202 99.2095 1.53279 110.696 15.9009 126.151L16.2671 125.81L16.6333 125.47C2.32457 110.079 -0.480442 99.0018 2.53007 91.1845C5.55723 83.3239 14.5631 78.4599 24.6168 75.7677L24.4875 75.2847ZM48.3818 90.3612L48.829 90.5848C50.1448 87.9534 49.9232 85.4205 48.6747 83.1852C47.4396 80.974 45.2137 79.0727 42.5379 77.6015C37.195 74.6639 29.8519 73.3306 24.3582 74.8017L24.4875 75.2847L24.6168 75.7677C29.8087 74.3774 36.8864 75.6354 42.0561 78.4778C44.6365 79.8966 46.6899 81.6825 47.8016 83.6729C48.8998 85.6391 49.0925 87.8219 47.9346 90.1376L48.3818 90.3612ZM21.1867 74.9286L20.7174 75.1013C23.078 81.5181 28.4342 88.4726 33.9844 92.3159C36.7566 94.2357 39.6408 95.4234 42.2662 95.3108C44.9414 95.1962 47.2534 93.7359 48.829 90.5848L48.3818 90.3612L47.9346 90.1376C46.4976 93.0113 44.4852 94.2148 42.2233 94.3118C39.9115 94.4108 37.2457 93.358 34.5537 91.4938C29.1754 87.7694 23.9466 80.9828 21.6559 74.756L21.1867 74.9286ZM56.8488 57.9524L56.8539 58.4524C58.3161 58.4376 59.5111 58.2906 60.4553 58.0214C61.397 57.7529 62.1226 57.3529 62.602 56.8073C63.6121 55.6575 63.3385 54.1352 62.455 52.6502C61.5612 51.1478 59.9508 49.4971 57.8883 47.8653C55.8184 46.2275 53.2639 44.5858 50.4494 43.1084C44.828 40.1578 38.1188 37.837 32.1074 37.5429C26.0925 37.2488 20.6621 38.9887 17.8405 44.2988L18.282 44.5335L18.7236 44.7681C21.2896 39.9389 26.2441 38.2574 32.0585 38.5418C37.8764 38.8263 44.4409 41.084 49.9846 43.9939C52.7527 45.4468 55.2535 47.0557 57.2678 48.6495C59.2895 50.2491 60.7919 51.8106 61.5956 53.1615C62.4095 54.5296 62.418 55.5016 61.8507 56.1472C61.5414 56.4993 61.0134 56.8224 60.1811 57.0597C59.3512 57.2964 58.2519 57.4381 56.8437 57.4524L56.8488 57.9524ZM48.191 55.0883L47.9319 55.5159C50.9387 57.3379 53.2241 58.4891 56.8539 58.4524L56.8488 57.9524L56.8437 57.4524C53.4978 57.4863 51.4096 56.4539 48.4501 54.6607L48.191 55.0883Z" fill="#EDF900"/>
</svg>
