<svg width="33" height="33" viewBox="0 0 33 33" fill="none" xmlns="http://www.w3.org/2000/svg">
<path d="M9.6695 1.76079C9.63588 0.819276 10.8039 0.357857 11.4228 1.06816L18.9767 9.73739C19.1748 9.96476 19.465 10.0906 19.7664 10.0798L31.2576 9.66942C32.1991 9.6358 32.6606 10.8038 31.9503 11.4227L23.281 18.9767C23.0537 19.1748 22.9278 19.4649 22.9386 19.7663L23.349 31.2575C23.3826 32.1991 22.2146 32.6605 21.5957 31.9502L14.0418 23.2809C13.8436 23.0536 13.5535 22.9278 13.2521 22.9385L1.76087 23.3489C0.819356 23.3825 0.357937 22.2145 1.06824 21.5956L9.73747 14.0417C9.96484 13.8436 10.0907 13.5534 10.0799 13.2521L9.6695 1.76079Z" fill="white"/>
</svg>
