<svg width="29" height="28" viewBox="0 0 29 28" fill="none" xmlns="http://www.w3.org/2000/svg">
<path d="M27.902 25.8422C28.2976 26.6887 27.4192 27.5672 26.5726 27.1715L14.9121 21.7216C14.639 21.594 14.3228 21.5964 14.0516 21.7282L2.32377 27.4279C1.46965 27.843 0.572148 26.9455 0.987249 26.0913L6.68694 14.3635C6.81874 14.0923 6.82114 13.7762 6.69347 13.503L1.24361 1.84249C0.847939 0.995913 1.72638 0.11747 2.57296 0.513143L14.2335 5.963C14.5066 6.09067 14.8228 6.08827 15.094 5.95647L26.8218 0.256782C27.6759 -0.15832 28.5734 0.739178 28.1583 1.5933L22.4586 13.3211C22.3268 13.5923 22.3244 13.9085 22.4521 14.1816L27.902 25.8422Z" fill="#EDF900"/>
</svg>
