<svg width="374" height="117" viewBox="0 0 374 117" fill="none" xmlns="http://www.w3.org/2000/svg">
<path d="M90.4785 7.40625V33H85.2227V7.40625H90.4785ZM98.3535 7.40625V11.5371H77.4707V7.40625H98.3535ZM104.875 18.1289V33H99.8125V13.9805H104.576L104.875 18.1289ZM110.605 13.8574L110.518 18.5508C110.271 18.5156 109.973 18.4863 109.621 18.4629C109.281 18.4277 108.971 18.4102 108.689 18.4102C107.975 18.4102 107.354 18.5039 106.826 18.6914C106.311 18.8672 105.877 19.1309 105.525 19.4824C105.186 19.834 104.928 20.2617 104.752 20.7656C104.588 21.2695 104.494 21.8438 104.471 22.4883L103.451 22.1719C103.451 20.9414 103.574 19.8105 103.82 18.7793C104.066 17.7363 104.424 16.8281 104.893 16.0547C105.373 15.2812 105.959 14.6836 106.65 14.2617C107.342 13.8398 108.133 13.6289 109.023 13.6289C109.305 13.6289 109.592 13.6523 109.885 13.6992C110.178 13.7344 110.418 13.7871 110.605 13.8574ZM122.664 28.7109V20.2383C122.664 19.6289 122.564 19.1074 122.365 18.6738C122.166 18.2285 121.855 17.8828 121.434 17.6367C121.023 17.3906 120.49 17.2676 119.834 17.2676C119.271 17.2676 118.785 17.3672 118.375 17.5664C117.965 17.7539 117.648 18.0293 117.426 18.3926C117.203 18.7441 117.092 19.1602 117.092 19.6406H112.029C112.029 18.832 112.217 18.0645 112.592 17.3379C112.967 16.6113 113.512 15.9727 114.227 15.4219C114.941 14.8594 115.791 14.4199 116.775 14.1035C117.771 13.7871 118.885 13.6289 120.115 13.6289C121.592 13.6289 122.904 13.875 124.053 14.3672C125.201 14.8594 126.104 15.5977 126.76 16.582C127.428 17.5664 127.762 18.7969 127.762 20.2734V28.4121C127.762 29.4551 127.826 30.3105 127.955 30.9785C128.084 31.6348 128.271 32.209 128.518 32.7012V33H123.402C123.156 32.4844 122.969 31.8398 122.84 31.0664C122.723 30.2812 122.664 29.4961 122.664 28.7109ZM123.332 21.416L123.367 24.2812H120.537C119.869 24.2812 119.289 24.3574 118.797 24.5098C118.305 24.6621 117.9 24.8789 117.584 25.1602C117.268 25.4297 117.033 25.7461 116.881 26.1094C116.74 26.4727 116.67 26.8711 116.67 27.3047C116.67 27.7383 116.77 28.1309 116.969 28.4824C117.168 28.8223 117.455 29.0918 117.83 29.291C118.205 29.4785 118.645 29.5723 119.148 29.5723C119.91 29.5723 120.572 29.4199 121.135 29.1152C121.697 28.8105 122.131 28.4355 122.436 27.9902C122.752 27.5449 122.916 27.123 122.928 26.7246L124.264 28.8691C124.076 29.3496 123.818 29.8477 123.49 30.3633C123.174 30.8789 122.77 31.3652 122.277 31.8223C121.785 32.2676 121.193 32.6367 120.502 32.9297C119.811 33.2109 118.99 33.3516 118.041 33.3516C116.834 33.3516 115.738 33.1113 114.754 32.6309C113.781 32.1387 113.008 31.4648 112.434 30.6094C111.871 29.7422 111.59 28.7578 111.59 27.6562C111.59 26.6602 111.777 25.7754 112.152 25.002C112.527 24.2285 113.078 23.5781 113.805 23.0508C114.543 22.5117 115.463 22.1074 116.564 21.8379C117.666 21.5566 118.943 21.416 120.396 21.416H123.332ZM136.621 18.041V33H131.559V13.9805H136.305L136.621 18.041ZM135.883 22.8223H134.512C134.512 21.416 134.693 20.1504 135.057 19.0254C135.42 17.8887 135.93 16.9219 136.586 16.125C137.242 15.3164 138.021 14.7012 138.924 14.2793C139.838 13.8457 140.857 13.6289 141.982 13.6289C142.873 13.6289 143.688 13.7578 144.426 14.0156C145.164 14.2734 145.797 14.6836 146.324 15.2461C146.863 15.8086 147.273 16.5527 147.555 17.4785C147.848 18.4043 147.994 19.5352 147.994 20.8711V33H142.896V20.8535C142.896 20.0098 142.779 19.3535 142.545 18.8848C142.311 18.416 141.965 18.0879 141.508 17.9004C141.062 17.7012 140.512 17.6016 139.855 17.6016C139.176 17.6016 138.584 17.7363 138.08 18.0059C137.588 18.2754 137.178 18.6504 136.85 19.1309C136.533 19.5996 136.293 20.1504 136.129 20.7832C135.965 21.416 135.883 22.0957 135.883 22.8223ZM162.127 27.7441C162.127 27.3809 162.021 27.0527 161.811 26.7598C161.6 26.4668 161.207 26.1973 160.633 25.9512C160.07 25.6934 159.256 25.459 158.189 25.248C157.229 25.0371 156.332 24.7734 155.5 24.457C154.68 24.1289 153.965 23.7363 153.355 23.2793C152.758 22.8223 152.289 22.2832 151.949 21.6621C151.609 21.0293 151.439 20.3086 151.439 19.5C151.439 18.7031 151.609 17.9531 151.949 17.25C152.301 16.5469 152.799 15.9258 153.443 15.3867C154.1 14.8359 154.896 14.4082 155.834 14.1035C156.783 13.7871 157.85 13.6289 159.033 13.6289C160.686 13.6289 162.104 13.8926 163.287 14.4199C164.482 14.9473 165.396 15.6738 166.029 16.5996C166.674 17.5137 166.996 18.5566 166.996 19.7285H161.934C161.934 19.2363 161.828 18.7969 161.617 18.4102C161.418 18.0117 161.102 17.7012 160.668 17.4785C160.246 17.2441 159.695 17.127 159.016 17.127C158.453 17.127 157.967 17.2266 157.557 17.4258C157.146 17.6133 156.83 17.8711 156.607 18.1992C156.396 18.5156 156.291 18.8672 156.291 19.2539C156.291 19.5469 156.35 19.8105 156.467 20.0449C156.596 20.2676 156.801 20.4727 157.082 20.6602C157.363 20.8477 157.727 21.0234 158.172 21.1875C158.629 21.3398 159.191 21.4805 159.859 21.6094C161.23 21.8906 162.455 22.2598 163.533 22.7168C164.611 23.1621 165.467 23.7715 166.1 24.5449C166.732 25.3066 167.049 26.3086 167.049 27.5508C167.049 28.3945 166.861 29.168 166.486 29.8711C166.111 30.5742 165.572 31.1895 164.869 31.7168C164.166 32.2324 163.322 32.6367 162.338 32.9297C161.365 33.2109 160.27 33.3516 159.051 33.3516C157.281 33.3516 155.781 33.0352 154.551 32.4023C153.332 31.7695 152.406 30.9668 151.773 29.9941C151.152 29.0098 150.842 28.002 150.842 26.9707H155.641C155.664 27.6621 155.84 28.2188 156.168 28.6406C156.508 29.0625 156.936 29.3672 157.451 29.5547C157.979 29.7422 158.547 29.8359 159.156 29.8359C159.812 29.8359 160.357 29.748 160.791 29.5723C161.225 29.3848 161.553 29.1387 161.775 28.834C162.01 28.5176 162.127 28.1543 162.127 27.7441ZM175.398 17.6367V40.3125H170.336V13.9805H175.029L175.398 17.6367ZM187.439 23.2793V23.6484C187.439 25.0312 187.275 26.3145 186.947 27.498C186.631 28.6816 186.162 29.7129 185.541 30.5918C184.92 31.459 184.146 32.1387 183.221 32.6309C182.307 33.1113 181.252 33.3516 180.057 33.3516C178.896 33.3516 177.889 33.1172 177.033 32.6484C176.178 32.1797 175.457 31.5234 174.871 30.6797C174.297 29.8242 173.834 28.834 173.482 27.709C173.131 26.584 172.861 25.377 172.674 24.0879V23.1211C172.861 21.7383 173.131 20.4727 173.482 19.3242C173.834 18.1641 174.297 17.1621 174.871 16.3184C175.457 15.4629 176.172 14.8008 177.016 14.332C177.871 13.8633 178.873 13.6289 180.021 13.6289C181.229 13.6289 182.289 13.8574 183.203 14.3145C184.129 14.7715 184.902 15.4277 185.523 16.2832C186.156 17.1387 186.631 18.1582 186.947 19.3418C187.275 20.5254 187.439 21.8379 187.439 23.2793ZM182.359 23.6484V23.2793C182.359 22.4707 182.289 21.7266 182.148 21.0469C182.02 20.3555 181.809 19.752 181.516 19.2363C181.234 18.7207 180.859 18.3223 180.391 18.041C179.934 17.748 179.377 17.6016 178.721 17.6016C178.029 17.6016 177.438 17.7129 176.945 17.9355C176.465 18.1582 176.072 18.4805 175.768 18.9023C175.463 19.3242 175.234 19.8281 175.082 20.4141C174.93 21 174.836 21.6621 174.801 22.4004V24.8438C174.859 25.7109 175.023 26.4902 175.293 27.1816C175.562 27.8613 175.979 28.4004 176.541 28.7988C177.104 29.1973 177.842 29.3965 178.756 29.3965C179.424 29.3965 179.986 29.25 180.443 28.957C180.9 28.6523 181.27 28.2363 181.551 27.709C181.844 27.1816 182.049 26.5723 182.166 25.8809C182.295 25.1895 182.359 24.4453 182.359 23.6484ZM200.852 28.7109V20.2383C200.852 19.6289 200.752 19.1074 200.553 18.6738C200.354 18.2285 200.043 17.8828 199.621 17.6367C199.211 17.3906 198.678 17.2676 198.021 17.2676C197.459 17.2676 196.973 17.3672 196.562 17.5664C196.152 17.7539 195.836 18.0293 195.613 18.3926C195.391 18.7441 195.279 19.1602 195.279 19.6406H190.217C190.217 18.832 190.404 18.0645 190.779 17.3379C191.154 16.6113 191.699 15.9727 192.414 15.4219C193.129 14.8594 193.979 14.4199 194.963 14.1035C195.959 13.7871 197.072 13.6289 198.303 13.6289C199.779 13.6289 201.092 13.875 202.24 14.3672C203.389 14.8594 204.291 15.5977 204.947 16.582C205.615 17.5664 205.949 18.7969 205.949 20.2734V28.4121C205.949 29.4551 206.014 30.3105 206.143 30.9785C206.271 31.6348 206.459 32.209 206.705 32.7012V33H201.59C201.344 32.4844 201.156 31.8398 201.027 31.0664C200.91 30.2812 200.852 29.4961 200.852 28.7109ZM201.52 21.416L201.555 24.2812H198.725C198.057 24.2812 197.477 24.3574 196.984 24.5098C196.492 24.6621 196.088 24.8789 195.771 25.1602C195.455 25.4297 195.221 25.7461 195.068 26.1094C194.928 26.4727 194.857 26.8711 194.857 27.3047C194.857 27.7383 194.957 28.1309 195.156 28.4824C195.355 28.8223 195.643 29.0918 196.018 29.291C196.393 29.4785 196.832 29.5723 197.336 29.5723C198.098 29.5723 198.76 29.4199 199.322 29.1152C199.885 28.8105 200.318 28.4355 200.623 27.9902C200.939 27.5449 201.104 27.123 201.115 26.7246L202.451 28.8691C202.264 29.3496 202.006 29.8477 201.678 30.3633C201.361 30.8789 200.957 31.3652 200.465 31.8223C199.973 32.2676 199.381 32.6367 198.689 32.9297C197.998 33.2109 197.178 33.3516 196.229 33.3516C195.021 33.3516 193.926 33.1113 192.941 32.6309C191.969 32.1387 191.195 31.4648 190.621 30.6094C190.059 29.7422 189.777 28.7578 189.777 27.6562C189.777 26.6602 189.965 25.7754 190.34 25.002C190.715 24.2285 191.266 23.5781 191.992 23.0508C192.73 22.5117 193.65 22.1074 194.752 21.8379C195.854 21.5566 197.131 21.416 198.584 21.416H201.52ZM214.914 18.1289V33H209.852V13.9805H214.615L214.914 18.1289ZM220.645 13.8574L220.557 18.5508C220.311 18.5156 220.012 18.4863 219.66 18.4629C219.32 18.4277 219.01 18.4102 218.729 18.4102C218.014 18.4102 217.393 18.5039 216.865 18.6914C216.35 18.8672 215.916 19.1309 215.564 19.4824C215.225 19.834 214.967 20.2617 214.791 20.7656C214.627 21.2695 214.533 21.8438 214.51 22.4883L213.49 22.1719C213.49 20.9414 213.613 19.8105 213.859 18.7793C214.105 17.7363 214.463 16.8281 214.932 16.0547C215.412 15.2812 215.998 14.6836 216.689 14.2617C217.381 13.8398 218.172 13.6289 219.062 13.6289C219.344 13.6289 219.631 13.6523 219.924 13.6992C220.217 13.7344 220.457 13.7871 220.645 13.8574ZM231.438 33.3516C229.961 33.3516 228.637 33.1172 227.465 32.6484C226.293 32.168 225.297 31.5059 224.477 30.6621C223.668 29.8184 223.047 28.8398 222.613 27.7266C222.18 26.6016 221.963 25.4062 221.963 24.1406V23.4375C221.963 21.9961 222.168 20.6777 222.578 19.4824C222.988 18.2871 223.574 17.25 224.336 16.3711C225.109 15.4922 226.047 14.8184 227.148 14.3496C228.25 13.8691 229.492 13.6289 230.875 13.6289C232.223 13.6289 233.418 13.8516 234.461 14.2969C235.504 14.7422 236.377 15.375 237.08 16.1953C237.795 17.0156 238.334 18 238.697 19.1484C239.061 20.2852 239.242 21.5508 239.242 22.9453V25.0547H224.125V21.6797H234.268V21.293C234.268 20.5898 234.139 19.9629 233.881 19.4121C233.635 18.8496 233.26 18.4043 232.756 18.0762C232.252 17.748 231.607 17.584 230.822 17.584C230.154 17.584 229.58 17.7305 229.1 18.0234C228.619 18.3164 228.227 18.7266 227.922 19.2539C227.629 19.7812 227.406 20.4023 227.254 21.1172C227.113 21.8203 227.043 22.5938 227.043 23.4375V24.1406C227.043 24.9023 227.148 25.6055 227.359 26.25C227.582 26.8945 227.893 27.4512 228.291 27.9199C228.701 28.3887 229.193 28.752 229.768 29.0098C230.354 29.2676 231.016 29.3965 231.754 29.3965C232.668 29.3965 233.518 29.2207 234.303 28.8691C235.1 28.5059 235.785 27.9609 236.359 27.2344L238.82 29.9062C238.422 30.4805 237.877 31.0312 237.186 31.5586C236.506 32.0859 235.686 32.5195 234.725 32.8594C233.764 33.1875 232.668 33.3516 231.438 33.3516ZM247.082 18.041V33H242.02V13.9805H246.766L247.082 18.041ZM246.344 22.8223H244.973C244.973 21.416 245.154 20.1504 245.518 19.0254C245.881 17.8887 246.391 16.9219 247.047 16.125C247.703 15.3164 248.482 14.7012 249.385 14.2793C250.299 13.8457 251.318 13.6289 252.443 13.6289C253.334 13.6289 254.148 13.7578 254.887 14.0156C255.625 14.2734 256.258 14.6836 256.785 15.2461C257.324 15.8086 257.734 16.5527 258.016 17.4785C258.309 18.4043 258.455 19.5352 258.455 20.8711V33H253.357V20.8535C253.357 20.0098 253.24 19.3535 253.006 18.8848C252.771 18.416 252.426 18.0879 251.969 17.9004C251.523 17.7012 250.973 17.6016 250.316 17.6016C249.637 17.6016 249.045 17.7363 248.541 18.0059C248.049 18.2754 247.639 18.6504 247.311 19.1309C246.994 19.5996 246.754 20.1504 246.59 20.7832C246.426 21.416 246.344 22.0957 246.344 22.8223ZM270.162 29.3965C270.783 29.3965 271.334 29.2793 271.814 29.0449C272.295 28.7988 272.67 28.459 272.939 28.0254C273.221 27.5801 273.367 27.0586 273.379 26.4609H278.143C278.131 27.7969 277.773 28.9863 277.07 30.0293C276.367 31.0605 275.424 31.875 274.24 32.4727C273.057 33.0586 271.732 33.3516 270.268 33.3516C268.791 33.3516 267.502 33.1055 266.4 32.6133C265.311 32.1211 264.402 31.4414 263.676 30.5742C262.949 29.6953 262.404 28.6758 262.041 27.5156C261.678 26.3438 261.496 25.0898 261.496 23.7539V23.2441C261.496 21.8965 261.678 20.6426 262.041 19.4824C262.404 18.3105 262.949 17.291 263.676 16.4238C264.402 15.5449 265.311 14.8594 266.4 14.3672C267.49 13.875 268.768 13.6289 270.232 13.6289C271.791 13.6289 273.156 13.9277 274.328 14.5254C275.512 15.123 276.438 15.9785 277.105 17.0918C277.785 18.1934 278.131 19.5 278.143 21.0117H273.379C273.367 20.3789 273.232 19.8047 272.975 19.2891C272.729 18.7734 272.365 18.3633 271.885 18.0586C271.416 17.7422 270.836 17.584 270.145 17.584C269.406 17.584 268.803 17.7422 268.334 18.0586C267.865 18.3633 267.502 18.7852 267.244 19.3242C266.986 19.8516 266.805 20.4551 266.699 21.1348C266.605 21.8027 266.559 22.5059 266.559 23.2441V23.7539C266.559 24.4922 266.605 25.2012 266.699 25.8809C266.793 26.5605 266.969 27.1641 267.227 27.6914C267.496 28.2188 267.865 28.6348 268.334 28.9395C268.803 29.2441 269.412 29.3965 270.162 29.3965ZM286.721 30.8555L291.766 13.9805H297.197L289.551 35.8652C289.387 36.3457 289.164 36.8613 288.883 37.4121C288.613 37.9629 288.244 38.4844 287.775 38.9766C287.318 39.4805 286.738 39.8906 286.035 40.207C285.344 40.5234 284.494 40.6816 283.486 40.6816C283.006 40.6816 282.613 40.6523 282.309 40.5938C282.004 40.5352 281.641 40.4531 281.219 40.3477V36.6387C281.348 36.6387 281.482 36.6387 281.623 36.6387C281.764 36.6504 281.898 36.6562 282.027 36.6562C282.695 36.6562 283.24 36.5801 283.662 36.4277C284.084 36.2754 284.424 36.041 284.682 35.7246C284.939 35.4199 285.145 35.0215 285.297 34.5293L286.721 30.8555ZM284.611 13.9805L288.742 27.7617L289.463 33.123L286.018 33.4922L279.18 13.9805H284.611Z" fill="white"/>
<path d="M45.751 67.1328L48.291 58.2031H49.5215L48.8096 61.6748L46.0762 71H44.8545L45.751 67.1328ZM43.123 58.2031L45.1445 66.957L45.751 71H44.5381L41.4355 58.2031H43.123ZM52.8086 66.9482L54.7861 58.2031H56.4824L53.3887 71H52.1758L52.8086 66.9482ZM49.7061 58.2031L52.1758 67.1328L53.0723 71H51.8506L49.2139 61.6748L48.4932 58.2031H49.7061ZM61.7822 71.1758C61.1201 71.1758 60.5195 71.0645 59.9805 70.8418C59.4473 70.6133 58.9873 70.2939 58.6006 69.8838C58.2197 69.4736 57.9268 68.9873 57.7217 68.4248C57.5166 67.8623 57.4141 67.2471 57.4141 66.5791V66.21C57.4141 65.4365 57.5283 64.748 57.7568 64.1445C57.9854 63.5352 58.2959 63.0195 58.6885 62.5977C59.0811 62.1758 59.5264 61.8564 60.0244 61.6396C60.5225 61.4229 61.0381 61.3145 61.5713 61.3145C62.251 61.3145 62.8369 61.4316 63.3291 61.666C63.8271 61.9004 64.2344 62.2285 64.5508 62.6504C64.8672 63.0664 65.1016 63.5586 65.2539 64.127C65.4062 64.6895 65.4824 65.3047 65.4824 65.9727V66.7021H58.3809V65.375H63.8564V65.252C63.833 64.8301 63.7451 64.4199 63.5928 64.0215C63.4463 63.623 63.2119 63.2949 62.8896 63.0371C62.5674 62.7793 62.1279 62.6504 61.5713 62.6504C61.2021 62.6504 60.8623 62.7295 60.5518 62.8877C60.2412 63.04 59.9746 63.2686 59.752 63.5732C59.5293 63.8779 59.3564 64.25 59.2334 64.6895C59.1104 65.1289 59.0488 65.6357 59.0488 66.21V66.5791C59.0488 67.0303 59.1104 67.4551 59.2334 67.8535C59.3623 68.2461 59.5469 68.5918 59.7871 68.8906C60.0332 69.1895 60.3291 69.4238 60.6748 69.5938C61.0264 69.7637 61.4248 69.8486 61.8701 69.8486C62.4443 69.8486 62.9307 69.7314 63.3291 69.4971C63.7275 69.2627 64.0762 68.9492 64.375 68.5566L65.3594 69.3389C65.1543 69.6494 64.8936 69.9453 64.5771 70.2266C64.2607 70.5078 63.8711 70.7363 63.4082 70.9121C62.9512 71.0879 62.4092 71.1758 61.7822 71.1758ZM71.8369 57.5H73.4717V69.1543L73.3311 71H71.8369V57.5ZM79.8965 66.166V66.3506C79.8965 67.042 79.8145 67.6836 79.6504 68.2754C79.4863 68.8613 79.2461 69.3711 78.9297 69.8047C78.6133 70.2383 78.2266 70.5752 77.7695 70.8154C77.3125 71.0557 76.7881 71.1758 76.1963 71.1758C75.5928 71.1758 75.0625 71.0732 74.6055 70.8682C74.1543 70.6572 73.7734 70.3555 73.4629 69.9629C73.1523 69.5703 72.9033 69.0957 72.7158 68.5391C72.5342 67.9824 72.4082 67.3555 72.3379 66.6582V65.8496C72.4082 65.1465 72.5342 64.5166 72.7158 63.96C72.9033 63.4033 73.1523 62.9287 73.4629 62.5361C73.7734 62.1377 74.1543 61.8359 74.6055 61.6309C75.0566 61.4199 75.5811 61.3145 76.1787 61.3145C76.7764 61.3145 77.3066 61.4316 77.7695 61.666C78.2324 61.8945 78.6191 62.2227 78.9297 62.6504C79.2461 63.0781 79.4863 63.5908 79.6504 64.1885C79.8145 64.7803 79.8965 65.4395 79.8965 66.166ZM78.2617 66.3506V66.166C78.2617 65.6914 78.2178 65.2461 78.1299 64.8301C78.042 64.4082 77.9014 64.0391 77.708 63.7227C77.5146 63.4004 77.2598 63.1484 76.9434 62.9668C76.627 62.7793 76.2373 62.6855 75.7744 62.6855C75.3643 62.6855 75.0068 62.7559 74.7021 62.8965C74.4033 63.0371 74.1484 63.2275 73.9375 63.4678C73.7266 63.7021 73.5537 63.9717 73.4189 64.2764C73.29 64.5752 73.1934 64.8857 73.1289 65.208V67.3262C73.2227 67.7363 73.375 68.1318 73.5859 68.5127C73.8027 68.8877 74.0898 69.1953 74.4473 69.4355C74.8105 69.6758 75.2588 69.7959 75.792 69.7959C76.2314 69.7959 76.6064 69.708 76.917 69.5322C77.2334 69.3506 77.4883 69.1016 77.6816 68.7852C77.8809 68.4688 78.0273 68.1025 78.1211 67.6865C78.2148 67.2705 78.2617 66.8252 78.2617 66.3506ZM85.8994 71.1758C85.2373 71.1758 84.6367 71.0645 84.0977 70.8418C83.5645 70.6133 83.1045 70.2939 82.7178 69.8838C82.3369 69.4736 82.0439 68.9873 81.8389 68.4248C81.6338 67.8623 81.5312 67.2471 81.5312 66.5791V66.21C81.5312 65.4365 81.6455 64.748 81.874 64.1445C82.1025 63.5352 82.4131 63.0195 82.8057 62.5977C83.1982 62.1758 83.6436 61.8564 84.1416 61.6396C84.6396 61.4229 85.1553 61.3145 85.6885 61.3145C86.3682 61.3145 86.9541 61.4316 87.4463 61.666C87.9443 61.9004 88.3516 62.2285 88.668 62.6504C88.9844 63.0664 89.2188 63.5586 89.3711 64.127C89.5234 64.6895 89.5996 65.3047 89.5996 65.9727V66.7021H82.498V65.375H87.9736V65.252C87.9502 64.8301 87.8623 64.4199 87.71 64.0215C87.5635 63.623 87.3291 63.2949 87.0068 63.0371C86.6846 62.7793 86.2451 62.6504 85.6885 62.6504C85.3193 62.6504 84.9795 62.7295 84.6689 62.8877C84.3584 63.04 84.0918 63.2686 83.8691 63.5732C83.6465 63.8779 83.4736 64.25 83.3506 64.6895C83.2275 65.1289 83.166 65.6357 83.166 66.21V66.5791C83.166 67.0303 83.2275 67.4551 83.3506 67.8535C83.4795 68.2461 83.6641 68.5918 83.9043 68.8906C84.1504 69.1895 84.4463 69.4238 84.792 69.5938C85.1436 69.7637 85.542 69.8486 85.9873 69.8486C86.5615 69.8486 87.0479 69.7314 87.4463 69.4971C87.8447 69.2627 88.1934 68.9492 88.4922 68.5566L89.4766 69.3389C89.2715 69.6494 89.0107 69.9453 88.6943 70.2266C88.3779 70.5078 87.9883 70.7363 87.5254 70.9121C87.0684 71.0879 86.5264 71.1758 85.8994 71.1758ZM93.2646 57.5V71H91.6299V57.5H93.2646ZM97.6416 61.4902V71H96.0068V61.4902H97.6416ZM95.8838 58.9678C95.8838 58.7041 95.9629 58.4814 96.1211 58.2998C96.2852 58.1182 96.5254 58.0273 96.8418 58.0273C97.1523 58.0273 97.3896 58.1182 97.5537 58.2998C97.7236 58.4814 97.8086 58.7041 97.8086 58.9678C97.8086 59.2197 97.7236 59.4365 97.5537 59.6182C97.3896 59.7939 97.1523 59.8818 96.8418 59.8818C96.5254 59.8818 96.2852 59.7939 96.1211 59.6182C95.9629 59.4365 95.8838 59.2197 95.8838 58.9678ZM104.198 71.1758C103.536 71.1758 102.936 71.0645 102.396 70.8418C101.863 70.6133 101.403 70.2939 101.017 69.8838C100.636 69.4736 100.343 68.9873 100.138 68.4248C99.9326 67.8623 99.8301 67.2471 99.8301 66.5791V66.21C99.8301 65.4365 99.9443 64.748 100.173 64.1445C100.401 63.5352 100.712 63.0195 101.104 62.5977C101.497 62.1758 101.942 61.8564 102.44 61.6396C102.938 61.4229 103.454 61.3145 103.987 61.3145C104.667 61.3145 105.253 61.4316 105.745 61.666C106.243 61.9004 106.65 62.2285 106.967 62.6504C107.283 63.0664 107.518 63.5586 107.67 64.127C107.822 64.6895 107.898 65.3047 107.898 65.9727V66.7021H100.797V65.375H106.272V65.252C106.249 64.8301 106.161 64.4199 106.009 64.0215C105.862 63.623 105.628 63.2949 105.306 63.0371C104.983 62.7793 104.544 62.6504 103.987 62.6504C103.618 62.6504 103.278 62.7295 102.968 62.8877C102.657 63.04 102.391 63.2686 102.168 63.5732C101.945 63.8779 101.772 64.25 101.649 64.6895C101.526 65.1289 101.465 65.6357 101.465 66.21V66.5791C101.465 67.0303 101.526 67.4551 101.649 67.8535C101.778 68.2461 101.963 68.5918 102.203 68.8906C102.449 69.1895 102.745 69.4238 103.091 69.5938C103.442 69.7637 103.841 69.8486 104.286 69.8486C104.86 69.8486 105.347 69.7314 105.745 69.4971C106.144 69.2627 106.492 68.9492 106.791 68.5566L107.775 69.3389C107.57 69.6494 107.31 69.9453 106.993 70.2266C106.677 70.5078 106.287 70.7363 105.824 70.9121C105.367 71.0879 104.825 71.1758 104.198 71.1758ZM112.565 69.5322L115.167 61.4902H116.828L113.409 71H112.319L112.565 69.5322ZM110.395 61.4902L113.075 69.5762L113.26 71H112.17L108.725 61.4902H110.395ZM122.216 71.1758C121.554 71.1758 120.953 71.0645 120.414 70.8418C119.881 70.6133 119.421 70.2939 119.034 69.8838C118.653 69.4736 118.36 68.9873 118.155 68.4248C117.95 67.8623 117.848 67.2471 117.848 66.5791V66.21C117.848 65.4365 117.962 64.748 118.19 64.1445C118.419 63.5352 118.729 63.0195 119.122 62.5977C119.515 62.1758 119.96 61.8564 120.458 61.6396C120.956 61.4229 121.472 61.3145 122.005 61.3145C122.685 61.3145 123.271 61.4316 123.763 61.666C124.261 61.9004 124.668 62.2285 124.984 62.6504C125.301 63.0664 125.535 63.5586 125.688 64.127C125.84 64.6895 125.916 65.3047 125.916 65.9727V66.7021H118.814V65.375H124.29V65.252C124.267 64.8301 124.179 64.4199 124.026 64.0215C123.88 63.623 123.646 63.2949 123.323 63.0371C123.001 62.7793 122.562 62.6504 122.005 62.6504C121.636 62.6504 121.296 62.7295 120.985 62.8877C120.675 63.04 120.408 63.2686 120.186 63.5732C119.963 63.8779 119.79 64.25 119.667 64.6895C119.544 65.1289 119.482 65.6357 119.482 66.21V66.5791C119.482 67.0303 119.544 67.4551 119.667 67.8535C119.796 68.2461 119.98 68.5918 120.221 68.8906C120.467 69.1895 120.763 69.4238 121.108 69.5938C121.46 69.7637 121.858 69.8486 122.304 69.8486C122.878 69.8486 123.364 69.7314 123.763 69.4971C124.161 69.2627 124.51 68.9492 124.809 68.5566L125.793 69.3389C125.588 69.6494 125.327 69.9453 125.011 70.2266C124.694 70.5078 124.305 70.7363 123.842 70.9121C123.385 71.0879 122.843 71.1758 122.216 71.1758ZM134.046 61.4902V71H132.411V61.4902H134.046ZM132.288 58.9678C132.288 58.7041 132.367 58.4814 132.525 58.2998C132.689 58.1182 132.93 58.0273 133.246 58.0273C133.557 58.0273 133.794 58.1182 133.958 58.2998C134.128 58.4814 134.213 58.7041 134.213 58.9678C134.213 59.2197 134.128 59.4365 133.958 59.6182C133.794 59.7939 133.557 59.8818 133.246 59.8818C132.93 59.8818 132.689 59.7939 132.525 59.6182C132.367 59.4365 132.288 59.2197 132.288 58.9678ZM138.282 63.5205V71H136.656V61.4902H138.194L138.282 63.5205ZM137.896 65.8848L137.219 65.8584C137.225 65.208 137.321 64.6074 137.509 64.0566C137.696 63.5 137.96 63.0166 138.3 62.6064C138.64 62.1963 139.044 61.8799 139.513 61.6572C139.987 61.4287 140.512 61.3145 141.086 61.3145C141.555 61.3145 141.977 61.3789 142.352 61.5078C142.727 61.6309 143.046 61.8301 143.31 62.1055C143.579 62.3809 143.784 62.7383 143.925 63.1777C144.065 63.6113 144.136 64.1416 144.136 64.7686V71H142.501V64.751C142.501 64.2529 142.428 63.8545 142.281 63.5557C142.135 63.251 141.921 63.0312 141.64 62.8965C141.358 62.7559 141.013 62.6855 140.603 62.6855C140.198 62.6855 139.829 62.7705 139.495 62.9404C139.167 63.1104 138.883 63.3447 138.643 63.6436C138.408 63.9424 138.224 64.2852 138.089 64.6719C137.96 65.0527 137.896 65.457 137.896 65.8848ZM152.696 57.5V71H151.07V57.5H152.696ZM152.31 65.8848L151.633 65.8584C151.639 65.208 151.735 64.6074 151.923 64.0566C152.11 63.5 152.374 63.0166 152.714 62.6064C153.054 62.1963 153.458 61.8799 153.927 61.6572C154.401 61.4287 154.926 61.3145 155.5 61.3145C155.969 61.3145 156.391 61.3789 156.766 61.5078C157.141 61.6309 157.46 61.8301 157.724 62.1055C157.993 62.3809 158.198 62.7383 158.339 63.1777C158.479 63.6113 158.55 64.1416 158.55 64.7686V71H156.915V64.751C156.915 64.2529 156.842 63.8545 156.695 63.5557C156.549 63.251 156.335 63.0312 156.054 62.8965C155.772 62.7559 155.427 62.6855 155.017 62.6855C154.612 62.6855 154.243 62.7705 153.909 62.9404C153.581 63.1104 153.297 63.3447 153.057 63.6436C152.822 63.9424 152.638 64.2852 152.503 64.6719C152.374 65.0527 152.31 65.457 152.31 65.8848ZM160.554 66.3506V66.1484C160.554 65.4629 160.653 64.8271 160.853 64.2412C161.052 63.6494 161.339 63.1367 161.714 62.7031C162.089 62.2637 162.543 61.9238 163.076 61.6836C163.609 61.4375 164.207 61.3145 164.869 61.3145C165.537 61.3145 166.138 61.4375 166.671 61.6836C167.21 61.9238 167.667 62.2637 168.042 62.7031C168.423 63.1367 168.713 63.6494 168.912 64.2412C169.111 64.8271 169.211 65.4629 169.211 66.1484V66.3506C169.211 67.0361 169.111 67.6719 168.912 68.2578C168.713 68.8438 168.423 69.3564 168.042 69.7959C167.667 70.2295 167.213 70.5693 166.68 70.8154C166.152 71.0557 165.555 71.1758 164.887 71.1758C164.219 71.1758 163.618 71.0557 163.085 70.8154C162.552 70.5693 162.095 70.2295 161.714 69.7959C161.339 69.3564 161.052 68.8438 160.853 68.2578C160.653 67.6719 160.554 67.0361 160.554 66.3506ZM162.18 66.1484V66.3506C162.18 66.8252 162.235 67.2734 162.347 67.6953C162.458 68.1113 162.625 68.4805 162.848 68.8027C163.076 69.125 163.36 69.3799 163.7 69.5674C164.04 69.749 164.436 69.8398 164.887 69.8398C165.332 69.8398 165.722 69.749 166.056 69.5674C166.396 69.3799 166.677 69.125 166.899 68.8027C167.122 68.4805 167.289 68.1113 167.4 67.6953C167.518 67.2734 167.576 66.8252 167.576 66.3506V66.1484C167.576 65.6797 167.518 65.2373 167.4 64.8213C167.289 64.3994 167.119 64.0273 166.891 63.7051C166.668 63.377 166.387 63.1191 166.047 62.9316C165.713 62.7441 165.32 62.6504 164.869 62.6504C164.424 62.6504 164.031 62.7441 163.691 62.9316C163.357 63.1191 163.076 63.377 162.848 63.7051C162.625 64.0273 162.458 64.3994 162.347 64.8213C162.235 65.2373 162.18 65.6797 162.18 66.1484ZM172.876 63.5205V71H171.25V61.4902H172.788L172.876 63.5205ZM172.489 65.8848L171.812 65.8584C171.818 65.208 171.915 64.6074 172.103 64.0566C172.29 63.5 172.554 63.0166 172.894 62.6064C173.233 62.1963 173.638 61.8799 174.106 61.6572C174.581 61.4287 175.105 61.3145 175.68 61.3145C176.148 61.3145 176.57 61.3789 176.945 61.5078C177.32 61.6309 177.64 61.8301 177.903 62.1055C178.173 62.3809 178.378 62.7383 178.519 63.1777C178.659 63.6113 178.729 64.1416 178.729 64.7686V71H177.095V64.751C177.095 64.2529 177.021 63.8545 176.875 63.5557C176.729 63.251 176.515 63.0312 176.233 62.8965C175.952 62.7559 175.606 62.6855 175.196 62.6855C174.792 62.6855 174.423 62.7705 174.089 62.9404C173.761 63.1104 173.477 63.3447 173.236 63.6436C173.002 63.9424 172.817 64.2852 172.683 64.6719C172.554 65.0527 172.489 65.457 172.489 65.8848ZM185.146 71.1758C184.483 71.1758 183.883 71.0645 183.344 70.8418C182.811 70.6133 182.351 70.2939 181.964 69.8838C181.583 69.4736 181.29 68.9873 181.085 68.4248C180.88 67.8623 180.777 67.2471 180.777 66.5791V66.21C180.777 65.4365 180.892 64.748 181.12 64.1445C181.349 63.5352 181.659 63.0195 182.052 62.5977C182.444 62.1758 182.89 61.8564 183.388 61.6396C183.886 61.4229 184.401 61.3145 184.935 61.3145C185.614 61.3145 186.2 61.4316 186.692 61.666C187.19 61.9004 187.598 62.2285 187.914 62.6504C188.23 63.0664 188.465 63.5586 188.617 64.127C188.77 64.6895 188.846 65.3047 188.846 65.9727V66.7021H181.744V65.375H187.22V65.252C187.196 64.8301 187.108 64.4199 186.956 64.0215C186.81 63.623 186.575 63.2949 186.253 63.0371C185.931 62.7793 185.491 62.6504 184.935 62.6504C184.565 62.6504 184.226 62.7295 183.915 62.8877C183.604 63.04 183.338 63.2686 183.115 63.5732C182.893 63.8779 182.72 64.25 182.597 64.6895C182.474 65.1289 182.412 65.6357 182.412 66.21V66.5791C182.412 67.0303 182.474 67.4551 182.597 67.8535C182.726 68.2461 182.91 68.5918 183.15 68.8906C183.396 69.1895 183.692 69.4238 184.038 69.5938C184.39 69.7637 184.788 69.8486 185.233 69.8486C185.808 69.8486 186.294 69.7314 186.692 69.4971C187.091 69.2627 187.439 68.9492 187.738 68.5566L188.723 69.3389C188.518 69.6494 188.257 69.9453 187.94 70.2266C187.624 70.5078 187.234 70.7363 186.771 70.9121C186.314 71.0879 185.772 71.1758 185.146 71.1758ZM196.281 68.4775C196.281 68.2432 196.229 68.0264 196.123 67.8271C196.023 67.6221 195.815 67.4375 195.499 67.2734C195.188 67.1035 194.72 66.957 194.093 66.834C193.565 66.7227 193.088 66.5908 192.66 66.4385C192.238 66.2861 191.878 66.1016 191.579 65.8848C191.286 65.668 191.061 65.4131 190.902 65.1201C190.744 64.8271 190.665 64.4844 190.665 64.0918C190.665 63.7168 190.747 63.3623 190.911 63.0283C191.081 62.6943 191.318 62.3984 191.623 62.1406C191.934 61.8828 192.306 61.6807 192.739 61.5342C193.173 61.3877 193.656 61.3145 194.189 61.3145C194.951 61.3145 195.602 61.4492 196.141 61.7188C196.68 61.9883 197.093 62.3486 197.38 62.7998C197.667 63.2451 197.811 63.7402 197.811 64.2852H196.185C196.185 64.0215 196.105 63.7666 195.947 63.5205C195.795 63.2686 195.569 63.0605 195.271 62.8965C194.978 62.7324 194.617 62.6504 194.189 62.6504C193.738 62.6504 193.372 62.7207 193.091 62.8613C192.815 62.9961 192.613 63.1689 192.484 63.3799C192.361 63.5908 192.3 63.8135 192.3 64.0479C192.3 64.2236 192.329 64.3818 192.388 64.5225C192.452 64.6572 192.563 64.7832 192.722 64.9004C192.88 65.0117 193.103 65.1172 193.39 65.2168C193.677 65.3164 194.043 65.416 194.488 65.5156C195.268 65.6914 195.909 65.9023 196.413 66.1484C196.917 66.3945 197.292 66.6963 197.538 67.0537C197.784 67.4111 197.907 67.8447 197.907 68.3545C197.907 68.7705 197.819 69.1514 197.644 69.4971C197.474 69.8428 197.225 70.1416 196.896 70.3936C196.574 70.6396 196.188 70.833 195.736 70.9736C195.291 71.1084 194.79 71.1758 194.233 71.1758C193.396 71.1758 192.687 71.0264 192.106 70.7275C191.526 70.4287 191.087 70.042 190.788 69.5674C190.489 69.0928 190.34 68.5918 190.34 68.0645H191.975C191.998 68.5098 192.127 68.8643 192.361 69.1279C192.596 69.3857 192.883 69.5703 193.223 69.6816C193.562 69.7871 193.899 69.8398 194.233 69.8398C194.679 69.8398 195.051 69.7812 195.35 69.6641C195.654 69.5469 195.886 69.3857 196.044 69.1807C196.202 68.9756 196.281 68.7412 196.281 68.4775ZM204.024 61.4902V62.7383H198.883V61.4902H204.024ZM200.623 59.1787H202.249V68.6445C202.249 68.9668 202.299 69.21 202.398 69.374C202.498 69.5381 202.627 69.6465 202.785 69.6992C202.943 69.752 203.113 69.7783 203.295 69.7783C203.43 69.7783 203.57 69.7666 203.717 69.7432C203.869 69.7139 203.983 69.6904 204.06 69.6729L204.068 71C203.939 71.041 203.77 71.0791 203.559 71.1143C203.354 71.1553 203.104 71.1758 202.812 71.1758C202.413 71.1758 202.047 71.0967 201.713 70.9385C201.379 70.7803 201.112 70.5166 200.913 70.1475C200.72 69.7725 200.623 69.2686 200.623 68.6357V59.1787ZM207.408 69.0664V70.376C207.408 70.9092 207.273 71.4717 207.004 72.0635C206.734 72.6611 206.356 73.1592 205.87 73.5576L204.947 72.916C205.135 72.6582 205.293 72.3945 205.422 72.125C205.551 71.8613 205.647 71.5859 205.712 71.2988C205.782 71.0176 205.817 70.7188 205.817 70.4023V69.0664H207.408ZM217.753 69.8398C218.14 69.8398 218.497 69.7607 218.825 69.6025C219.153 69.4443 219.423 69.2275 219.634 68.9521C219.845 68.6709 219.965 68.3516 219.994 67.9941H221.541C221.512 68.5566 221.321 69.0811 220.97 69.5674C220.624 70.0479 220.17 70.4375 219.607 70.7363C219.045 71.0293 218.427 71.1758 217.753 71.1758C217.038 71.1758 216.414 71.0498 215.881 70.7979C215.354 70.5459 214.914 70.2002 214.562 69.7607C214.217 69.3213 213.956 68.8174 213.78 68.249C213.61 67.6748 213.525 67.0684 213.525 66.4297V66.0605C213.525 65.4219 213.61 64.8184 213.78 64.25C213.956 63.6758 214.217 63.1689 214.562 62.7295C214.914 62.29 215.354 61.9443 215.881 61.6924C216.414 61.4404 217.038 61.3145 217.753 61.3145C218.497 61.3145 219.147 61.4668 219.704 61.7715C220.261 62.0703 220.697 62.4805 221.014 63.002C221.336 63.5176 221.512 64.1035 221.541 64.7598H219.994C219.965 64.3672 219.854 64.0127 219.66 63.6963C219.473 63.3799 219.215 63.1279 218.887 62.9404C218.564 62.7471 218.187 62.6504 217.753 62.6504C217.255 62.6504 216.836 62.75 216.496 62.9492C216.162 63.1426 215.896 63.4062 215.696 63.7402C215.503 64.0684 215.362 64.4346 215.274 64.8389C215.192 65.2373 215.151 65.6445 215.151 66.0605V66.4297C215.151 66.8457 215.192 67.2559 215.274 67.6602C215.356 68.0645 215.494 68.4307 215.688 68.7588C215.887 69.0869 216.153 69.3506 216.487 69.5498C216.827 69.7432 217.249 69.8398 217.753 69.8398ZM225.136 57.5V71H223.501V57.5H225.136ZM231.692 71.1758C231.03 71.1758 230.43 71.0645 229.891 70.8418C229.357 70.6133 228.897 70.2939 228.511 69.8838C228.13 69.4736 227.837 68.9873 227.632 68.4248C227.427 67.8623 227.324 67.2471 227.324 66.5791V66.21C227.324 65.4365 227.438 64.748 227.667 64.1445C227.896 63.5352 228.206 63.0195 228.599 62.5977C228.991 62.1758 229.437 61.8564 229.935 61.6396C230.433 61.4229 230.948 61.3145 231.481 61.3145C232.161 61.3145 232.747 61.4316 233.239 61.666C233.737 61.9004 234.145 62.2285 234.461 62.6504C234.777 63.0664 235.012 63.5586 235.164 64.127C235.316 64.6895 235.393 65.3047 235.393 65.9727V66.7021H228.291V65.375H233.767V65.252C233.743 64.8301 233.655 64.4199 233.503 64.0215C233.356 63.623 233.122 63.2949 232.8 63.0371C232.478 62.7793 232.038 62.6504 231.481 62.6504C231.112 62.6504 230.772 62.7295 230.462 62.8877C230.151 63.04 229.885 63.2686 229.662 63.5732C229.439 63.8779 229.267 64.25 229.144 64.6895C229.021 65.1289 228.959 65.6357 228.959 66.21V66.5791C228.959 67.0303 229.021 67.4551 229.144 67.8535C229.272 68.2461 229.457 68.5918 229.697 68.8906C229.943 69.1895 230.239 69.4238 230.585 69.5938C230.937 69.7637 231.335 69.8486 231.78 69.8486C232.354 69.8486 232.841 69.7314 233.239 69.4971C233.638 69.2627 233.986 68.9492 234.285 68.5566L235.27 69.3389C235.064 69.6494 234.804 69.9453 234.487 70.2266C234.171 70.5078 233.781 70.7363 233.318 70.9121C232.861 71.0879 232.319 71.1758 231.692 71.1758ZM242.898 69.374V64.4785C242.898 64.1035 242.822 63.7783 242.67 63.5029C242.523 63.2217 242.301 63.0049 242.002 62.8525C241.703 62.7002 241.334 62.624 240.895 62.624C240.484 62.624 240.124 62.6943 239.813 62.835C239.509 62.9756 239.269 63.1602 239.093 63.3887C238.923 63.6172 238.838 63.8633 238.838 64.127H237.212C237.212 63.7871 237.3 63.4502 237.476 63.1162C237.651 62.7822 237.903 62.4805 238.231 62.2109C238.565 61.9355 238.964 61.7188 239.427 61.5605C239.896 61.3965 240.417 61.3145 240.991 61.3145C241.683 61.3145 242.292 61.4316 242.819 61.666C243.353 61.9004 243.769 62.2549 244.067 62.7295C244.372 63.1982 244.524 63.7871 244.524 64.4961V68.9258C244.524 69.2422 244.551 69.5791 244.604 69.9365C244.662 70.2939 244.747 70.6016 244.858 70.8594V71H243.162C243.08 70.8125 243.016 70.5635 242.969 70.2529C242.922 69.9365 242.898 69.6436 242.898 69.374ZM243.18 65.2344L243.197 66.377H241.554C241.091 66.377 240.678 66.415 240.314 66.4912C239.951 66.5615 239.646 66.6699 239.4 66.8164C239.154 66.9629 238.967 67.1475 238.838 67.3701C238.709 67.5869 238.645 67.8418 238.645 68.1348C238.645 68.4336 238.712 68.7061 238.847 68.9521C238.981 69.1982 239.184 69.3945 239.453 69.541C239.729 69.6816 240.065 69.752 240.464 69.752C240.962 69.752 241.401 69.6465 241.782 69.4355C242.163 69.2246 242.465 68.9668 242.688 68.6621C242.916 68.3574 243.039 68.0615 243.057 67.7744L243.751 68.5566C243.71 68.8027 243.599 69.0752 243.417 69.374C243.235 69.6729 242.992 69.96 242.688 70.2354C242.389 70.5049 242.031 70.7305 241.615 70.9121C241.205 71.0879 240.742 71.1758 240.227 71.1758C239.582 71.1758 239.017 71.0498 238.53 70.7979C238.05 70.5459 237.675 70.209 237.405 69.7871C237.142 69.3594 237.01 68.8818 237.01 68.3545C237.01 67.8447 237.109 67.3965 237.309 67.0098C237.508 66.6172 237.795 66.292 238.17 66.0342C238.545 65.7705 238.996 65.5713 239.523 65.4365C240.051 65.3018 240.64 65.2344 241.29 65.2344H243.18ZM248.708 62.9844V71H247.082V61.4902H248.664L248.708 62.9844ZM251.679 61.4375L251.67 62.9492C251.535 62.9199 251.406 62.9023 251.283 62.8965C251.166 62.8848 251.031 62.8789 250.879 62.8789C250.504 62.8789 250.173 62.9375 249.886 63.0547C249.599 63.1719 249.355 63.3359 249.156 63.5469C248.957 63.7578 248.799 64.0098 248.682 64.3027C248.57 64.5898 248.497 64.9062 248.462 65.252L248.005 65.5156C248.005 64.9414 248.061 64.4023 248.172 63.8984C248.289 63.3945 248.468 62.9492 248.708 62.5625C248.948 62.1699 249.253 61.8652 249.622 61.6484C249.997 61.4258 250.442 61.3145 250.958 61.3145C251.075 61.3145 251.21 61.3291 251.362 61.3584C251.515 61.3818 251.62 61.4082 251.679 61.4375ZM253.568 69.0664V70.376C253.568 70.9092 253.434 71.4717 253.164 72.0635C252.895 72.6611 252.517 73.1592 252.03 73.5576L251.107 72.916C251.295 72.6582 251.453 72.3945 251.582 72.125C251.711 71.8613 251.808 71.5859 251.872 71.2988C251.942 71.0176 251.978 70.7188 251.978 70.4023V69.0664H253.568ZM265.715 69.374V64.4785C265.715 64.1035 265.639 63.7783 265.486 63.5029C265.34 63.2217 265.117 63.0049 264.818 62.8525C264.52 62.7002 264.15 62.624 263.711 62.624C263.301 62.624 262.94 62.6943 262.63 62.835C262.325 62.9756 262.085 63.1602 261.909 63.3887C261.739 63.6172 261.654 63.8633 261.654 64.127H260.028C260.028 63.7871 260.116 63.4502 260.292 63.1162C260.468 62.7822 260.72 62.4805 261.048 62.2109C261.382 61.9355 261.78 61.7188 262.243 61.5605C262.712 61.3965 263.233 61.3145 263.808 61.3145C264.499 61.3145 265.108 61.4316 265.636 61.666C266.169 61.9004 266.585 62.2549 266.884 62.7295C267.188 63.1982 267.341 63.7871 267.341 64.4961V68.9258C267.341 69.2422 267.367 69.5791 267.42 69.9365C267.479 70.2939 267.563 70.6016 267.675 70.8594V71H265.979C265.896 70.8125 265.832 70.5635 265.785 70.2529C265.738 69.9365 265.715 69.6436 265.715 69.374ZM265.996 65.2344L266.014 66.377H264.37C263.907 66.377 263.494 66.415 263.131 66.4912C262.768 66.5615 262.463 66.6699 262.217 66.8164C261.971 66.9629 261.783 67.1475 261.654 67.3701C261.525 67.5869 261.461 67.8418 261.461 68.1348C261.461 68.4336 261.528 68.7061 261.663 68.9521C261.798 69.1982 262 69.3945 262.27 69.541C262.545 69.6816 262.882 69.752 263.28 69.752C263.778 69.752 264.218 69.6465 264.599 69.4355C264.979 69.2246 265.281 68.9668 265.504 68.6621C265.732 68.3574 265.855 68.0615 265.873 67.7744L266.567 68.5566C266.526 68.8027 266.415 69.0752 266.233 69.374C266.052 69.6729 265.809 69.96 265.504 70.2354C265.205 70.5049 264.848 70.7305 264.432 70.9121C264.021 71.0879 263.559 71.1758 263.043 71.1758C262.398 71.1758 261.833 71.0498 261.347 70.7979C260.866 70.5459 260.491 70.209 260.222 69.7871C259.958 69.3594 259.826 68.8818 259.826 68.3545C259.826 67.8447 259.926 67.3965 260.125 67.0098C260.324 66.6172 260.611 66.292 260.986 66.0342C261.361 65.7705 261.812 65.5713 262.34 65.4365C262.867 65.3018 263.456 65.2344 264.106 65.2344H265.996ZM271.524 63.5205V71H269.898V61.4902H271.437L271.524 63.5205ZM271.138 65.8848L270.461 65.8584C270.467 65.208 270.563 64.6074 270.751 64.0566C270.938 63.5 271.202 63.0166 271.542 62.6064C271.882 62.1963 272.286 61.8799 272.755 61.6572C273.229 61.4287 273.754 61.3145 274.328 61.3145C274.797 61.3145 275.219 61.3789 275.594 61.5078C275.969 61.6309 276.288 61.8301 276.552 62.1055C276.821 62.3809 277.026 62.7383 277.167 63.1777C277.308 63.6113 277.378 64.1416 277.378 64.7686V71H275.743V64.751C275.743 64.2529 275.67 63.8545 275.523 63.5557C275.377 63.251 275.163 63.0312 274.882 62.8965C274.601 62.7559 274.255 62.6855 273.845 62.6855C273.44 62.6855 273.071 62.7705 272.737 62.9404C272.409 63.1104 272.125 63.3447 271.885 63.6436C271.65 63.9424 271.466 64.2852 271.331 64.6719C271.202 65.0527 271.138 65.457 271.138 65.8848ZM285.842 69.1543V57.5H287.477V71H285.982L285.842 69.1543ZM279.443 66.3506V66.166C279.443 65.4395 279.531 64.7803 279.707 64.1885C279.889 63.5908 280.144 63.0781 280.472 62.6504C280.806 62.2227 281.201 61.8945 281.658 61.666C282.121 61.4316 282.637 61.3145 283.205 61.3145C283.803 61.3145 284.324 61.4199 284.77 61.6309C285.221 61.8359 285.602 62.1377 285.912 62.5361C286.229 62.9287 286.478 63.4033 286.659 63.96C286.841 64.5166 286.967 65.1465 287.037 65.8496V66.6582C286.973 67.3555 286.847 67.9824 286.659 68.5391C286.478 69.0957 286.229 69.5703 285.912 69.9629C285.602 70.3555 285.221 70.6572 284.77 70.8682C284.318 71.0732 283.791 71.1758 283.188 71.1758C282.631 71.1758 282.121 71.0557 281.658 70.8154C281.201 70.5752 280.806 70.2383 280.472 69.8047C280.144 69.3711 279.889 68.8613 279.707 68.2754C279.531 67.6836 279.443 67.042 279.443 66.3506ZM281.078 66.166V66.3506C281.078 66.8252 281.125 67.2705 281.219 67.6865C281.318 68.1025 281.471 68.4688 281.676 68.7852C281.881 69.1016 282.142 69.3506 282.458 69.5322C282.774 69.708 283.152 69.7959 283.592 69.7959C284.131 69.7959 284.573 69.6816 284.919 69.4531C285.271 69.2246 285.552 68.9229 285.763 68.5479C285.974 68.1729 286.138 67.7656 286.255 67.3262V65.208C286.185 64.8857 286.082 64.5752 285.947 64.2764C285.818 63.9717 285.648 63.7021 285.438 63.4678C285.232 63.2275 284.978 63.0371 284.673 62.8965C284.374 62.7559 284.02 62.6855 283.609 62.6855C283.164 62.6855 282.78 62.7793 282.458 62.9668C282.142 63.1484 281.881 63.4004 281.676 63.7227C281.471 64.0391 281.318 64.4082 281.219 64.8301C281.125 65.2461 281.078 65.6914 281.078 66.166ZM294.042 66.3506V66.1484C294.042 65.4629 294.142 64.8271 294.341 64.2412C294.54 63.6494 294.827 63.1367 295.202 62.7031C295.577 62.2637 296.031 61.9238 296.564 61.6836C297.098 61.4375 297.695 61.3145 298.357 61.3145C299.025 61.3145 299.626 61.4375 300.159 61.6836C300.698 61.9238 301.155 62.2637 301.53 62.7031C301.911 63.1367 302.201 63.6494 302.4 64.2412C302.6 64.8271 302.699 65.4629 302.699 66.1484V66.3506C302.699 67.0361 302.6 67.6719 302.4 68.2578C302.201 68.8438 301.911 69.3564 301.53 69.7959C301.155 70.2295 300.701 70.5693 300.168 70.8154C299.641 71.0557 299.043 71.1758 298.375 71.1758C297.707 71.1758 297.106 71.0557 296.573 70.8154C296.04 70.5693 295.583 70.2295 295.202 69.7959C294.827 69.3564 294.54 68.8438 294.341 68.2578C294.142 67.6719 294.042 67.0361 294.042 66.3506ZM295.668 66.1484V66.3506C295.668 66.8252 295.724 67.2734 295.835 67.6953C295.946 68.1113 296.113 68.4805 296.336 68.8027C296.564 69.125 296.849 69.3799 297.188 69.5674C297.528 69.749 297.924 69.8398 298.375 69.8398C298.82 69.8398 299.21 69.749 299.544 69.5674C299.884 69.3799 300.165 69.125 300.388 68.8027C300.61 68.4805 300.777 68.1113 300.889 67.6953C301.006 67.2734 301.064 66.8252 301.064 66.3506V66.1484C301.064 65.6797 301.006 65.2373 300.889 64.8213C300.777 64.3994 300.607 64.0273 300.379 63.7051C300.156 63.377 299.875 63.1191 299.535 62.9316C299.201 62.7441 298.809 62.6504 298.357 62.6504C297.912 62.6504 297.52 62.7441 297.18 62.9316C296.846 63.1191 296.564 63.377 296.336 63.7051C296.113 64.0273 295.946 64.3994 295.835 64.8213C295.724 65.2373 295.668 65.6797 295.668 66.1484ZM306.364 63.3184V74.6562H304.729V61.4902H306.224L306.364 63.3184ZM312.771 66.166V66.3506C312.771 67.042 312.689 67.6836 312.525 68.2754C312.361 68.8613 312.121 69.3711 311.805 69.8047C311.494 70.2383 311.11 70.5752 310.653 70.8154C310.196 71.0557 309.672 71.1758 309.08 71.1758C308.477 71.1758 307.943 71.0762 307.48 70.877C307.018 70.6777 306.625 70.3877 306.303 70.0068C305.98 69.626 305.723 69.1689 305.529 68.6357C305.342 68.1025 305.213 67.502 305.143 66.834V65.8496C305.213 65.1465 305.345 64.5166 305.538 63.96C305.731 63.4033 305.986 62.9287 306.303 62.5361C306.625 62.1377 307.015 61.8359 307.472 61.6309C307.929 61.4199 308.456 61.3145 309.054 61.3145C309.651 61.3145 310.182 61.4316 310.645 61.666C311.107 61.8945 311.497 62.2227 311.813 62.6504C312.13 63.0781 312.367 63.5908 312.525 64.1885C312.689 64.7803 312.771 65.4395 312.771 66.166ZM311.137 66.3506V66.166C311.137 65.6914 311.087 65.2461 310.987 64.8301C310.888 64.4082 310.732 64.0391 310.521 63.7227C310.316 63.4004 310.053 63.1484 309.73 62.9668C309.408 62.7793 309.024 62.6855 308.579 62.6855C308.169 62.6855 307.812 62.7559 307.507 62.8965C307.208 63.0371 306.953 63.2275 306.742 63.4678C306.531 63.7021 306.358 63.9717 306.224 64.2764C306.095 64.5752 305.998 64.8857 305.934 65.208V67.4844C306.051 67.8945 306.215 68.2812 306.426 68.6445C306.637 69.002 306.918 69.292 307.27 69.5146C307.621 69.7314 308.063 69.8398 308.597 69.8398C309.036 69.8398 309.414 69.749 309.73 69.5674C310.053 69.3799 310.316 69.125 310.521 68.8027C310.732 68.4805 310.888 68.1113 310.987 67.6953C311.087 67.2734 311.137 66.8252 311.137 66.3506ZM318.792 71.1758C318.13 71.1758 317.529 71.0645 316.99 70.8418C316.457 70.6133 315.997 70.2939 315.61 69.8838C315.229 69.4736 314.937 68.9873 314.731 68.4248C314.526 67.8623 314.424 67.2471 314.424 66.5791V66.21C314.424 65.4365 314.538 64.748 314.767 64.1445C314.995 63.5352 315.306 63.0195 315.698 62.5977C316.091 62.1758 316.536 61.8564 317.034 61.6396C317.532 61.4229 318.048 61.3145 318.581 61.3145C319.261 61.3145 319.847 61.4316 320.339 61.666C320.837 61.9004 321.244 62.2285 321.561 62.6504C321.877 63.0664 322.111 63.5586 322.264 64.127C322.416 64.6895 322.492 65.3047 322.492 65.9727V66.7021H315.391V65.375H320.866V65.252C320.843 64.8301 320.755 64.4199 320.603 64.0215C320.456 63.623 320.222 63.2949 319.899 63.0371C319.577 62.7793 319.138 62.6504 318.581 62.6504C318.212 62.6504 317.872 62.7295 317.562 62.8877C317.251 63.04 316.984 63.2686 316.762 63.5732C316.539 63.8779 316.366 64.25 316.243 64.6895C316.12 65.1289 316.059 65.6357 316.059 66.21V66.5791C316.059 67.0303 316.12 67.4551 316.243 67.8535C316.372 68.2461 316.557 68.5918 316.797 68.8906C317.043 69.1895 317.339 69.4238 317.685 69.5938C318.036 69.7637 318.435 69.8486 318.88 69.8486C319.454 69.8486 319.94 69.7314 320.339 69.4971C320.737 69.2627 321.086 68.9492 321.385 68.5566L322.369 69.3389C322.164 69.6494 321.903 69.9453 321.587 70.2266C321.271 70.5078 320.881 70.7363 320.418 70.9121C319.961 71.0879 319.419 71.1758 318.792 71.1758ZM326.017 63.5205V71H324.391V61.4902H325.929L326.017 63.5205ZM325.63 65.8848L324.953 65.8584C324.959 65.208 325.056 64.6074 325.243 64.0566C325.431 63.5 325.694 63.0166 326.034 62.6064C326.374 62.1963 326.778 61.8799 327.247 61.6572C327.722 61.4287 328.246 61.3145 328.82 61.3145C329.289 61.3145 329.711 61.3789 330.086 61.5078C330.461 61.6309 330.78 61.8301 331.044 62.1055C331.313 62.3809 331.519 62.7383 331.659 63.1777C331.8 63.6113 331.87 64.1416 331.87 64.7686V71H330.235V64.751C330.235 64.2529 330.162 63.8545 330.016 63.5557C329.869 63.251 329.655 63.0312 329.374 62.8965C329.093 62.7559 328.747 62.6855 328.337 62.6855C327.933 62.6855 327.563 62.7705 327.229 62.9404C326.901 63.1104 326.617 63.3447 326.377 63.6436C326.143 63.9424 325.958 64.2852 325.823 64.6719C325.694 65.0527 325.63 65.457 325.63 65.8848ZM9.7334 90.8398C10.1201 90.8398 10.4775 90.7607 10.8057 90.6025C11.1338 90.4443 11.4033 90.2275 11.6143 89.9521C11.8252 89.6709 11.9453 89.3516 11.9746 88.9941H13.5215C13.4922 89.5566 13.3018 90.0811 12.9502 90.5674C12.6045 91.0479 12.1504 91.4375 11.5879 91.7363C11.0254 92.0293 10.4072 92.1758 9.7334 92.1758C9.01855 92.1758 8.39453 92.0498 7.86133 91.7979C7.33398 91.5459 6.89453 91.2002 6.54297 90.7607C6.19727 90.3213 5.93652 89.8174 5.76074 89.249C5.59082 88.6748 5.50586 88.0684 5.50586 87.4297V87.0605C5.50586 86.4219 5.59082 85.8184 5.76074 85.25C5.93652 84.6758 6.19727 84.1689 6.54297 83.7295C6.89453 83.29 7.33398 82.9443 7.86133 82.6924C8.39453 82.4404 9.01855 82.3145 9.7334 82.3145C10.4775 82.3145 11.1279 82.4668 11.6846 82.7715C12.2412 83.0703 12.6777 83.4805 12.9941 84.002C13.3164 84.5176 13.4922 85.1035 13.5215 85.7598H11.9746C11.9453 85.3672 11.834 85.0127 11.6406 84.6963C11.4531 84.3799 11.1953 84.1279 10.8672 83.9404C10.5449 83.7471 10.167 83.6504 9.7334 83.6504C9.23535 83.6504 8.81641 83.75 8.47656 83.9492C8.14258 84.1426 7.87598 84.4062 7.67676 84.7402C7.4834 85.0684 7.34277 85.4346 7.25488 85.8389C7.17285 86.2373 7.13184 86.6445 7.13184 87.0605V87.4297C7.13184 87.8457 7.17285 88.2559 7.25488 88.6602C7.33691 89.0645 7.47461 89.4307 7.66797 89.7588C7.86719 90.0869 8.13379 90.3506 8.46777 90.5498C8.80762 90.7432 9.22949 90.8398 9.7334 90.8398ZM14.9189 87.3506V87.1484C14.9189 86.4629 15.0186 85.8271 15.2178 85.2412C15.417 84.6494 15.7041 84.1367 16.0791 83.7031C16.4541 83.2637 16.9082 82.9238 17.4414 82.6836C17.9746 82.4375 18.5723 82.3145 19.2344 82.3145C19.9023 82.3145 20.5029 82.4375 21.0361 82.6836C21.5752 82.9238 22.0322 83.2637 22.4072 83.7031C22.7881 84.1367 23.0781 84.6494 23.2773 85.2412C23.4766 85.8271 23.5762 86.4629 23.5762 87.1484V87.3506C23.5762 88.0361 23.4766 88.6719 23.2773 89.2578C23.0781 89.8438 22.7881 90.3564 22.4072 90.7959C22.0322 91.2295 21.5781 91.5693 21.0449 91.8154C20.5176 92.0557 19.9199 92.1758 19.252 92.1758C18.584 92.1758 17.9834 92.0557 17.4502 91.8154C16.917 91.5693 16.46 91.2295 16.0791 90.7959C15.7041 90.3564 15.417 89.8438 15.2178 89.2578C15.0186 88.6719 14.9189 88.0361 14.9189 87.3506ZM16.5449 87.1484V87.3506C16.5449 87.8252 16.6006 88.2734 16.7119 88.6953C16.8232 89.1113 16.9902 89.4805 17.2129 89.8027C17.4414 90.125 17.7256 90.3799 18.0654 90.5674C18.4053 90.749 18.8008 90.8398 19.252 90.8398C19.6973 90.8398 20.0869 90.749 20.4209 90.5674C20.7607 90.3799 21.042 90.125 21.2646 89.8027C21.4873 89.4805 21.6543 89.1113 21.7656 88.6953C21.8828 88.2734 21.9414 87.8252 21.9414 87.3506V87.1484C21.9414 86.6797 21.8828 86.2373 21.7656 85.8213C21.6543 85.3994 21.4844 85.0273 21.2559 84.7051C21.0332 84.377 20.752 84.1191 20.4121 83.9316C20.0781 83.7441 19.6855 83.6504 19.2344 83.6504C18.7891 83.6504 18.3965 83.7441 18.0566 83.9316C17.7227 84.1191 17.4414 84.377 17.2129 84.7051C16.9902 85.0273 16.8232 85.3994 16.7119 85.8213C16.6006 86.2373 16.5449 86.6797 16.5449 87.1484ZM27.2324 84.3799V92H25.5977V82.4902H27.1445L27.2324 84.3799ZM26.8984 86.8848L26.1426 86.8584C26.1484 86.208 26.2334 85.6074 26.3975 85.0566C26.5615 84.5 26.8047 84.0166 27.127 83.6064C27.4492 83.1963 27.8506 82.8799 28.3311 82.6572C28.8115 82.4287 29.3682 82.3145 30.001 82.3145C30.4463 82.3145 30.8564 82.3789 31.2314 82.5078C31.6064 82.6309 31.9316 82.8271 32.207 83.0967C32.4824 83.3662 32.6963 83.7119 32.8486 84.1338C33.001 84.5557 33.0771 85.0654 33.0771 85.6631V92H31.4512V85.7422C31.4512 85.2441 31.3662 84.8457 31.1963 84.5469C31.0322 84.248 30.7979 84.0312 30.4932 83.8965C30.1885 83.7559 29.8311 83.6855 29.4209 83.6855C28.9404 83.6855 28.5391 83.7705 28.2168 83.9404C27.8945 84.1104 27.6367 84.3447 27.4434 84.6436C27.25 84.9424 27.1094 85.2852 27.0215 85.6719C26.9395 86.0527 26.8984 86.457 26.8984 86.8848ZM33.0596 85.9883L31.9697 86.3223C31.9756 85.8008 32.0605 85.2998 32.2246 84.8193C32.3945 84.3389 32.6377 83.9111 32.9541 83.5361C33.2764 83.1611 33.6719 82.8652 34.1406 82.6484C34.6094 82.4258 35.1455 82.3145 35.749 82.3145C36.2588 82.3145 36.71 82.3818 37.1025 82.5166C37.501 82.6514 37.835 82.8594 38.1045 83.1406C38.3799 83.416 38.5879 83.7705 38.7285 84.2041C38.8691 84.6377 38.9395 85.1533 38.9395 85.751V92H37.3047V85.7334C37.3047 85.2002 37.2197 84.7871 37.0498 84.4941C36.8857 84.1953 36.6514 83.9873 36.3467 83.8701C36.0479 83.7471 35.6904 83.6855 35.2744 83.6855C34.917 83.6855 34.6006 83.7471 34.3252 83.8701C34.0498 83.9932 33.8184 84.1631 33.6309 84.3799C33.4434 84.5908 33.2998 84.834 33.2002 85.1094C33.1064 85.3848 33.0596 85.6777 33.0596 85.9883ZM43.0176 84.3799V92H41.3828V82.4902H42.9297L43.0176 84.3799ZM42.6836 86.8848L41.9277 86.8584C41.9336 86.208 42.0186 85.6074 42.1826 85.0566C42.3467 84.5 42.5898 84.0166 42.9121 83.6064C43.2344 83.1963 43.6357 82.8799 44.1162 82.6572C44.5967 82.4287 45.1533 82.3145 45.7861 82.3145C46.2314 82.3145 46.6416 82.3789 47.0166 82.5078C47.3916 82.6309 47.7168 82.8271 47.9922 83.0967C48.2676 83.3662 48.4814 83.7119 48.6338 84.1338C48.7861 84.5557 48.8623 85.0654 48.8623 85.6631V92H47.2363V85.7422C47.2363 85.2441 47.1514 84.8457 46.9814 84.5469C46.8174 84.248 46.583 84.0312 46.2783 83.8965C45.9736 83.7559 45.6162 83.6855 45.2061 83.6855C44.7256 83.6855 44.3242 83.7705 44.002 83.9404C43.6797 84.1104 43.4219 84.3447 43.2285 84.6436C43.0352 84.9424 42.8945 85.2852 42.8066 85.6719C42.7246 86.0527 42.6836 86.457 42.6836 86.8848ZM48.8447 85.9883L47.7549 86.3223C47.7607 85.8008 47.8457 85.2998 48.0098 84.8193C48.1797 84.3389 48.4229 83.9111 48.7393 83.5361C49.0615 83.1611 49.457 82.8652 49.9258 82.6484C50.3945 82.4258 50.9307 82.3145 51.5342 82.3145C52.0439 82.3145 52.4951 82.3818 52.8877 82.5166C53.2861 82.6514 53.6201 82.8594 53.8896 83.1406C54.165 83.416 54.373 83.7705 54.5137 84.2041C54.6543 84.6377 54.7246 85.1533 54.7246 85.751V92H53.0898V85.7334C53.0898 85.2002 53.0049 84.7871 52.835 84.4941C52.6709 84.1953 52.4365 83.9873 52.1318 83.8701C51.833 83.7471 51.4756 83.6855 51.0596 83.6855C50.7021 83.6855 50.3857 83.7471 50.1104 83.8701C49.835 83.9932 49.6035 84.1631 49.416 84.3799C49.2285 84.5908 49.085 84.834 48.9854 85.1094C48.8916 85.3848 48.8447 85.6777 48.8447 85.9883ZM63.0039 89.8027V82.4902H64.6387V92H63.083L63.0039 89.8027ZM63.3115 87.7988L63.9883 87.7812C63.9883 88.4141 63.9209 89 63.7861 89.5391C63.6572 90.0723 63.4463 90.5352 63.1533 90.9277C62.8604 91.3203 62.4766 91.6279 62.002 91.8506C61.5273 92.0674 60.9502 92.1758 60.2705 92.1758C59.8076 92.1758 59.3828 92.1084 58.9961 91.9736C58.6152 91.8389 58.2871 91.6309 58.0117 91.3496C57.7363 91.0684 57.5225 90.7021 57.3701 90.251C57.2236 89.7998 57.1504 89.2578 57.1504 88.625V82.4902H58.7764V88.6426C58.7764 89.0703 58.8232 89.4248 58.917 89.7061C59.0166 89.9814 59.1484 90.2012 59.3125 90.3652C59.4824 90.5234 59.6699 90.6348 59.875 90.6992C60.0859 90.7637 60.3027 90.7959 60.5254 90.7959C61.2168 90.7959 61.7646 90.6641 62.1689 90.4004C62.5732 90.1309 62.8633 89.7705 63.0391 89.3193C63.2207 88.8623 63.3115 88.3555 63.3115 87.7988ZM68.7432 84.5205V92H67.1172V82.4902H68.6553L68.7432 84.5205ZM68.3564 86.8848L67.6797 86.8584C67.6855 86.208 67.7822 85.6074 67.9697 85.0566C68.1572 84.5 68.4209 84.0166 68.7607 83.6064C69.1006 83.1963 69.5049 82.8799 69.9736 82.6572C70.4482 82.4287 70.9727 82.3145 71.5469 82.3145C72.0156 82.3145 72.4375 82.3789 72.8125 82.5078C73.1875 82.6309 73.5068 82.8301 73.7705 83.1055C74.04 83.3809 74.2451 83.7383 74.3857 84.1777C74.5264 84.6113 74.5967 85.1416 74.5967 85.7686V92H72.9619V85.751C72.9619 85.2529 72.8887 84.8545 72.7422 84.5557C72.5957 84.251 72.3818 84.0312 72.1006 83.8965C71.8193 83.7559 71.4736 83.6855 71.0635 83.6855C70.6592 83.6855 70.29 83.7705 69.9561 83.9404C69.6279 84.1104 69.3438 84.3447 69.1035 84.6436C68.8691 84.9424 68.6846 85.2852 68.5498 85.6719C68.4209 86.0527 68.3564 86.457 68.3564 86.8848ZM78.833 82.4902V92H77.1982V82.4902H78.833ZM77.0752 79.9678C77.0752 79.7041 77.1543 79.4814 77.3125 79.2998C77.4766 79.1182 77.7168 79.0273 78.0332 79.0273C78.3438 79.0273 78.5811 79.1182 78.7451 79.2998C78.915 79.4814 79 79.7041 79 79.9678C79 80.2197 78.915 80.4365 78.7451 80.6182C78.5811 80.7939 78.3438 80.8818 78.0332 80.8818C77.7168 80.8818 77.4766 80.7939 77.3125 80.6182C77.1543 80.4365 77.0752 80.2197 77.0752 79.9678ZM85.249 90.8398C85.6357 90.8398 85.9932 90.7607 86.3213 90.6025C86.6494 90.4443 86.9189 90.2275 87.1299 89.9521C87.3408 89.6709 87.4609 89.3516 87.4902 88.9941H89.0371C89.0078 89.5566 88.8174 90.0811 88.4658 90.5674C88.1201 91.0479 87.666 91.4375 87.1035 91.7363C86.541 92.0293 85.9229 92.1758 85.249 92.1758C84.5342 92.1758 83.9102 92.0498 83.377 91.7979C82.8496 91.5459 82.4102 91.2002 82.0586 90.7607C81.7129 90.3213 81.4521 89.8174 81.2764 89.249C81.1064 88.6748 81.0215 88.0684 81.0215 87.4297V87.0605C81.0215 86.4219 81.1064 85.8184 81.2764 85.25C81.4521 84.6758 81.7129 84.1689 82.0586 83.7295C82.4102 83.29 82.8496 82.9443 83.377 82.6924C83.9102 82.4404 84.5342 82.3145 85.249 82.3145C85.9932 82.3145 86.6436 82.4668 87.2002 82.7715C87.7568 83.0703 88.1934 83.4805 88.5098 84.002C88.832 84.5176 89.0078 85.1035 89.0371 85.7598H87.4902C87.4609 85.3672 87.3496 85.0127 87.1562 84.6963C86.9688 84.3799 86.7109 84.1279 86.3828 83.9404C86.0605 83.7471 85.6826 83.6504 85.249 83.6504C84.751 83.6504 84.332 83.75 83.9922 83.9492C83.6582 84.1426 83.3916 84.4062 83.1924 84.7402C82.999 85.0684 82.8584 85.4346 82.7705 85.8389C82.6885 86.2373 82.6475 86.6445 82.6475 87.0605V87.4297C82.6475 87.8457 82.6885 88.2559 82.7705 88.6602C82.8525 89.0645 82.9902 89.4307 83.1836 89.7588C83.3828 90.0869 83.6494 90.3506 83.9834 90.5498C84.3232 90.7432 84.7451 90.8398 85.249 90.8398ZM96.4727 90.374V85.4785C96.4727 85.1035 96.3965 84.7783 96.2441 84.5029C96.0977 84.2217 95.875 84.0049 95.5762 83.8525C95.2773 83.7002 94.9082 83.624 94.4688 83.624C94.0586 83.624 93.6982 83.6943 93.3877 83.835C93.083 83.9756 92.8428 84.1602 92.667 84.3887C92.4971 84.6172 92.4121 84.8633 92.4121 85.127H90.7861C90.7861 84.7871 90.874 84.4502 91.0498 84.1162C91.2256 83.7822 91.4775 83.4805 91.8057 83.2109C92.1396 82.9355 92.5381 82.7188 93.001 82.5605C93.4697 82.3965 93.9912 82.3145 94.5654 82.3145C95.2568 82.3145 95.8662 82.4316 96.3936 82.666C96.9268 82.9004 97.3428 83.2549 97.6416 83.7295C97.9463 84.1982 98.0986 84.7871 98.0986 85.4961V89.9258C98.0986 90.2422 98.125 90.5791 98.1777 90.9365C98.2363 91.2939 98.3213 91.6016 98.4326 91.8594V92H96.7363C96.6543 91.8125 96.5898 91.5635 96.543 91.2529C96.4961 90.9365 96.4727 90.6436 96.4727 90.374ZM96.7539 86.2344L96.7715 87.377H95.1279C94.665 87.377 94.252 87.415 93.8887 87.4912C93.5254 87.5615 93.2207 87.6699 92.9746 87.8164C92.7285 87.9629 92.541 88.1475 92.4121 88.3701C92.2832 88.5869 92.2188 88.8418 92.2188 89.1348C92.2188 89.4336 92.2861 89.7061 92.4209 89.9521C92.5557 90.1982 92.7578 90.3945 93.0273 90.541C93.3027 90.6816 93.6396 90.752 94.0381 90.752C94.5361 90.752 94.9756 90.6465 95.3564 90.4355C95.7373 90.2246 96.0391 89.9668 96.2617 89.6621C96.4902 89.3574 96.6133 89.0615 96.6309 88.7744L97.3252 89.5566C97.2842 89.8027 97.1729 90.0752 96.9912 90.374C96.8096 90.6729 96.5664 90.96 96.2617 91.2354C95.9629 91.5049 95.6055 91.7305 95.1895 91.9121C94.7793 92.0879 94.3164 92.1758 93.8008 92.1758C93.1562 92.1758 92.5908 92.0498 92.1045 91.7979C91.624 91.5459 91.249 91.209 90.9795 90.7871C90.7158 90.3594 90.584 89.8818 90.584 89.3545C90.584 88.8447 90.6836 88.3965 90.8828 88.0098C91.082 87.6172 91.3691 87.292 91.7441 87.0342C92.1191 86.7705 92.5703 86.5713 93.0977 86.4365C93.625 86.3018 94.2139 86.2344 94.8643 86.2344H96.7539ZM104.638 82.4902V83.7383H99.4961V82.4902H104.638ZM101.236 80.1787H102.862V89.6445C102.862 89.9668 102.912 90.21 103.012 90.374C103.111 90.5381 103.24 90.6465 103.398 90.6992C103.557 90.752 103.727 90.7783 103.908 90.7783C104.043 90.7783 104.184 90.7666 104.33 90.7432C104.482 90.7139 104.597 90.6904 104.673 90.6729L104.682 92C104.553 92.041 104.383 92.0791 104.172 92.1143C103.967 92.1553 103.718 92.1758 103.425 92.1758C103.026 92.1758 102.66 92.0967 102.326 91.9385C101.992 91.7803 101.726 91.5166 101.526 91.1475C101.333 90.7725 101.236 90.2686 101.236 89.6357V80.1787ZM108.312 82.4902V92H106.677V82.4902H108.312ZM106.554 79.9678C106.554 79.7041 106.633 79.4814 106.791 79.2998C106.955 79.1182 107.195 79.0273 107.512 79.0273C107.822 79.0273 108.06 79.1182 108.224 79.2998C108.394 79.4814 108.479 79.7041 108.479 79.9678C108.479 80.2197 108.394 80.4365 108.224 80.6182C108.06 80.7939 107.822 80.8818 107.512 80.8818C107.195 80.8818 106.955 80.7939 106.791 80.6182C106.633 80.4365 106.554 80.2197 106.554 79.9678ZM110.491 87.3506V87.1484C110.491 86.4629 110.591 85.8271 110.79 85.2412C110.989 84.6494 111.276 84.1367 111.651 83.7031C112.026 83.2637 112.48 82.9238 113.014 82.6836C113.547 82.4375 114.145 82.3145 114.807 82.3145C115.475 82.3145 116.075 82.4375 116.608 82.6836C117.147 82.9238 117.604 83.2637 117.979 83.7031C118.36 84.1367 118.65 84.6494 118.85 85.2412C119.049 85.8271 119.148 86.4629 119.148 87.1484V87.3506C119.148 88.0361 119.049 88.6719 118.85 89.2578C118.65 89.8438 118.36 90.3564 117.979 90.7959C117.604 91.2295 117.15 91.5693 116.617 91.8154C116.09 92.0557 115.492 92.1758 114.824 92.1758C114.156 92.1758 113.556 92.0557 113.022 91.8154C112.489 91.5693 112.032 91.2295 111.651 90.7959C111.276 90.3564 110.989 89.8438 110.79 89.2578C110.591 88.6719 110.491 88.0361 110.491 87.3506ZM112.117 87.1484V87.3506C112.117 87.8252 112.173 88.2734 112.284 88.6953C112.396 89.1113 112.562 89.4805 112.785 89.8027C113.014 90.125 113.298 90.3799 113.638 90.5674C113.978 90.749 114.373 90.8398 114.824 90.8398C115.27 90.8398 115.659 90.749 115.993 90.5674C116.333 90.3799 116.614 90.125 116.837 89.8027C117.06 89.4805 117.227 89.1113 117.338 88.6953C117.455 88.2734 117.514 87.8252 117.514 87.3506V87.1484C117.514 86.6797 117.455 86.2373 117.338 85.8213C117.227 85.3994 117.057 85.0273 116.828 84.7051C116.605 84.377 116.324 84.1191 115.984 83.9316C115.65 83.7441 115.258 83.6504 114.807 83.6504C114.361 83.6504 113.969 83.7441 113.629 83.9316C113.295 84.1191 113.014 84.377 112.785 84.7051C112.562 85.0273 112.396 85.3994 112.284 85.8213C112.173 86.2373 112.117 86.6797 112.117 87.1484ZM122.813 84.5205V92H121.188V82.4902H122.726L122.813 84.5205ZM122.427 86.8848L121.75 86.8584C121.756 86.208 121.853 85.6074 122.04 85.0566C122.228 84.5 122.491 84.0166 122.831 83.6064C123.171 83.1963 123.575 82.8799 124.044 82.6572C124.519 82.4287 125.043 82.3145 125.617 82.3145C126.086 82.3145 126.508 82.3789 126.883 82.5078C127.258 82.6309 127.577 82.8301 127.841 83.1055C128.11 83.3809 128.315 83.7383 128.456 84.1777C128.597 84.6113 128.667 85.1416 128.667 85.7686V92H127.032V85.751C127.032 85.2529 126.959 84.8545 126.812 84.5557C126.666 84.251 126.452 84.0312 126.171 83.8965C125.89 83.7559 125.544 83.6855 125.134 83.6855C124.729 83.6855 124.36 83.7705 124.026 83.9404C123.698 84.1104 123.414 84.3447 123.174 84.6436C122.939 84.9424 122.755 85.2852 122.62 85.6719C122.491 86.0527 122.427 86.457 122.427 86.8848ZM138.01 90.3125L140.453 82.4902H141.525L141.314 84.0459L138.827 92H137.781L138.01 90.3125ZM136.366 82.4902L138.449 90.4004L138.599 92H137.5L134.74 82.4902H136.366ZM143.863 90.3389L145.85 82.4902H147.467L144.707 92H143.617L143.863 90.3389ZM141.763 82.4902L144.153 90.1807L144.426 92H143.389L140.831 84.0283L140.62 82.4902H141.763ZM150.903 82.4902V92H149.269V82.4902H150.903ZM149.146 79.9678C149.146 79.7041 149.225 79.4814 149.383 79.2998C149.547 79.1182 149.787 79.0273 150.104 79.0273C150.414 79.0273 150.651 79.1182 150.815 79.2998C150.985 79.4814 151.07 79.7041 151.07 79.9678C151.07 80.2197 150.985 80.4365 150.815 80.6182C150.651 80.7939 150.414 80.8818 150.104 80.8818C149.787 80.8818 149.547 80.7939 149.383 80.6182C149.225 80.4365 149.146 80.2197 149.146 79.9678ZM157.495 82.4902V83.7383H152.354V82.4902H157.495ZM154.094 80.1787H155.72V89.6445C155.72 89.9668 155.77 90.21 155.869 90.374C155.969 90.5381 156.098 90.6465 156.256 90.6992C156.414 90.752 156.584 90.7783 156.766 90.7783C156.9 90.7783 157.041 90.7666 157.188 90.7432C157.34 90.7139 157.454 90.6904 157.53 90.6729L157.539 92C157.41 92.041 157.24 92.0791 157.029 92.1143C156.824 92.1553 156.575 92.1758 156.282 92.1758C155.884 92.1758 155.518 92.0967 155.184 91.9385C154.85 91.7803 154.583 91.5166 154.384 91.1475C154.19 90.7725 154.094 90.2686 154.094 89.6357V80.1787ZM161.028 78.5V92H159.402V78.5H161.028ZM160.642 86.8848L159.965 86.8584C159.971 86.208 160.067 85.6074 160.255 85.0566C160.442 84.5 160.706 84.0166 161.046 83.6064C161.386 83.1963 161.79 82.8799 162.259 82.6572C162.733 82.4287 163.258 82.3145 163.832 82.3145C164.301 82.3145 164.723 82.3789 165.098 82.5078C165.473 82.6309 165.792 82.8301 166.056 83.1055C166.325 83.3809 166.53 83.7383 166.671 84.1777C166.812 84.6113 166.882 85.1416 166.882 85.7686V92H165.247V85.751C165.247 85.2529 165.174 84.8545 165.027 84.5557C164.881 84.251 164.667 84.0312 164.386 83.8965C164.104 83.7559 163.759 83.6855 163.349 83.6855C162.944 83.6855 162.575 83.7705 162.241 83.9404C161.913 84.1104 161.629 84.3447 161.389 84.6436C161.154 84.9424 160.97 85.2852 160.835 85.6719C160.706 86.0527 160.642 86.457 160.642 86.8848ZM173.351 87.3506V87.1484C173.351 86.4629 173.45 85.8271 173.649 85.2412C173.849 84.6494 174.136 84.1367 174.511 83.7031C174.886 83.2637 175.34 82.9238 175.873 82.6836C176.406 82.4375 177.004 82.3145 177.666 82.3145C178.334 82.3145 178.935 82.4375 179.468 82.6836C180.007 82.9238 180.464 83.2637 180.839 83.7031C181.22 84.1367 181.51 84.6494 181.709 85.2412C181.908 85.8271 182.008 86.4629 182.008 87.1484V87.3506C182.008 88.0361 181.908 88.6719 181.709 89.2578C181.51 89.8438 181.22 90.3564 180.839 90.7959C180.464 91.2295 180.01 91.5693 179.477 91.8154C178.949 92.0557 178.352 92.1758 177.684 92.1758C177.016 92.1758 176.415 92.0557 175.882 91.8154C175.349 91.5693 174.892 91.2295 174.511 90.7959C174.136 90.3564 173.849 89.8438 173.649 89.2578C173.45 88.6719 173.351 88.0361 173.351 87.3506ZM174.977 87.1484V87.3506C174.977 87.8252 175.032 88.2734 175.144 88.6953C175.255 89.1113 175.422 89.4805 175.645 89.8027C175.873 90.125 176.157 90.3799 176.497 90.5674C176.837 90.749 177.232 90.8398 177.684 90.8398C178.129 90.8398 178.519 90.749 178.853 90.5674C179.192 90.3799 179.474 90.125 179.696 89.8027C179.919 89.4805 180.086 89.1113 180.197 88.6953C180.314 88.2734 180.373 87.8252 180.373 87.3506V87.1484C180.373 86.6797 180.314 86.2373 180.197 85.8213C180.086 85.3994 179.916 85.0273 179.688 84.7051C179.465 84.377 179.184 84.1191 178.844 83.9316C178.51 83.7441 178.117 83.6504 177.666 83.6504C177.221 83.6504 176.828 83.7441 176.488 83.9316C176.154 84.1191 175.873 84.377 175.645 84.7051C175.422 85.0273 175.255 85.3994 175.144 85.8213C175.032 86.2373 174.977 86.6797 174.977 87.1484ZM189.865 89.8027V82.4902H191.5V92H189.944L189.865 89.8027ZM190.173 87.7988L190.85 87.7812C190.85 88.4141 190.782 89 190.647 89.5391C190.519 90.0723 190.308 90.5352 190.015 90.9277C189.722 91.3203 189.338 91.6279 188.863 91.8506C188.389 92.0674 187.812 92.1758 187.132 92.1758C186.669 92.1758 186.244 92.1084 185.857 91.9736C185.477 91.8389 185.148 91.6309 184.873 91.3496C184.598 91.0684 184.384 90.7021 184.231 90.251C184.085 89.7998 184.012 89.2578 184.012 88.625V82.4902H185.638V88.6426C185.638 89.0703 185.685 89.4248 185.778 89.7061C185.878 89.9814 186.01 90.2012 186.174 90.3652C186.344 90.5234 186.531 90.6348 186.736 90.6992C186.947 90.7637 187.164 90.7959 187.387 90.7959C188.078 90.7959 188.626 90.6641 189.03 90.4004C189.435 90.1309 189.725 89.7705 189.9 89.3193C190.082 88.8623 190.173 88.3555 190.173 87.7988ZM195.604 83.9844V92H193.979V82.4902H195.561L195.604 83.9844ZM198.575 82.4375L198.566 83.9492C198.432 83.9199 198.303 83.9023 198.18 83.8965C198.062 83.8848 197.928 83.8789 197.775 83.8789C197.4 83.8789 197.069 83.9375 196.782 84.0547C196.495 84.1719 196.252 84.3359 196.053 84.5469C195.854 84.7578 195.695 85.0098 195.578 85.3027C195.467 85.5898 195.394 85.9062 195.358 86.252L194.901 86.5156C194.901 85.9414 194.957 85.4023 195.068 84.8984C195.186 84.3945 195.364 83.9492 195.604 83.5625C195.845 83.1699 196.149 82.8652 196.519 82.6484C196.894 82.4258 197.339 82.3145 197.854 82.3145C197.972 82.3145 198.106 82.3291 198.259 82.3584C198.411 82.3818 198.517 82.4082 198.575 82.4375ZM208.349 90.8398C208.735 90.8398 209.093 90.7607 209.421 90.6025C209.749 90.4443 210.019 90.2275 210.229 89.9521C210.44 89.6709 210.561 89.3516 210.59 88.9941H212.137C212.107 89.5566 211.917 90.0811 211.565 90.5674C211.22 91.0479 210.766 91.4375 210.203 91.7363C209.641 92.0293 209.022 92.1758 208.349 92.1758C207.634 92.1758 207.01 92.0498 206.477 91.7979C205.949 91.5459 205.51 91.2002 205.158 90.7607C204.812 90.3213 204.552 89.8174 204.376 89.249C204.206 88.6748 204.121 88.0684 204.121 87.4297V87.0605C204.121 86.4219 204.206 85.8184 204.376 85.25C204.552 84.6758 204.812 84.1689 205.158 83.7295C205.51 83.29 205.949 82.9443 206.477 82.6924C207.01 82.4404 207.634 82.3145 208.349 82.3145C209.093 82.3145 209.743 82.4668 210.3 82.7715C210.856 83.0703 211.293 83.4805 211.609 84.002C211.932 84.5176 212.107 85.1035 212.137 85.7598H210.59C210.561 85.3672 210.449 85.0127 210.256 84.6963C210.068 84.3799 209.811 84.1279 209.482 83.9404C209.16 83.7471 208.782 83.6504 208.349 83.6504C207.851 83.6504 207.432 83.75 207.092 83.9492C206.758 84.1426 206.491 84.4062 206.292 84.7402C206.099 85.0684 205.958 85.4346 205.87 85.8389C205.788 86.2373 205.747 86.6445 205.747 87.0605V87.4297C205.747 87.8457 205.788 88.2559 205.87 88.6602C205.952 89.0645 206.09 89.4307 206.283 89.7588C206.482 90.0869 206.749 90.3506 207.083 90.5498C207.423 90.7432 207.845 90.8398 208.349 90.8398ZM215.731 78.5V92H214.097V78.5H215.731ZM220.108 82.4902V92H218.474V82.4902H220.108ZM218.351 79.9678C218.351 79.7041 218.43 79.4814 218.588 79.2998C218.752 79.1182 218.992 79.0273 219.309 79.0273C219.619 79.0273 219.856 79.1182 220.021 79.2998C220.19 79.4814 220.275 79.7041 220.275 79.9678C220.275 80.2197 220.19 80.4365 220.021 80.6182C219.856 80.7939 219.619 80.8818 219.309 80.8818C218.992 80.8818 218.752 80.7939 218.588 80.6182C218.43 80.4365 218.351 80.2197 218.351 79.9678ZM226.665 92.1758C226.003 92.1758 225.402 92.0645 224.863 91.8418C224.33 91.6133 223.87 91.2939 223.483 90.8838C223.103 90.4736 222.81 89.9873 222.604 89.4248C222.399 88.8623 222.297 88.2471 222.297 87.5791V87.21C222.297 86.4365 222.411 85.748 222.64 85.1445C222.868 84.5352 223.179 84.0195 223.571 83.5977C223.964 83.1758 224.409 82.8564 224.907 82.6396C225.405 82.4229 225.921 82.3145 226.454 82.3145C227.134 82.3145 227.72 82.4316 228.212 82.666C228.71 82.9004 229.117 83.2285 229.434 83.6504C229.75 84.0664 229.984 84.5586 230.137 85.127C230.289 85.6895 230.365 86.3047 230.365 86.9727V87.7021H223.264V86.375H228.739V86.252C228.716 85.8301 228.628 85.4199 228.476 85.0215C228.329 84.623 228.095 84.2949 227.772 84.0371C227.45 83.7793 227.011 83.6504 226.454 83.6504C226.085 83.6504 225.745 83.7295 225.435 83.8877C225.124 84.04 224.857 84.2686 224.635 84.5732C224.412 84.8779 224.239 85.25 224.116 85.6895C223.993 86.1289 223.932 86.6357 223.932 87.21V87.5791C223.932 88.0303 223.993 88.4551 224.116 88.8535C224.245 89.2461 224.43 89.5918 224.67 89.8906C224.916 90.1895 225.212 90.4238 225.558 90.5938C225.909 90.7637 226.308 90.8486 226.753 90.8486C227.327 90.8486 227.813 90.7314 228.212 90.4971C228.61 90.2627 228.959 89.9492 229.258 89.5566L230.242 90.3389C230.037 90.6494 229.776 90.9453 229.46 91.2266C229.144 91.5078 228.754 91.7363 228.291 91.9121C227.834 92.0879 227.292 92.1758 226.665 92.1758ZM233.89 84.5205V92H232.264V82.4902H233.802L233.89 84.5205ZM233.503 86.8848L232.826 86.8584C232.832 86.208 232.929 85.6074 233.116 85.0566C233.304 84.5 233.567 84.0166 233.907 83.6064C234.247 83.1963 234.651 82.8799 235.12 82.6572C235.595 82.4287 236.119 82.3145 236.693 82.3145C237.162 82.3145 237.584 82.3789 237.959 82.5078C238.334 82.6309 238.653 82.8301 238.917 83.1055C239.187 83.3809 239.392 83.7383 239.532 84.1777C239.673 84.6113 239.743 85.1416 239.743 85.7686V92H238.108V85.751C238.108 85.2529 238.035 84.8545 237.889 84.5557C237.742 84.251 237.528 84.0312 237.247 83.8965C236.966 83.7559 236.62 83.6855 236.21 83.6855C235.806 83.6855 235.437 83.7705 235.103 83.9404C234.774 84.1104 234.49 84.3447 234.25 84.6436C234.016 84.9424 233.831 85.2852 233.696 85.6719C233.567 86.0527 233.503 86.457 233.503 86.8848ZM246.194 82.4902V83.7383H241.053V82.4902H246.194ZM242.793 80.1787H244.419V89.6445C244.419 89.9668 244.469 90.21 244.568 90.374C244.668 90.5381 244.797 90.6465 244.955 90.6992C245.113 90.752 245.283 90.7783 245.465 90.7783C245.6 90.7783 245.74 90.7666 245.887 90.7432C246.039 90.7139 246.153 90.6904 246.229 90.6729L246.238 92C246.109 92.041 245.939 92.0791 245.729 92.1143C245.523 92.1553 245.274 92.1758 244.981 92.1758C244.583 92.1758 244.217 92.0967 243.883 91.9385C243.549 91.7803 243.282 91.5166 243.083 91.1475C242.89 90.7725 242.793 90.2686 242.793 89.6357V80.1787ZM253.639 89.4775C253.639 89.2432 253.586 89.0264 253.48 88.8271C253.381 88.6221 253.173 88.4375 252.856 88.2734C252.546 88.1035 252.077 87.957 251.45 87.834C250.923 87.7227 250.445 87.5908 250.018 87.4385C249.596 87.2861 249.235 87.1016 248.937 86.8848C248.644 86.668 248.418 86.4131 248.26 86.1201C248.102 85.8271 248.022 85.4844 248.022 85.0918C248.022 84.7168 248.104 84.3623 248.269 84.0283C248.438 83.6943 248.676 83.3984 248.98 83.1406C249.291 82.8828 249.663 82.6807 250.097 82.5342C250.53 82.3877 251.014 82.3145 251.547 82.3145C252.309 82.3145 252.959 82.4492 253.498 82.7188C254.037 82.9883 254.45 83.3486 254.737 83.7998C255.024 84.2451 255.168 84.7402 255.168 85.2852H253.542C253.542 85.0215 253.463 84.7666 253.305 84.5205C253.152 84.2686 252.927 84.0605 252.628 83.8965C252.335 83.7324 251.975 83.6504 251.547 83.6504C251.096 83.6504 250.729 83.7207 250.448 83.8613C250.173 83.9961 249.971 84.1689 249.842 84.3799C249.719 84.5908 249.657 84.8135 249.657 85.0479C249.657 85.2236 249.687 85.3818 249.745 85.5225C249.81 85.6572 249.921 85.7832 250.079 85.9004C250.237 86.0117 250.46 86.1172 250.747 86.2168C251.034 86.3164 251.4 86.416 251.846 86.5156C252.625 86.6914 253.267 86.9023 253.771 87.1484C254.274 87.3945 254.649 87.6963 254.896 88.0537C255.142 88.4111 255.265 88.8447 255.265 89.3545C255.265 89.7705 255.177 90.1514 255.001 90.4971C254.831 90.8428 254.582 91.1416 254.254 91.3936C253.932 91.6396 253.545 91.833 253.094 91.9736C252.648 92.1084 252.147 92.1758 251.591 92.1758C250.753 92.1758 250.044 92.0264 249.464 91.7275C248.884 91.4287 248.444 91.042 248.146 90.5674C247.847 90.0928 247.697 89.5918 247.697 89.0645H249.332C249.355 89.5098 249.484 89.8643 249.719 90.1279C249.953 90.3857 250.24 90.5703 250.58 90.6816C250.92 90.7871 251.257 90.8398 251.591 90.8398C252.036 90.8398 252.408 90.7812 252.707 90.6641C253.012 90.5469 253.243 90.3857 253.401 90.1807C253.56 89.9756 253.639 89.7412 253.639 89.4775ZM258.877 90.0664V91.376C258.877 91.9092 258.742 92.4717 258.473 93.0635C258.203 93.6611 257.825 94.1592 257.339 94.5576L256.416 93.916C256.604 93.6582 256.762 93.3945 256.891 93.125C257.02 92.8613 257.116 92.5859 257.181 92.2988C257.251 92.0176 257.286 91.7188 257.286 91.4023V90.0664H258.877ZM267.042 84.3184V95.6562H265.407V82.4902H266.901L267.042 84.3184ZM273.449 87.166V87.3506C273.449 88.042 273.367 88.6836 273.203 89.2754C273.039 89.8613 272.799 90.3711 272.482 90.8047C272.172 91.2383 271.788 91.5752 271.331 91.8154C270.874 92.0557 270.35 92.1758 269.758 92.1758C269.154 92.1758 268.621 92.0762 268.158 91.877C267.695 91.6777 267.303 91.3877 266.98 91.0068C266.658 90.626 266.4 90.1689 266.207 89.6357C266.02 89.1025 265.891 88.502 265.82 87.834V86.8496C265.891 86.1465 266.022 85.5166 266.216 84.96C266.409 84.4033 266.664 83.9287 266.98 83.5361C267.303 83.1377 267.692 82.8359 268.149 82.6309C268.606 82.4199 269.134 82.3145 269.731 82.3145C270.329 82.3145 270.859 82.4316 271.322 82.666C271.785 82.8945 272.175 83.2227 272.491 83.6504C272.808 84.0781 273.045 84.5908 273.203 85.1885C273.367 85.7803 273.449 86.4395 273.449 87.166ZM271.814 87.3506V87.166C271.814 86.6914 271.765 86.2461 271.665 85.8301C271.565 85.4082 271.41 85.0391 271.199 84.7227C270.994 84.4004 270.73 84.1484 270.408 83.9668C270.086 83.7793 269.702 83.6855 269.257 83.6855C268.847 83.6855 268.489 83.7559 268.185 83.8965C267.886 84.0371 267.631 84.2275 267.42 84.4678C267.209 84.7021 267.036 84.9717 266.901 85.2764C266.772 85.5752 266.676 85.8857 266.611 86.208V88.4844C266.729 88.8945 266.893 89.2812 267.104 89.6445C267.314 90.002 267.596 90.292 267.947 90.5146C268.299 90.7314 268.741 90.8398 269.274 90.8398C269.714 90.8398 270.092 90.749 270.408 90.5674C270.73 90.3799 270.994 90.125 271.199 89.8027C271.41 89.4805 271.565 89.1113 271.665 88.6953C271.765 88.2734 271.814 87.8252 271.814 87.3506ZM281.131 90.374V85.4785C281.131 85.1035 281.055 84.7783 280.902 84.5029C280.756 84.2217 280.533 84.0049 280.234 83.8525C279.936 83.7002 279.566 83.624 279.127 83.624C278.717 83.624 278.356 83.6943 278.046 83.835C277.741 83.9756 277.501 84.1602 277.325 84.3887C277.155 84.6172 277.07 84.8633 277.07 85.127H275.444C275.444 84.7871 275.532 84.4502 275.708 84.1162C275.884 83.7822 276.136 83.4805 276.464 83.2109C276.798 82.9355 277.196 82.7188 277.659 82.5605C278.128 82.3965 278.649 82.3145 279.224 82.3145C279.915 82.3145 280.524 82.4316 281.052 82.666C281.585 82.9004 282.001 83.2549 282.3 83.7295C282.604 84.1982 282.757 84.7871 282.757 85.4961V89.9258C282.757 90.2422 282.783 90.5791 282.836 90.9365C282.895 91.2939 282.979 91.6016 283.091 91.8594V92H281.395C281.312 91.8125 281.248 91.5635 281.201 91.2529C281.154 90.9365 281.131 90.6436 281.131 90.374ZM281.412 86.2344L281.43 87.377H279.786C279.323 87.377 278.91 87.415 278.547 87.4912C278.184 87.5615 277.879 87.6699 277.633 87.8164C277.387 87.9629 277.199 88.1475 277.07 88.3701C276.941 88.5869 276.877 88.8418 276.877 89.1348C276.877 89.4336 276.944 89.7061 277.079 89.9521C277.214 90.1982 277.416 90.3945 277.686 90.541C277.961 90.6816 278.298 90.752 278.696 90.752C279.194 90.752 279.634 90.6465 280.015 90.4355C280.396 90.2246 280.697 89.9668 280.92 89.6621C281.148 89.3574 281.271 89.0615 281.289 88.7744L281.983 89.5566C281.942 89.8027 281.831 90.0752 281.649 90.374C281.468 90.6729 281.225 90.96 280.92 91.2354C280.621 91.5049 280.264 91.7305 279.848 91.9121C279.438 92.0879 278.975 92.1758 278.459 92.1758C277.814 92.1758 277.249 92.0498 276.763 91.7979C276.282 91.5459 275.907 91.209 275.638 90.7871C275.374 90.3594 275.242 89.8818 275.242 89.3545C275.242 88.8447 275.342 88.3965 275.541 88.0098C275.74 87.6172 276.027 87.292 276.402 87.0342C276.777 86.7705 277.229 86.5713 277.756 86.4365C278.283 86.3018 278.872 86.2344 279.522 86.2344H281.412ZM286.94 83.9844V92H285.314V82.4902H286.896L286.94 83.9844ZM289.911 82.4375L289.902 83.9492C289.768 83.9199 289.639 83.9023 289.516 83.8965C289.398 83.8848 289.264 83.8789 289.111 83.8789C288.736 83.8789 288.405 83.9375 288.118 84.0547C287.831 84.1719 287.588 84.3359 287.389 84.5469C287.189 84.7578 287.031 85.0098 286.914 85.3027C286.803 85.5898 286.729 85.9062 286.694 86.252L286.237 86.5156C286.237 85.9414 286.293 85.4023 286.404 84.8984C286.521 84.3945 286.7 83.9492 286.94 83.5625C287.181 83.1699 287.485 82.8652 287.854 82.6484C288.229 82.4258 288.675 82.3145 289.19 82.3145C289.308 82.3145 289.442 82.3291 289.595 82.3584C289.747 82.3818 289.853 82.4082 289.911 82.4375ZM295.835 82.4902V83.7383H290.693V82.4902H295.835ZM292.434 80.1787H294.06V89.6445C294.06 89.9668 294.109 90.21 294.209 90.374C294.309 90.5381 294.438 90.6465 294.596 90.6992C294.754 90.752 294.924 90.7783 295.105 90.7783C295.24 90.7783 295.381 90.7666 295.527 90.7432C295.68 90.7139 295.794 90.6904 295.87 90.6729L295.879 92C295.75 92.041 295.58 92.0791 295.369 92.1143C295.164 92.1553 294.915 92.1758 294.622 92.1758C294.224 92.1758 293.857 92.0967 293.523 91.9385C293.189 91.7803 292.923 91.5166 292.724 91.1475C292.53 90.7725 292.434 90.2686 292.434 89.6357V80.1787ZM299.368 84.5205V92H297.742V82.4902H299.28L299.368 84.5205ZM298.981 86.8848L298.305 86.8584C298.311 86.208 298.407 85.6074 298.595 85.0566C298.782 84.5 299.046 84.0166 299.386 83.6064C299.726 83.1963 300.13 82.8799 300.599 82.6572C301.073 82.4287 301.598 82.3145 302.172 82.3145C302.641 82.3145 303.062 82.3789 303.438 82.5078C303.812 82.6309 304.132 82.8301 304.396 83.1055C304.665 83.3809 304.87 83.7383 305.011 84.1777C305.151 84.6113 305.222 85.1416 305.222 85.7686V92H303.587V85.751C303.587 85.2529 303.514 84.8545 303.367 84.5557C303.221 84.251 303.007 84.0312 302.726 83.8965C302.444 83.7559 302.099 83.6855 301.688 83.6855C301.284 83.6855 300.915 83.7705 300.581 83.9404C300.253 84.1104 299.969 84.3447 299.729 84.6436C299.494 84.9424 299.31 85.2852 299.175 85.6719C299.046 86.0527 298.981 86.457 298.981 86.8848ZM311.638 92.1758C310.976 92.1758 310.375 92.0645 309.836 91.8418C309.303 91.6133 308.843 91.2939 308.456 90.8838C308.075 90.4736 307.782 89.9873 307.577 89.4248C307.372 88.8623 307.27 88.2471 307.27 87.5791V87.21C307.27 86.4365 307.384 85.748 307.612 85.1445C307.841 84.5352 308.151 84.0195 308.544 83.5977C308.937 83.1758 309.382 82.8564 309.88 82.6396C310.378 82.4229 310.894 82.3145 311.427 82.3145C312.106 82.3145 312.692 82.4316 313.185 82.666C313.683 82.9004 314.09 83.2285 314.406 83.6504C314.723 84.0664 314.957 84.5586 315.109 85.127C315.262 85.6895 315.338 86.3047 315.338 86.9727V87.7021H308.236V86.375H313.712V86.252C313.688 85.8301 313.601 85.4199 313.448 85.0215C313.302 84.623 313.067 84.2949 312.745 84.0371C312.423 83.7793 311.983 83.6504 311.427 83.6504C311.058 83.6504 310.718 83.7295 310.407 83.8877C310.097 84.04 309.83 84.2686 309.607 84.5732C309.385 84.8779 309.212 85.25 309.089 85.6895C308.966 86.1289 308.904 86.6357 308.904 87.21V87.5791C308.904 88.0303 308.966 88.4551 309.089 88.8535C309.218 89.2461 309.402 89.5918 309.643 89.8906C309.889 90.1895 310.185 90.4238 310.53 90.5938C310.882 90.7637 311.28 90.8486 311.726 90.8486C312.3 90.8486 312.786 90.7314 313.185 90.4971C313.583 90.2627 313.932 89.9492 314.23 89.5566L315.215 90.3389C315.01 90.6494 314.749 90.9453 314.433 91.2266C314.116 91.5078 313.727 91.7363 313.264 91.9121C312.807 92.0879 312.265 92.1758 311.638 92.1758ZM318.862 83.9844V92H317.236V82.4902H318.818L318.862 83.9844ZM321.833 82.4375L321.824 83.9492C321.689 83.9199 321.561 83.9023 321.438 83.8965C321.32 83.8848 321.186 83.8789 321.033 83.8789C320.658 83.8789 320.327 83.9375 320.04 84.0547C319.753 84.1719 319.51 84.3359 319.311 84.5469C319.111 84.7578 318.953 85.0098 318.836 85.3027C318.725 85.5898 318.651 85.9062 318.616 86.252L318.159 86.5156C318.159 85.9414 318.215 85.4023 318.326 84.8984C318.443 84.3945 318.622 83.9492 318.862 83.5625C319.103 83.1699 319.407 82.8652 319.776 82.6484C320.151 82.4258 320.597 82.3145 321.112 82.3145C321.229 82.3145 321.364 82.3291 321.517 82.3584C321.669 82.3818 321.774 82.4082 321.833 82.4375ZM328.873 89.4775C328.873 89.2432 328.82 89.0264 328.715 88.8271C328.615 88.6221 328.407 88.4375 328.091 88.2734C327.78 88.1035 327.312 87.957 326.685 87.834C326.157 87.7227 325.68 87.5908 325.252 87.4385C324.83 87.2861 324.47 87.1016 324.171 86.8848C323.878 86.668 323.652 86.4131 323.494 86.1201C323.336 85.8271 323.257 85.4844 323.257 85.0918C323.257 84.7168 323.339 84.3623 323.503 84.0283C323.673 83.6943 323.91 83.3984 324.215 83.1406C324.525 82.8828 324.897 82.6807 325.331 82.5342C325.765 82.3877 326.248 82.3145 326.781 82.3145C327.543 82.3145 328.193 82.4492 328.732 82.7188C329.271 82.9883 329.685 83.3486 329.972 83.7998C330.259 84.2451 330.402 84.7402 330.402 85.2852H328.776C328.776 85.0215 328.697 84.7666 328.539 84.5205C328.387 84.2686 328.161 84.0605 327.862 83.8965C327.569 83.7324 327.209 83.6504 326.781 83.6504C326.33 83.6504 325.964 83.7207 325.683 83.8613C325.407 83.9961 325.205 84.1689 325.076 84.3799C324.953 84.5908 324.892 84.8135 324.892 85.0479C324.892 85.2236 324.921 85.3818 324.979 85.5225C325.044 85.6572 325.155 85.7832 325.313 85.9004C325.472 86.0117 325.694 86.1172 325.981 86.2168C326.269 86.3164 326.635 86.416 327.08 86.5156C327.859 86.6914 328.501 86.9023 329.005 87.1484C329.509 87.3945 329.884 87.6963 330.13 88.0537C330.376 88.4111 330.499 88.8447 330.499 89.3545C330.499 89.7705 330.411 90.1514 330.235 90.4971C330.065 90.8428 329.816 91.1416 329.488 91.3936C329.166 91.6396 328.779 91.833 328.328 91.9736C327.883 92.1084 327.382 92.1758 326.825 92.1758C325.987 92.1758 325.278 92.0264 324.698 91.7275C324.118 91.4287 323.679 91.042 323.38 90.5674C323.081 90.0928 322.932 89.5918 322.932 89.0645H324.566C324.59 89.5098 324.719 89.8643 324.953 90.1279C325.188 90.3857 325.475 90.5703 325.814 90.6816C326.154 90.7871 326.491 90.8398 326.825 90.8398C327.271 90.8398 327.643 90.7812 327.941 90.6641C328.246 90.5469 328.478 90.3857 328.636 90.1807C328.794 89.9756 328.873 89.7412 328.873 89.4775ZM334.111 90.0664V91.376C334.111 91.9092 333.977 92.4717 333.707 93.0635C333.438 93.6611 333.06 94.1592 332.573 94.5576L331.65 93.916C331.838 93.6582 331.996 93.3945 332.125 93.125C332.254 92.8613 332.351 92.5859 332.415 92.2988C332.485 92.0176 332.521 91.7188 332.521 91.4023V90.0664H334.111ZM346.258 90.374V85.4785C346.258 85.1035 346.182 84.7783 346.029 84.5029C345.883 84.2217 345.66 84.0049 345.361 83.8525C345.062 83.7002 344.693 83.624 344.254 83.624C343.844 83.624 343.483 83.6943 343.173 83.835C342.868 83.9756 342.628 84.1602 342.452 84.3887C342.282 84.6172 342.197 84.8633 342.197 85.127H340.571C340.571 84.7871 340.659 84.4502 340.835 84.1162C341.011 83.7822 341.263 83.4805 341.591 83.2109C341.925 82.9355 342.323 82.7188 342.786 82.5605C343.255 82.3965 343.776 82.3145 344.351 82.3145C345.042 82.3145 345.651 82.4316 346.179 82.666C346.712 82.9004 347.128 83.2549 347.427 83.7295C347.731 84.1982 347.884 84.7871 347.884 85.4961V89.9258C347.884 90.2422 347.91 90.5791 347.963 90.9365C348.021 91.2939 348.106 91.6016 348.218 91.8594V92H346.521C346.439 91.8125 346.375 91.5635 346.328 91.2529C346.281 90.9365 346.258 90.6436 346.258 90.374ZM346.539 86.2344L346.557 87.377H344.913C344.45 87.377 344.037 87.415 343.674 87.4912C343.311 87.5615 343.006 87.6699 342.76 87.8164C342.514 87.9629 342.326 88.1475 342.197 88.3701C342.068 88.5869 342.004 88.8418 342.004 89.1348C342.004 89.4336 342.071 89.7061 342.206 89.9521C342.341 90.1982 342.543 90.3945 342.812 90.541C343.088 90.6816 343.425 90.752 343.823 90.752C344.321 90.752 344.761 90.6465 345.142 90.4355C345.522 90.2246 345.824 89.9668 346.047 89.6621C346.275 89.3574 346.398 89.0615 346.416 88.7744L347.11 89.5566C347.069 89.8027 346.958 90.0752 346.776 90.374C346.595 90.6729 346.352 90.96 346.047 91.2354C345.748 91.5049 345.391 91.7305 344.975 91.9121C344.564 92.0879 344.102 92.1758 343.586 92.1758C342.941 92.1758 342.376 92.0498 341.89 91.7979C341.409 91.5459 341.034 91.209 340.765 90.7871C340.501 90.3594 340.369 89.8818 340.369 89.3545C340.369 88.8447 340.469 88.3965 340.668 88.0098C340.867 87.6172 341.154 87.292 341.529 87.0342C341.904 86.7705 342.355 86.5713 342.883 86.4365C343.41 86.3018 343.999 86.2344 344.649 86.2344H346.539ZM352.067 84.5205V92H350.441V82.4902H351.979L352.067 84.5205ZM351.681 86.8848L351.004 86.8584C351.01 86.208 351.106 85.6074 351.294 85.0566C351.481 84.5 351.745 84.0166 352.085 83.6064C352.425 83.1963 352.829 82.8799 353.298 82.6572C353.772 82.4287 354.297 82.3145 354.871 82.3145C355.34 82.3145 355.762 82.3789 356.137 82.5078C356.512 82.6309 356.831 82.8301 357.095 83.1055C357.364 83.3809 357.569 83.7383 357.71 84.1777C357.851 84.6113 357.921 85.1416 357.921 85.7686V92H356.286V85.751C356.286 85.2529 356.213 84.8545 356.066 84.5557C355.92 84.251 355.706 84.0312 355.425 83.8965C355.144 83.7559 354.798 83.6855 354.388 83.6855C353.983 83.6855 353.614 83.7705 353.28 83.9404C352.952 84.1104 352.668 84.3447 352.428 84.6436C352.193 84.9424 352.009 85.2852 351.874 85.6719C351.745 86.0527 351.681 86.457 351.681 86.8848ZM366.385 90.1543V78.5H368.02V92H366.525L366.385 90.1543ZM359.986 87.3506V87.166C359.986 86.4395 360.074 85.7803 360.25 85.1885C360.432 84.5908 360.687 84.0781 361.015 83.6504C361.349 83.2227 361.744 82.8945 362.201 82.666C362.664 82.4316 363.18 82.3145 363.748 82.3145C364.346 82.3145 364.867 82.4199 365.312 82.6309C365.764 82.8359 366.145 83.1377 366.455 83.5361C366.771 83.9287 367.021 84.4033 367.202 84.96C367.384 85.5166 367.51 86.1465 367.58 86.8496V87.6582C367.516 88.3555 367.39 88.9824 367.202 89.5391C367.021 90.0957 366.771 90.5703 366.455 90.9629C366.145 91.3555 365.764 91.6572 365.312 91.8682C364.861 92.0732 364.334 92.1758 363.73 92.1758C363.174 92.1758 362.664 92.0557 362.201 91.8154C361.744 91.5752 361.349 91.2383 361.015 90.8047C360.687 90.3711 360.432 89.8613 360.25 89.2754C360.074 88.6836 359.986 88.042 359.986 87.3506ZM361.621 87.166V87.3506C361.621 87.8252 361.668 88.2705 361.762 88.6865C361.861 89.1025 362.014 89.4688 362.219 89.7852C362.424 90.1016 362.685 90.3506 363.001 90.5322C363.317 90.708 363.695 90.7959 364.135 90.7959C364.674 90.7959 365.116 90.6816 365.462 90.4531C365.813 90.2246 366.095 89.9229 366.306 89.5479C366.517 89.1729 366.681 88.7656 366.798 88.3262V86.208C366.728 85.8857 366.625 85.5752 366.49 85.2764C366.361 84.9717 366.191 84.7021 365.98 84.4678C365.775 84.2275 365.521 84.0371 365.216 83.8965C364.917 83.7559 364.562 83.6855 364.152 83.6855C363.707 83.6855 363.323 83.7793 363.001 83.9668C362.685 84.1484 362.424 84.4004 362.219 84.7227C362.014 85.0391 361.861 85.4082 361.762 85.8301C361.668 86.2461 361.621 86.6914 361.621 87.166ZM169.343 103.49V104.738H164.201V103.49H169.343ZM165.941 101.179H167.567V110.645C167.567 110.967 167.617 111.21 167.717 111.374C167.816 111.538 167.945 111.646 168.104 111.699C168.262 111.752 168.432 111.778 168.613 111.778C168.748 111.778 168.889 111.767 169.035 111.743C169.188 111.714 169.302 111.69 169.378 111.673L169.387 113C169.258 113.041 169.088 113.079 168.877 113.114C168.672 113.155 168.423 113.176 168.13 113.176C167.731 113.176 167.365 113.097 167.031 112.938C166.697 112.78 166.431 112.517 166.231 112.147C166.038 111.772 165.941 111.269 165.941 110.636V101.179ZM175.196 113.176C174.534 113.176 173.934 113.064 173.395 112.842C172.861 112.613 172.401 112.294 172.015 111.884C171.634 111.474 171.341 110.987 171.136 110.425C170.931 109.862 170.828 109.247 170.828 108.579V108.21C170.828 107.437 170.942 106.748 171.171 106.145C171.399 105.535 171.71 105.02 172.103 104.598C172.495 104.176 172.94 103.856 173.438 103.64C173.937 103.423 174.452 103.314 174.985 103.314C175.665 103.314 176.251 103.432 176.743 103.666C177.241 103.9 177.648 104.229 177.965 104.65C178.281 105.066 178.516 105.559 178.668 106.127C178.82 106.689 178.896 107.305 178.896 107.973V108.702H171.795V107.375H177.271V107.252C177.247 106.83 177.159 106.42 177.007 106.021C176.86 105.623 176.626 105.295 176.304 105.037C175.981 104.779 175.542 104.65 174.985 104.65C174.616 104.65 174.276 104.729 173.966 104.888C173.655 105.04 173.389 105.269 173.166 105.573C172.943 105.878 172.771 106.25 172.647 106.689C172.524 107.129 172.463 107.636 172.463 108.21V108.579C172.463 109.03 172.524 109.455 172.647 109.854C172.776 110.246 172.961 110.592 173.201 110.891C173.447 111.189 173.743 111.424 174.089 111.594C174.44 111.764 174.839 111.849 175.284 111.849C175.858 111.849 176.345 111.731 176.743 111.497C177.142 111.263 177.49 110.949 177.789 110.557L178.773 111.339C178.568 111.649 178.308 111.945 177.991 112.227C177.675 112.508 177.285 112.736 176.822 112.912C176.365 113.088 175.823 113.176 175.196 113.176ZM186.402 111.374V106.479C186.402 106.104 186.326 105.778 186.174 105.503C186.027 105.222 185.805 105.005 185.506 104.853C185.207 104.7 184.838 104.624 184.398 104.624C183.988 104.624 183.628 104.694 183.317 104.835C183.013 104.976 182.772 105.16 182.597 105.389C182.427 105.617 182.342 105.863 182.342 106.127H180.716C180.716 105.787 180.804 105.45 180.979 105.116C181.155 104.782 181.407 104.48 181.735 104.211C182.069 103.936 182.468 103.719 182.931 103.561C183.399 103.396 183.921 103.314 184.495 103.314C185.187 103.314 185.796 103.432 186.323 103.666C186.856 103.9 187.272 104.255 187.571 104.729C187.876 105.198 188.028 105.787 188.028 106.496V110.926C188.028 111.242 188.055 111.579 188.107 111.937C188.166 112.294 188.251 112.602 188.362 112.859V113H186.666C186.584 112.812 186.52 112.563 186.473 112.253C186.426 111.937 186.402 111.644 186.402 111.374ZM186.684 107.234L186.701 108.377H185.058C184.595 108.377 184.182 108.415 183.818 108.491C183.455 108.562 183.15 108.67 182.904 108.816C182.658 108.963 182.471 109.147 182.342 109.37C182.213 109.587 182.148 109.842 182.148 110.135C182.148 110.434 182.216 110.706 182.351 110.952C182.485 111.198 182.688 111.395 182.957 111.541C183.232 111.682 183.569 111.752 183.968 111.752C184.466 111.752 184.905 111.646 185.286 111.436C185.667 111.225 185.969 110.967 186.191 110.662C186.42 110.357 186.543 110.062 186.561 109.774L187.255 110.557C187.214 110.803 187.103 111.075 186.921 111.374C186.739 111.673 186.496 111.96 186.191 112.235C185.893 112.505 185.535 112.73 185.119 112.912C184.709 113.088 184.246 113.176 183.73 113.176C183.086 113.176 182.521 113.05 182.034 112.798C181.554 112.546 181.179 112.209 180.909 111.787C180.646 111.359 180.514 110.882 180.514 110.354C180.514 109.845 180.613 109.396 180.812 109.01C181.012 108.617 181.299 108.292 181.674 108.034C182.049 107.771 182.5 107.571 183.027 107.437C183.555 107.302 184.144 107.234 184.794 107.234H186.684ZM192.203 105.38V113H190.568V103.49H192.115L192.203 105.38ZM191.869 107.885L191.113 107.858C191.119 107.208 191.204 106.607 191.368 106.057C191.532 105.5 191.775 105.017 192.098 104.606C192.42 104.196 192.821 103.88 193.302 103.657C193.782 103.429 194.339 103.314 194.972 103.314C195.417 103.314 195.827 103.379 196.202 103.508C196.577 103.631 196.902 103.827 197.178 104.097C197.453 104.366 197.667 104.712 197.819 105.134C197.972 105.556 198.048 106.065 198.048 106.663V113H196.422V106.742C196.422 106.244 196.337 105.846 196.167 105.547C196.003 105.248 195.769 105.031 195.464 104.896C195.159 104.756 194.802 104.686 194.392 104.686C193.911 104.686 193.51 104.771 193.188 104.94C192.865 105.11 192.607 105.345 192.414 105.644C192.221 105.942 192.08 106.285 191.992 106.672C191.91 107.053 191.869 107.457 191.869 107.885ZM198.03 106.988L196.94 107.322C196.946 106.801 197.031 106.3 197.195 105.819C197.365 105.339 197.608 104.911 197.925 104.536C198.247 104.161 198.643 103.865 199.111 103.648C199.58 103.426 200.116 103.314 200.72 103.314C201.229 103.314 201.681 103.382 202.073 103.517C202.472 103.651 202.806 103.859 203.075 104.141C203.351 104.416 203.559 104.771 203.699 105.204C203.84 105.638 203.91 106.153 203.91 106.751V113H202.275V106.733C202.275 106.2 202.19 105.787 202.021 105.494C201.856 105.195 201.622 104.987 201.317 104.87C201.019 104.747 200.661 104.686 200.245 104.686C199.888 104.686 199.571 104.747 199.296 104.87C199.021 104.993 198.789 105.163 198.602 105.38C198.414 105.591 198.271 105.834 198.171 106.109C198.077 106.385 198.03 106.678 198.03 106.988ZM206.397 112.139C206.397 111.863 206.482 111.632 206.652 111.444C206.828 111.251 207.08 111.154 207.408 111.154C207.736 111.154 207.985 111.251 208.155 111.444C208.331 111.632 208.419 111.863 208.419 112.139C208.419 112.408 208.331 112.637 208.155 112.824C207.985 113.012 207.736 113.105 207.408 113.105C207.08 113.105 206.828 113.012 206.652 112.824C206.482 112.637 206.397 112.408 206.397 112.139Z" fill="white"/>
</svg>
