<svg width="81" height="92" viewBox="0 0 81 92" fill="none" xmlns="http://www.w3.org/2000/svg">
<g clip-path="url(#clip0_333_746)">
<mask id="mask0_333_746" style="mask-type:luminance" maskUnits="userSpaceOnUse" x="15" y="16" width="51" height="76">
<path d="M65.7084 16.8201H15.4053V91.5H65.7084V16.8201Z" fill="white"/>
</mask>
<g mask="url(#mask0_333_746)">
<path d="M65.385 39.8455C64.8231 34.0107 62.2181 28.5616 58.0295 24.4596C53.8409 20.3576 48.3378 17.8662 42.491 17.4248C41.3228 17.341 40.15 17.341 38.9818 17.4248C33.1354 17.8674 27.6331 20.3592 23.4447 24.461C19.2564 28.5627 16.651 34.0111 16.0879 39.8455C15.735 43.6208 16.2564 47.4265 17.6116 50.9678C18.9668 54.5092 21.1195 57.691 23.9029 60.2666C25.4032 61.6508 26.6026 63.3286 27.4268 65.1959C28.251 67.0631 28.6822 69.0799 28.6936 71.1208V80.7417C28.694 82.2234 29.236 83.6539 30.2175 84.7642C31.199 85.8744 32.5525 86.5879 34.0234 86.7704C34.5404 88.141 35.4573 89.3247 36.6554 90.1681C37.8535 91.0114 39.2774 91.4754 40.7424 91.5C42.2067 91.4751 43.6296 91.0108 44.8266 90.1675C46.0237 89.3241 46.9396 88.1406 47.4555 86.7704C48.9258 86.5867 50.2786 85.8728 51.2599 84.7629C52.2412 83.6529 52.7836 82.223 52.7853 80.7417V71.1208C52.7978 69.08 53.2295 67.0636 54.0536 65.1965C54.8777 63.3294 56.0766 61.6515 57.576 60.2666C60.3616 57.6929 62.5154 54.5112 63.8699 50.9692C65.2243 47.4273 65.7428 43.6206 65.385 39.8455ZM48.737 72.6354V74.1621H32.7299V72.6534L48.737 72.6354ZM36.0654 47.2752H34.0833C33.5586 47.2736 33.0559 47.0642 32.6855 46.6927C32.3151 46.3212 32.107 45.8181 32.107 45.2935C32.107 44.769 32.3151 44.2659 32.6855 43.8944C33.0559 43.523 33.5586 43.3135 34.0833 43.3119C34.609 43.3119 35.1131 43.5207 35.4848 43.8923C35.8566 44.2639 36.0654 44.768 36.0654 45.2935V47.2752ZM39.0956 50.3105H42.3713V69.6061H39.0956V50.3105ZM32.7299 78.7181V77.1915H48.737V78.7181H32.7299ZM40.7365 87.4529C40.1936 87.4283 39.6652 87.2701 39.1983 86.9923C38.7313 86.7145 38.3401 86.3257 38.0596 85.8604H43.4073C43.1285 86.3259 42.7387 86.7151 42.2725 86.993C41.8064 87.2709 41.2786 87.4289 40.7365 87.4529ZM46.7249 82.7712H45.8207C45.6671 82.7727 45.5143 82.7928 45.3655 82.8311H36.1493C35.9985 82.7927 35.8437 82.7727 35.6881 82.7712H34.778C34.4228 82.7698 34.0742 82.6751 33.7673 82.4964C33.4603 82.3178 33.2058 82.0615 33.0293 81.7534H48.4736C48.297 82.0641 48.0408 82.3222 47.7313 82.5011C47.4219 82.6799 47.0704 82.7732 46.7129 82.7712H46.7249ZM54.8273 57.3032C51.3681 60.5154 49.2326 64.9026 48.8389 69.6061H45.4194V50.3105H47.4076C48.737 50.3074 50.011 49.7776 50.9505 48.8372C51.89 47.8969 52.4184 46.6226 52.42 45.2935C52.4184 43.965 51.8898 42.6914 50.9501 41.752C50.0105 40.8126 48.7365 40.2841 47.4076 40.2826C46.0777 40.2826 44.8022 40.8103 43.8612 41.7499C42.9203 42.6895 42.3909 43.964 42.3893 45.2935V47.2752H39.1196V45.2935C39.118 43.964 38.5886 42.6895 37.6476 41.7499C36.7067 40.8103 35.4312 40.2826 34.1013 40.2826C32.7724 40.2841 31.4983 40.8126 30.5587 41.752C29.619 42.6914 29.0905 43.965 29.0889 45.2935C29.0905 46.6226 29.6188 47.8969 30.5583 48.8372C31.4978 49.7776 32.7718 50.3074 34.1013 50.3105H36.0894V69.6061H32.646C32.2523 64.9026 30.1168 60.5154 26.6575 57.3032C24.3257 55.1478 22.5225 52.4838 21.3883 49.5182C20.2541 46.5527 19.8195 43.3656 20.1181 40.2047C20.5889 35.323 22.7702 30.7647 26.2766 27.3348C29.7831 23.9049 34.3891 21.8241 39.2812 21.4599C39.7783 21.424 40.2694 21.412 40.7544 21.412C41.2395 21.412 41.7365 21.412 42.2276 21.4599C47.1193 21.8253 51.7247 23.9065 55.2309 27.3361C58.7371 30.7658 60.9187 35.3235 61.3907 40.2047C61.6834 43.3694 61.2412 46.5589 60.0986 49.5247C58.956 52.4905 57.1439 55.1524 54.8034 57.3032H54.8273ZM45.4134 47.2752V45.2935C45.415 44.7674 45.6252 44.2634 45.9979 43.892C46.3705 43.5205 46.8754 43.3119 47.4016 43.3119C47.9263 43.3135 48.429 43.523 48.7994 43.8944C49.1698 44.2659 49.3778 44.769 49.3778 45.2935C49.3778 45.8181 49.1698 46.3212 48.7994 46.6927C48.429 47.0642 47.9263 47.2736 47.4016 47.2752H45.4134Z" fill="#EDF900"/>
</g>
<mask id="mask1_333_746" style="mask-type:luminance" maskUnits="userSpaceOnUse" x="38" y="0" width="5" height="12">
<path d="M42.5512 0.5H38.5569V11.2284H42.5512V0.5Z" fill="white"/>
</mask>
<g mask="url(#mask1_333_746)">
<path d="M40.7368 10.7315C41.1619 10.7299 41.5692 10.5604 41.8699 10.2598C42.1705 9.95929 42.3401 9.55209 42.3416 9.12704V2.10445C42.3401 1.67941 42.1705 1.27225 41.8699 0.97169C41.5692 0.671134 41.1619 0.501562 40.7368 0.499985C40.3116 0.501562 39.9043 0.671134 39.6037 0.97169C39.3031 1.27225 39.1334 1.67941 39.1318 2.10445V9.12704C39.1334 9.55209 39.3031 9.95929 39.6037 10.2598C39.9043 10.5604 40.3116 10.7299 40.7368 10.7315Z" fill="#EDF900"/>
</g>
<path d="M65.3192 8.64212C65.1494 8.51866 64.9568 8.42984 64.7526 8.38078C64.5484 8.33171 64.3366 8.32335 64.1291 8.35615C63.9217 8.38895 63.7228 8.46229 63.5437 8.57196C63.3647 8.68163 63.2089 8.82548 63.0855 8.99532L58.9535 14.6768C58.7053 15.0213 58.6032 15.4497 58.6693 15.869C58.7355 16.2883 58.9646 16.6646 59.3068 16.9159C59.4768 17.0403 59.6698 17.1299 59.8746 17.1794C60.0794 17.229 60.292 17.2377 60.5001 17.2048C60.7082 17.172 60.9078 17.0984 61.0874 16.9882C61.267 16.878 61.423 16.7334 61.5465 16.5627L65.6725 10.8812C65.9223 10.5373 66.0253 10.1084 65.959 9.68861C65.8928 9.26883 65.6627 8.89247 65.3192 8.64212Z" fill="#EDF900"/>
<mask id="mask2_333_746" style="mask-type:luminance" maskUnits="userSpaceOnUse" x="70" y="27" width="11" height="8">
<path d="M80.8773 27.9916H70.4993V34.3796H80.8773V27.9916Z" fill="white"/>
</mask>
<g mask="url(#mask2_333_746)">
<path d="M72.7151 33.8706L79.3982 31.7034C79.8022 31.5706 80.1371 31.2829 80.3291 30.9035C80.5211 30.5241 80.5546 30.0839 80.4222 29.6798C80.3571 29.48 80.2532 29.2951 80.1165 29.1355C79.9798 28.9758 79.813 28.8447 79.6255 28.7497C79.4381 28.6546 79.2337 28.5974 79.0241 28.5813C78.8145 28.5653 78.6039 28.5907 78.4041 28.6561L71.727 30.8233C71.3228 30.9563 70.9875 31.2437 70.7946 31.6228C70.6016 32.0019 70.5665 32.442 70.697 32.8469C70.7621 33.0467 70.866 33.2317 71.0027 33.3913C71.1394 33.5509 71.3063 33.682 71.4937 33.7771C71.6811 33.8722 71.8855 33.9294 72.095 33.9454C72.3046 33.9615 72.5153 33.9361 72.7151 33.8706Z" fill="#EDF900"/>
</g>
<mask id="mask3_333_746" style="mask-type:luminance" maskUnits="userSpaceOnUse" x="69" y="51" width="12" height="6">
<path d="M80.8713 51.1427H69.6968V56.7284H80.8713V51.1427Z" fill="white"/>
</mask>
<g mask="url(#mask3_333_746)">
<path d="M79.2544 53.5674L72.5713 51.3941C72.1671 51.2639 71.7277 51.2992 71.3494 51.4922C70.9712 51.6852 70.6849 52.0202 70.5532 52.4239C70.4229 52.828 70.4582 53.2672 70.6512 53.6454C70.8443 54.0236 71.1794 54.3098 71.5832 54.4414L78.2604 56.6147C78.6646 56.7449 79.1039 56.7096 79.4822 56.5166C79.8605 56.3236 80.1468 55.9886 80.2785 55.5849C80.3439 55.3852 80.3693 55.1746 80.3533 54.9651C80.3372 54.7556 80.28 54.5513 80.1849 54.3639C80.0898 54.1765 79.9587 54.0097 79.799 53.873C79.6393 53.7363 79.4542 53.6325 79.2544 53.5674Z" fill="#EDF900"/>
</g>
<path d="M61.1693 68.5345C60.9189 68.1911 60.5423 67.961 60.1225 67.8948C59.7026 67.8286 59.2736 67.9316 58.9296 68.1813C58.5874 68.4326 58.3583 68.8088 58.2921 69.2281C58.226 69.6474 58.3281 70.0759 58.5763 70.4204L62.7083 76.1019C62.9587 76.4453 63.3352 76.6753 63.7551 76.7415C64.175 76.8078 64.604 76.7047 64.948 76.4551C65.2888 76.2039 65.5166 75.8283 65.5817 75.41C65.6467 74.9918 65.5438 74.5647 65.2953 74.222L61.1693 68.5345Z" fill="#EDF900"/>
<path d="M21.6992 67.9058C21.3552 67.6562 20.9262 67.5532 20.5063 67.6194C20.0864 67.6856 19.7099 67.9156 19.4595 68.259L15.3334 73.9465C15.0837 74.2905 14.9807 74.7194 15.047 75.1392C15.1132 75.5589 15.3433 75.9353 15.6868 76.1857C16.0308 76.4353 16.4598 76.5383 16.8797 76.4721C17.2996 76.4059 17.6761 76.1758 17.9265 75.8324L22.0526 70.1449C22.3007 69.8005 22.4028 69.372 22.3366 68.9527C22.2705 68.5334 22.0414 68.1572 21.6992 67.9058Z" fill="#EDF900"/>
<path d="M10.3091 51.9808C10.1775 51.5772 9.89118 51.2422 9.51291 51.0491C9.13463 50.8561 8.69523 50.8209 8.29101 50.9511L1.60793 53.1243C1.40808 53.1894 1.22298 53.2933 1.06332 53.43C0.903667 53.5666 0.772534 53.7335 0.677422 53.9208C0.582311 54.1082 0.525125 54.3125 0.50907 54.5221C0.493014 54.7316 0.518402 54.9422 0.583852 55.1419C0.715509 55.5456 1.00188 55.8806 1.38015 56.0736C1.75842 56.2666 2.19775 56.3018 2.60196 56.1716L9.27913 53.9984C9.68289 53.8668 10.018 53.5805 10.2111 53.2024C10.4042 52.8242 10.4394 52.3849 10.3091 51.9808Z" fill="#EDF900"/>
<path d="M9.42285 30.3803L2.74568 28.2131C2.54556 28.1478 2.33456 28.1226 2.12469 28.1391C1.91482 28.1555 1.7102 28.2132 1.5227 28.3089C1.33519 28.4046 1.16849 28.5363 1.03204 28.6966C0.895592 28.8569 0.792085 29.0425 0.727572 29.2428C0.597042 29.6461 0.631537 30.0847 0.823408 30.4628C1.01528 30.8408 1.34898 31.1275 1.75165 31.2604L8.43473 33.4336C8.83898 33.5622 9.27768 33.5262 9.65553 33.3334C10.0334 33.1406 10.3198 32.8066 10.4528 32.4039C10.5833 31.999 10.5482 31.5589 10.3553 31.1798C10.1623 30.8006 9.82706 30.5132 9.42285 30.3803Z" fill="#EDF900"/>
<path d="M19.8367 16.2873C20.0872 16.6303 20.4631 16.8605 20.8826 16.9278C21.302 16.9951 21.7311 16.894 22.0764 16.6465C22.419 16.3941 22.6482 16.0168 22.7143 15.5965C22.7805 15.1762 22.6782 14.7468 22.4297 14.4014L18.3037 8.71994C18.0523 8.37785 17.6759 8.14881 17.2565 8.08267C16.8371 8.01652 16.4085 8.1186 16.064 8.3667C15.7205 8.61705 15.4904 8.99341 15.4242 9.41319C15.3579 9.83297 15.4609 10.2619 15.7106 10.6058L19.8367 16.2873Z" fill="#EDF900"/>
</g>
<defs>
<clipPath id="clip0_333_746">
<rect width="80" height="91" fill="white" transform="translate(0.5 0.5)"/>
</clipPath>
</defs>
</svg>
