<svg width="81" height="59" viewBox="0 0 81 59" fill="none" xmlns="http://www.w3.org/2000/svg">
<g clip-path="url(#clip0_333_744)">
<mask id="mask0_333_744" style="mask-type:luminance" maskUnits="userSpaceOnUse" x="0" y="-1" width="32" height="37">
<path d="M31.8133 -0.0477905H0.44873V35.3229H31.8133V-0.0477905Z" fill="white"/>
</mask>
<g mask="url(#mask0_333_744)">
<path d="M11.4331 34.9201C10.6681 34.9192 9.92454 34.6674 9.316 34.2033L1.89078 28.5716C1.52432 28.2922 1.21522 27.9445 0.980508 27.5477C0.747461 27.1488 0.594604 26.7082 0.530513 26.2507C0.470247 25.7945 0.49802 25.331 0.61233 24.8854C0.730142 24.4384 0.93396 24.0187 1.21235 23.6498L18.0469 1.40281C18.6107 0.65732 19.4469 0.166291 20.372 0.0375419C20.8291 -0.0259205 21.2942 0.00171958 21.7406 0.118871C22.1871 0.236023 22.6059 0.440375 22.9732 0.720175L30.3984 6.3519C31.1425 6.91527 31.633 7.75122 31.7621 8.67627C31.888 9.60155 31.6428 10.5391 31.0802 11.2839L14.2423 33.5241C13.9658 33.8934 13.618 34.2033 13.2195 34.4354C12.8211 34.6687 12.381 34.8218 11.924 34.886C11.7612 34.9075 11.5973 34.9189 11.4331 34.9201ZM20.8527 2.41311C20.6813 2.41102 20.5119 2.4496 20.3583 2.52573C20.2046 2.60244 20.0705 2.71336 19.9663 2.84999L3.13173 25.097C2.95521 25.3324 2.87808 25.6278 2.91694 25.9196C2.93705 26.0636 2.98531 26.2023 3.05902 26.3276C3.13273 26.453 3.23045 26.5625 3.34651 26.65L10.7717 32.2817C10.8878 32.3699 11.0201 32.4343 11.1611 32.4712C11.3021 32.5081 11.449 32.5168 11.5933 32.4968C11.7372 32.4766 11.8757 32.4283 12.0009 32.3545C12.1261 32.2807 12.2355 32.1829 12.3229 32.0667L29.1575 9.81967C29.2455 9.70344 29.3098 9.57096 29.3467 9.42981C29.3835 9.28866 29.3922 9.14162 29.3722 8.99711C29.3314 8.70708 29.1784 8.44474 28.9461 8.26668L21.5209 2.63496C21.3277 2.49113 21.0934 2.41335 20.8527 2.41311Z" fill="#EDF900"/>
</g>
<mask id="mask1_333_744" style="mask-type:luminance" maskUnits="userSpaceOnUse" x="49" y="-1" width="32" height="37">
<path d="M80.5581 -0.0477905H49.0879V35.3229H80.5581V-0.0477905Z" fill="white"/>
</mask>
<g mask="url(#mask1_333_744)">
<path d="M69.5633 34.9201C69.4002 34.9189 69.2374 34.9075 69.0758 34.886C68.6176 34.8219 68.1764 34.6688 67.7769 34.4354C67.3798 34.2015 67.0323 33.8919 66.7541 33.5241L49.9196 11.2771C49.3573 10.5321 49.1122 9.59469 49.2377 8.66943C49.3668 7.74439 49.8573 6.90843 50.6014 6.34507L58.0266 0.713341C58.3946 0.433604 58.814 0.229322 59.2609 0.112183C59.7079 -0.00495655 60.1735 -0.032651 60.6312 0.0307077C61.5553 0.159595 62.3904 0.650689 62.9529 1.39597L79.7909 23.643C80.0682 24.012 80.2709 24.4317 80.3875 24.8786C80.5051 25.3237 80.5329 25.7878 80.4693 26.2438C80.4064 26.7012 80.2547 27.1418 80.0227 27.5408C79.7867 27.9378 79.4765 28.2855 79.109 28.5648L71.6838 34.1965C71.0754 34.6642 70.3303 34.9184 69.5633 34.9201ZM60.1471 2.41311C59.9016 2.40988 59.662 2.48786 59.4653 2.63496L52.0401 8.26668C51.924 8.35417 51.8263 8.46372 51.7526 8.58906C51.6789 8.7144 51.6306 8.85306 51.6105 8.9971C51.5905 9.14162 51.5992 9.28866 51.6361 9.42981C51.6729 9.57096 51.7372 9.70343 51.8253 9.81967L68.6599 32.0667C68.8384 32.3007 69.1016 32.4552 69.3928 32.4967C69.5366 32.5167 69.683 32.5079 69.8234 32.471C69.9638 32.4341 70.0956 32.3698 70.211 32.2817L77.6362 26.65C77.7523 26.5625 77.85 26.453 77.9237 26.3276C77.9974 26.2023 78.0457 26.0636 78.0658 25.9196C78.0861 25.7756 78.0775 25.629 78.0407 25.4884C78.0038 25.3477 77.9393 25.2159 77.851 25.1004L61.0164 2.84999C60.913 2.71258 60.7787 2.60149 60.6244 2.52573C60.4762 2.45172 60.3128 2.41318 60.1471 2.41311Z" fill="#EDF900"/>
</g>
<path d="M55.8991 43.4155C54.6935 43.4141 53.525 42.9984 52.5888 42.2379L40.0771 31.9711C39.8304 31.767 39.6737 31.4741 39.6407 31.1554C39.6257 30.9979 39.6419 30.839 39.6884 30.6878C39.7333 30.5354 39.8087 30.3937 39.91 30.2714C40.01 30.1498 40.1328 30.049 40.2714 29.9744C40.4106 29.8989 40.5637 29.8524 40.7214 29.8379C41.0392 29.8073 41.3563 29.9029 41.6044 30.1041L54.1127 40.3675C54.4044 40.6054 54.7405 40.7829 55.1013 40.8897C55.4633 40.993 55.8419 41.0255 56.2161 40.9853C56.5898 40.9431 56.9513 40.8271 57.2798 40.644C57.6091 40.4605 57.8997 40.2148 58.1355 39.9204C58.5723 39.357 58.786 38.6521 58.7355 37.9408C58.6818 37.2281 58.3646 36.5612 57.8457 36.0703L46.7522 25.6875C46.5203 25.4686 46.3843 25.1668 46.3738 24.8479C46.3707 24.689 46.3992 24.5311 46.4577 24.3834C46.5163 24.2357 46.6036 24.1012 46.7147 23.9877C46.8217 23.8718 46.9506 23.7783 47.094 23.7127C47.2374 23.647 47.3924 23.6106 47.55 23.6055C47.7083 23.5988 47.8665 23.6238 48.0151 23.6789C48.1638 23.734 48.3 23.8181 48.4159 23.9263L59.5094 34.3057C60.4647 35.2139 61.0491 36.4448 61.1492 37.7599C61.2482 39.0746 60.8517 40.3788 60.0378 41.4154C59.5488 42.0411 58.9224 42.5457 58.2071 42.8898C57.4881 43.2397 56.6985 43.4195 55.8991 43.4155Z" fill="#EDF900"/>
<path d="M38.1067 17.1751C37.8157 17.1756 37.5346 17.0701 37.3158 16.8781C36.8351 16.4583 36.3714 16.0897 35.8566 15.7176C34.8009 14.9505 33.6562 14.3144 32.4474 13.8233L29.0826 12.4581C28.9351 12.4002 28.8015 12.3118 28.6905 12.1987C28.5766 12.0889 28.4871 11.9563 28.428 11.8096C28.3643 11.6642 28.3306 11.5075 28.3291 11.3488C28.3291 11.1909 28.3592 11.0346 28.4177 10.888C28.4797 10.7415 28.5674 10.6074 28.6768 10.4921C28.7901 10.3808 28.923 10.2917 29.0689 10.2293C29.2134 10.168 29.3688 10.1366 29.5257 10.1371C29.6848 10.1338 29.8427 10.1641 29.9894 10.2258L33.3543 11.5911C34.745 12.1548 36.0625 12.8848 37.2782 13.7653C37.851 14.1817 38.3658 14.5913 38.8976 15.0589C39.085 15.2188 39.2175 15.4338 39.276 15.6733C39.3377 15.9106 39.3234 16.1613 39.2351 16.39C39.1506 16.6208 38.997 16.8199 38.7953 16.96C38.5932 17.1007 38.3528 17.1758 38.1067 17.1751Z" fill="#EDF900"/>
<path d="M51.7978 50.3169C50.6104 50.3154 49.4606 49.9003 48.5455 49.1428L38.0895 40.5348C37.9663 40.4355 37.8643 40.3124 37.7895 40.173C37.7155 40.033 37.6692 39.88 37.6531 39.7224C37.6372 39.564 37.6523 39.4041 37.6975 39.2514C37.7449 39.0994 37.8213 38.958 37.9224 38.835C38.0234 38.7144 38.146 38.6137 38.2838 38.5381C38.4255 38.4656 38.5791 38.4193 38.7372 38.4016C38.8945 38.3865 39.0533 38.4028 39.2043 38.4493C39.3561 38.4969 39.4974 38.5734 39.6202 38.6746L50.0762 47.2792C50.3524 47.5112 50.6724 47.6853 51.0171 47.7912C51.3623 47.897 51.7248 47.9341 52.0842 47.9004C52.4422 47.8654 52.7898 47.7598 53.107 47.5898C53.4251 47.4187 53.7066 47.1868 53.9354 46.9072C54.1639 46.6269 54.3353 46.3045 54.44 45.9583C54.5438 45.6124 54.5785 45.2493 54.5422 44.89C54.5035 44.5309 54.3946 44.183 54.2218 43.866C54.0525 43.5484 53.8206 43.2685 53.5399 43.0434L40.0736 31.978C39.827 31.7738 39.6703 31.4809 39.6373 31.1622C39.608 30.8436 39.7047 30.5262 39.9066 30.2782C40.0067 30.1561 40.1299 30.0549 40.2692 29.9806C40.4084 29.9062 40.5609 29.86 40.718 29.8447C41.0359 29.8133 41.3533 29.909 41.601 30.111L55.0638 41.1764C55.8479 41.8145 56.4257 42.6709 56.7241 43.6374C57.0245 44.6041 57.0339 45.6381 56.7514 46.6102C56.4683 47.5822 55.905 48.4489 55.132 49.1018C54.359 49.756 53.4102 50.1669 52.4046 50.2828C52.2032 50.306 52.0006 50.3174 51.7978 50.3169Z" fill="#EDF900"/>
<path d="M46.4149 55.2421C45.2815 55.2457 44.1848 54.8396 43.3262 54.0987L38.1068 49.6343C37.9852 49.5324 37.8855 49.4071 37.8136 49.2657C37.7413 49.1244 37.6984 48.97 37.6874 48.8117C37.6748 48.6538 37.6934 48.4949 37.742 48.3441C37.7913 48.1935 37.8701 48.0543 37.9738 47.9345C38.0754 47.8141 38.1993 47.7144 38.3386 47.641C38.4804 47.5706 38.6342 47.5277 38.792 47.5147C38.9497 47.5035 39.1082 47.522 39.2591 47.5693C39.4111 47.6173 39.5516 47.6963 39.6716 47.8014L44.8945 52.2658C45.1366 52.4739 45.4184 52.6307 45.7229 52.7266C46.0281 52.8215 46.3492 52.8539 46.6672 52.8222C46.9841 52.7907 47.2914 52.6955 47.5707 52.5423C47.8506 52.3886 48.0965 52.1796 48.2934 51.9279C48.6676 51.4423 48.8409 50.8313 48.7775 50.2213C48.7104 49.6076 48.4086 49.0437 47.9354 48.6479L39.7329 41.8966C39.6089 41.7969 39.5068 41.6725 39.4329 41.5314C39.357 41.3922 39.3106 41.2389 39.2966 41.0809C39.2816 40.9234 39.2978 40.7645 39.3443 40.6133C39.3884 40.4606 39.4639 40.3187 39.5659 40.1969C39.6657 40.0737 39.7899 39.9726 39.9307 39.8999C40.0699 39.8244 40.223 39.7779 40.3807 39.7634C40.538 39.7484 40.6967 39.7646 40.8478 39.8112C40.9997 39.8568 41.1411 39.9322 41.2637 40.033L49.4457 46.7843C50.4034 47.5812 51.0146 48.7192 51.1503 49.9585C51.2855 51.1983 50.9334 52.442 50.1685 53.4263C49.773 53.9355 49.2776 54.3583 48.7127 54.6687C48.1481 54.9791 47.5265 55.1718 46.8854 55.2353C46.7388 55.2353 46.5786 55.2421 46.4149 55.2421Z" fill="#EDF900"/>
<path d="M18.606 40.1081C18.4203 40.1077 18.2371 40.0645 18.0708 39.9818C17.9056 39.902 17.761 39.7852 17.648 39.6405C16.8129 38.5465 16.039 37.4071 15.3298 36.2274L13.0286 32.4012C12.9458 32.2663 12.8908 32.1162 12.8668 31.9597C12.8428 31.8032 12.8503 31.6435 12.8888 31.4899C12.9677 31.1796 13.1647 30.9125 13.4377 30.7458C13.573 30.6642 13.723 30.6101 13.8792 30.5867C14.0354 30.5633 14.1947 30.571 14.348 30.6093C14.6581 30.6857 14.9254 30.8821 15.0911 31.1554L17.3923 34.9816C18.057 36.0856 18.782 37.1521 19.564 38.1763C19.698 38.3558 19.7815 38.5679 19.806 38.7906C19.8268 39.0148 19.7856 39.2404 19.6867 39.4426C19.5861 39.6437 19.4315 39.8128 19.2401 39.9307C19.0496 40.0482 18.8298 40.1097 18.606 40.1081Z" fill="#EDF900"/>
<path d="M26.9551 48.269C26.7982 48.2695 26.6427 48.2381 26.4982 48.1768C26.3512 48.1165 26.2179 48.0271 26.1062 47.914C25.9126 47.7153 25.7924 47.4565 25.7653 47.1802C25.7374 46.9024 25.8073 46.6235 25.963 46.3918C26.1183 46.1604 26.3481 45.9893 26.6142 45.9071C26.8814 45.8281 27.1676 45.8426 27.4255 45.948C27.6822 46.0558 27.894 46.2486 28.0256 46.4942C28.1564 46.741 28.1986 47.0254 28.1449 47.2997C28.0883 47.569 27.9401 47.8103 27.7256 47.9823C27.5105 48.1657 27.2376 48.2672 26.9551 48.269Z" fill="#EDF900"/>
<mask id="mask2_333_744" style="mask-type:luminance" maskUnits="userSpaceOnUse" x="33" y="47" width="13" height="13">
<path d="M45.45 47.1563H33.6304V59.0034H45.45V47.1563Z" fill="white"/>
</mask>
<g mask="url(#mask2_333_744)">
<path d="M41.0387 59C40.0309 58.9999 39.0546 58.6488 38.2772 58.0068L34.4964 54.8735C34.2508 54.669 34.0953 54.376 34.0635 54.0577C34.0485 53.8996 34.0649 53.7402 34.1117 53.5885C34.1585 53.4368 34.2348 53.2958 34.3362 53.1737C34.4369 53.0517 34.5608 52.9509 34.7006 52.8771C34.8405 52.8032 34.9935 52.7579 35.151 52.7437C35.4683 52.7134 35.7846 52.8104 36.0306 53.0133L39.8148 56.1466C40.1579 56.434 40.5913 56.5911 41.0387 56.5903C41.4308 56.5915 41.8139 56.4724 42.1364 56.249C42.4574 56.0236 42.7024 55.7057 42.8387 55.3377C42.9741 54.9689 42.9932 54.5674 42.8933 54.1874C42.7953 53.8076 42.5835 53.467 42.2864 53.2113L38.1068 49.6343C37.9852 49.5316 37.8845 49.4065 37.8102 49.2657C37.7348 49.1242 37.6906 48.9682 37.6806 48.8083C37.6668 48.6505 37.6842 48.4917 37.7318 48.3407C37.7824 48.1896 37.861 48.0495 37.9636 47.9277C38.0658 47.8051 38.1924 47.7052 38.3352 47.6342C38.4774 47.5617 38.6328 47.5188 38.792 47.5079C38.95 47.4946 39.1091 47.5144 39.2591 47.5659C39.4107 47.6164 39.5509 47.6965 39.6716 47.8014L43.8547 51.375C44.5235 51.9533 44.9994 52.7227 45.2183 53.5799C45.4431 54.4359 45.3991 55.3404 45.0922 56.1705C44.7843 56.9987 44.2312 57.7132 43.5069 58.2184C42.7833 58.7254 41.9219 58.9982 41.0387 59Z" fill="#EDF900"/>
</g>
<path d="M31.1075 51.7095C30.9506 51.7099 30.7952 51.6786 30.6507 51.6173C30.5051 51.5578 30.373 51.4695 30.2621 51.3579C30.0666 51.1605 29.946 50.901 29.9211 50.6241C29.8941 50.348 29.9653 50.0711 30.1223 49.8425C30.2762 49.6113 30.5069 49.442 30.7734 49.3646C31.0399 49.2867 31.325 49.3024 31.5814 49.409C31.8355 49.5181 32.0448 49.7107 32.1746 49.9551C32.3041 50.2 32.345 50.4822 32.2905 50.7538C32.2346 51.0225 32.0877 51.2637 31.8746 51.4364C31.6579 51.6132 31.387 51.7096 31.1075 51.7095Z" fill="#EDF900"/>
<path d="M22.1687 44.1425C21.97 44.1428 21.7743 44.0935 21.5994 43.9991C21.4245 43.9053 21.2749 43.7707 21.163 43.6066C21.0535 43.4412 20.9867 43.2512 20.9687 43.0537C20.9473 42.8561 20.9767 42.6564 21.0539 42.4734C21.1269 42.2906 21.2441 42.1288 21.3948 42.0024C21.5481 41.8768 21.7294 41.7901 21.9233 41.7499C22.1182 41.7104 22.3199 41.721 22.5097 41.7806C22.7001 41.8351 22.8729 41.9386 23.0108 42.0809C23.1768 42.2489 23.2884 42.463 23.3313 42.6953C23.3734 42.925 23.3486 43.162 23.2597 43.3779C23.1662 43.5954 23.0124 43.7814 22.8165 43.9138C22.6269 44.0505 22.4021 44.1299 22.1687 44.1425Z" fill="#EDF900"/>
<path d="M34.1487 28.046C33.1521 28.0464 32.1737 27.7788 31.3157 27.2712C29.3759 26.1244 28.619 24.3052 29.1849 22.1514C29.4975 21.0034 30.1066 19.9581 30.9509 19.1205L31.4452 18.6291C32.8749 17.0338 34.6845 15.8268 36.7056 15.1203C38.7255 14.4116 40.8913 14.225 43.0024 14.5776C43.5822 14.6737 44.177 14.5521 44.6729 14.2363L50.8299 10.3214C50.9639 10.2364 51.1134 10.1784 51.2697 10.1508C51.425 10.12 51.5848 10.12 51.7401 10.1508C51.8959 10.1844 52.0432 10.2495 52.1731 10.3419C52.3089 10.4311 52.4249 10.5473 52.514 10.6832C52.5975 10.8182 52.6553 10.9675 52.6845 11.1235C52.7135 11.2803 52.7135 11.4411 52.6845 11.5979C52.6501 11.7526 52.5852 11.8988 52.4936 12.028C52.4024 12.1575 52.2865 12.2677 52.1526 12.3523L45.9957 16.2671C44.9998 16.898 43.8073 17.1409 42.6444 16.9498C40.9295 16.6648 39.1703 16.8186 37.5307 17.3969C35.8875 17.9742 34.4169 18.9581 33.2555 20.2571L33.2112 20.3015L32.6964 20.8169C32.1529 21.3527 31.7601 22.0226 31.5578 22.759C31.2612 23.8785 31.5578 24.5816 32.5805 25.1892C33.5453 25.7558 34.9669 25.7694 35.6488 25.2131L35.6931 25.1823L37.0806 24.1277C37.5715 23.7475 38.1019 23.4214 38.6625 23.1549C40.9671 22.0764 43.2444 22.2538 44.9729 22.5269C45.0556 22.5401 45.1367 22.5618 45.2149 22.5918L49.0196 24.0458C49.1696 24.1011 49.3071 24.1857 49.4242 24.2947C49.5412 24.4037 49.6355 24.5349 49.7014 24.6806C49.766 24.825 49.8014 24.9808 49.8054 25.139C49.8095 25.2972 49.7823 25.4546 49.7253 25.6022C49.671 25.7529 49.5869 25.891 49.4779 26.0084C49.369 26.1257 49.2374 26.2197 49.0912 26.2848C48.9474 26.3507 48.7918 26.3871 48.6337 26.3918C48.4756 26.3965 48.3182 26.3694 48.1707 26.3121L44.4888 24.9025C42.4433 24.5987 41.0251 24.7318 39.6955 25.353C39.2901 25.5491 38.9062 25.7871 38.55 26.0629L37.1863 27.0869C36.3134 27.7454 35.2411 28.0839 34.1487 28.046Z" fill="#EDF900"/>
<path d="M59.8848 38.6063C59.626 38.6068 59.3739 38.5243 59.1654 38.3708C58.958 38.2166 58.8051 38.0002 58.729 37.753C58.6489 37.5092 58.6489 37.246 58.729 37.0021C58.8151 36.7582 58.9762 36.5478 59.1893 36.4014L66.6895 31.3397C66.9541 31.1602 67.2788 31.0926 67.5929 31.152C67.9062 31.2143 68.1827 31.3969 68.3634 31.6605C68.5421 31.927 68.6083 32.2533 68.5475 32.5684C68.4842 32.8817 68.3006 33.1575 68.0361 33.3364L60.5359 38.3981C60.3441 38.5302 60.1176 38.6026 59.8848 38.6063Z" fill="#EDF900"/>
<path d="M19.7755 45.4224C19.0035 45.4135 18.2514 45.176 17.6141 44.7398C16.9759 44.3108 16.4798 43.7013 16.189 42.9889C15.8956 42.2772 15.8208 41.494 15.9742 40.7396C16.1271 39.9851 16.4996 39.2927 17.0447 38.7497L21.6437 34.1761C22.0036 33.8158 22.4312 33.5304 22.9017 33.3364C23.3721 33.1423 23.876 33.0426 24.3847 33.0429C25.1549 33.0468 25.9069 33.2783 26.5461 33.7084C27.1835 34.1384 27.6794 34.7476 27.9712 35.4594C28.2647 36.1722 28.3395 36.9565 28.186 37.7121C28.0322 38.4653 27.6599 39.1563 27.1155 39.6986L22.5131 44.2722C22.156 44.6343 21.7292 44.92 21.2585 45.1118C20.7898 45.3134 20.2856 45.419 19.7755 45.4224ZM24.3711 35.4731C23.9804 35.4736 23.6056 35.6281 23.3279 35.9031L18.7289 40.4767C18.5924 40.614 18.4836 40.7762 18.4084 40.9546C18.3328 41.1351 18.2934 41.3288 18.2925 41.5246C18.2922 41.719 18.3305 41.9116 18.405 42.0912C18.4768 42.2716 18.5847 42.4354 18.7221 42.5725C18.8581 42.7171 19.0215 42.8331 19.2028 42.9138C19.3826 42.9867 19.5746 43.0249 19.7687 43.0264C19.9627 43.0281 20.1551 42.9909 20.3346 42.9171C20.5149 42.844 20.6785 42.7349 20.8153 42.5963L25.4143 38.0227C25.6228 37.8164 25.7652 37.5526 25.8234 37.265C25.882 36.9776 25.8535 36.6793 25.7416 36.4083C25.6342 36.13 25.4437 35.8916 25.1961 35.7256C24.9523 35.5612 24.665 35.4733 24.3711 35.4731Z" fill="#EDF900"/>
<path d="M28.0324 53.6754C27.2625 53.676 26.51 53.4467 25.871 53.0167C25.2291 52.5891 24.7294 51.9794 24.4357 51.2658C24.1429 50.5528 24.0669 49.7691 24.2175 49.0131C24.3696 48.2565 24.7435 47.5625 25.2914 47.0198L29.8904 42.4461C30.2529 42.0858 30.6827 41.8006 31.1554 41.6068C31.628 41.4129 32.1343 41.3142 32.645 41.3164C33.6702 41.3243 34.6506 41.7378 35.3724 42.4666C35.7325 42.8288 36.0178 43.2585 36.212 43.7311C36.4062 44.2037 36.5055 44.71 36.5043 45.221C36.503 45.7327 36.4009 46.2391 36.2037 46.7112C36.0066 47.1833 35.7183 47.6118 35.3554 47.9721L30.7563 52.5457C30.032 53.2662 29.0534 53.672 28.0324 53.6754ZM32.6314 43.7261C32.2407 43.7266 31.866 43.8811 31.5882 44.1561L26.9892 48.7298C26.7145 49.0079 26.5602 49.3831 26.5596 49.7742C26.5584 49.9681 26.5958 50.1603 26.6695 50.3396C26.7433 50.519 26.8519 50.6818 26.9892 50.8186C27.2597 51.0934 27.6267 51.2514 28.012 51.2589C28.403 51.2619 28.7793 51.1097 29.0586 50.8357L33.6576 46.2621C33.8661 46.0545 34.0085 45.7896 34.0667 45.5009C34.1235 45.2135 34.095 44.9157 33.9849 44.6442C33.8754 44.3671 33.6854 44.1293 33.4394 43.9616C33.1984 43.8068 32.9177 43.725 32.6314 43.7261Z" fill="#EDF900"/>
<path d="M31.8269 57.4845C31.058 57.4824 30.307 57.252 29.6689 56.8224C29.0295 56.3924 28.5323 55.7817 28.2405 55.068C27.9489 54.3559 27.8741 53.5733 28.0257 52.8187C28.1801 52.0638 28.5523 51.3707 29.0962 50.8254L31.2815 48.6547C32.014 47.9276 33.0047 47.5213 34.0361 47.5249C35.0681 47.5289 36.0562 47.9426 36.7839 48.6751C37.5096 49.4074 37.9154 50.398 37.9124 51.4296C37.9111 51.9413 37.809 52.4477 37.6118 52.9198C37.4147 53.3918 37.1264 53.8203 36.7635 54.1806L34.5816 56.3548C34.2216 56.714 33.794 56.9982 33.3236 57.191C32.849 57.3868 32.3403 57.4866 31.8269 57.4845ZM34.0088 49.9346C33.8146 49.9343 33.6222 49.9726 33.4429 50.0472C33.2647 50.1225 33.1027 50.2315 32.9656 50.3681L30.7803 52.5389C30.5038 52.8177 30.3472 53.1938 30.344 53.5867C30.3436 53.979 30.498 54.3556 30.7735 54.6345C30.9105 54.773 31.0735 54.8829 31.2531 54.9579C31.4328 55.0329 31.6255 55.0715 31.8202 55.0714C32.0148 55.0724 32.2078 55.035 32.388 54.9612C32.5682 54.8874 32.732 54.7787 32.8702 54.6414L35.0521 52.4706C35.2605 52.2643 35.4029 52.0005 35.4611 51.7129C35.5198 51.4255 35.4913 51.1272 35.3793 50.8561C35.2686 50.5798 35.0789 50.3423 34.8339 50.1735C34.5906 50.0107 34.3049 49.9229 34.0122 49.9209L34.0088 49.9346Z" fill="#EDF900"/>
<path d="M24.228 49.6855C23.3662 49.6846 22.5243 49.4255 21.8109 48.9414C21.0966 48.4614 20.5412 47.7794 20.2154 46.9822C19.8876 46.1839 19.8034 45.3061 19.9733 44.4599C20.1451 43.6157 20.5626 42.8414 21.1733 42.2345L27.4769 35.9645C27.8804 35.5625 28.3588 35.2436 28.8849 35.0259C29.4106 34.8041 29.9748 34.6881 30.5452 34.6846C31.4055 34.6884 32.2455 34.9473 32.9589 35.4287C33.6745 35.9097 34.231 36.5928 34.5578 37.3912C34.8846 38.1887 34.9677 39.0654 34.7965 39.9102C34.6267 40.7553 34.2103 41.531 33.5999 42.139L27.2963 48.4055C26.8937 48.8087 26.4151 49.1277 25.8883 49.3442C25.3631 49.5675 24.7986 49.6836 24.228 49.6855ZM30.5316 37.1114C30.2776 37.1099 30.026 37.1598 29.7918 37.2581C29.5552 37.3537 29.3406 37.4965 29.1611 37.6779L22.8575 43.9445C22.5842 44.2162 22.3979 44.5631 22.3222 44.9412C22.2479 45.3189 22.2846 45.7102 22.4279 46.0675C22.5761 46.4235 22.825 46.7284 23.1439 46.9447C23.4619 47.1642 23.8384 47.2831 24.2246 47.286C24.4794 47.2884 24.7321 47.2396 24.9678 47.1426C25.2032 47.045 25.4175 46.9024 25.5985 46.7228L31.8987 40.4528C32.0801 40.2747 32.2243 40.0623 32.3232 39.828C32.4221 39.5936 32.4736 39.342 32.4748 39.0876C32.4748 38.8339 32.4248 38.5828 32.3277 38.3485C32.2306 38.1142 32.0882 37.9014 31.9089 37.7223C31.7303 37.5396 31.517 37.3945 31.2816 37.2957C31.045 37.1969 30.7913 37.1458 30.535 37.1455L30.5316 37.1114Z" fill="#EDF900"/>
</g>
<defs>
<clipPath id="clip0_333_744">
<rect width="80" height="59" fill="white" transform="translate(0.5)"/>
</clipPath>
</defs>
</svg>
