<svg width="80" height="79" viewBox="0 0 80 79" fill="none" xmlns="http://www.w3.org/2000/svg">
<g clip-path="url(#clip0_333_745)">
<mask id="mask0_333_745" style="mask-type:luminance" maskUnits="userSpaceOnUse" x="0" y="-1" width="81" height="80">
<path d="M80.4317 -0.590363H0V78.9909H80.4317V-0.590363Z" fill="white"/>
</mask>
<g mask="url(#mask0_333_745)">
<path d="M28.0464 68.16C27.8211 67.9329 27.6947 67.626 27.6947 67.3062C27.6947 66.9864 27.8211 66.6795 28.0464 66.4524C28.158 66.3393 28.2911 66.2495 28.4377 66.1881C28.5844 66.1268 28.7418 66.0953 28.9007 66.0953C29.0597 66.0953 29.2172 66.1268 29.3638 66.1881C29.5105 66.2495 29.6434 66.3393 29.755 66.4524L32.0271 68.7231L36.9985 60.0947C37.1567 59.8168 37.4187 59.613 37.7271 59.5279C38.0354 59.4428 38.3649 59.4833 38.6435 59.6405C38.7822 59.7184 38.904 59.823 39.0021 59.9482C39.1001 60.0734 39.1723 60.2168 39.2146 60.3701C39.2568 60.5234 39.2682 60.6835 39.2482 60.8412C39.2282 60.9989 39.1771 61.1511 39.0979 61.289L33.3858 71.2162C33.3027 71.3904 33.1788 71.542 33.0245 71.658C32.8703 71.7741 32.6903 71.8512 32.4998 71.8829C32.3093 71.9145 32.114 71.8998 31.9304 71.8399C31.7469 71.7799 31.5806 71.6766 31.4455 71.5387L28.0464 68.16ZM11.5557 28.2694C11.2355 28.267 10.9292 28.1382 10.7036 27.9111C10.478 27.6839 10.3515 27.3769 10.3515 27.0569C10.3515 26.7373 10.4782 26.4307 10.7039 26.2043C10.9296 25.9779 11.2359 25.8501 11.5557 25.8489H24.0476C24.3682 25.8489 24.6756 25.9762 24.9023 26.2027C25.129 26.4293 25.2564 26.7365 25.2564 27.0569C25.2564 27.3777 25.1291 27.6854 24.9026 27.9127C24.676 28.1399 24.3686 28.2682 24.0476 28.2694H11.5557ZM54.0845 20.0951C53.5197 20.0978 52.9683 20.2673 52.4997 20.5824C52.0311 20.8975 51.6662 21.3442 51.451 21.866C51.2358 22.3879 51.1799 22.9617 51.2903 23.5153C51.4007 24.0689 51.6725 24.5774 52.0714 24.977C52.4713 25.3747 52.9802 25.6451 53.5338 25.7539C54.0874 25.8627 54.6607 25.8051 55.1816 25.5883C55.7024 25.3716 56.1473 25.0054 56.4599 24.5361C56.7726 24.0668 56.9391 23.5154 56.9383 22.9516C56.9335 22.1979 56.6308 21.4767 56.0963 20.9451C55.5617 20.4134 54.8387 20.1145 54.0845 20.1133V20.0951ZM50.3583 19.2141C50.6345 18.9402 50.9391 18.6966 51.2672 18.4875C48.1884 19.1147 45.3771 20.6732 43.2149 22.9516C45.3756 25.2328 48.1873 26.7931 51.2672 27.4202C50.602 26.9941 50.0405 26.4248 49.6238 25.7539C49.207 25.0831 48.9455 24.3277 48.8584 23.5429C48.7713 22.7581 48.8608 21.9638 49.1203 21.218C49.3798 20.4722 49.8028 19.7937 50.3583 19.2323V19.2141ZM56.8974 18.4875C57.649 18.9659 58.2677 19.6259 58.6964 20.4066C59.125 21.1872 59.3497 22.0634 59.3497 22.9538C59.3497 23.8443 59.125 24.7204 58.6964 25.5011C58.2677 26.2818 57.649 26.9419 56.8974 27.4202C59.9727 26.7907 62.7803 25.2324 64.9405 22.9561C62.7807 20.682 59.9723 19.1281 56.8974 18.5057V18.4875ZM46.7684 28.4511C44.4363 27.3289 42.3687 25.7254 40.702 23.7463C40.5153 23.527 40.4128 23.2485 40.4128 22.9607C40.4128 22.6728 40.5153 22.3943 40.702 22.175C45.8732 16.0761 54.1663 14.0007 61.4097 17.4566C63.7416 18.5771 65.8093 20.1791 67.4762 22.1568C67.6649 22.376 67.7687 22.6556 67.7687 22.9448C67.7687 23.2339 67.6649 23.5135 67.4762 23.7327C62.3049 29.8498 54.0209 31.9297 46.7684 28.4692V28.4511ZM45.0416 11.4258C42.0216 13.8098 40.0625 17.2865 39.5886 21.1033C39.103 24.9453 40.1608 28.8231 42.5302 31.8874C44.8997 34.9516 48.3878 36.9525 52.2305 37.4519C54.1347 37.6916 56.0674 37.5538 57.9182 37.0464C59.769 36.5389 61.5016 35.6718 63.0168 34.4946C64.5319 33.3174 65.8 31.8532 66.7484 30.1858C67.6969 28.5184 68.307 26.6805 68.5441 24.7772C69.0321 20.9347 67.9753 17.0556 65.6054 13.9908C63.2354 10.926 59.7459 8.92566 55.9022 8.42859C53.9821 8.18097 52.0319 8.32022 50.1666 8.83812C48.3013 9.35602 46.5587 10.2421 45.0416 11.444V11.4258ZM43.6784 9.41404C45.4427 8.05547 47.4576 7.05765 49.608 6.47756C51.7583 5.89748 54.002 5.74653 56.2107 6.0333C58.4195 6.32008 60.55 7.03897 62.4806 8.14892C64.4113 9.25886 66.1041 10.7381 67.4625 12.5021C70.2224 16.0807 71.4532 20.6052 70.8862 25.0876C70.3191 29.57 68.0003 33.646 64.4361 36.4255C62.6754 37.799 60.6593 38.8094 58.5048 39.3979C56.3502 39.9865 54.1002 40.1416 51.8852 39.8542C47.4405 39.2952 43.3991 36.9974 40.6474 33.4646C40.6023 33.4224 40.5639 33.3734 40.5338 33.3193C37.8032 29.751 36.5901 25.2507 37.1575 20.7945C37.7116 16.3484 39.9975 12.3 43.5193 9.52757C43.5761 9.48902 43.6371 9.45704 43.7011 9.43222L43.6784 9.41404ZM65.2132 44.291L66.8582 43.3374L65.6312 41.212C65.4765 40.9431 65.4308 40.6252 65.5035 40.3236C65.5762 40.0221 65.7618 39.7598 66.022 39.5908L66.5674 39.1866C70.8636 35.8378 73.658 30.9249 74.3392 25.5225C75.0205 20.1202 73.5332 14.668 70.2027 10.3586C68.5589 8.22897 66.5105 6.44455 64.1751 5.1077C61.8398 3.77084 59.2633 2.90786 56.5935 2.56823C53.9237 2.22859 51.2131 2.41899 48.617 3.12851C46.021 3.83804 43.5906 5.05272 41.4654 6.70291C37.1704 10.0517 34.377 14.9636 33.6957 20.3649C33.0145 25.7662 34.5009 31.2173 37.83 35.5264C40.6421 39.1727 44.6037 41.7634 49.0731 42.8786C53.5425 43.9938 58.2578 43.5682 62.4549 41.6707C62.7338 41.546 63.0496 41.5315 63.3387 41.6301C63.6279 41.7287 63.869 41.933 64.0135 42.202L65.2132 44.291ZM69.0212 42.2611C69.6645 42.1243 70.3346 42.1954 70.9349 42.4639C71.5352 42.7324 72.0347 43.1846 72.3612 43.7551L79.5591 56.2527C79.9706 56.9708 80.0816 57.8223 79.868 58.6217C79.6544 59.4212 79.1334 60.104 78.4185 60.5215L74.2652 62.9284C73.9111 63.1325 73.5202 63.2648 73.115 63.3178C72.7097 63.3707 72.2979 63.3432 71.9032 63.2369C71.5086 63.1306 71.1388 62.9476 70.815 62.6983C70.4912 62.449 70.2198 62.1383 70.0163 61.784L66.9172 56.3981V59.7995C66.9173 61.6753 66.1738 63.4747 64.8496 64.8041C63.5253 66.1335 61.7281 66.8845 59.8511 66.8929H46.673C46.3794 70.1934 44.8622 73.265 42.419 75.505C39.9759 77.7449 36.7832 78.9915 33.4676 79C30.1585 78.9892 26.9727 77.7436 24.5349 75.5072C22.097 73.2709 20.583 70.2052 20.2896 66.9111H7.08421C5.20722 66.9027 3.41 66.1517 2.08574 64.8223C0.76148 63.4929 0.0180476 61.6935 0.0180664 59.8177V26.3666C0.0192487 24.4916 0.763218 22.6933 2.08735 21.3649C3.41148 20.0365 5.20801 19.2861 7.08421 19.2777H31.4728C32.4127 13.4166 35.5957 8.15021 40.3493 4.59112C45.1029 1.03203 51.0547 -0.540998 56.9474 0.204347C62.98 0.983103 68.4564 4.12357 72.1732 8.93563C75.89 13.7477 77.543 19.8376 76.769 25.8671C76.027 31.8137 72.985 37.2338 68.2941 40.9668L69.0212 42.2611ZM64.4997 52.2065L62.8229 49.2819C62.4978 48.7127 62.3597 48.0558 62.4282 47.4039C62.4967 46.7521 62.7683 46.1382 63.2047 45.6489L62.4367 44.3183C57.996 46.0718 53.1169 46.3895 48.4861 45.2265C42.6073 43.7527 37.553 40.0097 34.431 34.8179H2.39011V59.7949C2.39248 61.0292 2.8829 62.2125 3.75452 63.087C4.62614 63.9615 5.80829 64.4562 7.04333 64.4634H20.2214C20.5158 61.1697 22.0302 58.1046 24.4678 55.8684C26.9054 53.6323 30.0906 52.3863 33.3995 52.3745C36.7124 52.3816 39.9033 53.6252 42.3462 55.8616C44.7892 58.098 46.308 61.1658 46.6048 64.4634H59.7829C61.0183 64.4574 62.2012 63.963 63.073 63.0883C63.9449 62.2136 64.435 61.0296 64.4361 59.7949L64.4997 52.2065ZM69.2393 44.7497L65.1495 47.1066C64.9884 47.2032 64.8713 47.3586 64.8229 47.5401C64.7746 47.7215 64.7988 47.9146 64.8905 48.0784L66.7082 51.2074C66.7421 51.2551 66.7725 51.3051 66.7991 51.3573L72.093 60.517C72.1361 60.6161 72.201 60.7041 72.2829 60.7747C72.3647 60.8452 72.4615 60.8963 72.5659 60.9243C72.6703 60.9522 72.7796 60.9562 72.8858 60.936C72.992 60.9158 73.0923 60.872 73.1791 60.8076L77.2688 58.4416C77.4293 58.3468 77.5463 58.193 77.5947 58.013C77.6431 57.8331 77.6191 57.6414 77.5279 57.4789L70.3799 45.054C70.3368 44.959 70.274 44.8742 70.1957 44.8053C70.1173 44.7364 70.0252 44.685 69.9255 44.6543C69.8121 44.6219 69.6925 44.6174 69.577 44.6411C69.4615 44.6648 69.3534 44.7161 69.262 44.7906L69.2393 44.7497ZM33.1586 32.402C31.6455 29.0389 30.9628 25.3617 31.1683 21.68H7.04333C5.80829 21.6872 4.62614 22.1819 3.75452 23.0564C2.8829 23.9309 2.39248 25.1142 2.39011 26.3485V32.402H33.1586ZM41.1155 57.983C40.1101 56.9736 38.9152 56.1727 37.5992 55.6262C36.2833 55.0797 34.8722 54.7983 33.4472 54.7983C32.0221 54.7983 30.6111 55.0797 29.2952 55.6262C27.9792 56.1727 26.7842 56.9736 25.7789 57.983C23.7421 60.0258 22.5985 62.7921 22.5985 65.6759C22.5985 68.5597 23.7421 71.326 25.7789 73.3688C26.7842 74.3781 27.9792 75.1791 29.2952 75.7256C30.6111 76.2721 32.0221 76.5535 33.4472 76.5535C34.8722 76.5535 36.2833 76.2721 37.5992 75.7256C38.9152 75.1791 40.1101 74.3781 41.1155 73.3688C43.1497 71.3297 44.2939 68.569 44.2982 65.6897C44.3025 62.8103 43.1664 60.0462 41.1382 58.0011L41.1155 57.983ZM8.02033 41.9205C7.69934 41.9193 7.39192 41.791 7.16536 41.5638C6.93881 41.3365 6.81157 41.0288 6.81157 40.708C6.81097 40.549 6.84179 40.3914 6.90226 40.2443C6.96274 40.0972 7.05173 39.9635 7.16403 39.8509C7.27633 39.7382 7.40976 39.6488 7.55671 39.5878C7.70366 39.5268 7.86121 39.4955 8.02033 39.4955H32.1044C32.2631 39.496 32.4202 39.5279 32.5666 39.5891C32.7131 39.6504 32.8459 39.7399 32.9578 39.8525C33.0696 39.9651 33.1581 40.0985 33.2183 40.2453C33.2785 40.3921 33.3092 40.5493 33.3086 40.708C33.3092 40.8666 33.2785 41.0238 33.2183 41.1706C33.1581 41.3174 33.0696 41.4509 32.9578 41.5635C32.8459 41.6761 32.7131 41.7655 32.5666 41.8268C32.4202 41.8881 32.2631 41.9199 32.1044 41.9205H8.02033ZM50.2083 59.8222C50.0492 59.8222 49.8917 59.7908 49.7447 59.7298C49.5978 59.6688 49.4643 59.5794 49.352 59.4668C49.2397 59.3541 49.1508 59.2204 49.0903 59.0733C49.0298 58.9262 48.999 58.7687 48.9996 58.6097C49.0008 58.2897 49.1285 57.9831 49.355 57.7568C49.5814 57.5305 49.8881 57.4029 50.2083 57.4017H58.2106C58.5296 57.4041 58.8347 57.5324 59.0595 57.7587C59.2842 57.985 59.4103 58.2909 59.4103 58.6097C59.4115 58.9293 59.2859 59.2363 59.0611 59.4636C58.8362 59.6908 58.5304 59.8198 58.2106 59.8222H50.2083ZM8.02033 59.8222C7.86104 59.8228 7.70321 59.7918 7.55599 59.731C7.40876 59.6703 7.27507 59.5809 7.16264 59.4681C7.05022 59.3553 6.96131 59.2214 6.90104 59.074C6.84078 58.9267 6.81037 58.7688 6.81157 58.6097C6.81157 58.2893 6.93895 57.982 7.16564 57.7555C7.39232 57.5289 7.69975 57.4017 8.02033 57.4017H15.6681C15.9884 57.4029 16.2951 57.5305 16.5216 57.7568C16.748 57.9831 16.8757 58.2897 16.8769 58.6097C16.8769 58.9305 16.7497 59.2382 16.5232 59.4654C16.2966 59.6927 15.9891 59.821 15.6681 59.8222H8.02033ZM45.0007 51.5207C44.6809 51.5195 44.3747 51.3917 44.149 51.1653C43.9233 50.9389 43.7965 50.6323 43.7965 50.3127C43.7959 50.1541 43.8266 49.9969 43.8868 49.8501C43.947 49.7033 44.0356 49.5699 44.1474 49.4573C44.2592 49.3447 44.3921 49.2552 44.5385 49.1939C44.6849 49.1327 44.842 49.1008 45.0007 49.1002H58.2106C58.5304 49.1026 58.8362 49.2316 59.0611 49.4588C59.2859 49.6861 59.4115 49.9931 59.4103 50.3127C59.4109 50.4708 59.3803 50.6274 59.3203 50.7736C59.2604 50.9199 59.1722 51.0529 59.0608 51.165C58.9494 51.2772 58.817 51.3664 58.6711 51.4274C58.5252 51.4884 58.3687 51.5201 58.2106 51.5207H45.0007ZM8.02033 51.5207C7.86143 51.5213 7.70396 51.4905 7.55704 51.43C7.41012 51.3695 7.27661 51.2805 7.16425 51.1683C7.05189 51.056 6.96291 50.9226 6.90237 50.7757C6.84184 50.6289 6.81097 50.4715 6.81157 50.3127C6.81037 50.1536 6.84078 49.9957 6.90104 49.8484C6.96131 49.701 7.05022 49.5671 7.16264 49.4543C7.27507 49.3415 7.40876 49.2522 7.55599 49.1914C7.70321 49.1306 7.86104 49.0996 8.02033 49.1002H19.4125C19.7335 49.1014 20.041 49.2297 20.2676 49.457C20.4941 49.6842 20.6213 49.9919 20.6213 50.3127C20.6201 50.6328 20.4924 50.9393 20.2659 51.1656C20.0395 51.3919 19.7327 51.5195 19.4125 51.5207H8.02033Z" fill="#EDF900"/>
</g>
</g>
<defs>
<clipPath id="clip0_333_745">
<rect width="80" height="79" fill="white"/>
</clipPath>
</defs>
</svg>
