<svg width="455" height="586" viewBox="0 0 455 586" fill="none" xmlns="http://www.w3.org/2000/svg">
<path d="M366.762 105.927C321.082 56.5556 259.084 25.3975 192.227 18.2108C125.37 11.024 58.1721 28.2944 3.05301 66.8301L97.929 104.294L82.7473 180.944C110.316 161.67 143.925 153.033 177.364 156.627C210.804 160.222 241.812 175.806 264.659 200.499L333.469 178.98L366.762 105.927Z" fill="#EDF900"/>
<path d="M382.18 466.17C420.102 417.409 440.742 357.416 440.853 295.631C440.964 233.847 420.539 173.78 382.793 124.883L347.507 198.851L272.677 209.98C291.556 234.436 301.772 264.48 301.717 295.381C301.661 326.283 291.338 356.289 272.371 380.678L288.085 450.463L382.18 466.17Z" fill="#31BD2A"/>
<path d="M15.4276 531.602C67.8565 564.244 129.645 578.517 191.069 572.174C252.494 565.831 310.066 539.233 354.727 496.565L268.573 469.6L258.64 395.88C236.303 417.221 207.507 430.524 176.785 433.696C146.063 436.869 115.159 429.73 88.9365 413.404L12.8931 453.828L15.4276 531.602Z" fill="#EDF900"/>
</svg>
