<svg width="80" height="82" viewBox="0 0 80 82" fill="none" xmlns="http://www.w3.org/2000/svg">
<mask id="mask0_1565_2111" style="mask-type:luminance" maskUnits="userSpaceOnUse" x="51" y="53" width="29" height="29">
<path d="M51.9265 53.7433H79.9999V81.2948H51.9265V53.7433Z" fill="white"/>
</mask>
<g mask="url(#mask0_1565_2111)">
<path fill-rule="evenodd" clip-rule="evenodd" d="M73.4957 81.2948C71.8168 81.2948 70.187 80.6823 68.8824 79.51C68.8332 79.4608 68.8332 79.4609 68.8332 79.4609L53.1175 63.6242C52.6978 63.2045 52.6978 62.4974 53.1175 62.0738L60.9073 54.2728C61.327 53.853 62.0266 53.853 62.4464 54.2728L78.162 70.064C78.162 70.1094 78.162 70.1094 78.162 70.1094C80.5859 72.7413 80.5859 76.829 78.162 79.4155C78.162 79.4609 78.162 79.4608 78.1129 79.51C76.8083 80.6823 75.1747 81.2948 73.4957 81.2948ZM70.3722 77.9105C72.1457 79.51 74.8495 79.51 76.623 77.9105C78.2074 76.1256 78.2074 73.3992 76.623 71.6144L61.6976 56.5756L55.4507 62.8755L70.3722 77.9105Z" fill="#EDF900"/>
</g>
<mask id="mask1_1565_2111" style="mask-type:luminance" maskUnits="userSpaceOnUse" x="0" y="0" width="61" height="62">
<path d="M0 0.705078H60.6392V61.4878H0V0.705078Z" fill="white"/>
</mask>
<g mask="url(#mask1_1565_2111)">
<path fill-rule="evenodd" clip-rule="evenodd" d="M30.3614 61.4651C22.3863 61.4651 14.831 58.3152 9.13992 52.677C3.54339 46.9444 0.419922 39.3324 0.419922 31.2968C0.419922 23.2613 3.54339 15.6493 9.13992 9.91664C14.831 4.27475 22.3863 1.1286 30.3614 1.1286C38.3364 1.1286 45.888 4.27475 51.579 9.91664C57.1755 15.6493 60.299 23.2613 60.299 31.2968C60.299 39.3324 57.1755 46.9444 51.579 52.677C45.888 58.3152 38.3364 61.4651 30.3614 61.4651ZM10.679 11.467C0.000182092 22.4143 0.000182092 40.1756 10.679 51.1267C16.0902 56.4849 23.2258 59.2076 30.3614 59.2076C37.4969 59.2076 44.5834 56.4849 50.04 51.1267C60.7188 40.1756 60.7188 22.4143 49.9946 11.467C39.1759 0.705082 21.5468 0.705082 10.679 11.467Z" fill="#EDF900"/>
</g>
<path fill-rule="evenodd" clip-rule="evenodd" d="M43.6493 46.5663H17.0695C16.4645 46.5663 15.9956 46.0974 15.9956 45.4886C15.9956 44.876 16.4645 44.3579 17.0695 44.3579H43.6493C44.2581 44.3579 44.7232 44.876 44.7232 45.4886C44.7232 46.0974 44.2581 46.5663 43.6493 46.5663Z" fill="#EDF900"/>
<path fill-rule="evenodd" clip-rule="evenodd" d="M23.3654 42.4331H19.2587C18.6537 42.4331 18.1394 41.9151 18.1394 41.3063V27.7725C18.1394 27.1599 18.6537 26.691 19.2587 26.691H23.3654C23.9704 26.691 24.4355 27.1599 24.4355 27.7725V41.3063C24.4355 41.9151 23.9704 42.4331 23.3654 42.4331ZM20.3326 40.2248H22.246V28.854H20.3326V40.2248Z" fill="#EDF900"/>
<path fill-rule="evenodd" clip-rule="evenodd" d="M32.3658 42.3386H28.2629C27.6541 42.3386 27.189 41.8697 27.189 41.2571V22.1344C27.189 21.5218 27.6541 21.0529 28.2629 21.0529H32.3658C32.9708 21.0529 33.4397 21.5218 33.4397 22.1344V41.2571C33.4397 41.8697 32.9708 42.3386 32.3658 42.3386ZM29.333 40.1756H31.2918V23.2121H29.333V40.1756Z" fill="#EDF900"/>
<path fill-rule="evenodd" clip-rule="evenodd" d="M41.365 42.3839H37.2622C36.6571 42.3839 36.1882 41.915 36.1882 41.3062V17.2942C36.1882 16.6816 36.6571 16.1635 37.2622 16.1635H41.365C41.9738 16.1635 42.4843 16.6816 42.4843 17.2942V41.3062C42.4843 41.915 41.9738 42.3839 41.365 42.3839ZM38.3815 40.2247H40.2949V18.3719H38.3815V40.2247Z" fill="#EDF900"/>
</svg>
