<svg width="80" height="89" viewBox="0 0 80 89" fill="none" xmlns="http://www.w3.org/2000/svg">
<mask id="mask0_1565_2133" style="mask-type:luminance" maskUnits="userSpaceOnUse" x="0" y="0" width="80" height="89">
<path d="M0 0H80V88.1633H0V0Z" fill="white"/>
</mask>
<g mask="url(#mask0_1565_2133)">
<path fill-rule="evenodd" clip-rule="evenodd" d="M6.62689 20.788C5.94945 21.2416 5.13596 21.5023 4.26011 21.5023C1.9075 21.5023 -0.00292969 19.6061 -0.00292969 17.2648C-0.00292969 14.9264 1.9075 13.0273 4.26011 13.0273C6.60988 13.0273 8.52031 14.9264 8.52031 17.2648C8.52031 17.8289 8.40977 18.3646 8.20852 18.8578L11.5702 21.5789H24.0957C24.1496 21.5137 24.2063 21.4513 24.2686 21.3889L26.9699 18.7047C27.9478 17.7296 29.5351 17.7296 30.5129 18.7047C30.5214 18.7132 30.53 18.7217 30.5385 18.7302V13.0584L27.755 8.37874C27.3837 8.48361 26.9925 8.5403 26.5872 8.5403C24.2346 8.5403 22.327 6.64121 22.327 4.30277C22.327 1.96434 24.2346 0.0652466 26.5872 0.0652466C28.9398 0.0652466 30.8474 1.96434 30.8474 4.30277C30.8474 5.33452 30.4761 6.28407 29.8582 7.01819L32.8684 12.0834C32.9846 12.2761 33.0441 12.4916 33.0441 12.7155V19.538C34.3962 19.334 35.5866 18.2172 35.5866 16.6129C35.5866 15.2381 36.7091 14.1214 38.0923 14.1214H41.9103C43.2936 14.1214 44.416 15.2381 44.416 16.6129C44.416 18.2172 45.6036 19.334 46.9585 19.538V12.7155C46.9585 12.4916 47.018 12.2761 47.1314 12.0834L50.1445 7.01819C49.5266 6.28407 49.1524 5.33452 49.1524 4.30277C49.1524 1.96434 51.0628 0.0652466 53.4154 0.0652466C55.7652 0.0652466 57.6756 1.96434 57.6756 4.30277C57.6756 6.64121 55.7652 8.5403 53.4154 8.5403C53.0101 8.5403 52.6161 8.48361 52.2448 8.37874L49.4614 13.0584V18.7302C49.4727 18.7217 49.4812 18.7132 49.4897 18.7047C50.4676 17.7325 52.0577 17.7325 53.0356 18.7047L55.734 21.3889C55.7936 21.4513 55.8502 21.5137 55.9041 21.5789H68.4296L71.7913 18.8578C71.5929 18.3646 71.4823 17.8289 71.4823 17.2648C71.4823 14.9264 73.3899 13.0273 75.7425 13.0273C78.0951 13.0273 80.0027 14.9264 80.0027 17.2648C80.0027 19.6061 78.0951 21.5023 75.7425 21.5023C74.8667 21.5023 74.0504 21.2416 73.3729 20.788L69.6654 23.7897C69.4415 23.9711 69.1637 24.0675 68.8746 24.0675H56.2924C56.1705 24.3765 55.9835 24.6656 55.734 24.9122C53.8633 26.7744 55.1898 29.9604 57.8344 29.9604C59.2233 29.9604 60.34 31.0772 60.34 32.4519V33.1066H70.7C71.2357 31.3748 72.857 30.1134 74.7731 30.1134C77.1258 30.1134 79.0334 32.0125 79.0334 34.351C79.0334 36.6894 77.1258 38.5885 74.7731 38.5885C72.857 38.5885 71.2357 37.3272 70.7 35.5953H60.34V36.2501C60.34 37.6248 59.2233 38.7416 57.8344 38.7416C55.1898 38.7416 53.8633 41.9275 55.734 43.7869C55.9835 44.0363 56.1705 44.3255 56.2924 44.6344H68.8746C69.1637 44.6344 69.4415 44.7308 69.6654 44.9122L73.3729 47.9139C74.0504 47.4604 74.8667 47.1968 75.7425 47.1968C78.0951 47.1968 80.0027 49.0959 80.0027 51.4371C80.0027 53.7756 78.0951 55.6747 75.7425 55.6747C73.3899 55.6747 71.4823 53.7756 71.4823 51.4371C71.4823 50.8731 71.5929 50.3374 71.7913 49.8442L68.4296 47.1231H55.9069C55.8531 47.1911 55.7936 47.2535 55.734 47.313L53.0356 49.9972C52.0577 50.9694 50.4676 50.9694 49.4897 49.9972C49.0815 49.5919 48.611 49.334 48.1207 49.2121C47.4517 49.0448 47.0436 48.3674 47.2136 47.7013C47.3809 47.0352 48.0611 46.6299 48.7329 46.7971C49.6343 47.021 50.5073 47.4887 51.2612 48.237H51.2641L53.9625 45.5528V45.5499C50.5158 42.1231 52.9619 36.2501 57.8344 36.2501C57.8372 36.2501 57.8372 36.2501 57.8372 36.2501V32.4519C57.8372 32.4519 57.8372 32.4519 57.8344 32.4519C52.9619 32.4519 50.5158 26.5789 53.9625 23.152L51.2641 20.4649C51.2612 20.4649 51.2612 20.4649 51.2612 20.4649C47.8145 23.8918 41.9103 21.4626 41.9103 16.6129H38.0923H38.0895C38.0895 21.4626 32.1881 23.8918 28.7414 20.4649H28.7386L26.0373 23.152C29.484 26.5789 27.0407 32.4519 22.1654 32.4519V36.2501C27.0407 36.2501 29.484 42.1231 26.0373 45.5499V45.5528L28.7386 48.237H28.7414C29.9177 47.0664 31.3803 46.5817 32.7947 46.6384C33.4863 46.6639 34.0248 47.245 33.9993 47.9309C33.971 48.6168 33.3871 49.1525 32.6983 49.127C31.933 49.0987 31.1479 49.368 30.5129 49.9972C29.5351 50.9723 27.9478 50.9723 26.9699 50.0001L24.2686 47.313C24.2063 47.2535 24.1496 47.1911 24.0957 47.1231H11.5702L8.20852 49.8442C8.40977 50.3374 8.52031 50.8731 8.52031 51.4371C8.52031 53.7756 6.60988 55.6747 4.26011 55.6747C1.9075 55.6747 -0.00292969 53.7756 -0.00292969 51.4371C-0.00292969 49.0959 1.9075 47.1968 4.26011 47.1968C5.13596 47.1968 5.94945 47.4604 6.62689 47.9139L10.3344 44.9122C10.5583 44.7308 10.8389 44.6344 11.1252 44.6344H23.7102C23.8321 44.3255 24.0192 44.0363 24.2686 43.7869C26.1394 41.9275 24.8128 38.7416 22.1654 38.7416C20.7822 38.7416 19.6598 37.6248 19.6598 36.2501V35.5953H9.30263C8.76691 37.3272 7.14276 38.5885 5.22666 38.5885C2.87689 38.5885 0.966458 36.6894 0.966458 34.351C0.966458 32.0125 2.87689 30.1134 5.22666 30.1134C7.14276 30.1134 8.76691 31.3748 9.30263 33.1066H19.6598V32.4519C19.6598 31.0772 20.7822 29.9604 22.1654 29.9604C24.8128 29.9604 26.1394 26.7744 24.2686 24.9122C24.0192 24.6656 23.8321 24.3765 23.7102 24.0675H11.1252C10.8389 24.0675 10.5583 23.9711 10.3344 23.7897L6.62689 20.788ZM74.7731 36.097C75.7425 36.097 76.5305 35.3147 76.5305 34.351C76.5305 33.3872 75.7425 32.6049 74.7731 32.6049C73.8038 32.6049 73.0158 33.3872 73.0158 34.351C73.0158 35.3147 73.8038 36.097 74.7731 36.097ZM26.5872 2.55391C25.6178 2.55391 24.8298 3.33906 24.8298 4.30277C24.8298 5.26649 25.6178 6.04881 26.5872 6.04881C27.5566 6.04881 28.3446 5.26649 28.3446 4.30277C28.3446 3.33906 27.5566 2.55391 26.5872 2.55391ZM75.7425 19.0137C76.7119 19.0137 77.4999 18.2313 77.4999 17.2648C77.4999 16.3011 76.7119 15.5188 75.7425 15.5188C74.7731 15.5188 73.9852 16.3011 73.9852 17.2648C73.9852 18.2313 74.7731 19.0137 75.7425 19.0137ZM75.7425 49.6883C74.7731 49.6883 73.9852 50.4706 73.9852 51.4371C73.9852 52.4008 74.7731 53.1832 75.7425 53.1832C76.7119 53.1832 77.4999 52.4008 77.4999 51.4371C77.4999 50.4706 76.7119 49.6883 75.7425 49.6883ZM4.26011 19.0137C5.2295 19.0137 6.01464 18.2313 6.01464 17.2648C6.01464 16.3011 5.2295 15.5188 4.26011 15.5188C3.29072 15.5188 2.50274 16.3011 2.50274 17.2648C2.50274 18.2313 3.29072 19.0137 4.26011 19.0137ZM53.4154 2.55391C52.4432 2.55391 51.6581 3.33906 51.6581 4.30277C51.6581 5.26649 52.4432 6.04881 53.4154 6.04881C54.3848 6.04881 55.17 5.26649 55.17 4.30277C55.17 3.33906 54.3848 2.55391 53.4154 2.55391ZM5.22666 36.097C6.19888 36.097 6.98403 35.3147 6.98403 34.351C6.98403 33.3872 6.19888 32.6049 5.22666 32.6049C4.25728 32.6049 3.47213 33.3872 3.47213 34.351C3.47213 35.3147 4.25728 36.097 5.22666 36.097ZM4.26011 49.6883C3.29072 49.6883 2.50274 50.4706 2.50274 51.4371C2.50274 52.4008 3.29072 53.1832 4.26011 53.1832C5.2295 53.1832 6.01464 52.4008 6.01464 51.4371C6.01464 50.4706 5.2295 49.6883 4.26011 49.6883ZM48.7697 39.949C48.3956 40.5273 47.619 40.6945 47.0379 40.3204C46.4568 39.949 46.2896 39.1781 46.6637 38.5998C47.4602 37.3725 47.9222 35.9128 47.9222 34.351C47.9222 30.0142 44.3622 26.4768 40.0027 26.4768C35.6377 26.4768 32.0832 30.0142 32.0832 34.351C32.0832 36.0857 32.653 37.6928 33.6138 38.9967C34.0248 39.5522 33.903 40.3317 33.3474 40.7399C32.789 41.1452 32.0039 41.0261 31.5957 40.4734C30.3287 38.7557 29.5776 36.6384 29.5776 34.351C29.5776 28.6395 34.2601 23.9853 40.0027 23.9853C45.7425 23.9853 50.4251 28.6395 50.4251 34.351C50.4251 36.4116 49.8157 38.3334 48.7697 39.949ZM53.1887 54.1979C54.0929 52.826 55.4704 51.8595 57.3724 51.8595C59.2998 51.8623 60.6887 52.86 61.5929 54.2631C62.4999 52.8544 63.8945 51.8595 65.7992 51.8595C68.8066 51.8595 71.2697 54.3084 71.2697 57.2988L71.3718 69.9094C71.3718 69.9434 71.3718 69.9745 71.369 70.0086C70.5555 81.5222 62.5368 87.7183 52.4659 87.9507C46.2471 88.0953 40.5583 85.6747 35.666 82.5709C30.9324 79.5692 26.9585 75.9383 23.9937 73.5488C22.2165 72.1146 21.3803 70.5103 21.1961 68.9626C21.009 67.3668 21.5135 65.7994 22.5481 64.4643C24.5861 61.8283 27.9279 61.4485 31.009 63.1633L35.0056 65.2523L34.6881 36.5987C34.6881 36.5959 34.6881 36.5902 34.6881 36.5874C34.6881 33.5942 37.1541 31.148 40.1615 31.148H40.1643C43.1688 31.1508 45.6263 33.597 45.632 36.5817L45.8616 52.9054C46.6552 52.262 47.67 51.8595 48.937 51.8595C50.9608 51.8623 52.327 52.8487 53.1887 54.1979ZM62.8372 58.6905V58.7104C62.8344 59.3963 62.276 59.9547 61.5844 59.9547C60.8928 59.9547 60.3315 59.3963 60.3315 58.7104V58.6905C60.3315 57.7467 60.0878 56.6015 59.5351 55.6888C59.0759 54.9377 58.3843 54.351 57.3695 54.3481C56.3576 54.351 55.6632 54.9349 55.204 55.686C54.6484 56.5959 54.4047 57.7438 54.4047 58.6905V58.7104C54.4018 59.3963 53.8434 59.9547 53.1518 59.9547C52.4602 59.9547 51.9018 59.3963 51.899 58.7104V58.6877C51.899 57.7382 51.7119 56.5845 51.179 55.669C50.7397 54.9179 50.0311 54.351 48.9341 54.3481C47.8344 54.351 47.1258 54.949 46.6807 55.7257C46.1337 56.6809 45.9409 57.8799 45.9438 58.8408C45.9495 59.5267 45.3939 60.0851 44.7051 60.0936C44.0163 60.0993 43.4495 59.5522 43.4409 58.8663L43.1263 36.61C43.1263 36.6044 43.1263 36.5987 43.1263 36.593C43.1263 34.9689 41.7941 33.6423 40.1615 33.6395C38.5345 33.6395 37.1966 34.9604 37.1938 36.5789L37.5339 67.313C37.5368 67.7523 37.31 68.1605 36.933 68.3901C36.5589 68.6168 36.0883 68.6338 35.6972 68.4298L29.8298 65.36C29.8185 65.3544 29.81 65.3487 29.7987 65.343C27.8882 64.2773 25.7964 64.351 24.5322 65.9836C23.9115 66.7858 23.5713 67.7126 23.6847 68.6707C23.8038 69.6769 24.4132 70.6803 25.5696 71.6129C28.4778 73.957 32.3695 77.5256 37.0124 80.4706C41.4993 83.3192 46.7006 85.5925 52.4064 85.4621C61.1649 85.258 68.1405 79.881 68.8661 69.881L68.7641 57.313C68.7641 57.3101 68.7641 57.3073 68.7641 57.3016C68.7669 55.6803 67.4319 54.3481 65.7992 54.3481C64.8015 54.3481 64.1099 54.9405 63.6479 55.6888C63.0895 56.5987 62.8372 57.7467 62.8372 58.6905Z" fill="#EDF900"/>
</g>
</svg>
