<svg width="80" height="59" viewBox="0 0 80 59" fill="none" xmlns="http://www.w3.org/2000/svg">
<mask id="mask0_1565_2099" style="mask-type:luminance" maskUnits="userSpaceOnUse" x="0" y="0" width="80" height="59">
<path d="M0 0.470459H80V58.5294H0V0.470459Z" fill="white"/>
</mask>
<g mask="url(#mask0_1565_2099)">
<path d="M62.1594 0.296021H17.4955C7.74544 0.296021 -0.184814 8.27532 -0.184814 18.0826V40.5466C-0.184814 50.3512 7.74544 58.3305 17.4955 58.3305H23.3036C28.1636 58.3305 32.3835 54.8516 33.3397 50.0515L33.5658 48.9182C34.1242 46.1068 36.1702 43.9138 38.6492 43.4616C42.0845 42.8323 45.3127 45.0198 45.9965 48.436L46.3152 50.0515C47.2687 54.8489 51.4885 58.3305 56.3513 58.3305H62.1621C71.9094 58.3305 79.8424 50.3512 79.8424 40.5466V18.0826C79.8424 8.27532 71.9094 0.296021 62.1621 0.296021H62.1594ZM74.2577 40.5466C74.2577 47.2564 68.8311 52.7131 62.1594 52.7131H56.3513C54.142 52.7131 52.2241 51.133 51.7909 48.9536L51.4695 47.3354C50.3335 41.6254 45.4462 37.7352 39.8615 37.7352C39.1341 37.7352 38.3959 37.8006 37.6549 37.9368C32.9392 38.795 29.098 42.7642 28.0901 47.8176L27.8639 48.9509C27.4281 51.1303 25.5129 52.7131 23.3036 52.7131H17.4955C10.8238 52.7131 5.39715 47.2564 5.39715 40.5466V18.0826C5.39715 11.3728 10.8238 5.9134 17.4955 5.9134H62.1594C68.8311 5.9134 74.2577 11.3728 74.2577 18.0826V40.5466ZM21.2168 15.2739C15.5722 15.2739 10.9818 19.8915 10.9818 25.5688C10.9818 31.2488 15.5722 35.8664 21.2168 35.8664C26.8614 35.8664 31.4518 31.2488 31.4518 25.5688C31.4518 19.8915 26.8614 15.2739 21.2168 15.2739ZM21.2168 30.249C18.6506 30.249 16.5638 28.1514 16.5638 25.5688C16.5638 22.9889 18.6506 20.8885 21.2168 20.8885C23.783 20.8885 25.8698 22.9889 25.8698 25.5688C25.8698 28.1514 23.783 30.249 21.2168 30.249ZM58.4381 15.2739C52.7935 15.2739 48.2031 19.8915 48.2031 25.5688C48.2031 31.2488 52.7935 35.8664 58.4381 35.8664C64.0827 35.8664 68.6758 31.2488 68.6758 25.5688C68.6758 19.8915 64.0827 15.2739 58.4381 15.2739ZM58.4381 30.249C55.8718 30.249 53.7851 28.1514 53.7851 25.5688C53.7851 22.9889 55.8718 20.8885 58.4381 20.8885C61.0043 20.8885 63.0911 22.9889 63.0911 25.5688C63.0911 28.1514 61.0043 30.249 58.4381 30.249Z" fill="#EDF900"/>
</g>
</svg>
