<svg width="462" height="24" viewBox="0 0 462 24" fill="none" xmlns="http://www.w3.org/2000/svg">
<path d="M0.939331 10.9393C0.353546 11.5251 0.353546 12.4749 0.939331 13.0607L10.4853 22.6066C11.0711 23.1924 12.0208 23.1924 12.6066 22.6066C13.1924 22.0208 13.1924 21.0711 12.6066 20.4853L4.12131 12L12.6066 3.51472C13.1924 2.92893 13.1924 1.97919 12.6066 1.3934C12.0208 0.807611 11.0711 0.807611 10.4853 1.3934L0.939331 10.9393ZM462 12V10.5H458.974V12V13.5H462V12ZM452.921 12V10.5H446.868V12V13.5H452.921V12ZM440.816 12V10.5H434.763V12V13.5H440.816V12ZM428.711 12V10.5L422.658 10.5V12V13.5L428.711 13.5V12ZM416.605 12V10.5L410.553 10.5V12V13.5L416.605 13.5V12ZM404.5 12V10.5H398.447V12V13.5H404.5V12ZM392.395 12V10.5H386.342V12V13.5H392.395V12ZM380.289 12V10.5H374.237V12V13.5H380.289V12ZM368.184 12V10.5L362.132 10.5V12V13.5L368.184 13.5V12ZM356.079 12V10.5L350.026 10.5V12V13.5L356.079 13.5V12ZM343.974 12V10.5H337.921V12V13.5H343.974V12ZM331.868 12V10.5H325.816V12V13.5H331.868V12ZM319.763 12V10.5H313.711V12V13.5H319.763V12ZM307.658 12V10.5H301.605V12V13.5H307.658V12ZM295.553 12V10.5H289.5V12V13.5H295.553V12ZM283.447 12V10.5L277.395 10.5V12V13.5L283.447 13.5V12ZM271.342 12V10.5L265.29 10.5V12V13.5L271.342 13.5V12ZM259.237 12V10.5H253.184V12V13.5H259.237V12ZM247.132 12V10.5H241.079V12V13.5H247.132V12ZM235.026 12V10.5H228.974V12V13.5H235.026V12ZM222.921 12V10.5L216.869 10.5V12V13.5L222.921 13.5V12ZM210.816 12V10.5L204.763 10.5V12V13.5L210.816 13.5V12ZM198.711 12V10.5L192.658 10.5V12V13.5L198.711 13.5V12ZM186.605 12V10.5H180.553V12V13.5H186.605V12ZM174.5 12V10.5H168.447V12V13.5H174.5V12ZM162.395 12V10.5H156.342V12V13.5H162.395V12ZM150.289 12V10.5H144.237V12V13.5H150.289V12ZM138.184 12V10.5L132.132 10.5V12V13.5L138.184 13.5V12ZM126.079 12V10.5L120.026 10.5V12V13.5L126.079 13.5V12ZM113.974 12V10.5H107.921V12V13.5H113.974V12ZM101.868 12V10.5H95.8157V12V13.5H101.868V12ZM89.7631 12V10.5H83.7104V12V13.5H89.7631V12ZM77.6578 12V10.5L71.6051 10.5V12V13.5L77.6578 13.5V12ZM65.5525 12V10.5L59.4998 10.5V12V13.5L65.5525 13.5V12ZM53.4472 12V10.5L47.3946 10.5V12V13.5L53.4472 13.5V12ZM41.3419 12V10.5H35.2892V12V13.5H41.3419V12ZM29.2366 12V10.5H23.184V12V13.5H29.2366V12ZM17.1313 12V10.5H11.0787V12V13.5H17.1313V12ZM5.02606 12V10.5H2V12V13.5H5.02606V12Z" fill="white"/>
</svg>
