<svg width="221" height="23" viewBox="0 0 221 23" fill="none" xmlns="http://www.w3.org/2000/svg">
<path d="M0.939331 10.4393C0.353546 11.0251 0.353546 11.9749 0.939331 12.5607L10.4853 22.1066C11.0711 22.6924 12.0208 22.6924 12.6066 22.1066C13.1924 21.5208 13.1924 20.5711 12.6066 19.9853L4.12131 11.5L12.6066 3.01472C13.1924 2.42893 13.1924 1.47919 12.6066 0.893398C12.0208 0.307611 11.0711 0.307611 10.4853 0.893398L0.939331 10.4393ZM221 11.5V10H217.958V11.5V13H221V11.5ZM211.875 11.5V10H205.792V11.5V13H211.875V11.5ZM199.708 11.5V10H193.625V11.5V13H199.708V11.5ZM187.542 11.5V10L181.458 10V11.5V13L187.542 13V11.5ZM175.375 11.5V10L169.292 10V11.5V13L175.375 13V11.5ZM163.208 11.5V10H157.125V11.5V13H163.208V11.5ZM151.042 11.5V10H144.958V11.5V13H151.042V11.5ZM138.875 11.5V10H132.792V11.5V13H138.875V11.5ZM126.708 11.5V10L120.625 10V11.5V13L126.708 13V11.5ZM114.542 11.5V10L108.458 10V11.5V13L114.542 13V11.5ZM102.375 11.5V10L96.2916 10V11.5V13L102.375 13V11.5ZM90.2083 11.5V10H84.125V11.5V13H90.2083V11.5ZM78.0416 11.5V10H71.9583V11.5V13H78.0416V11.5ZM65.875 11.5V10H59.7917V11.5V13H65.875V11.5ZM53.7083 11.5V10H47.625V11.5V13H53.7083V11.5ZM41.5417 11.5V10L35.4584 10V11.5V13L41.5417 13V11.5ZM29.375 11.5V10L23.2917 10V11.5V13L29.375 13V11.5ZM17.2084 11.5V10H11.125V11.5V13H17.2084V11.5ZM5.04172 11.5V10H2V11.5V13H5.04172V11.5Z" fill="white"/>
</svg>
