<svg width="178" height="23" viewBox="0 0 178 23" fill="none" xmlns="http://www.w3.org/2000/svg">
<path d="M0.939346 10.021C0.353561 10.6068 0.353561 11.5565 0.939346 12.1423L10.4853 21.6883C11.0711 22.2741 12.0208 22.2741 12.6066 21.6883C13.1924 21.1025 13.1924 20.1527 12.6066 19.5669L4.12132 11.0817L12.6066 2.59638C13.1924 2.0106 13.1924 1.06085 12.6066 0.475063C12.0208 -0.110723 11.0711 -0.110723 10.4853 0.475063L0.939346 10.021ZM178 11.0817V9.58167H175.067V11.0817V12.5817H178V11.0817ZM169.2 11.0817V9.58167H163.333V11.0817V12.5817H169.2V11.0817ZM157.467 11.0817V9.58167L151.6 9.58167V11.0817V12.5817L157.467 12.5817V11.0817ZM145.733 11.0817V9.58167L139.867 9.58167V11.0817V12.5817L145.733 12.5817V11.0817ZM134 11.0817V9.58167L128.133 9.58167V11.0817V12.5817L134 12.5817V11.0817ZM122.267 11.0817V9.58167H116.4V11.0817V12.5817H122.267V11.0817ZM110.533 11.0817V9.58167H104.667V11.0817V12.5817H110.533V11.0817ZM98.8 11.0817V9.58167H92.9333V11.0817V12.5817H98.8V11.0817ZM87.0667 11.0817V9.58167L81.2 9.58167V11.0817V12.5817L87.0667 12.5817V11.0817ZM75.3333 11.0817V9.58167L69.4666 9.58167V11.0817V12.5817L75.3333 12.5817V11.0817ZM63.6 11.0817V9.58167H57.7333V11.0817V12.5817H63.6V11.0817ZM51.8666 11.0817V9.58167H46V11.0817V12.5817H51.8666V11.0817ZM40.1333 11.0817V9.58167H34.2666V11.0817V12.5817H40.1333V11.0817ZM28.4 11.0817V9.58167L22.5333 9.58167V11.0817V12.5817L28.4 12.5817V11.0817ZM16.6666 11.0817V9.58167L10.8 9.58167V11.0817V12.5817L16.6666 12.5817V11.0817ZM4.93329 11.0817V9.58167H2V11.0817V12.5817H4.93329V11.0817Z" fill="white"/>
</svg>
