<svg width="154" height="142" viewBox="0 0 154 142" fill="none" xmlns="http://www.w3.org/2000/svg">
<mask id="mask0_501_4010" style="mask-type:luminance" maskUnits="userSpaceOnUse" x="0" y="0" width="154" height="142">
<path d="M0 0H154V141.122H0V0Z" fill="white"/>
</mask>
<g mask="url(#mask0_501_4010)">
<path fill-rule="evenodd" clip-rule="evenodd" d="M5.58096 15.7342C2.34748 14.6834 0.00830078 11.6428 0.00830078 8.05435C0.00830078 3.59958 3.61907 -0.0167847 8.06547 -0.0167847C12.5119 -0.0167847 16.1254 3.59958 16.1254 8.05435C16.1254 11.6428 13.7835 14.6834 10.55 15.7342V34.0312H21.6422V20.0213C21.6422 17.6821 22.5784 15.6783 24.3754 14.1804C26.1585 12.6824 28.2992 12.1207 30.5881 12.5287C30.5909 12.5315 30.5937 12.5315 30.5965 12.5315C45.8584 15.3094 59.0103 8.59094 75.9743 0.866345C76.6254 0.570105 77.3772 0.570105 78.0284 0.866345C94.9839 8.59094 108.136 15.3094 123.398 12.5315C123.401 12.5315 123.406 12.5315 123.409 12.5287C125.706 12.1207 127.833 12.6824 129.627 14.1776C129.627 14.1776 129.63 14.1804 129.633 14.1804C131.419 15.6783 132.355 17.6821 132.355 20.0213V34.0312H143.447V15.7342C140.214 14.6834 137.872 11.6428 137.872 8.05435C137.872 3.59958 141.482 -0.0167847 145.929 -0.0167847C150.378 -0.0167847 153.989 3.59958 153.989 8.05435C153.989 11.6428 151.647 14.6834 148.413 15.7342V36.5185C148.413 37.8935 147.301 39.0058 145.929 39.0058H132.355V59.3122H138.263C139.311 56.0732 142.349 53.7284 145.929 53.7284C150.378 53.7284 153.989 57.3475 153.989 61.7995C153.989 66.2543 150.378 69.8707 145.929 69.8707C142.349 69.8707 139.311 67.5259 138.263 64.2868H132.355V68.94C132.355 74.3366 131.681 79.5795 130.415 84.5932H145.929C147.301 84.5932 148.413 85.7083 148.413 87.0805V107.865C151.65 108.916 153.989 111.959 153.989 115.545C153.989 119.999 150.378 123.616 145.932 123.616C141.485 123.616 137.874 119.999 137.874 115.545C137.874 111.959 140.214 108.916 143.447 107.868V89.5678H128.943C125.36 100.073 119.125 109.374 111.045 116.663V124.655L120.754 128.115C122.227 126.201 124.541 124.963 127.143 124.963C131.589 124.963 135.2 128.579 135.2 133.034C135.2 137.489 131.589 141.105 127.143 141.105C122.694 141.105 119.083 137.489 119.083 133.034C119.083 132.956 119.086 132.88 119.086 132.802L107.731 128.753C106.741 128.4 106.079 127.461 106.079 126.411V120.718C97.7814 126.83 87.9804 131.002 77.3577 132.539C77.1201 132.576 76.8825 132.576 76.645 132.539C66.0195 131.002 56.2156 126.83 47.9181 120.715V126.411C47.9181 127.461 47.2586 128.4 46.2664 128.753L34.9115 132.802C34.9143 132.88 34.9143 132.956 34.9143 133.034C34.9143 137.489 31.3035 141.105 26.8543 141.105C22.4079 141.105 18.7972 137.489 18.7972 133.034C18.7972 128.579 22.4079 124.963 26.8543 124.963C29.4562 124.963 31.7702 126.201 33.2431 128.115L42.9519 124.655V116.663C34.8724 109.374 28.6346 100.073 25.0517 89.5678H10.55V107.868C13.7835 108.916 16.1254 111.959 16.1254 115.545C16.1254 119.999 12.5119 123.616 8.06547 123.616C3.61907 123.616 0.00830078 119.999 0.00830078 115.545C0.00830078 111.959 2.34748 108.916 5.58096 107.868V87.0805C5.58096 85.7083 6.69326 84.5932 8.06547 84.5932H23.5789C22.3157 79.5795 21.6422 74.3366 21.6422 68.94V64.2868H15.7342C14.6861 67.5259 11.6455 69.8707 8.06547 69.8707C3.61907 69.8707 0.00830078 66.2543 0.00830078 61.7995C0.00830078 57.3475 3.61907 53.7284 8.06547 53.7284C11.6455 53.7284 14.6861 56.0732 15.7342 59.3122H21.6422V39.0058H8.06547C6.69326 39.0058 5.58096 37.8935 5.58096 36.5185V15.7342ZM8.06547 11.1509C9.77304 11.1509 11.1564 9.76472 11.1564 8.05435C11.1564 6.34678 9.77304 4.95781 8.06547 4.95781C6.36069 4.95781 4.97451 6.34678 4.97451 8.05435C4.97451 9.76472 6.36069 11.1509 8.06547 11.1509ZM145.929 11.1509C147.636 11.1509 149.023 9.76472 149.023 8.05435C149.023 6.34678 147.636 4.95781 145.929 4.95781C144.224 4.95781 142.838 6.34678 142.838 8.05435C142.838 9.76472 144.224 11.1509 145.929 11.1509ZM142.838 61.7995C142.838 63.5099 144.224 64.8961 145.929 64.8961C147.636 64.8961 149.023 63.5099 149.023 61.7995C149.023 60.092 147.636 58.703 145.929 58.703C144.224 58.703 142.838 60.092 142.838 61.7995ZM145.929 112.451C144.224 112.451 142.841 113.837 142.841 115.545C142.841 117.255 144.227 118.641 145.932 118.641C147.636 118.641 149.023 117.255 149.023 115.545C149.023 113.837 147.636 112.451 145.932 112.451H145.929ZM8.06547 112.451C6.36069 112.451 4.97451 113.837 4.97451 115.545C4.97451 117.255 6.36069 118.641 8.06547 118.641C9.77304 118.641 11.1564 117.255 11.1564 115.545C11.1564 113.837 9.77304 112.451 8.06547 112.451ZM11.1564 61.7995C11.1564 60.092 9.77304 58.703 8.06547 58.703C6.36069 58.703 4.97451 60.092 4.97451 61.7995C4.97451 63.5099 6.36069 64.8961 8.06547 64.8961C9.77304 64.8961 11.1564 63.5099 11.1564 61.7995ZM127.143 129.937C125.435 129.937 124.049 131.326 124.049 133.034C124.049 134.742 125.435 136.131 127.143 136.131C128.847 136.131 130.234 134.742 130.234 133.034C130.234 131.326 128.847 129.937 127.143 129.937ZM26.8543 129.937C25.1496 129.937 23.7634 131.326 23.7634 133.034C23.7634 134.742 25.1496 136.131 26.8543 136.131C28.5619 136.131 29.9481 134.742 29.9481 133.034C29.9481 131.326 28.5619 129.937 26.8543 129.937ZM29.7161 17.4278C28.9224 17.2853 28.179 17.4753 27.5614 17.9952C27.5586 17.998 27.5558 17.998 27.5558 18.0007C26.9326 18.5178 26.6084 19.2109 26.6084 20.0213V68.94C26.6084 98.5556 48.5777 123.269 77.0027 127.565C105.419 123.269 127.386 98.5556 127.386 68.94V20.0213C127.386 19.2109 127.062 18.5178 126.444 17.9979C125.821 17.4781 125.08 17.2853 124.287 17.425C108.376 20.3232 94.5312 13.859 76.9999 5.8633C59.4659 13.859 45.6236 20.3204 29.7161 17.4278ZM78.0312 12.129C91.429 18.2467 104.718 24.1938 119.499 23.2995C120.181 23.2576 120.852 23.5007 121.349 23.9703C121.85 24.4398 122.132 25.0965 122.132 25.7812V68.94C122.132 95.1489 103.027 117.697 77.4275 122.163C77.1452 122.21 76.8574 122.21 76.5751 122.163C50.9699 117.697 31.8625 95.1489 31.8625 68.94V25.7812C31.8625 25.0965 32.1475 24.4398 32.645 23.9703C33.1425 23.5007 33.8132 23.2576 34.4979 23.2995C49.2847 24.1938 62.5736 18.2467 75.9715 12.129C76.6254 11.83 77.3772 11.83 78.0312 12.129ZM77.0027 17.1232C64.0017 23.0424 51.0258 28.5145 36.8315 28.358V68.94C36.8315 92.5889 53.9659 112.957 77.0027 117.185C100.028 112.957 117.166 92.5889 117.166 68.94V28.358C102.977 28.5145 90.0009 23.0424 77.0027 17.1232ZM96.4539 51.7413H97.7814C100.864 51.7413 103.362 54.2566 103.362 57.3308V90.4146C103.362 93.5 100.864 96.004 97.7814 96.004H56.2212C53.1414 96.004 50.6346 93.4972 50.6346 90.4146V57.3308C50.6346 54.2566 53.1414 51.7413 56.2212 51.7413H57.5403V47.0881C57.5403 36.3676 66.299 27.5978 77.0027 27.5978C87.7037 27.5978 96.4539 36.3676 96.4539 47.0881V51.7413ZM97.7814 56.7159H56.2212C55.8803 56.7159 55.6008 56.9898 55.6008 57.3308V90.4146C55.6008 90.7556 55.8803 91.0294 56.2212 91.0294H97.7814C98.1196 91.0294 98.3963 90.7528 98.3963 90.4146V57.3308C98.3963 56.9926 98.1196 56.7159 97.7814 56.7159ZM91.4877 51.7413V47.0881C91.4877 39.1036 84.9733 32.5724 77.0027 32.5724C69.0294 32.5724 62.5065 39.1036 62.5065 47.0881V51.7413H65.318V47.0881C65.318 40.6603 70.5944 35.3783 77.0027 35.3783C83.4082 35.3783 88.6846 40.6603 88.6846 47.0881V51.7413H91.4877ZM83.7184 51.7413V47.0881C83.7184 43.3907 80.6862 40.3529 77.0027 40.3529C73.3165 40.3529 70.2842 43.3907 70.2842 47.0881V51.7413H83.7184ZM77.0027 59.5805C81.7062 59.5805 85.5238 63.4065 85.5238 68.1212C85.5238 70.6672 84.4171 72.9504 82.6536 74.5127V82.5028C82.6536 85.6217 80.1049 88.1649 77.0027 88.1649C73.8866 88.1649 71.349 85.6217 71.349 82.5028V74.5127C69.5855 72.9504 68.4733 70.6672 68.4733 68.1212C68.4733 63.4093 72.2964 59.5805 77.0027 59.5805ZM77.0027 64.5523C75.038 64.5523 73.4395 66.1537 73.4395 68.1212C73.4395 69.4067 74.1186 70.5302 75.1358 71.1562C75.8681 71.609 76.3152 72.4111 76.3152 73.2746V82.5028C76.3152 82.8801 76.6226 83.1903 77.0027 83.1903C77.3772 83.1903 77.6874 82.8801 77.6874 82.5028V73.2746C77.6874 72.4111 78.1346 71.609 78.8668 71.1562C79.8841 70.5302 80.5548 69.4039 80.5548 68.1212C80.5548 66.1537 78.9646 64.5523 77.0027 64.5523Z" fill="#EDF900"/>
</g>
</svg>
