<svg width="154" height="155" viewBox="0 0 154 155" fill="none" xmlns="http://www.w3.org/2000/svg">
<mask id="mask0_501_4223" style="mask-type:luminance" maskUnits="userSpaceOnUse" x="0" y="0" width="154" height="155">
<path d="M0 0H154V155H0V0Z" fill="white"/>
</mask>
<g mask="url(#mask0_501_4223)">
<path d="M124.158 28.9148C123.09 29.1313 121.976 28.5729 121.542 27.5208C121.051 26.3291 121.618 24.9674 122.797 24.4737L130.335 21.3315C131.942 20.6598 133.84 21.9284 133.517 23.9355L132.487 31.885C132.327 33.1637 131.154 34.0722 129.888 33.9123C128.756 33.7626 127.916 32.8238 127.859 31.7252L121.645 39.5998C121.192 40.1764 120.512 40.4799 119.821 40.4799L105.9 40.5265C111.862 51.5736 126.793 53.8276 135.699 44.9008C143.03 37.5563 143.03 25.6391 135.699 18.2966C128.37 10.95 116.488 10.95 109.159 18.2966C104.634 22.8308 102.651 29.4348 104.145 35.883L118.699 35.8365L124.158 28.9148ZM71.1235 90.7101C71.0872 90.617 71.0569 90.53 71.0306 90.4369C69.3568 85.7044 66.5362 81.4738 62.6334 78.3215C58.0985 74.6593 52.0636 72.456 44.6395 72.6259C34.7965 72.8424 22.9547 74.2243 16.3968 81.4171C11.1553 87.1814 9.50372 96.2296 10.4668 109.189C10.5032 109.624 10.4083 110.041 10.2286 110.401L4.97698 120.962C4.60144 121.721 5.09207 122.553 5.90373 122.619L11.7792 123.093C12.9987 123.186 13.9214 124.218 13.9214 125.42V138.642C14.2142 139.751 14.8946 140.677 15.781 141.304C16.7077 141.948 17.8606 142.259 19.0599 142.11L25.84 140.283C27.0857 139.951 28.3618 140.689 28.6929 141.938L30.9219 150.259L60.0712 150.203C57.2949 143.475 54.444 136.469 57.8986 129.276C58.4075 128.218 59.1343 127.346 60.0974 126.646C66.4655 121.998 70.3643 115.467 71.9695 108.547C73.3627 102.581 73.0497 96.3227 71.1235 90.7101ZM73.6554 84.7859L74.9678 82.6958L64.606 56.5448C64.1335 55.3531 64.719 53.9995 65.9083 53.5261C67.1076 53.0526 68.4583 53.6394 68.9308 54.8311L78.0267 77.7954L96.0468 48.9251C92.9213 44.1542 91.0436 38.4769 90.9002 32.3706H32.5311C30.4818 32.3706 28.7898 34.056 28.7898 36.1096V69.7407C33.2943 68.6724 38.5298 68.0938 44.5425 67.9703C57.6725 67.6749 68.1575 73.9674 73.6554 84.7859ZM99.0896 52.8523L80.1528 83.1774L88.2007 103.489L95.0837 93.2574C96.2184 91.572 98.8432 92.0353 99.2975 94.0728L104.141 114.735L110.233 107.095C110.685 106.508 111.365 106.215 112.056 106.215V106.204H121.453C119.979 104.207 122.281 101.545 124.473 102.787L130.878 106.431C132.408 107.303 132.511 109.583 130.811 110.52L124.55 114.204C122.414 115.463 120.066 112.916 121.461 110.882H113.168L104.838 121.341C103.592 122.959 101.145 122.352 100.699 120.469L95.9681 100.29L89.5959 109.757H89.5858C88.5662 111.273 86.2039 111.083 85.5053 109.312L77.0878 88.0818L75.8219 90.1152C77.7481 96.3065 78.0146 103.091 76.5124 109.585C74.6589 117.537 70.1746 125.043 62.8272 130.409C62.2235 130.842 62.0034 131.421 61.7409 132.111H140.654C142.703 132.111 144.387 130.425 144.387 128.372V54.2707C141.478 57.1033 138.029 59.3835 134.203 60.9252V61.162H134.193C134.193 64.9597 133.173 71.2906 129.262 71.7438V92.2154H129.273C129.273 103.679 115.577 103.679 115.577 92.2154H115.587V71.7337C111.571 71.2703 110.647 64.7493 110.647 60.9252C106.215 59.1265 102.266 56.3546 99.0896 52.8523ZM122.432 8.10732C135.37 8.10732 145.865 18.6223 145.865 31.6017C145.865 44.567 135.374 55.086 122.432 55.086C109.484 55.086 98.9967 44.571 98.9967 31.6017C98.9967 18.6264 109.48 8.10732 122.432 8.10732ZM122.432 -0.00201416C139.848 -0.00201416 153.97 14.1489 153.97 31.6017C153.97 37.8294 152.167 43.6423 149.057 48.5346V128.372C149.057 133.009 145.28 136.786 140.662 136.786H61.0181C61.1877 141.64 63.8327 146.903 65.6821 151.676C66.2596 153.191 65.1632 154.848 63.5096 154.848L29.3087 154.923C28.2124 155.008 27.1826 154.3 26.8838 153.191L24.8042 145.402L19.8615 146.707C17.4063 147.085 15.0178 146.46 13.1178 145.134C11.2866 143.856 9.90552 141.905 9.36037 139.558C9.29374 139.34 9.25538 139.113 9.25538 138.866V127.574L5.54434 127.269C1.43555 126.939 -1.02973 122.544 0.803581 118.876L5.78057 108.881C4.81748 94.9468 6.84664 84.9842 12.9482 78.2729C15.8012 75.151 19.486 72.7837 24.1318 71.1064V36.1056C24.1318 31.4783 27.8994 27.6927 32.5271 27.6927H91.1304C93.0647 11.992 106.421 -0.00201416 122.432 -0.00201416ZM129.515 62.4022C124.867 63.4705 119.995 63.4705 115.357 62.4022C115.444 63.9076 115.696 65.2227 116.058 66.208C116.258 66.7665 115.743 67.1064 116.001 67.1064H128.857V67.0963C129.113 67.0963 128.598 66.7564 128.798 66.208C129.166 65.2126 129.418 63.8873 129.515 62.4022ZM141.425 12.5586C130.932 2.04353 113.922 2.04353 103.424 12.5586C92.9294 23.0736 92.9314 40.1198 103.424 50.6389C113.918 61.1559 130.928 61.1519 141.425 50.6389C151.92 40.1238 151.916 23.0736 141.425 12.5586ZM124.621 71.762H120.239V92.2154H120.249C120.249 97.4678 124.615 97.4678 124.615 92.2154H124.625V71.762H124.621ZM55.2718 94.5543C61.0807 94.5543 64.0104 101.622 59.9016 105.743C59.2676 106.376 58.5023 106.888 57.6523 107.218V114.99L61.2402 117.96C62.2336 118.785 62.3729 120.252 61.5532 121.246C60.7314 122.241 59.2676 122.381 58.2742 121.559L53.8363 117.887C53.2811 117.424 52.9863 116.762 52.9863 116.088V107.244C48.5585 105.589 47.2723 99.8533 50.6542 96.4744C51.8374 95.2847 53.4708 94.5543 55.2718 94.5543ZM56.6064 99.7784C55.4253 98.5968 53.4042 99.4385 53.4042 101.106C53.4042 102.781 55.4334 103.613 56.6064 102.441C57.3313 101.699 57.3313 100.507 56.6064 99.7784ZM23.6412 131.156C22.5085 131.754 21.0992 131.317 20.5056 130.182C19.9019 129.037 20.3461 127.627 21.4788 127.03L26.8899 124.181V96.4461L23.9138 93.4658C19.6253 95.3373 14.7614 92.1952 14.7614 87.4546C14.7614 81.6356 21.8079 78.6998 25.9268 82.8172C27.8429 84.7474 28.3921 87.6913 27.2392 90.1901L30.8594 93.8057C31.2854 94.2326 31.558 94.8173 31.558 95.4709V125.579H31.5479C31.5479 126.411 31.0956 127.226 30.3021 127.643L23.6412 131.156ZM38.7822 119.182C38.7822 120.479 37.7322 121.521 36.4501 121.521C35.1559 121.521 34.1181 120.479 34.1181 119.182V90.5138C29.7145 88.8264 28.4587 83.1308 31.8204 79.7621C35.9292 75.6345 42.9879 78.5703 42.9879 84.3893C42.9879 87.1531 41.2777 89.5588 38.7862 90.5138V119.182H38.7822ZM51.5709 123.166C52.7036 123.765 53.1397 125.173 52.5441 126.308C51.9404 127.453 50.5311 127.888 49.3984 127.293L42.7415 123.781C41.948 123.364 41.5039 122.549 41.5039 121.717H41.4938V95.4709C41.4938 94.8173 41.7583 94.2326 42.1944 93.8057L46.5192 89.4718C44.6092 85.1743 47.7549 80.2719 52.4977 80.2719C58.3045 80.2719 61.2341 87.3352 57.1253 91.4607C55.2093 93.3747 52.2897 93.923 49.7941 92.7981L46.1598 96.4501V120.311L51.5709 123.166ZM51.155 88.1283C52.3745 89.3605 54.3673 88.4703 54.3673 86.8233C54.3673 85.148 52.3442 84.3165 51.1752 85.4981C50.4483 86.2163 50.4382 87.3979 51.155 88.1283ZM22.6216 86.1293C21.4525 84.9477 19.4193 85.7894 19.4193 87.4546C19.4193 89.1299 21.4485 89.9614 22.6216 88.7798C23.3585 88.0515 23.3585 86.8597 22.6216 86.1293ZM37.7726 83.0641C36.5935 81.8825 34.5704 82.7241 34.5704 84.3893C34.5704 86.0646 36.5935 86.8962 37.7726 85.7247C38.5096 84.9842 38.5096 83.7924 37.7726 83.0641Z" fill="#EDF900"/>
</g>
</svg>
