<svg width="155" height="173" viewBox="0 0 155 173" fill="none" xmlns="http://www.w3.org/2000/svg">
<mask id="mask0_501_4567" style="mask-type:luminance" maskUnits="userSpaceOnUse" x="0" y="44" width="155" height="129">
<path d="M0 44.984H154.82V172.992H0V44.984Z" fill="white"/>
</mask>
<g mask="url(#mask0_501_4567)">
<path d="M141.141 172.992H13.6787C6.15346 172.992 0.0224609 166.861 0.0224609 159.336V59.1876C0.0224609 51.6601 6.15346 45.5314 13.6787 45.5314H39.383C41.9034 45.5314 43.9373 47.563 43.9373 50.0835C43.9373 52.6016 41.9034 54.6355 39.383 54.6355H13.6787C11.1605 54.6355 9.12662 56.6672 9.12662 59.1876V159.336C9.12662 161.854 11.1605 163.888 13.6787 163.888H141.141C143.66 163.888 145.693 161.854 145.693 159.336V59.1876C145.693 56.6672 143.66 54.6355 141.141 54.6355H132.794C130.276 54.6355 128.242 52.6016 128.242 50.0835C128.242 47.563 130.276 45.5314 132.794 45.5314H141.141C148.667 45.5314 154.798 51.6601 154.798 59.1876V159.336C154.798 166.861 148.667 172.992 141.141 172.992Z" fill="#EDF900"/>
</g>
<path d="M150.246 133.539H115.345C101.961 133.539 91.0664 122.644 91.0664 109.26C91.0664 95.8767 101.961 84.9819 115.345 84.9819H150.246C152.764 84.9819 154.798 87.0158 154.798 89.5339V128.987C154.798 131.505 152.764 133.539 150.246 133.539ZM115.345 94.086C106.968 94.086 100.171 100.886 100.171 109.26C100.171 117.637 106.968 124.435 115.345 124.435H145.694V94.086H115.345Z" fill="#EDF900"/>
<path d="M37.957 112.297C30.4318 112.297 24.3008 106.166 24.3008 98.6381C24.3008 91.1129 30.4318 84.9819 37.957 84.9819C45.4845 84.9819 51.6132 91.1129 51.6132 98.6381C51.6132 106.166 45.4845 112.297 37.957 112.297ZM37.957 94.086C35.4388 94.086 33.4049 96.1199 33.4049 98.6381C33.4049 101.159 35.4388 103.192 37.957 103.192C40.4774 103.192 42.5091 101.159 42.5091 98.6381C42.5091 96.1199 40.4774 94.086 37.957 94.086Z" fill="#EDF900"/>
<path d="M28.853 103.192H4.57454C2.05637 103.192 0.0224609 101.159 0.0224609 98.6381C0.0224609 96.12 2.05637 94.0861 4.57454 94.0861H28.853C31.3712 94.0861 33.4051 96.12 33.4051 98.6381C33.4051 101.159 31.3712 103.192 28.853 103.192Z" fill="#EDF900"/>
<path d="M68.3059 148.713C60.7784 148.713 54.6497 142.582 54.6497 135.057C54.6497 127.529 60.7784 121.401 68.3059 121.401C75.8311 121.401 81.9621 127.529 81.9621 135.057C81.9621 142.582 75.8311 148.713 68.3059 148.713ZM68.3059 130.505C65.7877 130.505 63.7538 132.539 63.7538 135.057C63.7538 137.575 65.7877 139.609 68.3059 139.609C70.8241 139.609 72.858 137.575 72.858 135.057C72.858 132.539 70.8241 130.505 68.3059 130.505Z" fill="#EDF900"/>
<path d="M59.2017 139.609H37.9572C36.5314 139.609 35.1665 138.942 34.3151 137.789L26.5781 127.469H4.57454C2.05637 127.469 0.0224609 125.437 0.0224609 122.917C0.0224609 120.399 2.05637 118.365 4.57454 118.365H28.853C30.2788 118.365 31.646 119.034 32.4952 120.187L40.2344 130.505H59.2017C61.7199 130.505 63.7538 132.539 63.7538 135.057C63.7538 137.575 61.7199 139.609 59.2017 139.609Z" fill="#EDF900"/>
<path d="M77.4102 0.0082016C53.5867 0.0082016 34.1936 19.4013 34.1936 43.2541C34.1936 67.1069 53.5867 86.4707 77.4102 86.4707C101.234 86.4707 120.656 67.0776 120.656 43.2541C120.656 19.4306 101.263 0.0082016 77.4102 0.0082016ZM91.0664 51.8424C91.0664 57.3653 87.2419 62.039 81.9623 63.8004V67.5326C81.9623 70.0507 79.9284 72.0846 77.4102 72.0846C74.892 72.0846 72.8581 70.0507 72.8581 67.5326V63.7395C69.671 62.5548 67.0605 60.1875 65.7879 57.0927C64.8464 54.757 65.9681 52.115 68.2745 51.1442C70.6125 50.2027 73.2523 51.3266 74.1938 53.6331C74.6172 54.6962 75.9236 55.453 77.3809 55.453C79.8383 55.453 81.933 53.784 81.933 51.8131V51.4167C81.933 48.8377 76.6511 47.7161 76.6219 47.7161C71.8558 46.9255 63.7224 43.3442 63.7224 35.0306V34.6342C63.7224 29.1113 67.547 24.4376 72.8266 22.6785V18.9463C72.8266 16.4259 74.8605 14.3942 77.3809 14.3942C79.8991 14.3942 81.933 16.4259 81.933 18.9463V22.7393C85.1179 23.9218 87.7284 26.2891 89.0032 29.3861C89.9447 31.7218 88.8208 34.3616 86.5143 35.3324C84.1786 36.2739 81.5366 35.1522 80.5658 32.8458C80.1423 31.7827 78.836 31.0236 77.3809 31.0236C74.9213 31.0236 72.8266 32.6926 72.8266 34.6657V35.0599C72.8266 37.6389 78.1084 38.7628 78.1377 38.7628C82.9038 39.5511 91.0371 43.1324 91.0371 51.4483V51.8424H91.0664Z" fill="#EDF900"/>
</svg>
