<svg width="154" height="82" viewBox="0 0 154 82" fill="none" xmlns="http://www.w3.org/2000/svg">
<mask id="mask0_501_4541" style="mask-type:luminance" maskUnits="userSpaceOnUse" x="0" y="26" width="12" height="42">
<path d="M0 26.6484H11.6912V67.2462H0V26.6484Z" fill="white"/>
</mask>
<g mask="url(#mask0_501_4541)">
<path d="M7.61013 67.0535H11.2837C7.80083 54.2181 6.18486 40.7905 6.43981 27.0257H3.31828C2.37279 27.0257 1.49957 27.4111 0.861214 28.1097C0.222858 28.8083 -0.0822679 29.7136 0.00204302 30.6551L2.89071 62.7415C3.11152 65.2006 5.14101 67.0535 7.60812 67.0535H7.61013Z" fill="#EDF900"/>
</g>
<mask id="mask1_501_4541" style="mask-type:luminance" maskUnits="userSpaceOnUse" x="9" y="9" width="136" height="73">
<path d="M9.6355 9.1759H144.276V81.2319H9.6355V9.1759Z" fill="white"/>
</mask>
<g mask="url(#mask1_501_4541)">
<path d="M33.9993 81.3183C37.3336 81.3183 40.6378 80.4652 43.5586 78.8532L53.7582 73.2224C68.3079 65.1908 85.6821 65.1908 100.234 73.2224L110.433 78.8532C113.35 80.4652 116.656 81.3183 119.991 81.3183C128.859 81.3183 136.71 75.3282 139.083 66.7546C143.218 51.8074 144.762 36.0111 143.672 19.8053C143.421 16.1137 140.571 13.1306 136.889 12.7091C117.018 10.4367 96.8673 9.28244 76.996 9.28244C57.1246 9.28244 36.9743 10.4367 17.1029 12.7091C13.4233 13.1306 10.5688 16.1137 10.3219 19.8053C9.22986 36.0111 10.7736 51.8074 14.9108 66.7546C17.2836 75.3282 25.1326 81.3183 34.0013 81.3183H33.9993ZM32.9695 14.7386C47.6236 13.5 62.4342 12.8717 76.992 12.8717C91.5517 12.8717 106.364 13.5 121.018 14.7386C132.348 15.6961 140.797 25.3056 140.255 36.6113C139.776 46.5942 138.216 56.4144 135.62 65.795C133.677 72.819 127.247 77.7271 119.989 77.7271C117.259 77.7271 114.553 77.0285 112.164 75.7096L101.964 70.0788C94.34 65.8693 85.7041 63.6431 76.992 63.6431C68.2818 63.6431 59.6459 65.8693 52.0198 70.0788L41.8222 75.7076C39.4333 77.0265 36.7294 77.7251 33.9993 77.7251C26.7405 77.7251 20.3128 72.8169 18.3676 65.793C15.772 56.4124 14.2122 46.5921 13.7305 36.6113C13.1885 25.3016 21.6377 15.6921 32.9695 14.7366V14.7386Z" fill="#EDF900"/>
</g>
<path d="M146.38 67.0536C148.847 67.0536 150.875 65.1988 151.096 62.7417L153.986 30.6553C154.071 29.7138 153.765 28.8085 153.127 28.1099C152.489 27.4113 151.615 27.0259 150.67 27.0259H147.548C147.805 40.7907 146.185 54.2182 142.705 67.0536H146.38Z" fill="#EDF900"/>
<path d="M108.033 6.61642V5.43004C108.033 2.43699 105.598 0 102.605 0H51.3876C48.3945 0 45.9575 2.43499 45.9575 5.43004V6.61642C56.3278 6.00617 66.7001 5.69301 76.9961 5.69301C87.2921 5.69301 97.6644 6.00416 108.035 6.61642H108.033Z" fill="#EDF900"/>
<path d="M33.9996 74.1378C36.1254 74.1378 38.2292 73.5938 40.0881 72.568L50.2877 66.9392C58.4418 62.4366 67.6779 60.0578 76.9943 60.0578C86.3107 60.0578 95.5447 62.4366 103.701 66.9392L113.9 72.57C115.759 73.5958 117.863 74.1398 119.989 74.1398C125.64 74.1398 130.646 70.3157 132.16 64.8415C134.685 55.7158 136.203 46.1605 136.671 36.4426C137.12 27.0721 130.114 19.1107 120.718 18.3157C106.164 17.0852 91.4536 16.4629 76.9943 16.4629C62.5369 16.4629 47.8266 17.0872 33.2729 18.3157C23.8762 19.1107 16.8663 27.0721 17.318 36.4426C17.7837 46.1605 19.3033 55.7158 21.8287 64.8415C23.3422 70.3157 28.3487 74.1398 33.9996 74.1398V74.1378ZM26.9656 55.5913C27.3671 57.5044 27.8228 59.4415 28.3206 61.3486C28.5715 62.3081 27.9974 63.2897 27.0399 63.5387C26.8893 63.5788 26.7348 63.5989 26.5862 63.5989C25.7893 63.5989 25.0626 63.0629 24.8498 62.2559C24.3359 60.2927 23.8662 58.2973 23.4547 56.328C23.2519 55.3564 23.8722 54.4049 24.8438 54.2022C25.8214 54.0095 26.7649 54.6217 26.9676 55.5913H26.9656ZM22.5734 33.1565C23.6012 33.1023 24.3981 33.8912 24.4363 34.8809C24.637 40.0901 25.159 45.2893 25.986 50.3379C26.1466 51.3155 25.4842 52.2389 24.5065 52.3995C24.4062 52.4156 24.3098 52.4216 24.2135 52.4216C23.3503 52.4216 22.5895 51.7973 22.4429 50.9181C21.5918 45.7249 21.0558 40.3752 20.847 35.0194C20.8109 34.0277 21.5817 33.1926 22.5714 33.1545L22.5734 33.1565Z" fill="#EDF900"/>
</svg>
