<svg width="154" height="126" viewBox="0 0 154 126" fill="none" xmlns="http://www.w3.org/2000/svg">
<path d="M28.2353 47.851C28.4523 48.9966 27.7006 50.096 26.559 50.3131C19.048 51.7401 13.8544 57.4683 13.3339 64.905C13.2535 66.0104 12.337 66.8666 11.2315 66.8666C11.1813 66.8666 11.133 66.8666 11.0828 66.8626C9.92107 66.7822 9.04677 65.7712 9.13118 64.6075C9.79043 55.1992 16.3266 47.9655 25.7772 46.1707C26.9208 45.9557 28.0202 46.7074 28.2353 47.851ZM131.807 77.712H99.4399C98.2762 77.712 97.3355 78.6527 97.3355 79.8204C97.3355 80.9821 98.2762 81.9288 99.4399 81.9288H131.968C132.071 81.9288 132.173 81.9187 132.278 81.9047C136.892 81.2133 140.456 79.2978 142.592 76.3614C144.695 73.4711 145.39 69.7669 144.661 65.3411C143.354 57.4302 137.174 49.4247 127.892 49.4247C126.726 49.4247 125.788 50.3654 125.788 51.5331C125.788 52.6948 126.726 53.6415 127.892 53.6415C134.83 53.6415 139.491 59.8722 140.506 66.0345C141.043 69.2966 140.601 71.9356 139.186 73.8792C137.734 75.881 135.248 77.1693 131.807 77.712ZM149.482 82.3468C145.794 87.1063 140.036 90.099 132.842 91.0075C132.756 91.0175 132.668 91.0216 132.583 91.0216H83.6401C82.4804 91.0216 81.5357 90.0809 81.5357 88.9132C81.5357 87.7515 82.4804 86.8048 83.6401 86.8048H132.446C145.995 85.0441 150.268 75.4187 149.742 66.9752C149.056 55.9529 140.695 44.5427 127.892 44.5387C127 44.5387 126.206 43.9779 125.904 43.1358C124.865 40.1752 123.287 37.4357 121.243 35.054C121.205 35.1344 121.167 35.2148 121.125 35.2891L122.423 37.4598C122.863 38.1974 122.817 39.13 122.3 39.8174C121.153 41.3329 119.804 42.6835 118.297 43.8372C117.609 44.3598 116.675 44.4121 115.937 43.9638L113.77 42.6655C112.882 43.1317 111.956 43.5176 110.997 43.8191L110.382 46.2652C110.175 47.1033 109.479 47.7244 108.623 47.8429C106.748 48.0962 104.844 48.0962 102.965 47.8429C102.115 47.7244 101.42 47.1033 101.209 46.2652L100.592 43.8091C99.6389 43.5076 98.7123 43.1257 97.8239 42.6655L97.4159 42.9046L95.6673 43.9638C94.9337 44.4121 93.9991 44.3598 93.3117 43.8412C91.7942 42.6896 90.4416 41.3329 89.2939 39.8134C88.7734 39.126 88.7251 38.1894 89.1713 37.4498L90.4697 35.2891C90.0094 34.4048 89.6236 33.4782 89.3221 32.5215L86.874 31.9004C86.0319 31.6934 85.4128 30.992 85.2942 30.1358C85.0309 28.2585 85.0309 26.3571 85.2942 24.4839C85.4128 23.6257 86.0319 22.9242 86.874 22.7132L89.3221 22.0962C89.6236 21.1415 90.0034 20.2149 90.4697 19.3245L90.2245 18.9145L89.1673 17.1538C88.9462 16.778 88.8437 16.3398 88.8759 15.9037C79.8997 5.12459 65.0304 1.33996 51.9983 6.51343C38.9701 11.6809 30.7275 24.6487 31.5636 38.6597C31.5958 39.2285 31.3948 39.7893 31.0089 40.2134C30.619 40.6314 30.0783 40.8766 29.5055 40.8907C13.5027 41.2445 4.08031 54.0274 4.21497 66.1853C4.31949 75.6961 10.715 86.8008 28.4001 86.8008H44.7265C45.8922 86.8008 46.8328 87.7454 46.8328 88.9092C46.8328 90.0749 45.8922 91.0175 44.7265 91.0175H28.4001C19.5183 91.0175 12.148 88.4047 7.08712 83.4543C2.595 79.0627 0.0745837 72.9425 0.000217642 66.2355C-0.0279212 58.8853 2.67338 51.7864 7.58155 46.3215C11.1752 42.3358 17.4401 37.5864 27.2906 36.7825C27.2685 21.5093 36.6869 7.81183 50.9451 2.38912C65.2033 -3.02755 81.3227 0.958078 91.4284 12.4004C92.0193 11.8276 92.6505 11.2849 93.3117 10.7865C93.9931 10.2639 94.9236 10.2177 95.6613 10.6599L97.8279 11.9582C98.7163 11.4919 99.6429 11.1121 100.592 10.8106L101.209 8.35852C101.42 7.52441 102.105 6.90335 102.951 6.78678C104.84 6.51745 106.754 6.51745 108.643 6.78678C109.489 6.90335 110.175 7.52441 110.382 8.35249L111.003 10.8046C111.956 11.106 112.878 11.4919 113.764 11.9542L115.941 10.6538C116.679 10.2116 117.615 10.2639 118.297 10.7865C119.804 11.9341 121.149 13.2868 122.294 14.7922C122.817 15.4796 122.869 16.4102 122.427 17.1498L121.131 19.3285C121.591 20.2189 121.975 21.1455 122.276 22.0962L124.73 22.7172C125.567 22.9242 126.192 23.6257 126.304 24.4839C126.431 25.4205 126.493 26.3612 126.493 27.3078C126.493 28.2525 126.431 29.1991 126.304 30.1398C126.192 30.998 125.567 31.6995 124.73 31.9065L124.204 32.0371C126.364 34.5133 128.109 37.3231 129.355 40.3641C135.821 40.75 141.813 43.6825 146.363 48.7132C150.817 53.7018 153.488 60.037 153.948 66.7119C154.314 72.6049 152.73 78.1582 149.482 82.3468ZM116.9 34.2078C117.648 33.0019 118.192 31.6834 118.516 30.3046C118.695 29.5388 119.288 28.9318 120.049 28.7389L122.258 28.1781C122.276 27.8867 122.28 27.5993 122.28 27.3078C122.28 27.0144 122.276 26.733 122.258 26.4456L120.049 25.8848C119.288 25.6879 118.695 25.0809 118.516 24.3131C118.196 22.9343 117.652 21.6158 116.904 20.4159C116.486 19.7486 116.482 18.9004 116.886 18.2231L118.052 16.2655C117.662 15.8373 117.252 15.4273 116.826 15.0414L114.87 16.2092C114.193 16.6091 113.346 16.6031 112.679 16.1851C111.481 15.4374 110.165 14.8907 108.788 14.5711C108.022 14.3962 107.415 13.8033 107.224 13.0355L106.663 10.8247C106.087 10.7905 105.508 10.7905 104.935 10.8247L104.384 13.0275C104.191 13.7993 103.586 14.3962 102.81 14.5711C101.434 14.8947 100.113 15.4414 98.9093 16.1891C98.242 16.6031 97.4018 16.6091 96.7245 16.2092L94.7749 15.0414C94.3408 15.4273 93.9328 15.8313 93.5469 16.2655L94.7126 18.2331C95.1126 18.9105 95.1025 19.7526 94.6885 20.4159C93.9428 21.6218 93.3961 22.9443 93.0766 24.3231C92.8937 25.0909 92.3068 25.6879 91.545 25.8808L89.3361 26.4456C89.3221 26.737 89.312 27.0244 89.312 27.3078C89.312 27.5892 89.3221 27.8766 89.3361 28.1781L91.545 28.7389C92.3068 28.9318 92.8937 29.5328 93.0766 30.2965C93.4022 31.6794 93.9468 32.9978 94.6945 34.2078C95.1025 34.8751 95.1126 35.7132 94.7126 36.3865L93.5469 38.3542C93.9328 38.7823 94.3408 39.1923 94.7689 39.5782L95.2573 39.2808L96.7346 38.4105C97.4059 38.0105 98.248 38.0206 98.9093 38.4286C100.117 39.1783 101.438 39.723 102.825 40.0526C103.59 40.2315 104.191 40.8244 104.384 41.5922L104.935 43.791C105.508 43.8232 106.087 43.8232 106.663 43.791L107.224 41.5821C107.415 40.8163 108.022 40.2274 108.788 40.0486C110.165 39.729 111.481 39.1823 112.679 38.4346C113.346 38.0206 114.184 38.0105 114.86 38.4105L116.83 39.5782C117.258 39.1923 117.666 38.7823 118.052 38.3482L116.886 36.3966C116.482 35.7233 116.486 34.8751 116.9 34.2078ZM85.3746 79.8204C85.3746 80.9821 86.3153 81.9288 87.481 81.9288H92.4575C93.6172 81.9288 94.5619 80.9821 94.5619 79.8204C94.5619 78.6527 93.6172 77.712 92.4575 77.712H87.481C86.3153 77.712 85.3746 78.6527 85.3746 79.8204ZM98.5817 101.202C98.5817 104.309 96.3446 106.968 93.2836 107.487C90.2205 108.009 87.2318 106.243 86.2067 103.31H77.7571C76.5954 103.31 75.6507 102.365 75.6507 101.202V71.0372L75.1442 70.7317C73.7655 71.4834 72.3183 72.0863 70.8189 72.5386V113.142C73.7474 114.174 75.5141 117.168 74.9935 120.235C74.4709 123.301 71.8199 125.546 68.7146 125.546C65.6073 125.546 62.9562 123.301 62.4357 120.235C61.9131 117.168 63.6758 114.174 66.6082 113.142V78.112C65.8002 78.1823 64.9963 78.2205 64.1883 78.2205C63.3803 78.2205 62.5723 78.1823 61.7644 78.112V108.681C61.7644 109.844 60.8237 110.791 59.658 110.791H35.0166C33.9936 113.727 31.0049 115.492 27.9398 114.969C24.8807 114.447 22.6377 111.792 22.6377 108.681C22.6377 105.571 24.8807 102.916 27.9398 102.394C31.0049 101.871 33.9936 103.636 35.0166 106.572H57.5516V72.5386C56.0542 72.0863 54.6011 71.4793 53.2283 70.7317L52.7158 71.0372V99.6119C52.7158 100.78 51.7772 101.72 50.6114 101.72H38.1983C37.0386 101.72 36.094 100.78 36.094 99.6119C36.094 98.4481 37.0386 97.5035 38.1983 97.5035H48.5051V73.0149C48.1493 72.9667 47.8056 72.83 47.5182 72.6129C45.4983 71.0794 43.7034 69.2825 42.1659 67.2626C41.6493 66.5792 41.593 65.6426 42.0332 64.905L44.0511 61.5344C43.2753 60.1134 42.6502 58.612 42.194 57.0623L38.4013 56.1036C37.5692 55.8906 36.9441 55.1951 36.8316 54.3369C36.4839 51.8346 36.4839 49.2921 36.8316 46.7837C36.9441 45.9315 37.5652 45.2341 38.3973 45.0231L42.194 44.0583C42.6543 42.5047 43.2753 41.0033 44.0511 39.5823L42.0392 36.2217C41.597 35.4821 41.6493 34.5455 42.1699 33.8581C43.7034 31.8401 45.5023 30.0373 47.5242 28.5077C48.2056 27.9892 49.1362 27.943 49.8678 28.3811L53.2283 30.391C54.6473 29.6132 56.1467 28.9921 57.6983 28.5359L58.653 24.7331C58.858 23.895 59.5595 23.274 60.4097 23.1554C62.92 22.8117 65.4565 22.8117 67.9669 23.1554C68.8171 23.274 69.5185 23.895 69.7256 24.7331L70.6843 28.5319C72.2339 28.9881 73.7293 29.6132 75.1483 30.391L78.5028 28.3811C79.2364 27.943 80.167 27.9892 80.8483 28.5077C82.8703 30.0373 84.6752 31.8401 86.2027 33.8581C86.7273 34.5455 86.7755 35.4821 86.3333 36.2217L84.3275 39.5782C85.1013 40.9992 85.7223 42.5047 86.1786 44.0583L89.9753 45.0231C90.8034 45.2341 91.4184 45.9215 91.541 46.7697C91.8847 49.282 91.8847 51.8386 91.541 54.351C91.4184 55.2032 90.7973 55.8966 89.9652 56.1036L86.1786 57.0583C85.7223 58.612 85.1013 60.1134 84.3275 61.5344L86.3333 64.905C86.7795 65.6426 86.7233 66.5792 86.2027 67.2626C84.6692 69.2825 82.8703 71.0794 80.8544 72.6089C80.5669 72.83 80.2233 72.9667 79.8615 73.0149V99.0893H86.2067C87.2318 96.1569 90.2205 94.3922 93.2836 94.9087C96.3446 95.4313 98.5817 98.0904 98.5817 101.198V101.202ZM31.1737 108.681C31.1737 107.487 30.205 106.522 29.0151 106.522C27.8232 106.522 26.8585 107.487 26.8585 108.681C26.8585 109.872 27.8232 110.841 29.0151 110.841C30.205 110.841 31.1737 109.872 31.1737 108.681ZM68.7146 116.997C67.5207 116.997 66.558 117.962 66.558 119.158C66.558 120.35 67.5207 121.319 68.7146 121.319C69.9024 121.319 70.8712 120.35 70.8712 119.158C70.8672 117.962 69.9024 116.997 68.7146 116.997ZM79.4052 68.368C80.3217 67.5821 81.178 66.7259 81.9678 65.8074L80.0725 62.6217C79.6746 61.9484 79.6826 61.1063 80.0926 60.437C81.1639 58.7105 81.9437 56.8232 82.41 54.8414C82.5869 54.0736 83.1798 53.4727 83.9416 53.2797L87.5232 52.3712C87.5694 51.7763 87.5875 51.1693 87.5875 50.5583C87.5875 49.9413 87.5694 49.3383 87.5232 48.7454L83.9516 47.847C83.1838 47.654 82.5869 47.051 82.41 46.2792C81.9478 44.2975 81.1679 42.4062 80.0966 40.6837C79.6826 40.0104 79.6746 39.1682 80.0725 38.4909L81.9678 35.3132C81.178 34.3947 80.3217 33.5385 79.4052 32.7526L76.2376 34.65C75.5623 35.054 74.7161 35.0499 74.0489 34.6299C72.3244 33.5586 70.4391 32.7707 68.4654 32.3064C67.6996 32.1276 67.0966 31.5346 66.8997 30.7709L65.9972 27.1892C64.7893 27.0948 63.5813 27.0948 62.3754 27.1892L61.481 30.7628C61.288 31.5286 60.6871 32.1215 59.9213 32.3064C57.9435 32.7707 56.0542 33.5586 54.3237 34.6299C53.6564 35.0499 52.8103 35.054 52.1329 34.65L48.9653 32.7526C48.0448 33.5385 47.1906 34.3947 46.4047 35.3132L48.298 38.4849C48.702 39.1642 48.698 40.0104 48.28 40.6797C47.2087 42.4062 46.4228 44.2975 45.9585 46.2792C45.7796 47.047 45.1867 47.654 44.421 47.847L40.8494 48.7454C40.8031 49.3524 40.779 49.9513 40.779 50.5543C40.779 51.1512 40.8031 51.7582 40.8494 52.3712L44.427 53.2737C45.1928 53.4666 45.7837 54.0736 45.9625 54.8414C46.4228 56.8191 47.2087 58.7105 48.284 60.4329C48.698 61.1022 48.7081 61.9484 48.3041 62.6257L46.4047 65.8034C47.1946 66.7219 48.0488 67.5781 48.9653 68.364L52.1289 66.4707C52.8062 66.0667 53.6564 66.0707 54.3237 66.4908C56.0482 67.5641 57.9375 68.3459 59.9173 68.8062C60.683 68.9851 61.288 69.582 61.4769 70.3498L62.3754 73.9314C63.5773 74.0219 64.7893 74.0219 65.9932 73.9314L66.6464 71.3386C66.6504 71.3286 66.6565 71.3145 66.6565 71.3005L66.8997 70.3397C67.0926 69.574 67.6936 68.9851 68.4613 68.8022C70.4391 68.3399 72.3244 67.558 74.0428 66.4867C74.7161 66.0707 75.5623 66.0627 76.2376 66.4667L79.4052 68.368ZM94.3649 101.202C94.3689 100.008 93.4022 99.0411 92.2123 99.0411C91.0184 99.0411 90.0517 100.008 90.0517 101.202C90.0517 102.394 91.0184 103.362 92.2083 103.362C93.4022 103.362 94.3649 102.394 94.3649 101.202ZM115.768 27.3078C115.768 32.819 111.308 37.291 105.799 37.291C100.296 37.291 95.8321 32.819 95.8321 27.3078C95.8321 21.7947 100.296 17.3247 105.799 17.3247C111.302 17.3327 115.762 21.7947 115.768 27.3078ZM111.558 27.3078C111.558 24.1262 108.981 21.5455 105.799 21.5455C102.622 21.5455 100.047 24.1262 100.047 27.3078C100.047 30.4895 102.622 33.0722 105.799 33.0722C108.981 33.0682 111.552 30.4895 111.558 27.3078ZM78.8224 50.5583C78.8284 58.6542 72.2761 65.2245 64.1883 65.2286C56.1045 65.2286 49.5482 58.6683 49.5442 50.5684C49.5442 42.4725 56.1005 35.9062 64.1843 35.9062C72.2621 35.9162 78.8083 42.4665 78.8224 50.5583ZM74.6116 50.5583C74.6116 44.7879 69.9446 40.1149 64.1843 40.1149C58.4259 40.1149 53.7589 44.7879 53.7589 50.5583C53.7589 56.3247 58.4259 61.0017 64.1883 60.9977C69.9406 60.9937 74.6076 56.3247 74.6116 50.5583Z" fill="#EDF900"/>
</svg>
