<svg width="154" height="159" viewBox="0 0 154 159" fill="none" xmlns="http://www.w3.org/2000/svg">
<mask id="mask0_501_4142" style="mask-type:luminance" maskUnits="userSpaceOnUse" x="80" y="33" width="74" height="126">
<path d="M80.7402 33.069H154V158.5H80.7402V33.069Z" fill="white"/>
</mask>
<g mask="url(#mask0_501_4142)">
<path d="M108.854 82.479C106.127 82.9398 103.547 84.2667 101.59 86.2171L92.6313 95.1436C90.1612 97.6062 88.7549 100.877 88.6725 104.352L88.3261 119.815C84.2043 120.884 81.1176 124.608 81.0702 129.035L80.8619 148.407C80.8331 150.974 81.8166 153.406 83.629 155.252C85.4415 157.097 87.8601 158.128 90.4375 158.156L122.688 158.5H122.795C128.074 158.5 132.414 154.221 132.472 148.958L132.68 129.589C132.727 125.145 129.733 121.372 125.634 120.214L125.812 119.004C126.333 115.519 127.927 112.361 130.424 109.874L145.556 94.796C149.274 91.0908 151.621 86.1985 152.165 81.0183L153.771 65.8293C153.887 65.2779 153.948 64.7081 153.953 64.1156L153.957 64.0847C153.957 64.0785 153.955 64.0744 153.955 64.0703C153.955 63.9942 153.967 63.9222 153.965 63.844L153.181 39.3725C153.126 37.7905 152.474 36.301 151.35 35.1818C150.15 33.9845 148.486 33.3241 146.742 33.357C140.249 33.571 135.127 39.0125 135.327 45.4889L135.711 57.271L133.519 66.1153C131.133 65.9013 128.676 66.6646 126.855 68.4791L113.644 81.654L108.854 82.479ZM129.156 129.55L128.948 148.921C128.913 152.266 126.152 154.988 122.795 154.988V156.745L122.727 154.988L90.4746 154.645C88.8395 154.626 87.3013 153.97 86.1487 152.795C84.994 151.62 84.3672 150.075 84.3837 148.446L84.5919 129.075C84.6291 125.727 87.3879 123.006 90.8127 123.006L123.067 123.349C126.461 123.386 129.193 126.168 129.156 129.55ZM129.346 70.9622C131.232 69.0839 134.301 69.0839 136.187 70.9622C138.074 72.8426 138.074 75.8997 136.187 77.7801L120.556 93.3538C119.869 94.0409 119.869 95.1519 120.556 95.837C120.9 96.1805 121.352 96.3513 121.803 96.3513C122.253 96.3513 122.704 96.1805 123.049 95.837L138.678 80.2612C141.938 77.0148 141.938 71.7276 138.678 68.4811C138.136 67.9401 137.525 67.5224 136.888 67.1624L139.189 57.8779C139.21 57.7976 139.191 57.7195 139.2 57.6392C139.21 57.559 139.243 57.4849 139.241 57.4006L138.849 45.3798C138.709 40.8353 142.303 37.0169 146.841 36.8667C147.62 36.8297 148.328 37.1321 148.86 37.6629C149.359 38.1608 149.635 38.7944 149.66 39.4919L150.439 63.8358L148.66 80.65C148.2 85.0341 146.212 89.1754 143.064 92.3128L127.933 107.391C124.898 110.415 122.96 114.252 122.325 118.492L122.129 119.829L91.8561 119.506L92.1942 104.432C92.254 101.865 93.2932 99.4475 95.1221 97.6268L104.081 88.7002C105.524 87.2601 107.43 86.2808 109.448 85.9393L114.795 85.0177C114.857 85.0074 114.904 84.9703 114.964 84.9539C115.079 84.921 115.187 84.8798 115.296 84.8243C115.403 84.7687 115.496 84.7049 115.589 84.6309C115.636 84.5918 115.696 84.5733 115.741 84.5301L129.346 70.9622Z" fill="#EDF900"/>
</g>
<mask id="mask1_501_4142" style="mask-type:luminance" maskUnits="userSpaceOnUse" x="0" y="33" width="74" height="126">
<path d="M0 33.069H73.3505V158.5H0V33.069Z" fill="white"/>
</mask>
<g mask="url(#mask1_501_4142)">
<path d="M0.0310492 64.0847V64.0929C0.0331109 64.6895 0.0990922 65.2697 0.214559 65.8313L1.82079 81.0162C2.36513 86.1965 4.71365 91.0907 8.43128 94.7959L23.5636 109.872C26.0586 112.361 27.6524 115.517 28.1741 118.996L28.3514 120.212C24.2544 121.37 21.2605 125.143 21.3079 129.587L21.5162 148.958C21.5718 154.219 25.9122 158.5 31.1927 158.5L63.5503 158.154C66.1256 158.128 68.5443 157.097 70.3567 155.252C72.1691 153.406 73.1526 150.974 73.1258 148.407L72.9176 129.035C72.8701 124.631 69.8144 120.921 65.6596 119.829L65.3132 104.35C65.2328 100.875 63.8266 97.6062 61.3544 95.1436L52.3974 86.217C50.4386 84.2667 47.8592 82.9398 45.1374 82.4789L40.3435 81.6519L27.1308 68.4791C25.3101 66.6645 22.8523 65.9013 20.4687 66.1132L18.2769 57.2709L18.6604 45.4868C18.8584 39.0104 13.7366 33.5689 7.223 33.3549C5.48274 33.3261 3.83734 33.9824 2.63524 35.1797C1.5115 36.301 0.862 37.7884 0.804266 39.3787L0.0207396 63.8625C0.0186778 63.9366 0.0310492 64.0065 0.0310492 64.0806C0.0310492 64.0806 0.0310492 64.0826 0.0310492 64.0847ZM69.3938 129.075L69.602 148.446C69.6206 150.075 68.9937 151.62 67.8391 152.795C66.6844 153.972 65.1483 154.628 63.5111 154.645L31.2608 154.988L31.1907 156.745V154.99C27.8339 154.988 25.075 152.266 25.0379 148.921L24.8297 129.55C24.7946 126.168 27.5246 123.386 30.9205 123.351L63.241 123.006C66.5978 123.006 69.3587 125.727 69.3938 129.075ZM5.12809 37.6629C5.66007 37.1321 6.4106 36.8338 7.12815 36.8667C11.6829 37.0169 15.2789 40.8352 15.1387 45.3757L14.7469 57.4005C14.7449 57.4849 14.7778 57.5569 14.7882 57.6392C14.7964 57.7194 14.7778 57.7976 14.7985 57.8778L17.0996 67.1624C16.4624 67.5224 15.85 67.94 15.3078 68.4811C12.0499 71.7275 12.0499 77.0148 15.3078 80.2612L30.9391 95.8369C31.2834 96.1805 31.735 96.3512 32.1845 96.3512C32.6361 96.3512 33.0876 96.1805 33.432 95.8369C34.1186 95.1518 34.1186 94.0409 33.432 93.3538L17.8006 77.7801C15.914 75.8997 15.914 72.8426 17.8006 70.9622C19.6852 69.0839 22.7554 69.0839 24.64 70.9622L38.2445 84.53C38.2898 84.5732 38.3496 84.5918 38.3991 84.6309C38.4898 84.7049 38.5847 84.7687 38.6898 84.8242C38.7991 84.8798 38.9084 84.9209 39.0239 84.9538C39.0816 84.9703 39.1311 85.0073 39.1909 85.0176L44.5436 85.9393C46.5581 86.2808 48.4612 87.2601 49.9066 88.7002L58.8656 97.6268C60.6925 99.4495 61.7317 101.867 61.7936 104.432L62.1296 119.506L31.8567 119.829L31.6608 118.486C31.0257 114.252 29.0875 110.415 26.0544 107.391L10.9221 92.3128C7.77559 89.1754 5.78584 85.0341 5.32604 80.65L3.54661 63.8337L4.32601 39.498C4.35282 38.7944 4.62911 38.1607 5.12809 37.6629Z" fill="#EDF900"/>
</g>
<mask id="mask2_501_4142" style="mask-type:luminance" maskUnits="userSpaceOnUse" x="38" y="0" width="78" height="83">
<path d="M38.5125 0.5H115.051V82.049H38.5125V0.5Z" fill="white"/>
</mask>
<g mask="url(#mask2_501_4142)">
<path d="M39.1435 53.8127C38.7929 55.1211 38.9723 56.4871 39.6528 57.6619L43.8756 64.9488C44.556 66.1235 45.6529 66.9629 46.9664 67.3126C47.4035 67.4299 47.8509 67.4875 48.2922 67.4875C49.1747 67.4875 50.0448 67.2571 50.8283 66.8065L56.2965 63.6609C59.5832 66.644 63.472 68.8823 67.6803 70.2093V76.5025C67.6803 79.2984 69.9649 81.5738 72.7712 81.5738H81.2168C84.0251 81.5738 86.3076 79.2984 86.3076 76.5025V70.2093C90.516 68.8823 94.4048 66.644 97.6914 63.6609L103.16 66.8045C103.943 67.2571 104.815 67.4875 105.696 67.4875C106.139 67.4875 106.584 67.4299 107.022 67.3126C108.335 66.9629 109.432 66.1235 110.114 64.9488L114.335 57.6619C115.016 56.4871 115.195 55.1211 114.844 53.8127C114.492 52.5042 113.651 51.4097 112.473 50.7329L107.005 47.5873C107.473 45.4477 107.727 43.2526 107.727 41.0369C107.727 38.8191 107.49 36.6178 107.02 34.4803L112.473 31.3429C113.651 30.664 114.494 29.5716 114.844 28.2611C115.197 26.9527 115.016 25.5866 114.335 24.414L110.112 17.125C108.71 14.7035 105.589 13.8703 103.16 15.2672L97.6935 18.4128C94.413 15.4318 90.5222 13.1935 86.3076 11.8645V5.57328C86.3076 2.77536 84.0251 0.5 81.2168 0.5H72.7712C69.9649 0.5 67.6803 2.77536 67.6803 5.57328V11.8645C63.4658 13.1935 59.577 15.4318 56.2965 18.4128L50.8283 15.2672C48.3973 13.8703 45.2797 14.7015 43.8756 17.125L39.6528 24.4119C38.9723 25.5846 38.7929 26.9527 39.1435 28.2611C39.4961 29.5716 40.3373 30.664 41.5147 31.3429L46.9829 34.4865C46.5127 36.624 46.2612 38.8191 46.2612 41.0369C46.2612 43.2526 46.5127 45.4477 46.9829 47.5852L41.5147 50.7329C40.3373 51.4097 39.4961 52.5042 39.1435 53.8127ZM42.5477 54.722C42.6549 54.3188 42.9147 53.9814 43.2776 53.7736L49.2901 50.3132C49.552 50.163 49.8035 49.9923 50.0386 49.8174C50.0448 49.8133 50.0469 49.8071 50.053 49.803C50.1396 49.7372 50.1953 49.6446 50.2675 49.5644C50.5046 49.301 50.6799 48.9945 50.7273 48.6571C50.7273 48.6509 50.7252 48.6447 50.7273 48.6406C50.7562 48.4205 50.7438 48.1942 50.686 47.9741C50.686 47.97 50.6881 47.9638 50.686 47.9597C50.0881 45.7213 49.7871 43.3904 49.7871 41.0369C49.7871 38.6792 50.0881 36.3463 50.686 34.1059C50.686 34.1038 50.686 34.1038 50.686 34.1017C50.7479 33.861 50.7541 33.6121 50.7129 33.3694C50.6386 32.925 50.3974 32.5259 50.0345 32.2543C49.8015 32.0815 49.5541 31.9128 49.2901 31.7605L43.2776 28.3022C42.9147 28.0924 42.657 27.7571 42.5477 27.3538C42.4405 26.9506 42.4961 26.5309 42.7064 26.1688L46.9272 18.8819C47.3602 18.1372 48.319 17.88 49.0674 18.31L55.082 21.7683C55.3295 21.9123 55.5893 22.0357 55.8449 22.1468C56.0759 22.2517 56.3192 22.3155 56.5687 22.3155C56.8099 22.3155 57.0491 22.2559 57.2739 22.1571C57.4718 22.0728 57.6574 21.9555 57.812 21.8033C61.1606 18.4848 65.3256 16.0881 69.8556 14.8722C69.8639 14.8702 69.868 14.864 69.8763 14.862C69.9814 14.8332 70.0701 14.7673 70.167 14.7179C70.4845 14.5616 70.7588 14.3435 70.9278 14.0493C70.9443 14.0185 70.9464 13.9794 70.9608 13.9485C71.0474 13.7736 71.1175 13.5947 71.1423 13.3992C71.1443 13.393 71.1464 13.3889 71.1485 13.3848C71.1814 13.0947 71.2041 12.7923 71.2041 12.492V5.57328C71.2041 4.71128 71.9072 4.0118 72.7712 4.0118H81.2168C82.0807 4.0118 82.7838 4.71128 82.7838 5.57328V12.4899C82.7838 12.7923 82.8065 13.0947 82.8395 13.3848C82.8395 13.3889 82.8436 13.393 82.8457 13.3992C82.856 13.4815 82.8972 13.5535 82.9179 13.6338C82.957 13.7695 82.9859 13.9074 83.0539 14.0267C83.0911 14.0946 83.1508 14.146 83.1962 14.2077C83.2807 14.3209 83.3632 14.432 83.4704 14.5204C83.5344 14.5739 83.6107 14.6068 83.6828 14.6501C83.8024 14.7221 83.9199 14.7899 84.054 14.8332C84.0828 14.8434 84.1035 14.864 84.1323 14.8722C88.6623 16.0881 92.8274 18.4848 96.1759 21.8033C96.3306 21.9534 96.512 22.0666 96.7059 22.153C96.9347 22.2538 97.1739 22.3135 97.4193 22.3135C97.6688 22.3135 97.9121 22.2497 98.143 22.1448C98.3987 22.0357 98.6585 21.9123 98.908 21.7683L104.921 18.3079C105.669 17.8779 106.628 18.1351 107.061 18.8798L111.284 26.1688C111.494 26.5289 111.55 26.9506 111.44 27.3538C111.331 27.755 111.073 28.0924 110.71 28.3002L104.698 31.7585C104.459 31.8963 104.228 32.0506 104.011 32.209C103.663 32.4477 103.403 32.8077 103.294 33.2356C103.211 33.5669 103.228 33.9042 103.331 34.2128C103.908 36.4203 104.201 38.7163 104.201 41.0369C104.201 43.3904 103.9 45.7193 103.302 47.9597C103.302 47.9638 103.304 47.9679 103.302 47.972C103.244 48.1921 103.232 48.4184 103.261 48.6406C103.263 48.6447 103.259 48.6509 103.261 48.655C103.308 48.9945 103.483 49.299 103.723 49.5644C103.793 49.6446 103.848 49.7351 103.935 49.8009C103.941 49.8051 103.943 49.8133 103.949 49.8174C104.184 49.9923 104.436 50.163 104.698 50.3132L110.71 53.7736C111.073 53.9814 111.331 54.3167 111.44 54.7199C111.55 55.1232 111.492 55.5428 111.284 55.9049L107.061 63.1919C106.853 63.5539 106.512 63.8132 106.108 63.9201C105.704 64.0271 105.283 63.9736 104.921 63.7638L98.9059 60.3055C98.6441 60.1553 98.3719 60.0236 98.1038 59.9084C98.0976 59.9064 98.0935 59.9064 98.0873 59.9043C97.9389 59.8426 97.778 59.8282 97.6193 59.8076C97.0852 59.7438 96.5553 59.9002 96.1759 60.2705C96.1739 60.2746 96.1698 60.2746 96.1677 60.2767C92.813 63.5951 88.652 65.9877 84.1323 67.1995C84.1261 67.2015 84.122 67.2077 84.1138 67.2077C83.9859 67.2447 83.8787 67.3208 83.7632 67.3826C83.4725 67.541 83.221 67.7467 83.0622 68.0224C83.0436 68.0553 83.0416 68.0964 83.0251 68.1294C82.9405 68.3022 82.8704 68.4811 82.8457 68.6725C82.8436 68.6786 82.8395 68.6828 82.8395 68.6869C82.8065 68.977 82.7838 69.2794 82.7838 69.5818V76.5005C82.7838 77.3604 82.0807 78.062 81.2168 78.062H72.7712C71.9072 78.062 71.2041 77.3604 71.2041 76.5005V69.5839C71.2041 69.2814 71.1814 68.979 71.1485 68.6889C71.1464 68.6828 71.1443 68.6786 71.1423 68.6745C71.1196 68.4935 71.0515 68.3289 70.9753 68.1664C70.9546 68.1211 70.9505 68.0656 70.9258 68.0224C70.8165 67.8331 70.6701 67.6665 70.4969 67.5286C70.4928 67.5266 70.4907 67.5204 70.4886 67.5183C70.4165 67.4607 70.3216 67.436 70.2392 67.3908C70.1196 67.325 70.0082 67.2468 69.8742 67.2097C69.868 67.2077 69.8618 67.2036 69.8556 67.2015C65.3359 65.9898 61.1729 63.5951 57.8203 60.2787C57.8182 60.2767 57.8141 60.2767 57.812 60.2746C57.4306 59.8981 56.8924 59.7397 56.3522 59.8117C56.1975 59.8302 56.0429 59.8446 55.8986 59.9064C55.8944 59.9084 55.8882 59.9064 55.8841 59.9084C55.6161 60.0236 55.3418 60.1553 55.08 60.3055L49.0674 63.7658C48.7066 63.9736 48.2839 64.0312 47.8798 63.9201C47.4736 63.8132 47.1375 63.5539 46.9272 63.1939L42.7044 55.9049C42.4941 55.5428 42.4384 55.1232 42.5477 54.722Z" fill="#EDF900"/>
</g>
<ellipse cx="76.8022" cy="42.37" rx="19.7944" ry="19.75" fill="#EDF900"/>
</svg>
